<svg width="10" height="8" viewBox="0 0 10 8" fill="none" xmlns="http://www.w3.org/2000/svg">
<path d="M1.91148 4.19806C2.12285 4.09493 2.28138 3.99181 2.4399 3.83712C2.54558 3.68243 2.65127 3.52774 2.75695 3.37305C2.8098 3.1668 2.86264 2.96055 2.86264 2.75429H7.88259C8.19966 2.75429 8.46385 2.65117 8.67521 2.49648C8.83375 2.29023 8.93946 2.03241 8.93946 1.67147V0.43396H8.25249V1.61991C8.25249 1.87772 8.09395 2.03241 7.82976 2.03241H2.86264V1.7746C2.86264 1.51679 2.8098 1.3621 2.75695 1.15584C2.75695 1.00115 2.65127 0.846464 2.54558 0.743338C2.4399 0.640212 2.33422 0.588649 2.22853 0.537086C2.07001 0.485523 1.91148 0.43396 1.8058 0.43396C1.59443 0.43396 1.43591 0.485523 1.27738 0.537086C1.1717 0.640212 1.01317 0.691775 0.96033 0.846464C0.854648 0.949593 0.748965 1.05272 0.748965 1.20741C0.696123 1.3621 0.643281 1.51679 0.643281 1.67147C0.643281 1.82616 0.643281 1.98085 0.696123 2.13554C0.748965 2.29023 0.801805 2.39336 0.854648 2.49648C0.96033 2.54805 1.06602 2.65117 1.22454 2.70274C1.38307 2.75429 1.54159 2.75429 1.8058 2.75429H2.22853C2.22853 2.85742 2.17569 2.96055 2.17569 3.06367C2.12285 3.1668 2.01717 3.26993 1.96433 3.37305C1.91148 3.42462 1.8058 3.47618 1.64728 3.52774C1.54159 3.57931 1.38307 3.63087 1.22454 3.63087H0.537598V4.35275H1.22454C1.48875 4.30119 1.70012 4.24962 1.91148 4.19806ZM1.8058 2.03241C1.59443 2.03241 1.48875 2.03241 1.38307 1.92929C1.33022 1.87772 1.27738 1.7746 1.27738 1.61991C1.27738 1.46522 1.33022 1.31053 1.38307 1.25897C1.48875 1.20741 1.59443 1.15584 1.75296 1.15584C1.91148 1.15584 2.01717 1.20741 2.12285 1.31053C2.22853 1.41366 2.22853 1.56835 2.22853 1.7746V2.08398H1.8058V2.03241Z" fill="black"/>
<path d="M7.35613 0.43396H5.34814V1.05272H7.35613V0.43396Z" fill="black"/>
<path d="M8.8853 5.79413C8.83242 5.63946 8.77959 5.5363 8.67394 5.4332C8.56823 5.33007 8.46257 5.22694 8.30404 5.17538C8.19833 5.12382 8.03979 5.07225 7.88131 5.07225C7.72277 5.07225 7.56424 5.12382 7.4057 5.17538C7.24717 5.22694 7.14151 5.33007 7.0358 5.4332C6.93015 5.5363 6.87732 5.63946 6.82444 5.79413C6.77161 5.94884 6.77161 6.10351 6.77161 6.25822V6.41289C6.77161 6.5676 6.71878 6.61916 6.66595 6.72226C6.56025 6.77382 6.45454 6.82537 6.29606 6.82537H6.08469C5.97898 6.82537 5.87333 6.77382 5.82045 6.72226C5.76762 6.61916 5.71479 6.516 5.71479 6.41289V3.93787H5.02783V6.516C5.02783 6.72226 5.02783 6.87698 5.08068 6.98009C5.13352 7.0832 5.18636 7.18636 5.29204 7.28947C5.39772 7.34102 5.45055 7.44413 5.60908 7.44413C5.71479 7.49574 5.82045 7.49574 5.97898 7.49574H6.34888C6.45454 7.49574 6.61308 7.44413 6.71878 7.39258C6.82444 7.34102 6.98297 7.23791 7.0358 7.0832C7.14151 7.23791 7.24717 7.34102 7.4057 7.39258C7.56424 7.44413 7.72277 7.49574 7.93414 7.49574C8.25121 7.49574 8.56823 7.39258 8.72676 7.18636C8.93813 6.98009 9.04384 6.67071 9.04384 6.30978C8.99096 6.10351 8.93813 5.94884 8.8853 5.79413ZM7.88131 6.77382C7.72277 6.77382 7.61707 6.72226 7.56424 6.67071C7.4057 6.5676 7.4057 6.46444 7.4057 6.30978C7.4057 6.15506 7.45858 6.05195 7.51141 5.94884C7.56424 5.84568 7.72277 5.79413 7.88131 5.79413C8.03979 5.79413 8.19833 5.84568 8.25121 5.94884C8.30404 6.05195 8.35686 6.15506 8.35686 6.30978C8.30404 6.61916 8.1455 6.77382 7.88131 6.77382Z" fill="black"/>
<path d="M3.65527 5.79687C3.65527 5.95158 3.65527 6.05469 3.60242 6.20936C3.54958 6.31252 3.49674 6.41563 3.4439 6.51874C3.33822 6.6219 3.23253 6.67345 3.12685 6.72501C3.02117 6.77656 2.86264 6.82812 2.65127 6.82812H2.17569C2.01717 6.82812 1.85864 6.82812 1.70012 6.77656C1.59443 6.67345 1.48875 6.6219 1.43591 6.51874C1.38307 6.41563 1.27738 6.31252 1.27738 6.20936C1.22454 6.10625 1.22454 5.95158 1.22454 5.79687V5.22968H0.537598V5.84842C0.537598 6.36407 0.696123 6.77656 0.96033 7.08594C1.22454 7.39532 1.59443 7.55003 2.12285 7.55003H2.65127C2.91548 7.55003 3.12685 7.49848 3.33822 7.39532C3.54958 7.29221 3.70811 7.1891 3.86663 7.03438C4.02516 6.87972 4.13084 6.67345 4.18368 6.46718C4.23652 6.26096 4.28937 6.05469 4.28937 5.79687V3.9406L3.60242 3.88904L3.65527 5.79687Z" fill="black"/>
<path d="M2.8622 5.07458H2.06982V5.79622H2.8622V5.07458Z" fill="black"/>
</svg>
