<svg width="18" height="18" viewBox="0 0 18 18" fill="none" xmlns="http://www.w3.org/2000/svg">
<path opacity="0.5" fill-rule="evenodd" clip-rule="evenodd" d="M14.0779 2.6915L14.1956 2.81096L14.3172 2.68242C14.5236 2.46223 14.811 2.33597 15.1128 2.33294C15.4146 2.32991 15.7045 2.45037 15.9152 2.66638L15.94 2.69148C16.3873 3.1512 16.3873 3.88352 15.94 4.34324L14.7237 5.57819C14.5844 5.7197 14.3942 5.7994 14.1956 5.7994C13.997 5.7994 13.8067 5.7197 13.6674 5.57819L12.4512 4.34326C12.0039 3.88355 12.0039 3.15122 12.4512 2.6915V2.6915C12.6658 2.47357 12.9588 2.35084 13.2646 2.35084C13.5704 2.35084 13.8634 2.47357 14.0779 2.6915Z" stroke="white" stroke-width="1.03995" stroke-linecap="round" stroke-linejoin="round"/>
<path d="M10.3095 2.82791C7.59055 2.2372 4.80834 3.51383 3.48301 5.96026C2.15768 8.40669 2.60799 11.4345 4.58792 13.3894C6.56784 15.3442 9.60115 15.7559 12.0305 14.3995C14.4598 13.0431 15.7009 10.2449 15.0756 7.53367" stroke="white" stroke-width="1.03995" stroke-linecap="round" stroke-linejoin="round"/>
<path d="M7.67844 7.70435V11.6564" stroke="white" stroke-width="1.03995" stroke-linecap="round" stroke-linejoin="round"/>
<path fill-rule="evenodd" clip-rule="evenodd" d="M11.0078 11.6927C11.4959 11.6927 11.9184 11.3531 12.0234 10.8764L12.4376 8.99464C12.5053 8.68694 12.4299 8.36514 12.2325 8.11957C12.0351 7.87401 11.737 7.73117 11.422 7.73116H10.3246V6.25242C10.3246 5.98976 10.1762 5.74966 9.9412 5.63225L9.76579 5.54461C9.34294 5.33335 8.82879 5.49991 8.61013 5.91899L7.67852 7.70483H6.22261C5.93544 7.70483 5.70264 7.93763 5.70264 8.2248V11.1728C5.70264 11.4599 5.93544 11.6927 6.22261 11.6927H11.0078Z" stroke="white" stroke-width="1.03995" stroke-linecap="round" stroke-linejoin="round"/>
</svg>
