<?xml version="1.0" encoding="utf-8"?>
<!-- Generator: Adobe Illustrator 26.5.0, SVG Export Plug-In . SVG Version: 6.00 Build 0)  -->
<svg version="1.1" id="Layer_1" xmlns="http://www.w3.org/2000/svg" xmlns:xlink="http://www.w3.org/1999/xlink" x="0px" y="0px"
	 viewBox="0 0 25 22.7" style="enable-background:new 0 0 25 22.7;" xml:space="preserve">
<style type="text/css">
	.st0{display:none;fill:#888888;}
	.st1{fill:#EA8A2A;}
	.st2{fill:none;}
	
		.st3{opacity:0.5;fill:none;stroke:#FFFFFF;stroke-width:1.04;stroke-linecap:round;stroke-linejoin:round;enable-background:new    ;}
	.st4{fill:none;stroke:#FFFFFF;stroke-width:1.04;stroke-linecap:round;stroke-linejoin:round;}
</style>
<rect class="st0" width="25" height="22.7"/>
<path class="st1" d="M15,13.7c0,3.3-2.6,5.9-5.9,5.9S3.1,17,3.1,13.7S5.7,7.8,9,7.8C12.4,7.6,15,10.4,15,13.7z"/>
<path class="st2" d="M-4,19.4c-3.2,0-6-2.7-6-6c0-3.2,2.7-6,6-6c3.2,0,6,2.7,6,6C1.8,16.8-0.8,19.4-4,19.4z"/>
<path class="st3" d="M20.1,3.3l0.1,0.1l0.1-0.1C20.5,3.1,20.8,3,21.1,3s0.6,0.1,0.8,0.3l0,0c0.4,0.5,0.4,1.2,0,1.7l-1.2,1.2
	c-0.1,0.1-0.3,0.2-0.5,0.2s-0.4-0.1-0.5-0.2L18.5,5c-0.4-0.5-0.4-1.2,0-1.7l0,0C18.7,3.1,19,3,19.3,3C19.6,2.9,19.9,3,20.1,3.3z"/>
<path class="st4" d="M16.3,3.4c-2.7-0.6-5.5,0.7-6.8,3.1C8.1,9,8.6,12,10.6,14s5,2.4,7.4,1s3.7-4.2,3-6.9"/>
<path class="st4" d="M13.7,8.3v4"/>
<path class="st4" d="M17,12.3c0.5,0,0.9-0.3,1-0.8l0.4-1.9c0.1-0.3,0-0.6-0.2-0.9c-0.2-0.2-0.5-0.4-0.8-0.4h-1.1V6.8
	c0-0.3-0.1-0.5-0.4-0.6l-0.2-0.1c-0.4-0.2-0.9,0-1.2,0.4l-0.9,1.8h-1.5c-0.3,0-0.5,0.2-0.5,0.5v2.9c0,0.3,0.2,0.5,0.5,0.5L17,12.3
	L17,12.3z"/>
</svg>
