<?xml version="1.0" encoding="utf-8"?>
<!-- Generator: Adobe Illustrator 26.5.0, SVG Export Plug-In . SVG Version: 6.00 Build 0)  -->
<svg version="1.1" id="Layer_1" xmlns="http://www.w3.org/2000/svg" xmlns:xlink="http://www.w3.org/1999/xlink" x="0px" y="0px"
	 viewBox="0 0 21.8 18.8" style="enable-background:new 0 0 21.8 18.8;" xml:space="preserve">
<style type="text/css">
	.st0{fill:#EA8A2A;}
	.st1{fill:none;}
	
		.st2{opacity:0.5;fill:none;stroke:#FFFFFF;stroke-width:1.04;stroke-linecap:round;stroke-linejoin:round;enable-background:new    ;}
	.st3{fill:none;stroke:#FFFFFF;stroke-width:1.04;stroke-linecap:round;stroke-linejoin:round;}
</style>
<g>
	<g>
		<path class="st0" d="M10.3,13.2c0,2.4-1.9,4.3-4.3,4.3c-2.4,0-4.3-1.9-4.3-4.3c0-2.4,1.9-4.3,4.3-4.3C8.4,8.8,10.3,10.8,10.3,13.2
			z"/>
		<path class="st1" d="M6,17.4c-2.3,0-4.3-1.9-4.3-4.3c0-2.3,1.9-4.3,4.3-4.3c2.3,0,4.3,1.9,4.3,4.3C10.2,15.5,8.3,17.4,6,17.4z"/>
	</g>
	<path class="st2" d="M18.5,1.9L18.6,2l0.1-0.1c0.2-0.2,0.5-0.3,0.8-0.3c0.3,0,0.6,0.1,0.8,0.3l0,0c0.4,0.5,0.4,1.2,0,1.7l-1.2,1.2
		C19,4.9,18.8,5,18.6,5c-0.2,0-0.4-0.1-0.5-0.2l-1.2-1.2c-0.4-0.5-0.4-1.2,0-1.7l0,0c0.2-0.2,0.5-0.3,0.8-0.3
		C18,1.5,18.3,1.6,18.5,1.9z"/>
	<path class="st3" d="M14.7,2C12,1.4,9.2,2.7,7.9,5.1C6.5,7.6,7,10.6,9,12.6c2,2,5,2.4,7.4,1c2.4-1.4,3.7-4.2,3-6.9"/>
	<path class="st3" d="M12.1,6.9v4"/>
	<path class="st3" d="M15.4,10.9c0.5,0,0.9-0.3,1-0.8l0.4-1.9c0.1-0.3,0-0.6-0.2-0.9c-0.2-0.2-0.5-0.4-0.8-0.4h-1.1V5.4
		c0-0.3-0.1-0.5-0.4-0.6l-0.2-0.1c-0.4-0.2-0.9,0-1.2,0.4l-0.9,1.8h-1.5c-0.3,0-0.5,0.2-0.5,0.5v2.9c0,0.3,0.2,0.5,0.5,0.5H15.4z"/>
</g>
</svg>
