<svg width="31" height="31" viewBox="0 0 31 31" fill="none" xmlns="http://www.w3.org/2000/svg">
<path d="M21.9611 11.6213V9.03687H19.3767" stroke="#323232" stroke-width="1.9375" stroke-linecap="round" stroke-linejoin="round"/>
<path d="M12.9158 11.9908L14.5775 10.3291L18.0846 12.9135L21.9612 9.03687" stroke="#323232" stroke-width="1.9375" stroke-linecap="round" stroke-linejoin="round"/>
<path d="M18.0845 17.4379L21.9611 17.4381" stroke="#323232" stroke-width="1.9375" stroke-linecap="round" stroke-linejoin="round"/>
<path d="M18.0845 21.3129L21.9611 21.3131" stroke="#323232" stroke-width="1.9375" stroke-linecap="round" stroke-linejoin="round"/>
<path d="M3.87012 17.5664V26.3534C3.87159 27.495 6.18428 28.4209 9.03894 28.4209C11.8936 28.4209 14.2063 27.495 14.2078 26.3534V17.5664" stroke="#323232" stroke-width="1.9375" stroke-linecap="round" stroke-linejoin="round"/>
<path d="M14.2063 17.5678C14.2063 18.7093 11.8921 19.6353 9.03746 19.6353C6.1828 19.6353 3.87012 18.7093 3.87012 17.5678C3.87012 16.4247 6.18575 15.5002 9.03894 15.5002C11.8921 15.5002 14.2063 16.4262 14.2078 17.5678" stroke="#323232" stroke-width="1.9375" stroke-linecap="round" stroke-linejoin="round"/>
<path d="M3.87109 21.9611C3.87109 23.1027 6.18378 24.0286 9.03844 24.0286C11.8931 24.0286 14.2073 23.1027 14.2073 21.9611" stroke="#323232" stroke-width="1.9375" stroke-linecap="round" stroke-linejoin="round"/>
<path d="M6.45459 11.6234V6.45462C6.45459 5.02729 7.61167 3.87021 9.039 3.87021H24.5455C25.9728 3.87021 27.1299 5.02729 27.1299 6.45462V23.2533C27.1299 24.6806 25.9728 25.8377 24.5455 25.8377H18.0844" stroke="#323232" stroke-width="1.9375" stroke-linecap="round" stroke-linejoin="round"/>
</svg>
