<?xml version="1.0" encoding="utf-8"?>
<!-- Generator: Adobe Illustrator 26.5.0, SVG Export Plug-In . SVG Version: 6.00 Build 0)  -->
<svg version="1.1" id="Layer_1" xmlns="http://www.w3.org/2000/svg" xmlns:xlink="http://www.w3.org/1999/xlink" x="0px" y="0px"
	 viewBox="0 0 24.1 23.3" style="enable-background:new 0 0 24.1 23.3;" xml:space="preserve">
<style type="text/css">
	.st0{display:none;fill:#888888;}
	.st1{fill:#EA8A2A;}
	
		.st2{opacity:0.5;fill:none;stroke:#FFFFFF;stroke-width:1.04;stroke-linecap:round;stroke-linejoin:round;enable-background:new    ;}
	.st3{fill:none;stroke:#FFFFFF;stroke-width:1.04;stroke-linecap:round;stroke-linejoin:round;}
</style>
<rect class="st0" width="24.1" height="23.3"/>
<path class="st1" d="M14.5,15c0,3.2-2.6,5.8-5.8,5.8S2.8,18.2,2.8,15s2.6-5.8,5.8-5.8C11.8,9.2,14.5,11.8,14.5,15z"/>
<circle class="st2" cx="19.8" cy="4.7" r="1.7"/>
<path class="st3" d="M17.4,8.5L15.5,11l-2.3-1.8L11.1,12"/>
<path class="st3" d="M20.8,8.5v4.9c0,1.5-1.2,2.8-2.8,2.8h-6.9c-1.5,0-2.8-1.2-2.8-2.8v-7c0-1.5,1.2-2.8,2.8-2.8H16"/>
</svg>
