<svg width="80" height="80" viewBox="0 0 80 80" fill="none" xmlns="http://www.w3.org/2000/svg">
<g filter="url(#filter0_d_135_2426)">
<path d="M55.2527 39.9202C55.2527 48.3439 48.4239 55.1727 40.0001 55.1727C31.5764 55.1727 24.7476 48.3439 24.7476 39.9202C24.7476 31.4964 31.5764 24.6676 40.0001 24.6676C48.4239 24.6676 55.2527 31.4964 55.2527 39.9202Z" fill="#EA8A2A"/>
<path d="M39.9998 54.9286C31.7109 54.9284 24.9919 48.2087 24.9919 39.9198C24.9921 31.6311 31.711 24.9122 39.9998 24.912C48.2887 24.912 55.0083 31.6309 55.0085 39.9198C55.0085 48.2088 48.2888 54.9286 39.9998 54.9286Z" stroke="#3B476D" stroke-width="0.487876"/>
<circle opacity="0.5" cx="45.2022" cy="34.7166" r="1.73397" stroke="white" stroke-width="1.03995" stroke-linecap="round" stroke-linejoin="round"/>
<path d="M42.7748 38.5327L40.8889 41.047L38.6132 39.2263L36.5325 42.0006" stroke="white" stroke-width="1.03995" stroke-linecap="round" stroke-linejoin="round"/>
<path d="M46.2426 38.5333V43.3884C46.2426 44.9207 45.0005 46.1628 43.4683 46.1628H36.5324C35.0002 46.1628 33.7581 44.9207 33.7581 43.3884V36.4526C33.7581 34.9203 35.0002 33.6782 36.5324 33.6782H41.3875" stroke="white" stroke-width="1.03995" stroke-linecap="round" stroke-linejoin="round"/>
</g>
<defs>
<filter id="filter0_d_135_2426" x="0.353745" y="0.273788" width="79.2928" height="79.2928" filterUnits="userSpaceOnUse" color-interpolation-filters="sRGB">
<feFlood flood-opacity="0" result="BackgroundImageFix"/>
<feColorMatrix in="SourceAlpha" type="matrix" values="0 0 0 0 0 0 0 0 0 0 0 0 0 0 0 0 0 0 127 0" result="hardAlpha"/>
<feOffset/>
<feGaussianBlur stdDeviation="12.1969"/>
<feColorMatrix type="matrix" values="0 0 0 0 1 0 0 0 0 1 0 0 0 0 1 0 0 0 0.12 0"/>
<feBlend mode="normal" in2="BackgroundImageFix" result="effect1_dropShadow_135_2426"/>
<feBlend mode="normal" in="SourceGraphic" in2="effect1_dropShadow_135_2426" result="shape"/>
</filter>
</defs>
</svg>
