<svg width="38" height="37" viewBox="0 0 38 37" fill="none" xmlns="http://www.w3.org/2000/svg">
<circle cx="9" cy="21.4186" r="9" fill="#EA8A2A"/>
<path d="M28.9609 13.7966V10.8215H26.3765" stroke="#E5E5E5" stroke-width="1.9375" stroke-linecap="round" stroke-linejoin="round"/>
<path d="M19.9155 14.222L21.5773 12.3091L25.0843 15.2841L28.961 10.8215" stroke="#E5E5E5" stroke-width="1.9375" stroke-linecap="round" stroke-linejoin="round"/>
<path d="M25.0845 20.4925L28.9611 20.4926" stroke="#E5E5E5" stroke-width="1.9375" stroke-linecap="round" stroke-linejoin="round"/>
<path d="M25.0845 24.9533L28.9611 24.9534" stroke="#E5E5E5" stroke-width="1.9375" stroke-linecap="round" stroke-linejoin="round"/>
<path d="M10.8701 20.6404V30.7556C10.8716 32.0698 13.1843 33.1357 16.0389 33.1357C18.8936 33.1357 21.2063 32.0698 21.2078 30.7556V20.6404" stroke="#E5E5E5" stroke-width="1.9375" stroke-linecap="round" stroke-linejoin="round"/>
<path d="M21.2063 20.6419C21.2063 21.956 18.8921 23.022 16.0375 23.022C13.1828 23.022 10.8701 21.956 10.8701 20.6419C10.8701 19.3261 13.1857 18.2618 16.0389 18.2618C18.8921 18.2618 21.2063 19.3278 21.2078 20.6419" stroke="#E5E5E5" stroke-width="1.9375" stroke-linecap="round" stroke-linejoin="round"/>
<path d="M10.8711 25.6993C10.8711 27.0135 13.1838 28.0794 16.0384 28.0794C18.8931 28.0794 21.2073 27.0135 21.2073 25.6993" stroke="#E5E5E5" stroke-width="1.9375" stroke-linecap="round" stroke-linejoin="round"/>
<path d="M13.4546 13.799V7.84886C13.4546 6.20577 14.6117 4.87378 16.039 4.87378H31.5455C32.9728 4.87378 34.1299 6.20577 34.1299 7.84886V27.1869C34.1299 28.8299 32.9728 30.1619 31.5455 30.1619H25.0844" stroke="#E5E5E5" stroke-width="1.9375" stroke-linecap="round" stroke-linejoin="round"/>
</svg>
