<svg width="36" height="37" viewBox="0 0 36 37" fill="none" xmlns="http://www.w3.org/2000/svg">
<circle cx="27" cy="25.4186" r="9" fill="#EA8A2A"/>
<path fill-rule="evenodd" clip-rule="evenodd" d="M7.75 31.6439H5.16667C4.45367 31.6439 3.875 30.9777 3.875 30.157V21.2355C3.875 20.4147 4.45367 19.7485 5.16667 19.7485H7.75C8.463 19.7485 9.04167 20.4147 9.04167 21.2355V30.157C9.04167 30.9777 8.463 31.6439 7.75 31.6439Z" stroke="#E5E5E5" stroke-width="1.5" stroke-linecap="round" stroke-linejoin="round"/>
<path d="M16.7915 25.6962H19.805C20.3643 25.6962 20.908 25.488 21.355 25.1014L24.4756 22.4071C25.2545 21.7351 26.3447 21.8243 27.0331 22.6168V22.6168C27.7978 23.4971 27.7978 24.923 27.0331 25.8018L24.3555 28.8842C23.6348 29.7139 22.7151 30.2804 21.7153 30.5109L17.9308 31.3822C17.1803 31.5547 16.4066 31.5339 15.6639 31.3197L12.241 30.3354C11.8315 30.2164 11.4117 30.157 10.9893 30.157H9.0415" stroke="#E5E5E5" stroke-width="1.5" stroke-linecap="round" stroke-linejoin="round"/>
<path d="M16.7915 25.6962H18.7096C19.7908 25.6962 20.6665 24.6881 20.6665 23.4435V22.993C20.6665 21.9596 20.0555 21.0585 19.185 20.8087L16.2245 19.9567C15.7427 19.8184 15.2493 19.7485 14.7533 19.7485V19.7485C13.5559 19.7485 12.3843 20.156 11.3885 20.9217L9.0415 22.7224" stroke="#E5E5E5" stroke-width="1.5" stroke-linecap="round" stroke-linejoin="round"/>
<path d="M22.1763 8.084C23.6079 9.73196 23.6079 12.4038 22.1763 14.0518C20.7447 15.6998 18.4237 15.6998 16.9921 14.0518C15.5606 12.4038 15.5606 9.73196 16.9921 8.084C18.4237 6.43603 20.7447 6.43603 22.1763 8.084" stroke="#E5E5E5" stroke-width="1.5" stroke-linecap="round" stroke-linejoin="round"/>
<path d="M18.8984 6.92389C18.7782 6.08378 18.445 5.27638 17.8818 4.62809C16.4507 2.98058 14.1295 2.98058 12.6984 4.62809C11.2672 6.27559 11.2672 8.94758 12.6984 10.5951C13.5896 11.6211 14.8245 12.0062 15.9753 11.7549" stroke="#E5E5E5" stroke-width="1.5" stroke-linecap="round" stroke-linejoin="round"/>
</svg>
