<svg width="194" height="193" viewBox="0 0 194 193" fill="none" xmlns="http://www.w3.org/2000/svg">
<path d="M127.445 52.8703C127.291 52.8261 127.116 52.8543 126.953 52.9693L126.064 53.5878C125.901 53.7008 125.725 53.729 125.572 53.6847L130.849 55.1921C131.002 55.2367 131.177 55.2065 131.341 55.0955L132.229 54.4766C132.393 54.364 132.568 54.3354 132.721 54.3781L127.445 52.8703Z" fill="#1C2121" stroke="#1C2121" stroke-width="0.12065" stroke-miterlimit="10"/>
<path d="M141.262 25.6142L140.891 24.5762C140.816 24.3685 140.674 24.2335 140.504 24.1851L135.228 22.6775C135.397 22.7259 135.54 22.8609 135.614 23.0685L135.985 24.1065C136.06 24.3121 136.201 24.4471 136.37 24.4955L141.647 26.0031C141.48 25.9548 141.336 25.8197 141.262 25.6142Z" fill="white" stroke="#1C2121" stroke-width="0.12065" stroke-miterlimit="10"/>
<path d="M131.354 56.3509C131.2 56.3067 131.025 56.3349 130.862 56.4499L129.973 57.0684C129.81 57.1814 129.634 57.2116 129.479 57.1673L134.755 58.6751C134.911 58.7193 135.086 58.6891 135.249 58.5761L136.138 57.9576C136.301 57.8446 136.477 57.8164 136.63 57.8587L131.354 56.3509Z" fill="#1C2121" stroke="#1C2121" stroke-width="0.12065" stroke-miterlimit="10"/>
<path d="M146.405 25.1381L146.034 24.1002C145.959 23.8926 145.817 23.7595 145.649 23.7111L140.373 22.2035C140.54 22.2519 140.683 22.3869 140.757 22.5925L141.128 23.6305C141.203 23.8361 141.344 23.9711 141.514 24.0195L146.79 25.5272C146.623 25.4788 146.479 25.3437 146.405 25.1381Z" fill="white" stroke="#1C2121" stroke-width="0.12065" stroke-miterlimit="10"/>
<path d="M136.497 55.8751C136.342 55.8309 136.167 55.861 136.003 55.974L132.986 58.0701C132.823 58.1831 132.647 58.2113 132.494 58.1691L137.771 59.6764C137.924 59.721 138.1 59.6929 138.263 59.5779L141.28 57.4818C141.443 57.3688 141.621 57.3386 141.774 57.3828L136.497 55.8751Z" fill="#1C2121" stroke="#1C2121" stroke-width="0.12065" stroke-miterlimit="10"/>
<path d="M149.054 25.1038C148.979 24.8962 148.836 24.7612 148.669 24.7128L143.392 23.2052C143.559 23.2536 143.703 23.3886 143.777 23.5962L145.037 27.1133C145.111 27.3209 145.255 27.454 145.422 27.5024L150.698 29.01C150.531 28.9616 150.388 28.8266 150.313 28.621L149.054 25.1038Z" fill="white" stroke="#1C2121" stroke-width="0.12065" stroke-miterlimit="10"/>
<path d="M146.804 26.7849C147.144 26.5491 147.539 26.6801 147.681 27.0772L150.72 35.5546C150.863 35.9536 150.7 36.4716 150.361 36.7075L149.473 37.3262C149.132 37.562 148.971 38.08 149.111 38.4771L150.371 41.9942C150.515 42.3933 150.351 42.9113 150.011 43.1491L149.122 43.7659C148.779 44.0037 148.618 44.5217 148.759 44.9188L149.13 45.9568C149.271 46.3538 149.109 46.8718 148.769 47.1077L145.752 49.204C145.409 49.4416 145.248 49.9596 145.389 50.3566L145.76 51.3946C145.901 51.7919 145.74 52.3099 145.399 52.5456L138.127 57.5984C137.786 57.8345 137.391 57.7034 137.25 57.3064L136.879 56.2684C136.738 55.8711 136.343 55.7404 136 55.9781L132.983 58.0742C132.643 58.3102 132.247 58.1791 132.107 57.7822L131.735 56.7442C131.595 56.3469 131.199 56.2157 130.859 56.4518L129.97 57.0704C129.627 57.3084 129.232 57.1773 129.091 56.7784L127.832 53.261C127.69 52.8641 127.294 52.733 126.955 52.9691L126.066 53.5876C125.725 53.8237 125.33 53.6926 125.187 53.2932L122.148 44.816C122.007 44.4189 122.168 43.901 122.509 43.6651L123.397 43.0463C123.738 42.8105 123.899 42.2925 123.758 41.8955L122.498 38.3784C122.355 37.9793 122.519 37.4613 122.859 37.2234L123.748 36.6047C124.089 36.3688 124.25 35.8509 124.109 35.4538L123.738 34.4158C123.597 34.0187 123.758 33.5007 124.099 33.2649L127.116 31.1687C127.459 30.9309 127.62 30.4129 127.479 30.0159L127.108 28.9778C126.965 28.5787 127.128 28.0608 127.467 27.8249L134.739 22.772C135.079 22.5361 135.474 22.6672 135.618 23.0662L135.988 24.1042C136.13 24.5013 136.524 24.6323 136.867 24.3945L139.885 22.2983C140.225 22.0625 140.62 22.1935 140.761 22.5906L141.132 23.6286C141.273 24.0257 141.668 24.1566 142.011 23.9188L142.9 23.3021C143.242 23.0642 143.638 23.1952 143.778 23.5943L145.038 27.1114C145.18 27.5085 145.576 27.6395 145.915 27.4037L146.804 26.7849Z" fill="white" stroke="#1C2121" stroke-width="0.12065" stroke-miterlimit="10"/>
<path d="M145.403 52.5397L138.131 57.5925C137.967 57.7055 137.792 57.7337 137.639 57.6914L142.916 59.1992C143.071 59.2434 143.244 59.2152 143.408 59.1002L150.68 54.0474L145.403 52.5397Z" fill="#1C2121" stroke="#1C2121" stroke-width="0.12065" stroke-miterlimit="10"/>
<path d="M145.391 50.3525L145.762 51.3905C145.903 51.7879 145.742 52.3059 145.401 52.5415L150.678 54.0493C151.018 53.8136 151.18 53.2952 151.039 52.8983L150.668 51.8603L145.391 50.3525Z" fill="white" stroke="#1C2121" stroke-width="0.12065" stroke-miterlimit="10"/>
<path d="M150.359 36.7076L149.47 37.3264C149.13 37.5622 148.969 38.0802 149.11 38.4773L154.386 39.9849C154.245 39.5878 154.406 39.0699 154.747 38.8341L155.636 38.2153L150.359 36.7076Z" fill="#1C2121" stroke="#1C2121" stroke-width="0.12065" stroke-miterlimit="10"/>
<path d="M152.958 28.5849C152.883 28.3773 152.74 28.2442 152.573 28.1958L147.296 26.6882C147.463 26.7366 147.606 26.8716 147.681 27.0772L150.72 35.5546C150.864 35.9537 150.7 36.4717 150.362 36.7075L155.638 38.2151C155.979 37.9793 156.14 37.4613 155.997 37.0622L152.958 28.5849Z" fill="white" stroke="#1C2121" stroke-width="0.12065" stroke-miterlimit="10"/>
<path d="M148.772 47.1036L145.754 49.2C145.412 49.4377 145.251 49.9556 145.391 50.3526L150.668 51.8603C150.527 51.4634 150.688 50.9454 151.031 50.7073L154.049 48.6112L148.772 47.1036Z" fill="#1C2121" stroke="#1C2121" stroke-width="0.12065" stroke-miterlimit="10"/>
<path d="M150.009 43.1472L149.12 43.7639C148.778 44.0018 148.616 44.5198 148.758 44.9168L154.034 46.4245C153.893 46.0274 154.054 45.5094 154.397 45.2716L155.286 44.6548L150.009 43.1472Z" fill="#1C2121" stroke="#1C2121" stroke-width="0.12065" stroke-miterlimit="10"/>
<path d="M148.759 44.917L149.13 45.955C149.271 46.352 149.11 46.87 148.769 47.1059L154.046 48.6134C154.387 48.3777 154.548 47.8597 154.407 47.4626L154.036 46.4246L148.759 44.917Z" fill="white" stroke="#1C2121" stroke-width="0.12065" stroke-miterlimit="10"/>
<path d="M149.111 38.4752L150.37 41.9924C150.513 42.3914 150.35 42.9094 150.009 43.1473L155.286 44.6549C155.629 44.417 155.79 43.899 155.647 43.5L154.387 39.9829L149.111 38.4752Z" fill="white" stroke="#1C2121" stroke-width="0.12065" stroke-miterlimit="10"/>
<path d="M11.9985 145.057L13.8246 144.15C14.6086 143.761 15.558 143.801 15.9329 144.239L16.8076 145.261C17.6642 146.261 19.4419 145.946 20.756 144.561L22.0984 143.147C22.6749 142.54 23.7068 142.149 24.3921 142.278L25.9864 142.578C27.5464 142.872 29.2254 141.879 29.7152 140.367L30.215 138.825C30.4307 138.162 31.2691 137.444 32.0774 137.231L33.9619 136.731C35.8082 136.241 36.9389 134.834 36.4713 133.603L35.9956 132.345C35.79 131.805 36.2113 130.952 36.9288 130.453L38.6017 129.286C39.8513 128.415 40.3089 127.367 39.8796 126.643C39.7465 126.417 39.5268 126.224 39.2185 126.077L37.8922 125.442C37.3238 125.17 37.213 124.412 37.6463 123.759L38.6582 122.237C39.154 121.492 39.2386 120.846 38.9786 120.407L41.0184 123.847C41.2784 124.287 41.1937 124.934 40.6979 125.678L39.9622 126.784L41.9193 130.084C42.3486 130.807 41.8911 131.855 40.6414 132.726L38.9685 133.893C38.251 134.395 37.8298 135.246 38.0354 135.786L38.511 137.043C38.9766 138.275 37.8479 139.684 36.0016 140.171L34.1171 140.671C33.3069 140.885 32.4684 141.605 32.2548 142.265L31.7549 143.807C31.2651 145.319 29.5862 146.313 28.0261 146.018L26.4318 145.718C25.7465 145.589 24.7166 145.98 24.1382 146.587L22.7958 148.002C21.4797 149.387 19.7039 149.703 18.8474 148.701L17.9726 147.679C17.5977 147.24 16.6484 147.2 15.8643 147.591L14.0383 148.498C12.6737 149.175 11.535 149.074 11.1077 148.351L9.27148 145.255L9.31584 145.198C9.85398 145.646 10.8436 145.632 11.9985 145.057Z" fill="white" stroke="#0F3DFB" stroke-width="0.12065" stroke-linecap="round" stroke-linejoin="round"/>
<path d="M7.82631 145.166C6.93547 145.243 6.32675 145.009 6.06675 144.568L4.14795 141.288C4.4523 141.623 5.01262 141.792 5.78659 141.725L7.60664 141.568C8.38866 141.502 8.99939 141.962 8.96512 142.592L8.8865 144.06C8.86836 144.4 8.93287 144.687 9.06587 144.912C9.13238 145.023 9.21704 145.118 9.3138 145.2L9.26944 145.257L9.14851 145.053L7.8243 145.168L7.82631 145.166Z" fill="#0F3DFB"/>
<path d="M15.9335 144.239L16.8082 145.261C17.0441 145.537 17.3504 145.708 17.6971 145.789L19.7368 149.229C19.3902 149.149 19.0838 148.975 18.848 148.701L17.9732 147.679C17.6608 147.315 16.9554 147.226 16.2741 147.429L14.2344 143.989C14.9136 143.785 15.6211 143.874 15.9335 144.239Z" fill="#0F3DFB"/>
<path d="M24.3944 142.278L25.9887 142.578C26.7687 142.725 27.5789 142.55 28.2541 142.151L30.2939 145.592C29.6187 145.993 28.8084 146.168 28.0284 146.019L26.4341 145.718C26.1257 145.66 25.7448 145.708 25.3679 145.833L23.3281 142.393C23.705 142.268 24.084 142.219 24.3944 142.278Z" fill="#0F3DFB"/>
<path d="M32.0796 137.231L33.9642 136.731C34.6253 136.555 35.1936 136.261 35.629 135.9L37.6687 139.341C37.2314 139.702 36.665 139.996 36.0039 140.171L34.1194 140.671C33.7807 140.76 33.4401 140.939 33.1398 141.163L31.1001 137.722C31.4004 137.499 31.743 137.322 32.0796 137.231Z" fill="#0F3DFB"/>
<path d="M11.1072 148.353L9.16626 145.078L9.18239 145.068C9.56734 145.517 10.299 145.638 11.1999 145.374L13.2396 148.815C12.242 149.106 11.4498 148.927 11.1072 148.351V148.353Z" fill="#0F3DFB"/>
<path d="M33.9418 116.622L36.4007 120.772L33.2948 120.975L31.8093 117.886L33.9418 116.622Z" fill="white" stroke="#0F3DFB" stroke-width="0.12065" stroke-linecap="round" stroke-linejoin="round"/>
<path d="M3.12622 134.891L5.32518 133.587L7.1291 137.607L5.65573 139.157L3.12622 134.891Z" fill="#0F3DFB"/>
<path d="M25.9862 142.578C27.5463 142.873 29.2252 141.879 29.715 140.367L30.2149 138.826C30.4305 138.162 31.269 137.444 32.0772 137.231L33.9618 136.731C35.808 136.241 36.9387 134.834 36.4711 133.603L35.9955 132.345C35.7899 131.805 36.2111 130.955 36.9286 130.453L38.6015 129.286C39.8512 128.415 40.3087 127.367 39.8794 126.643C39.7464 126.417 39.5267 126.224 39.2183 126.077L37.8921 125.442C37.3237 125.17 37.2128 124.412 37.6462 123.759L38.658 122.237C39.1538 121.492 39.2385 120.847 38.9785 120.407C38.7185 119.968 38.1098 119.732 37.2189 119.809L35.3988 119.966C34.6168 120.032 34.0061 119.573 34.0404 118.942L34.119 117.474C34.1371 117.134 34.0726 116.848 33.9396 116.622C33.5103 115.898 32.3715 115.798 31.009 116.475L29.1829 117.382C28.3988 117.771 27.4495 117.731 27.0746 117.293L26.1999 116.271C25.3433 115.272 23.5656 115.586 22.2514 116.971L20.9091 118.386C20.3327 118.992 19.3007 119.384 18.6154 119.254L17.0211 118.954C15.4611 118.66 13.7821 119.653 13.2923 121.165L12.7925 122.707C12.5768 123.37 11.7383 124.088 10.9301 124.301L9.0456 124.801C7.19933 125.291 6.06862 126.698 6.53623 127.929L7.01192 129.187C7.21747 129.727 6.79624 130.578 6.0787 131.079L4.4058 132.246C3.15616 133.117 2.69863 134.165 3.12794 134.889C3.26097 135.115 3.48066 135.308 3.78904 135.455L5.11527 136.09C5.68365 136.362 5.79451 137.12 5.36117 137.773L4.34936 139.295C3.92408 139.936 3.80113 140.502 3.94021 140.93C4.12564 141.496 4.77263 141.812 5.78846 141.726L7.60849 141.568C8.39055 141.502 9.00124 141.962 8.96697 142.592L8.88839 144.06C8.87021 144.4 8.93472 144.687 9.06776 144.912C9.49707 145.636 10.6358 145.737 11.9983 145.06L13.8244 144.152C14.6085 143.763 15.5578 143.804 15.9327 144.241L16.8075 145.263C17.6641 146.263 19.4418 145.948 20.7559 144.564L22.0983 143.149C22.6747 142.542 23.7067 142.151 24.3919 142.28L25.9862 142.58V142.578Z" fill="white" stroke="#0F3DFB" stroke-width="0.12065" stroke-linecap="round" stroke-linejoin="round"/>
<path d="M29.8684 127.827C29.4794 128.266 28.9977 128.61 28.4212 128.861C27.8448 129.11 27.3147 129.205 26.8269 129.145C26.3412 129.084 26.061 128.887 25.9885 128.55C25.9159 128.214 26.0691 127.833 26.448 127.403C26.4621 127.387 26.4762 127.373 26.4903 127.357L24.5836 127.583C24.2369 128.032 24.0092 128.459 23.9004 128.858C23.7633 129.368 23.8258 129.786 24.0898 130.114C24.3538 130.443 24.7993 130.644 25.4282 130.723C26.0429 130.799 26.7181 130.735 27.4538 130.529C28.1894 130.326 28.907 130.003 29.6084 129.564C30.3098 129.124 30.9225 128.61 31.4445 128.02C31.8678 127.54 32.1641 127.089 32.3334 126.664L30.3582 126.897C30.336 127.172 30.1727 127.48 29.8684 127.824V127.827Z" fill="#0F3DFB"/>
<path d="M23.3434 137.029L24.972 135.191L20.6123 128.058L18.0264 128.365L23.3434 137.029Z" fill="#0F3DFB"/>
<path d="M18.109 132.17C18.367 132.496 18.4275 132.915 18.2884 133.423C18.1513 133.933 17.8207 134.481 17.2987 135.072C16.7767 135.663 16.164 136.177 15.4626 136.616C14.7612 137.055 14.0456 137.378 13.318 137.583C12.5904 137.789 11.9112 137.852 11.2844 137.775C10.6575 137.698 10.21 137.495 9.94603 137.168C9.68196 136.84 9.61951 136.422 9.75657 135.912C9.89362 135.405 10.2242 134.854 10.7462 134.264C11.2682 133.673 11.8809 133.159 12.5803 132.72C13.2818 132.28 13.9993 131.958 14.735 131.754C15.4706 131.551 16.1519 131.487 16.7787 131.565C17.4055 131.642 17.849 131.845 18.107 132.172L18.109 132.17ZM15.384 133.141C14.8982 133.081 14.3621 133.176 13.7796 133.425C13.1971 133.675 12.7114 134.018 12.3224 134.457C11.9434 134.885 11.7902 135.264 11.8608 135.594C11.9313 135.923 12.2095 136.118 12.6973 136.179C13.185 136.239 13.7191 136.144 14.3016 135.896C14.8841 135.649 15.3638 135.31 15.7427 134.881C16.1317 134.441 16.291 134.056 16.2204 133.728C16.1499 133.399 15.8717 133.204 15.384 133.143V133.141Z" fill="#0F3DFB"/>
<path d="M17.2349 127.076L18.027 128.365L20.6129 128.058L18.8775 125.22L17.2349 127.076Z" fill="#0F3DFB"/>
<path d="M32.2445 125.117C31.9805 124.789 31.5411 124.587 30.9264 124.513C30.2995 124.436 29.6183 124.498 28.8826 124.704C28.1469 124.908 27.4294 125.23 26.728 125.67C26.0266 126.109 25.4138 126.623 24.8918 127.213C24.781 127.341 24.6802 127.463 24.5854 127.586L26.4922 127.361C26.8651 126.955 27.3327 126.631 27.901 126.393C28.4896 126.145 29.0277 126.05 29.5155 126.111C30.0032 126.171 30.2794 126.363 30.3499 126.685C30.364 126.754 30.366 126.827 30.36 126.901L32.3353 126.667C32.3755 126.568 32.4098 126.472 32.436 126.375C32.5731 125.867 32.5106 125.448 32.2465 125.119L32.2445 125.117Z" fill="#0F3DFB"/>
<path d="M29.969 112.557C25.0027 105.26 21.0603 96.7627 18.565 87.3805C12.9679 66.3238 15.9146 45.5134 25.0329 30.4452L41.1392 41.3614C35.2941 51.8201 33.6675 66.8579 37.7671 82.275C39.7061 89.5711 42.7173 96.1562 46.4382 101.725L29.969 112.557Z" fill="#0F3DFB" stroke="#1C2121" stroke-width="0.12065" stroke-miterlimit="10"/>
<path d="M33.6234 41.4927C33.6234 41.4927 32.2145 45.6085 31.5836 52.4188C31.0838 57.8167 33.8592 58.399 35.7175 52.56C37.5759 46.7211 40.7443 40.5494 40.7443 40.5494L33.6254 41.4927H33.6234Z" fill="#1C2121"/>
<path d="M32.8349 109.749C28.2294 102.983 24.5732 95.1017 22.2594 86.3988C18.6193 72.705 17.5893 61.4725 20.6953 47.1359C21.1367 45.0942 20.4756 42.8428 19.5384 46.1463C16.0394 58.4756 15.7713 72.7292 19.5928 87.1082C22.0356 96.301 25.8994 104.627 30.7649 111.776C30.8053 111.835 30.8476 111.893 30.8879 111.954L33.2743 110.384C33.1272 110.172 32.98 109.963 32.8349 109.749Z" fill="#1C2121"/>
<path d="M39.2933 108.789C43.8432 105.8 47.0501 102.645 46.4556 101.739C45.8608 100.834 41.6905 102.522 37.1405 105.51C32.5903 108.497 29.3837 111.654 29.9782 112.559C30.5727 113.464 34.7432 111.776 39.2933 108.789Z" fill="#1C2121" stroke="#1C2121" stroke-width="0.12065" stroke-miterlimit="10"/>
<path d="M41.1183 41.4062C42.5554 39.2995 40.1236 35.138 35.6866 32.1114C31.2497 29.0846 26.4878 28.3389 25.0506 30.4457C23.6135 32.5524 26.0453 36.7139 30.4823 39.7405C34.9192 42.7672 39.6811 43.513 41.1183 41.4062Z" fill="#1C2121" stroke="#1C2121" stroke-width="0.12065" stroke-miterlimit="10"/>
<path d="M40.8547 91.3146C39.6454 88.4508 38.6054 85.4293 37.7669 82.2751C36.0275 75.7347 35.3241 69.2626 35.5317 63.1778C34.1914 59.9649 32.071 57.0584 28.9731 58.4411C23.2046 61.0149 18.9034 69.3494 16.3296 75.8111C16.7952 79.6369 17.5349 83.5025 18.5648 87.3786C20.1652 93.399 22.3641 99.0523 25.0448 104.261C25.0609 104.138 25.6716 99.522 26.5343 96.9462C28.9731 89.6661 36.8498 85.9111 40.8547 91.3126V91.3146Z" fill="#1C2121"/>
<path d="M183.101 140.689L175.718 136.896C174.485 136.264 172.679 134.939 171.705 133.952L150.969 112.968C149.996 111.982 148.341 110.845 146.898 110.245L132.213 104.138C131.064 103.66 129.223 102.989 127.98 102.932L116.795 102.424L118.952 111.049L130.84 116.015L134.573 118.257C135.066 118.553 135.31 119.238 135.117 119.778L134.92 120.329L127.26 118.912L108.288 115.693L86.9937 115.453C84.3917 115.423 82.3177 116.306 82.2755 118.412L82.2553 119.458C82.2087 121.893 84.4721 123.819 88.1266 124.281L112.646 127.377L132.446 130.328V131.847L112.111 128.955L90.3397 128.129C88.213 128.048 86.4676 128.941 86.4656 130.704V131.75C86.4636 134.038 88.1909 135.534 91.6998 136.199L112.646 140.165L135.046 145.124C135.556 145.237 136.004 145.755 136.04 146.277L136.113 147.317L119.932 146.646L103.577 146.98L99.452 148.572C98.5045 148.937 98.0267 150.014 98.3895 150.961L98.8351 152.12C99.3088 153.353 100.639 154.006 102.098 154.363C103.314 154.662 105.617 155.008 110.344 155.018L122.503 155.58L135.312 157.729L149.75 166.271C151.431 167.265 154.4 168.196 156.347 168.339L165.229 168.992L172.344 172.558" fill="#1C2121"/>
<path d="M183.101 140.689L175.718 136.896C174.485 136.264 172.679 134.939 171.705 133.952L150.969 112.968C149.996 111.982 148.341 110.845 146.898 110.245L132.213 104.138C131.064 103.66 129.223 102.989 127.98 102.932L116.795 102.424L118.952 111.049L130.84 116.015L134.573 118.257C135.066 118.553 135.31 119.238 135.117 119.778L134.92 120.329L127.26 118.912L108.288 115.693L86.9937 115.453C84.3917 115.423 82.3177 116.306 82.2755 118.412L82.2553 119.458C82.2087 121.893 84.4721 123.819 88.1266 124.281L112.646 127.377L132.446 130.328V131.847L112.111 128.955L90.3397 128.129C88.213 128.048 86.4676 128.941 86.4656 130.704V131.75C86.4636 134.038 88.1909 135.534 91.6998 136.199L112.646 140.165L135.046 145.124C135.556 145.237 136.004 145.755 136.04 146.277L136.113 147.317L119.932 146.646L103.577 146.98L99.452 148.572C98.5045 148.937 98.0267 150.014 98.3895 150.961L98.8351 152.12C99.3088 153.353 100.639 154.006 102.098 154.363C103.314 154.662 105.617 155.008 110.344 155.018L122.503 155.58L135.312 157.729L149.75 166.271C151.431 167.265 154.4 168.196 156.347 168.339L165.229 168.992L172.344 172.558" stroke="#1C2121" stroke-width="0.12065" stroke-miterlimit="10"/>
<path d="M134.419 122.449C134.419 122.449 133.792 124.573 133.681 126.248" stroke="#0F3DFB" stroke-width="0.12065" stroke-miterlimit="10"/>
<path d="M135.828 118.268C135.828 118.268 137.124 115.941 138.444 114.322L135.828 118.268Z" fill="white"/>
<path d="M135.828 118.268C135.828 118.268 137.124 115.941 138.444 114.322" stroke="#0F3DFB" stroke-width="0.12065" stroke-miterlimit="10"/>
<path d="M137.25 152.545C137.25 152.545 136.114 149.931 136.114 147.315" stroke="#7F908E" stroke-width="0.12065" stroke-miterlimit="10"/>
<path d="M122.545 153.363V151.084" stroke="#0F3DFB" stroke-width="0.12065" stroke-miterlimit="10"/>
<path d="M55.0283 71.1712L61.323 65.3446L60.3172 45.6586C60.168 42.7522 57.7674 41.5086 54.9599 42.5204L43.2637 46.7349L55.0283 71.1733V71.1712Z" fill="#0F3DFB" stroke="#1C2121" stroke-width="0.12065" stroke-miterlimit="10"/>
<path d="M13.7096 57.3808L54.9597 42.5183C56.3142 42.0305 57.5718 42.0729 58.5314 42.5687C57.5356 41.7725 56.0604 41.6052 54.4457 42.1857L13.1957 57.0482C11.7264 57.5783 10.4263 58.5841 9.5415 59.8622L10.0595 60.1868C10.9443 58.9127 12.2403 57.9089 13.7076 57.3808H13.7096Z" fill="white"/>
<path d="M9.54189 59.8621C8.73768 61.0227 8.27209 62.4054 8.34665 63.8648L9.66886 89.7624C9.74346 91.2058 10.4368 92.2739 11.4829 92.8201C10.727 92.2216 10.2433 91.2862 10.1808 90.095L8.85861 64.1974C8.78405 62.7359 9.24964 61.3493 10.0579 60.1866L9.53988 59.8621H9.54189Z" fill="#1C2121" stroke="#1C2121" stroke-width="0.12065" stroke-miterlimit="10" stroke-linecap="round"/>
<path d="M9.31763 73.1567L10.1823 90.0932C10.3234 92.8565 12.734 94.2431 15.5396 93.2317L56.7898 78.3688C59.5974 77.3569 61.7924 74.5675 61.6392 71.5525L60.7745 54.6156L9.31763 73.1567Z" fill="#EA8A2A" stroke="#1C2121" stroke-width="0.12065" stroke-linecap="round" stroke-linejoin="round"/>
<path d="M46.2764 74.6017V76.1862C46.2764 76.4259 46.4618 76.555 46.6874 76.4741L48.0459 75.9843V73.963" stroke="#1C2121" stroke-width="0.12065" stroke-miterlimit="10"/>
<path d="M48.0466 78.006V75.9863" stroke="#1C2121" stroke-width="0.12065" stroke-miterlimit="10"/>
<path d="M51.1558 72.8462L49.7972 73.336C49.5716 73.4165 49.3862 73.6807 49.3862 73.9204V75.0694C49.3862 75.3091 49.5716 75.4382 49.7972 75.3577L50.7468 75.0151" stroke="#1C2121" stroke-width="0.12065" stroke-miterlimit="10"/>
<path d="M49.3862 77.5241L50.7448 77.0343C50.9704 76.9539 51.1558 76.6896 51.1558 76.4499V75.301C51.1558 75.0613 50.9704 74.9322 50.7448 75.013L49.7952 75.3556" stroke="#1C2121" stroke-width="0.12065" stroke-miterlimit="10"/>
<path d="M52.3638 73.9972C52.3638 74.2369 52.5492 74.366 52.7748 74.2851L53.7243 73.9425C53.9499 73.8621 54.1353 73.5978 54.1353 73.3581V72.2092C54.1353 71.9695 53.9499 71.8404 53.7243 71.9212L52.7748 72.2638C52.5492 72.3443 52.3638 72.6085 52.3638 72.8482V73.9972Z" stroke="#1C2121" stroke-width="0.12065" stroke-miterlimit="10"/>
<path d="M52.3636 76.0188C52.3636 76.2585 52.5511 76.3957 52.7787 76.3229L53.8593 75.9802C54.0869 75.9078 54.2623 75.6516 54.2442 75.414L54.1613 74.2328C54.1452 73.9931 53.9458 73.864 53.7202 73.9444L52.7706 74.2871C52.545 74.3679 52.3596 74.6317 52.3596 74.8718V76.0208L52.3636 76.0188Z" stroke="#1C2121" stroke-width="0.12065" stroke-miterlimit="10"/>
<path d="M45.6864 78.8093C45.7825 78.6424 45.7644 78.4518 45.6458 78.3834C45.5271 78.315 45.353 78.3946 45.2569 78.5615C45.1604 78.728 45.1785 78.9187 45.2971 78.9874C45.4157 79.0558 45.5899 78.9762 45.6864 78.8093Z" fill="#1C2121"/>
<path d="M44.3435 79.2983C44.4397 79.1314 44.422 78.9408 44.3033 78.8724C44.1847 78.804 44.0105 78.8837 43.914 79.0506C43.8179 79.2171 43.836 79.4081 43.9546 79.4765C44.0733 79.5448 44.2474 79.4652 44.3435 79.2983Z" fill="#1C2121"/>
<path d="M42.9964 79.788C43.0927 79.6211 43.0746 79.4305 42.956 79.3621C42.8375 79.2938 42.6633 79.3734 42.567 79.5403C42.4707 79.7068 42.4888 79.8974 42.6074 79.9662C42.7259 80.0346 42.9001 79.9549 42.9964 79.788Z" fill="#1C2121"/>
<path d="M58.1708 77.6996C60.2809 76.3938 61.7686 74.0515 61.6415 71.5525L60.7768 54.6156L49.0886 58.8283L58.1728 77.6996H58.1708Z" fill="#1C2121"/>
<path d="M20.1701 80.7327C20.781 78.7384 19.9924 76.728 18.4087 76.2429C16.8249 75.7579 15.0457 76.9817 14.4348 78.9761C13.8239 80.9708 14.6125 82.9808 16.1962 83.4659C17.78 83.9513 19.5591 82.7275 20.1701 80.7327Z" stroke="#0F3DFB" stroke-width="0.12065" stroke-miterlimit="10"/>
<path d="M20.4618 85.539C21.0728 83.5443 20.2842 81.5342 18.7004 81.0492C17.1166 80.5642 15.3375 81.7876 14.7266 83.7824C14.1156 85.7767 14.9042 87.7871 16.488 88.2722C18.0717 88.7572 19.8509 87.5338 20.4618 85.539Z" fill="#0F3DFB" stroke="#1C2121" stroke-width="0.12065" stroke-miterlimit="10"/>
<path d="M13.7093 57.3809C10.9017 58.3928 8.70474 61.134 8.86194 64.1977L10.1841 90.0952C10.3252 92.8585 12.7359 94.2452 15.5415 93.2337L56.7915 78.3708C59.5994 77.359 61.7941 74.5695 61.6412 71.5545L60.3189 45.6586C60.1697 42.7522 57.7692 41.5086 54.9616 42.5204L13.7093 57.3809Z" stroke="#1C2121" stroke-width="0.12065" stroke-miterlimit="10" stroke-linecap="round"/>
<path d="M47.3369 61.3012C46.4179 61.6318 45.6984 62.5287 45.7507 63.5325L45.9422 67.2734C45.9884 68.1783 46.7767 68.6319 47.6956 68.3014L52.5449 66.554C53.4643 66.2234 54.1838 65.3101 54.1335 64.3227L53.9417 60.5818C53.8934 59.6302 53.1076 59.2232 52.1882 59.5538L47.3389 61.3012H47.3369Z" fill="white"/>
<path d="M52.7611 66.4631C53.5734 66.0762 54.1779 65.2316 54.1316 64.3227L53.9402 60.5818C53.892 59.6302 53.1057 59.2232 52.1868 59.5538L49.8425 60.3984L52.7611 66.461V66.4631Z" fill="#0F3DFB" stroke="#1C2121" stroke-width="0.12065" stroke-miterlimit="10"/>
<path d="M51.2573 65.1647L51.3639 66.9788" stroke="#1C2121" stroke-width="0.12065" stroke-miterlimit="10" stroke-linecap="round"/>
<path d="M48.7615 66.0642L48.868 67.878" stroke="#1C2121" stroke-width="0.12065" stroke-miterlimit="10" stroke-linecap="round"/>
<path d="M50.9814 59.989L51.086 61.8052" stroke="#1C2121" stroke-width="0.12065" stroke-miterlimit="10" stroke-linecap="round"/>
<path d="M48.4856 60.8882L48.5902 62.704" stroke="#1C2121" stroke-width="0.12065" stroke-miterlimit="10" stroke-linecap="round"/>
<path d="M48.6911 62.6679C48.2499 62.8272 47.9053 63.2587 47.9294 63.7401L48.0203 65.5362C48.0424 65.9693 48.4213 66.1893 48.8624 66.03L51.1906 65.1915C51.6322 65.0322 51.9768 64.5947 51.9523 64.1193L51.8598 62.3232C51.8357 61.8656 51.4588 61.6701 51.0173 61.8294L48.6891 62.6679H48.6911Z" stroke="#1C2121" stroke-width="0.12065" stroke-miterlimit="10" stroke-linecap="round"/>
<path d="M100.721 150.945C102 154.454 104.929 156.637 107.944 155.538L133.433 146.251C136.525 145.124 137.284 141.593 136.007 138.083L110.673 68.5732C109.393 65.0643 106.416 62.8974 103.45 63.978L77.9632 73.2677C75.1029 74.3097 74.1092 77.9236 75.3893 81.4325L100.723 150.943L100.721 150.945Z" fill="white"/>
<path d="M75.3871 81.4346C75.1394 80.7533 74.9761 80.066 74.8977 79.3968L77.8062 78.3668L105.782 153.422L102.915 154.361C101.99 153.509 101.227 152.331 100.723 150.945L75.3896 81.4346H75.3871Z" fill="#1C2121"/>
<path d="M74.9622 76.859C74.9622 76.859 75.4279 75.2527 76.0268 74.6463L78.7032 73.6425L78.4249 75.6276L74.9602 76.859H74.9622Z" fill="#1C2121"/>
<path d="M100.721 150.945C102 154.454 104.929 156.637 107.944 155.538L133.433 146.251C136.525 145.124 137.284 141.593 136.007 138.083L110.673 68.5732C109.393 65.0643 106.416 62.8974 103.45 63.978L77.9632 73.2677C75.1029 74.3097 74.1092 77.9236 75.3893 81.4325L100.723 150.943L100.721 150.945Z" stroke="#1C2121" stroke-width="0.12065" stroke-miterlimit="10" stroke-linecap="round"/>
<path d="M96.8606 125.698C97.9814 128.774 100.551 130.688 103.194 129.725L125.538 121.584C127.922 120.715 128.916 117.501 127.793 114.425L117.26 85.5222C116.139 82.4464 113.529 80.5457 110.927 81.4928L88.5848 89.6359C86.0777 90.5488 85.2066 93.7171 86.3274 96.7929L96.8606 125.696V125.698Z" fill="#EA8A2A"/>
<path d="M106.929 126.752L105.254 128.008C103.315 129.461 100.094 128.994 97.0407 126.53C93.0218 123.289 90.8147 117.819 92.1109 114.314C92.423 113.471 92.9088 112.819 93.5217 112.359L95.1964 111.104C94.5818 111.563 94.096 112.216 93.7856 113.058C92.4898 116.563 94.6969 122.034 98.7157 125.275C101.769 127.738 104.99 128.205 106.929 126.752Z" fill="#EA8A2A" stroke="#1C2121" stroke-width="0.12065" stroke-miterlimit="10"/>
<path d="M103.412 112.581C107.433 115.824 109.638 121.292 108.341 124.799C107.046 128.304 102.738 128.52 98.7172 125.277C94.6984 122.036 92.4913 116.565 93.7874 113.061C95.0832 109.554 99.3945 109.34 103.414 112.581H103.412Z" fill="#EA8A2A" stroke="#1C2121" stroke-width="0.12065" stroke-linecap="round" stroke-linejoin="round"/>
<path d="M93.6145 117.162C93.3101 115.677 93.3443 114.254 93.7858 113.061C94.0983 112.218 94.5842 111.565 95.1967 111.106L93.5216 112.361C92.9071 112.821 92.4213 113.474 92.1108 114.316C91.6938 115.445 91.6415 116.775 91.8933 118.17L93.6145 117.162Z" fill="#1C2121"/>
<path d="M113.779 118.236L112.594 119.964C111.224 121.963 108.023 122.552 104.341 121.197C99.495 119.416 95.6515 114.941 95.7565 111.206C95.7806 110.307 96.0324 109.535 96.4659 108.903L97.6511 107.175C97.2176 107.808 96.9658 108.582 96.9413 109.479C96.8367 113.214 100.68 117.688 105.526 119.47C109.208 120.824 112.409 120.236 113.779 118.236Z" fill="#EA8A2A" stroke="#1C2121" stroke-width="0.12065" stroke-linecap="round" stroke-linejoin="round"/>
<path d="M105.905 105.939C110.752 107.723 114.593 112.196 114.488 115.933C114.384 119.667 110.373 121.251 105.525 119.47C100.68 117.688 96.8365 113.214 96.941 109.479C97.046 105.742 101.059 104.158 105.905 105.939Z" fill="#EA8A2A" stroke="#1C2121" stroke-width="0.12065" stroke-linecap="round" stroke-linejoin="round"/>
<path d="M98.0922 113.417C97.3285 112.109 96.903 110.751 96.9396 109.477C96.9637 108.578 97.2155 107.806 97.649 107.173L96.4638 108.901C96.0303 109.533 95.7785 110.307 95.7544 111.204C95.7198 112.406 96.097 113.686 96.7843 114.925L98.0922 113.417Z" fill="#1C2121"/>
<path d="M137.587 137.509L112.254 67.999C111.202 65.1106 108.751 63.327 106.308 64.2178L104.29 64.9534C103.815 65.1267 103.438 65.6849 103.454 66.1908L103.494 67.4186C103.522 68.2668 102.89 69.2002 102.091 69.4926L87.9021 74.6645C87.1038 74.9545 85.9793 74.6826 85.4026 74.0596L84.4937 73.0759C84.149 72.7031 83.4778 72.5398 83 72.7152L81.0049 73.4431C78.6506 74.3017 77.8342 77.2746 78.8863 80.1629L104.22 149.673C105.272 152.561 107.685 154.357 110.166 153.454L135.469 144.233C137.706 143.417 138.639 140.4 137.587 137.511V137.509ZM124.527 120.707L103.408 128.403C100.908 129.314 98.4815 127.504 97.4214 124.596L87.4645 97.2767C86.4044 94.3683 87.2268 91.3753 89.5972 90.5107L110.716 82.8132C113.175 81.9164 115.642 83.712 116.702 86.6205L126.659 113.939C127.719 116.848 126.78 119.885 124.527 120.705V120.707Z" fill="white"/>
<path d="M138.547 137.16L113.213 67.6502C111.934 64.1413 108.957 61.9744 105.99 63.0546L80.5032 72.3443C77.6434 73.3863 76.6496 77.0002 77.9293 80.5095L103.263 150.02C104.543 153.529 107.471 155.712 110.486 154.613L135.975 145.325C138.694 144.336 139.827 140.667 138.549 137.158L138.547 137.16ZM135.469 144.231L110.166 153.452C107.685 154.357 105.272 152.559 104.22 149.671L78.8869 80.1608C77.8348 77.2724 78.6508 74.2976 81.0051 73.441L83.0007 72.7131C83.4764 72.5397 84.1492 72.703 84.4939 73.0738L85.4032 74.0575C85.9795 74.6825 87.1044 74.9544 87.9023 74.6624L102.092 69.4905C102.89 69.2002 103.521 68.2671 103.495 67.4165L103.454 66.1887C103.438 65.6808 103.815 65.1246 104.291 64.9513L106.308 64.2157C108.751 63.3249 111.202 65.1085 112.254 67.9969L137.588 137.507C138.64 140.395 137.707 143.412 135.469 144.229V144.231Z" fill="white" stroke="#1C2121" stroke-width="0.12065" stroke-miterlimit="10" stroke-linecap="round"/>
<path d="M82.4927 98.2613L82.7903 98.1531C83.0381 98.0626 83.1659 97.7887 83.0755 97.5406L80.3299 90.0056C80.2394 89.7575 79.9655 89.63 79.7174 89.7201L79.4202 89.8286C79.1724 89.9187 79.0445 90.193 79.135 90.4407L81.8806 97.9761C81.9707 98.2239 82.245 98.3518 82.4927 98.2613Z" fill="white" stroke="#1C2121" stroke-width="0.12065" stroke-miterlimit="10" stroke-linecap="round"/>
<path d="M110.934 144.906C111.301 145.916 112.143 146.543 113.01 146.227L128.643 140.53C129.424 140.246 129.749 139.192 129.382 138.182L128.459 135.649C128.092 134.639 127.235 134.016 126.383 134.328L110.75 140.027C109.928 140.327 109.642 141.365 110.011 142.375L110.934 144.908V144.906Z" stroke="#1C2121" stroke-width="0.12065" stroke-miterlimit="10"/>
<path d="M113.785 142.249C113.598 141.738 113.735 141.258 114.169 141.099C114.602 140.942 115.015 141.222 115.201 141.733C115.388 142.245 115.251 142.723 114.817 142.88C114.384 143.038 113.971 142.761 113.783 142.249H113.785ZM114.898 141.844C114.773 141.502 114.546 141.284 114.275 141.383C114.005 141.482 113.965 141.796 114.09 142.139C114.213 142.48 114.449 142.693 114.717 142.596C114.987 142.498 115.021 142.185 114.898 141.844Z" fill="#1C2121"/>
<path d="M115.222 141.3L115.506 141.197L115.908 141.772C115.982 141.879 116.026 141.951 116.026 141.951H116.03C116.03 141.951 116.016 141.865 116.004 141.737L115.946 141.038L116.226 140.936L116.305 142.296L116.037 142.393L115.224 141.3H115.222Z" fill="#1C2121"/>
<path d="M116.561 141.506C116.428 141.143 116.537 140.782 116.845 140.671C117.184 140.549 117.476 140.782 117.635 141.22L116.869 141.498C116.958 141.679 117.093 141.764 117.25 141.705C117.359 141.665 117.401 141.585 117.399 141.48L117.675 141.379C117.716 141.611 117.617 141.857 117.345 141.956C116.996 142.082 116.694 141.871 116.561 141.504V141.506ZM116.792 141.272L117.262 141.101C117.198 140.948 117.071 140.873 116.942 140.92C116.794 140.974 116.758 141.103 116.792 141.272Z" fill="#1C2121"/>
<path d="M117.951 140.528H117.957C117.969 140.363 118.016 140.266 118.139 140.222C118.169 140.21 118.189 140.205 118.207 140.208L118.31 140.492H118.304C118.113 140.54 118.022 140.699 118.117 140.958L118.334 141.556L118.054 141.659L117.607 140.432L117.877 140.333L117.949 140.528H117.951Z" fill="#1C2121"/>
<path d="M118.37 140.153L118.655 140.051L119.056 140.625C119.13 140.732 119.175 140.805 119.175 140.805H119.179C119.179 140.805 119.165 140.718 119.152 140.591L119.094 139.892L119.374 139.789L119.453 141.149L119.185 141.246L118.372 140.153H118.37Z" fill="#1C2121"/>
<path d="M119.393 139.233L119.674 139.13L119.78 139.422L119.5 139.525L119.393 139.233ZM119.569 139.716L119.849 139.613L120.296 140.841L120.016 140.944L119.569 139.716Z" fill="#1C2121"/>
<path d="M120.303 140.141C120.17 139.778 120.279 139.418 120.587 139.307C120.925 139.184 121.218 139.418 121.377 139.855L120.611 140.133C120.7 140.314 120.835 140.399 120.992 140.341C121.101 140.3 121.143 140.22 121.141 140.115L121.417 140.014C121.458 140.246 121.359 140.492 121.087 140.591C120.738 140.717 120.436 140.506 120.303 140.139V140.141ZM120.535 139.908L121.004 139.736C120.94 139.583 120.813 139.508 120.684 139.555C120.537 139.609 120.5 139.738 120.535 139.908Z" fill="#1C2121"/>
<path d="M121.251 139.103L121.53 139.003L121.864 139.525C121.923 139.617 121.995 139.736 121.995 139.736H121.999C121.999 139.736 121.973 139.595 121.959 139.486L121.884 138.872L122.122 138.785L122.467 139.301C122.528 139.396 122.6 139.515 122.6 139.515H122.604C122.604 139.515 122.582 139.376 122.568 139.267L122.493 138.648L122.765 138.549L122.898 139.892L122.644 139.984L122.285 139.432C122.227 139.341 122.161 139.236 122.161 139.236H122.157C122.157 139.236 122.171 139.363 122.185 139.468L122.261 140.123L122.01 140.216L121.253 139.101L121.251 139.103Z" fill="#1C2121"/>
<path d="M92.4084 70.6009C92.5169 70.8993 92.8234 71.0625 93.1701 70.9375L96.5603 69.702C96.8748 69.587 97.0361 69.2524 96.9271 68.9544L96.9171 68.9258C96.8081 68.6278 96.498 68.4666 96.1554 68.5892L92.7651 69.8251C92.4345 69.9457 92.2893 70.2743 92.3983 70.5727L92.4084 70.6009Z" stroke="#1C2121" stroke-width="0.12065" stroke-miterlimit="10" stroke-linecap="round"/>
<path d="M91.0783 71.8955C91.4048 71.774 91.5508 71.3562 91.404 70.9616C91.2572 70.5671 90.8736 70.3459 90.547 70.4674C90.2204 70.5888 90.0749 71.0071 90.2212 71.4016C90.368 71.7957 90.7517 72.0169 91.0783 71.8955Z" stroke="#1C2121" stroke-width="0.12065" stroke-miterlimit="10" stroke-linecap="round"/>
<path d="M82.0002 77.2384L81.5168 78.9778L82.9196 79.9128" stroke="#1C2121" stroke-width="0.12065" stroke-miterlimit="10" stroke-linecap="round"/>
<path d="M120.647 99.2541L120.54 101.655C120.447 103.737 117.037 105.435 112.288 105.601C106.959 105.787 101.958 103.972 101.122 101.55C101.031 101.285 100.993 101.026 101.003 100.772L101.11 98.371C101.098 98.6251 101.136 98.8849 101.229 99.1492C102.067 101.572 107.066 103.386 112.395 103.2C117.144 103.035 120.554 101.336 120.647 99.2541Z" fill="#EA8A2A" stroke="#1C2121" stroke-width="0.12065" stroke-linecap="round" stroke-linejoin="round"/>
<path d="M109.361 94.4251C114.69 94.2393 119.691 96.0534 120.529 98.4761C121.368 100.899 117.725 103.015 112.396 103.201C107.067 103.386 102.067 101.572 101.23 99.1493C100.392 96.7247 104.034 94.6085 109.363 94.4231L109.361 94.4251Z" fill="#EA8A2A" stroke="#1C2121" stroke-width="0.12065" stroke-linecap="round" stroke-linejoin="round"/>
<path d="M103.794 101.582C102.474 100.912 101.547 100.076 101.227 99.151C101.136 98.8868 101.097 98.627 101.108 98.3728L101.001 100.773C100.989 101.028 101.027 101.287 101.12 101.552C101.434 102.46 102.333 103.283 103.615 103.946L103.794 101.582Z" fill="#1C2121"/>
<path d="M122.379 93.4292L121.863 95.4589C121.267 97.8088 118.465 99.4657 114.543 99.4657C109.379 99.4657 104.227 96.5934 103.036 93.0523C102.75 92.1997 102.717 91.3874 102.907 90.6437L103.423 88.614C103.233 89.3576 103.266 90.17 103.552 91.0226C104.743 94.5637 109.895 97.436 115.059 97.436C118.983 97.436 121.783 95.779 122.379 93.4292Z" fill="#0F3DFB" stroke="#1C2121" stroke-width="0.12065" stroke-miterlimit="10"/>
<path d="M110.744 84.6047C115.91 84.6047 121.059 87.477 122.251 91.0205C123.442 94.5616 120.223 97.4339 115.059 97.4339C109.895 97.4339 104.743 94.5616 103.552 91.0205C102.361 87.477 105.58 84.6047 110.744 84.6047Z" fill="#EA8A2A" stroke="#1C2121" stroke-width="0.12065" stroke-linecap="round" stroke-linejoin="round"/>
<path d="M105.995 94.322C104.826 93.3584 103.959 92.2299 103.552 91.0226C103.266 90.17 103.233 89.3576 103.423 88.614L102.907 90.6437C102.717 91.3874 102.75 92.1997 103.036 93.0523C103.419 94.1909 104.215 95.261 105.285 96.1884L105.993 94.322H105.995Z" fill="#1C2121"/>
<path d="M112.706 79.3263C117.882 77.9397 122.135 78.8566 122.203 81.3782C122.272 83.8974 118.13 87.064 112.954 88.4507C107.776 89.8374 103.523 88.9204 103.454 86.4009C103.386 83.8813 107.528 80.713 112.706 79.3263Z" fill="white" stroke="#1C2121" stroke-width="0.12065" stroke-linecap="round" stroke-linejoin="round"/>
<path d="M122.095 80.7732L122.859 83.0487C122.924 83.2385 122.958 83.44 122.964 83.6535C123.032 86.1731 118.891 89.3394 113.715 90.726C108.974 91.9957 105.009 91.3349 104.322 89.281L103.558 87.0052C104.248 89.059 108.212 89.7202 112.951 88.4506C118.126 87.0639 122.269 83.8952 122.2 81.3781C122.194 81.1641 122.158 80.9626 122.095 80.7732Z" fill="#0F3DFB" stroke="#1C2121" stroke-width="0.12065" stroke-miterlimit="10"/>
<path d="M112.706 79.3263C117.882 77.9397 122.135 78.8566 122.203 81.3782C122.272 83.8974 118.13 87.064 112.954 88.4507C107.776 89.8374 103.523 88.9204 103.454 86.4009C103.386 83.8813 107.528 80.713 112.706 79.3263Z" stroke="#1C2121" stroke-width="0.12065" stroke-miterlimit="10"/>
<path d="M106.725 88.9726C105.061 88.7084 103.902 88.0292 103.557 87.0052L104.321 89.2811C104.655 90.2785 105.764 90.9457 107.358 91.226L106.725 88.9726Z" fill="#1C2121"/>
<path d="M123.031 71.645L122.924 74.0455C122.831 76.1275 119.421 77.8267 114.672 77.992C109.341 78.1774 104.34 76.3636 103.502 73.9409C103.411 73.6767 103.373 73.4165 103.385 73.1627L103.492 70.7622C103.48 71.0164 103.518 71.2762 103.609 71.5404C104.447 73.9631 109.446 75.7768 114.779 75.5914C119.528 75.4261 122.938 73.727 123.031 71.645Z" fill="#0F3DFB" stroke="#1C2121" stroke-width="0.12065" stroke-miterlimit="10"/>
<path d="M111.746 66.8156C117.075 66.6302 122.076 68.4444 122.912 70.8671C123.75 73.2897 120.108 75.4059 114.779 75.5913C109.448 75.7767 104.448 73.963 103.609 71.5399C102.771 69.1172 106.413 67.001 111.746 66.8156Z" fill="white" stroke="#1C2121" stroke-width="0.12065" stroke-linecap="round" stroke-linejoin="round"/>
<path d="M111.746 66.8156C106.415 67.001 102.773 69.1172 103.609 71.5399C103.905 72.4005 104.73 73.1827 105.903 73.8258L120.485 68.5088C118.348 67.3799 115.112 66.6966 111.744 66.8156H111.746Z" fill="#1C2121"/>
<path d="M111.746 66.8156C117.075 66.6302 122.076 68.4444 122.912 70.8671C123.75 73.2897 120.108 75.4059 114.779 75.5913C109.448 75.7767 104.448 73.963 103.609 71.5399C102.771 69.1172 106.413 67.001 111.746 66.8156Z" stroke="#1C2121" stroke-width="0.12065" stroke-miterlimit="10"/>
<path d="M106.724 74.2289C105.115 73.5215 103.975 72.5884 103.612 71.5404C103.521 71.2762 103.483 71.0164 103.495 70.7622L103.388 73.1627C103.376 73.4165 103.414 73.6767 103.505 73.9409C103.851 74.9464 104.918 75.8456 106.425 76.543L106.726 74.2289H106.724Z" fill="#1C2121"/>
<path d="M111.746 66.8156C117.075 66.6302 122.076 68.4444 122.912 70.8671C123.75 73.2897 120.108 75.4059 114.779 75.5913C109.448 75.7767 104.448 73.963 103.609 71.5399C102.771 69.1172 106.413 67.001 111.746 66.8156Z" stroke="#1C2121" stroke-width="0.12065" stroke-miterlimit="10"/>
<path d="M113.36 57.927C118.34 56.9598 121.174 57.5622 119.689 59.2755C118.206 60.9867 112.963 63.1616 107.983 64.1288C103 65.0964 100.166 64.494 101.65 62.7828C103.135 61.0695 108.375 58.8966 113.358 57.929L113.36 57.927Z" fill="white" stroke="#1C2121" stroke-width="0.12065" stroke-linecap="round" stroke-linejoin="round"/>
<path d="M120.061 58.2938L120.791 60.7973C120.869 61.0656 120.753 61.3937 120.42 61.779C118.937 63.4902 113.694 65.6647 108.714 66.6324C104.85 67.384 102.278 67.1886 102.01 66.2656L101.28 63.7621C101.549 64.6855 104.12 64.8789 107.984 64.1289C112.964 63.1617 118.205 60.9887 119.69 59.2755C120.025 58.8906 120.14 58.5621 120.061 58.2938Z" fill="#0F3DFB" stroke="#1C2121" stroke-width="0.12065" stroke-miterlimit="10"/>
<path d="M104.423 64.5765C102.595 64.6469 101.454 64.3589 101.28 63.7621L102.01 66.2656C102.182 66.8539 103.29 67.1443 105.072 67.084L104.425 64.5765H104.423Z" fill="#1C2121"/>
<path d="M117.268 51.8482C116.758 54.2467 112.508 57.8827 107.775 59.9728C103.039 62.0629 99.6141 61.8131 100.124 59.4146C100.634 57.0181 104.885 53.3801 109.621 51.29C114.354 49.202 117.78 49.4517 117.27 51.8482H117.268Z" fill="#1C2121" stroke="#1C2121" stroke-width="0.12065" stroke-miterlimit="10"/>
<path d="M115.876 48.5288L117.144 50.7013C116.408 49.4417 113.442 49.603 109.622 51.2901C104.885 53.3801 100.635 57.0181 100.125 59.4146C100.026 59.8783 100.074 60.2612 100.25 60.5616L98.982 58.3887C98.8067 58.0863 98.758 57.7034 98.8569 57.2417C99.3669 54.8452 103.618 51.2072 108.354 49.1172C112.173 47.4322 115.142 47.269 115.876 48.5288Z" fill="#0F3DFB" stroke="#1C2121" stroke-width="0.12065" stroke-miterlimit="10"/>
<path d="M101.604 56.883L100.221 54.8452C99.494 55.7038 99.0082 56.5283 98.8569 57.2417C98.758 57.7054 98.8067 58.0883 98.982 58.3887L100.25 60.5616C100.074 60.2592 100.026 59.8763 100.125 59.4146C100.284 58.665 100.81 57.7923 101.604 56.883Z" fill="#1C2121"/>
<path d="M112.06 39.7006C112.113 40.4504 108.483 43.4213 103.952 46.3378C99.423 49.2523 95.7062 51.0078 95.6539 50.2601C95.6016 49.5101 99.2316 46.5394 103.762 43.6249C108.293 40.7084 112.01 38.9528 112.062 39.7026L112.06 39.7006Z" fill="#1C2121" stroke="#1C2121" stroke-width="0.12065" stroke-miterlimit="10"/>
<path d="M110.573 37.3868L112.036 39.6179C111.695 39.1 108.104 40.8273 103.762 43.6208C99.2333 46.5353 95.6013 49.5064 95.6536 50.2561C95.6556 50.2882 95.6636 50.3144 95.6797 50.3365L94.2167 48.1053C94.2026 48.0832 94.1925 48.055 94.1905 48.0248C94.1378 47.275 97.7682 44.3041 102.299 41.3896C106.64 38.5961 110.232 36.8668 110.573 37.3868Z" fill="#0F3DFB" stroke="#1C2121" stroke-width="0.12065" stroke-miterlimit="10"/>
<path d="M97.3889 48.2587L95.8917 46.0558C94.807 46.995 94.1684 47.7105 94.1905 48.027C94.1925 48.0592 94.2006 48.0853 94.2166 48.1074L95.6797 50.3387C95.6656 50.3165 95.6556 50.2884 95.6536 50.2582C95.6315 49.9377 96.2826 49.2102 97.3889 48.2566V48.2587Z" fill="#1C2121"/>
<path d="M87.4229 38.6384C87.4229 36.7034 91.2523 33.1541 95.9725 30.7092C100.697 28.2643 104.525 27.8512 104.525 29.7861C104.525 31.721 100.695 35.2704 95.9725 37.7152C91.2503 40.1581 87.4229 40.5713 87.4229 38.6363V38.6384Z" fill="white" stroke="#1C2121" stroke-width="0.12065" stroke-linecap="round" stroke-linejoin="round"/>
<path d="M104.382 29.2157L105.686 31.4106C105.781 31.5699 105.831 31.7613 105.831 31.981C105.831 33.916 102.002 37.4654 97.2795 39.9102C93.0949 42.0749 89.6122 42.6453 88.8726 41.4017L87.5684 39.2068C88.3079 40.4504 91.7911 39.88 95.9753 37.7153C100.7 35.2704 104.527 31.721 104.527 29.7861C104.527 29.5664 104.477 29.377 104.382 29.2157Z" fill="#0F3DFB" stroke="#1C2121" stroke-width="0.12065" stroke-miterlimit="10"/>
<path d="M91.6902 39.4627C89.574 40.0553 88.03 39.9888 87.5684 39.2087L88.8726 41.4037C89.3118 42.1434 90.7205 42.2422 92.6698 41.7443L91.6922 39.4607L91.6902 39.4627Z" fill="#1C2121"/>
<path d="M43.3146 38.2957L41.9802 40.2266C41.3029 41.2062 39.878 41.6718 37.8483 41.3936C33.6882 40.8252 28.5627 37.3545 26.402 33.6398C25.2955 31.7392 25.1806 30.1408 25.8921 29.1129L27.2264 27.182C26.5149 28.2099 26.6298 29.8083 27.7363 31.7089C29.897 35.4236 35.0225 38.8944 39.1826 39.4627C41.2122 39.7409 42.6372 39.2753 43.3146 38.2957Z" fill="#0F3DFB" stroke="#1C2121" stroke-width="0.12065" stroke-miterlimit="10"/>
<path d="M39.1822 39.4626C36.7333 39.1281 33.9498 37.7857 31.632 35.9818L30.2554 37.8804C32.5793 39.7005 35.3829 41.057 37.8459 41.3936C39.8756 41.6717 41.3005 41.2061 41.9778 40.2266L43.312 38.2957C42.6348 39.2752 41.2098 39.7408 39.1802 39.4626H39.1822Z" fill="#1C2121"/>
<path d="M31.3562 26.0132C35.5184 26.5816 40.6418 30.0524 42.8025 33.765C44.963 37.4796 43.3447 40.0293 39.1826 39.461C35.0225 38.8926 29.897 35.4218 27.7363 31.7071C25.5757 27.9945 27.1982 25.4448 31.3583 26.0132H31.3562Z" fill="white" stroke="#1C2121" stroke-width="0.12065" stroke-linecap="round" stroke-linejoin="round"/>
<path d="M45.7848 35.1838L44.3213 37.02C43.5797 37.9511 42.1266 38.318 40.1211 37.9028C36.0074 37.0522 31.1317 33.2388 29.2291 29.3851C28.2556 27.4119 28.2495 25.8115 29.0295 24.834L30.4928 22.9978C29.7128 23.9754 29.7189 25.5757 30.6924 27.5489C32.5951 31.4027 37.4727 35.216 41.5844 36.0666C43.5898 36.4818 45.0432 36.115 45.7848 35.1838Z" fill="#0F3DFB" stroke="#1C2121" stroke-width="0.12065" stroke-miterlimit="10"/>
<path d="M34.6952 22.115C38.8069 22.9656 43.6825 26.7789 45.5852 30.6307C47.4878 34.4844 45.6962 36.9172 41.5843 36.0666C37.4706 35.2161 32.595 31.4026 30.6923 27.5489C28.7897 23.6972 30.5815 21.2644 34.6952 22.115Z" fill="white" stroke="#1C2121" stroke-width="0.12065" stroke-linecap="round" stroke-linejoin="round"/>
<path d="M34.6952 22.115C38.8069 22.9656 43.6825 26.7789 45.5852 30.6307C47.4878 34.4844 45.6962 36.9172 41.5843 36.0666C37.4706 35.2161 32.595 31.4026 30.6923 27.5489C28.7897 23.6972 30.5815 21.2644 34.6952 22.115Z" stroke="#1C2121" stroke-width="0.12065" stroke-miterlimit="10"/>
<path d="M41.5841 36.0666C39.3025 35.595 36.7871 34.2103 34.6748 32.4144L33.2639 34.293C35.3661 36.0686 37.8594 37.4332 40.1228 37.9008C42.1283 38.3159 43.5814 37.9491 44.3233 37.018L45.7864 35.1818C45.0448 36.113 43.5914 36.4798 41.5861 36.0646L41.5841 36.0666Z" fill="#1C2121"/>
<path d="M36.4495 17.4669L38.3481 16.4288C36.4253 17.481 35.5929 20.3309 36.4454 23.9327L34.5468 24.9707C33.6942 21.3669 34.5266 18.517 36.4495 17.4669Z" fill="#0F3DFB" stroke="#1C2121" stroke-width="0.12065" stroke-miterlimit="10"/>
<path d="M36.4447 23.935C35.2757 18.9888 37.2792 15.4616 40.9212 16.0582C44.5614 16.6548 48.4592 21.1455 49.6283 26.0936C50.7974 31.0378 48.7938 34.565 45.1538 33.9684C41.5118 33.3718 37.6137 28.8811 36.4447 23.935Z" fill="white" stroke="#1C2121" stroke-width="0.12065" stroke-linecap="round" stroke-linejoin="round"/>
<path d="M36.4447 23.935C35.2757 18.9888 37.2792 15.4616 40.9212 16.0582C44.5614 16.6548 48.4592 21.1455 49.6283 26.0936C50.7974 31.0378 48.7938 34.565 45.1538 33.9684C41.5118 33.3718 37.6137 28.8811 36.4447 23.935Z" stroke="#1C2121" stroke-width="0.12065" stroke-miterlimit="10"/>
<path d="M47.7256 33.5955L45.827 34.6335C45.1115 35.0245 44.2428 35.1676 43.2551 35.0064C39.613 34.4097 35.7149 29.9191 34.5459 24.973L36.4445 23.9349C37.6135 28.8791 41.5116 33.3717 45.1537 33.9683C46.1415 34.1296 47.0081 33.9885 47.7256 33.5955Z" fill="#0F3DFB" stroke="#1C2121" stroke-width="0.12065" stroke-miterlimit="10"/>
<path d="M45.1539 33.9664C42.8906 33.5955 40.5304 31.721 38.7849 29.1674L36.7815 30.0502C38.535 32.6825 40.9476 34.6275 43.2553 35.0044C44.243 35.1656 45.1097 35.0245 45.8272 34.6315L47.7258 33.5935C47.0103 33.9845 46.1417 34.1276 45.1539 33.9664Z" fill="#1C2121"/>
<path d="M44.6247 13.3573L46.06 11.8436C45.3526 12.5914 44.9311 13.6274 44.8929 14.9153L43.458 16.429C43.4942 15.1411 43.9153 14.1031 44.6247 13.3573Z" fill="#0F3DFB" stroke="#1C2121" stroke-width="0.12065" stroke-miterlimit="10"/>
<path d="M60.2602 25.2895L58.8252 26.8032C57.3437 28.3673 54.6065 28.6555 51.5147 27.289C46.9497 25.2734 43.3398 20.4099 43.4548 16.4292L44.8898 14.9155C44.7747 18.8963 48.3846 23.7597 52.95 25.7753C56.0419 27.1398 58.779 26.8516 60.2602 25.2895Z" fill="#0F3DFB" stroke="#1C2121" stroke-width="0.12065" stroke-miterlimit="10"/>
<path d="M52.9524 25.7772C51.5597 25.1625 50.2579 24.2817 49.121 23.2417L47.668 24.7392C48.8085 25.7853 50.1168 26.6721 51.5175 27.2909C54.6094 28.6555 57.3465 28.3672 58.8281 26.8052L60.263 25.2915C58.7815 26.8556 56.0443 27.1438 52.9524 25.7772Z" fill="#1C2121"/>
<path d="M44.8921 14.9154C45.0071 10.9326 48.8003 9.34035 53.3657 11.3559C57.9327 13.3734 61.5426 18.237 61.4276 22.2197C61.3129 26.2004 57.5197 27.7947 52.9523 25.7771C48.3873 23.7616 44.7774 18.8981 44.8921 14.9174V14.9154Z" fill="white" stroke="#1C2121" stroke-width="0.12065" stroke-linecap="round" stroke-linejoin="round"/>
<path d="M44.8921 14.9154C45.0071 10.9326 48.8003 9.34035 53.3657 11.3559C57.9327 13.3734 61.5426 18.237 61.4276 22.2197C61.3129 26.2004 57.5197 27.7947 52.9523 25.7771C48.3873 23.7616 44.7774 18.8981 44.8921 14.9174V14.9154Z" stroke="#1C2121" stroke-width="0.12065" stroke-miterlimit="10"/>
<path d="M60.2075 7.91542L62.3723 7.70984C59.5182 7.97992 57.3899 11.8336 57.5029 16.7999L55.338 17.0055C55.225 12.0372 57.3537 8.18551 60.2075 7.91542Z" fill="#0F3DFB" stroke="#1C2121" stroke-width="0.12065" stroke-miterlimit="10"/>
<path d="M57.5015 16.8019C57.3805 11.4305 59.8779 7.3631 63.0808 7.71784C66.2833 8.07257 68.9782 12.7144 69.0992 18.0858C69.2199 23.4593 66.7228 27.5266 63.52 27.1739C60.3171 26.8192 57.6226 22.1753 57.4995 16.8019H57.5015Z" fill="white" stroke="#1C2121" stroke-width="0.12065" stroke-linecap="round" stroke-linejoin="round"/>
<path d="M57.5015 16.8019C57.3805 11.4305 59.8779 7.3631 63.0808 7.71784C66.2833 8.07257 68.9782 12.7144 69.0992 18.0858C69.2199 23.4593 66.7228 27.5266 63.52 27.1739C60.3171 26.8192 57.6226 22.1753 57.4995 16.8019H57.5015Z" stroke="#1C2121" stroke-width="0.12065" stroke-miterlimit="10"/>
<path d="M64.2285 27.1801L62.0636 27.3856C61.832 27.4078 61.5963 27.4058 61.3542 27.3796C58.1517 27.0249 55.4568 22.3811 55.3337 17.0076L57.4986 16.802C57.6197 22.1755 60.3142 26.8193 63.519 27.174C63.7587 27.2002 63.9968 27.2022 64.2285 27.1801Z" fill="#0F3DFB" stroke="#1C2121" stroke-width="0.12065" stroke-miterlimit="10"/>
<path d="M56.3945 22.4113C57.4888 25.1907 59.3191 27.1538 61.3565 27.3796C61.5966 27.4058 61.8342 27.4078 62.0663 27.3857L64.2308 27.1801C63.9991 27.2022 63.763 27.2002 63.5213 27.174C61.4856 26.9483 59.6557 24.9892 58.561 22.2137L56.3945 22.4113Z" fill="#1C2121"/>
<path d="M76.0142 10.1606L77.943 11.7408C77.6084 11.4667 77.1366 11.3478 76.5302 11.4143C73.8513 11.7066 69.5421 15.4777 66.9019 19.8373C64.8601 23.2093 64.4149 25.9444 65.5554 26.8776L63.6266 25.2974C62.4857 24.3642 62.9333 21.6291 64.9731 18.2571C67.6133 13.8975 71.9225 10.1264 74.6014 9.83411C75.2078 9.7676 75.6796 9.88652 76.0142 10.1606Z" fill="#0F3DFB" stroke="#1C2121" stroke-width="0.12065" stroke-miterlimit="10"/>
<path d="M66.9687 27.2022C64.2903 27.4945 64.2622 24.197 66.9024 19.8354C69.5426 15.4758 73.8518 11.7047 76.5307 11.4124C79.2095 11.1202 79.2377 14.4176 76.599 18.7772C73.9588 23.1389 69.6476 26.91 66.9708 27.2022H66.9687Z" fill="#1C2121" stroke="#1C2121" stroke-width="0.12065" stroke-miterlimit="10"/>
<path d="M65.553 26.8756C64.9043 26.3455 64.7712 25.2289 65.1521 23.7455L63.173 22.3749C62.8585 23.7535 63.0057 24.7915 63.6242 25.2974L65.553 26.8776V26.8756Z" fill="#1C2121"/>
<path d="M86.1705 35.9194C83.4273 37.1731 83.484 35.1898 86.2935 31.4933C89.1051 27.7948 93.6081 23.7818 96.3513 22.5302C99.0921 21.2785 99.0378 23.2598 96.2242 26.9583C93.4143 30.6548 88.9116 34.6678 86.1705 35.9194Z" fill="#1C2121" stroke="#1C2121" stroke-width="0.12065" stroke-miterlimit="10"/>
<path d="M96.3513 20.4744L98.1973 22.3327C97.9174 22.0525 97.3045 22.0969 96.3513 22.5302C93.6082 23.7839 89.1075 27.7948 86.2936 31.4934C84.4597 33.906 83.7985 35.589 84.3245 36.117L82.4782 34.2587C81.9522 33.7306 82.6133 32.0476 84.4472 29.635C87.2592 25.9365 91.7618 21.9236 94.505 20.6719C95.4561 20.2366 96.071 20.1922 96.3513 20.4744Z" fill="#0F3DFB" stroke="#1C2121" stroke-width="0.12065" stroke-miterlimit="10"/>
<path d="M83.0623 31.6909C82.3147 32.997 82.1192 33.9 82.4779 34.2608L84.3243 36.1191C83.9615 35.7522 84.167 34.8332 84.9368 33.5009L83.0643 31.6909H83.0623Z" fill="#1C2121"/>
<path d="M76.6932 31.5054L74.7725 30.413C74.468 30.2396 74.1881 30.0139 73.938 29.7338L75.8587 30.8262C76.1089 31.1063 76.3888 31.3321 76.6932 31.5054Z" fill="white" stroke="#1C2121" stroke-width="0.12065" stroke-linecap="round" stroke-linejoin="round"/>
<path d="M84.429 13.4037L86.3497 14.4961C84.0743 13.2021 80.4359 14.875 77.6766 18.6884C74.5485 23.0118 73.7362 28.4457 75.8588 30.826L73.9381 29.7336C71.8154 27.3533 72.6278 21.9174 75.7558 17.596C78.5131 13.7826 82.1511 12.1097 84.429 13.4037Z" fill="#0F3DFB" stroke="#1C2121" stroke-width="0.12065" stroke-miterlimit="10"/>
<path d="M75.8592 30.8263C73.7366 28.4459 74.5489 23.01 77.677 18.6887C80.803 14.3674 85.06 12.7952 87.1822 15.1756C89.3069 17.5579 88.4945 22.9919 85.3684 27.3132C82.2404 31.6365 77.9855 33.2086 75.8612 30.8283L75.8592 30.8263Z" fill="white" stroke="#1C2121" stroke-width="0.12065" stroke-linecap="round" stroke-linejoin="round"/>
<path d="M72.759 26.0734C72.7771 27.5689 73.1584 28.8589 73.9402 29.7336L75.8609 30.826C75.049 29.915 74.6677 28.5565 74.6798 26.9844L72.759 26.0734Z" fill="#1C2121"/>
<path d="M75.8592 30.8263C73.7366 28.4459 74.5489 23.01 77.677 18.6887C80.803 14.3674 85.06 12.7952 87.1822 15.1756C89.3069 17.5579 88.4945 22.9919 85.3684 27.3132C82.2404 31.6365 77.9855 33.2086 75.8612 30.8283L75.8592 30.8263Z" stroke="#1C2121" stroke-width="0.12065" stroke-linecap="round" stroke-linejoin="round"/>
<path d="M157.036 131.424L150.513 129.405C149.601 129.122 147.79 128.955 146.839 129.04L133.847 130.202C132.309 130.34 130.683 130.767 129.271 131.394L125.505 133.071L120.441 134.641C119.357 134.977 118.505 137.136 118.825 138.227L119.135 139.285C119.432 140.296 120.808 141.693 123.332 141.808C126.194 141.939 129.799 142.143 135.387 140.794L145.221 142.804C145.221 142.804 149.679 153.686 163.508 158.67" fill="#1C2121"/>
<path d="M157.036 131.424L150.513 129.405C149.601 129.122 147.79 128.955 146.839 129.04L133.847 130.202C132.309 130.34 130.683 130.767 129.271 131.394L125.505 133.071L120.441 134.641C119.357 134.977 118.505 137.136 118.825 138.227L119.135 139.285C119.432 140.296 120.808 141.693 123.332 141.808C126.194 141.939 129.799 142.143 135.387 140.794L145.221 142.804C145.221 142.804 149.679 153.686 163.508 158.67" stroke="#7F908E" stroke-width="0.12065" stroke-miterlimit="10"/>
<path d="M157.035 131.424L150.513 129.405C149.6 129.122 147.79 128.955 146.838 129.04L135.902 130.017" stroke="#0F3DFB" stroke-width="0.12065" stroke-miterlimit="10"/>
<path d="M135.386 140.795C135.386 140.795 135.981 140.006 135.534 138.777" stroke="#7F908E" stroke-width="0.12065" stroke-miterlimit="10"/>
<path d="M138.933 141.52L143.53 142.459C144.548 142.667 145.423 143.31 145.927 144.219C147.65 147.329 152.735 154.788 163.508 158.672" stroke="#0F3DFB" stroke-width="0.12065" stroke-miterlimit="10"/>
<path d="M154.004 124.027L152.015 126.905C151.334 127.893 149.796 128.784 148.6 128.886L146.837 129.038" stroke="#7F908E" stroke-width="0.12065" stroke-miterlimit="10"/>
<path d="M125.702 133.649L126.819 137.183C126.966 137.65 126.755 138.255 126.349 138.529L122.907 140.849C122.907 140.849 120.611 140.649 119.821 138.565C119.259 137.082 119.758 136.286 120.167 135.629" stroke="#7F908E" stroke-width="0.12065" stroke-miterlimit="10"/>
<path d="M135.314 140.109L134.999 138.857" stroke="#1C2121" stroke-width="0.12065" stroke-miterlimit="10"/>
<path d="M146.463 143.151C148.988 143.799 151.403 142.804 151.403 142.804" stroke="#7F908E" stroke-width="0.12065" stroke-miterlimit="10"/>
<path d="M191.385 142.32L182.332 138.344C177.204 137.049 166.749 153.96 164.998 164.63C163.837 171.715 163.647 175.113 168.582 176.433L173.552 177.762C175.045 178.161 177.226 179.312 178.397 180.317L179.004 180.837" fill="white"/>
<path d="M191.385 142.32L182.332 138.344C177.204 137.049 166.749 153.96 164.998 164.63C163.837 171.715 163.647 175.113 168.582 176.433L173.552 177.762C175.045 178.161 177.226 179.312 178.397 180.317L179.004 180.837" stroke="#1C2121" stroke-width="0.12065" stroke-miterlimit="10"/>
<path d="M183.557 175.538C183.557 175.538 175.332 170.084 166.197 169.181C166.197 169.181 165.151 176.328 168.356 178.035L181.234 184.896" fill="white"/>
<path d="M183.557 175.538C183.557 175.538 175.332 170.084 166.197 169.181C166.197 169.181 165.151 176.328 168.356 178.035L181.234 184.896" stroke="#1C2121" stroke-width="0.12065" stroke-miterlimit="10"/>
<path d="M170.906 177.913C171.287 178.529 171.89 179.18 172.658 179.751C173.426 180.323 174.222 180.714 174.921 180.902L176 181.706L176.804 180.625C177.391 179.84 176.484 178.173 174.778 176.903C173.073 175.633 171.217 175.242 170.631 176.028L169.826 177.109L170.904 177.913H170.906Z" fill="white" stroke="#1C2121" stroke-width="0.12065" stroke-miterlimit="10"/>
<path d="M175.999 181.702C176.585 180.915 175.677 179.248 173.972 177.978C172.267 176.708 170.41 176.316 169.824 177.102C169.238 177.889 170.145 179.556 171.851 180.826C173.556 182.096 175.413 182.488 175.999 181.702Z" fill="white" stroke="#1C2121" stroke-width="0.12065" stroke-miterlimit="10"/>
<path d="M43.0499 112.762C42.3202 111.778 38.1964 113.619 33.8428 116.856C29.4933 120.089 26.5586 123.503 27.2782 124.491C27.2782 124.491 27.2782 124.491 27.2782 124.493C35.548 134.528 45.9019 141.631 56.8806 144.701L62.661 126.168C55.5945 124.372 48.7375 119.631 43.0478 112.76L43.0499 112.762Z" fill="#EA8A2A" stroke="#1C2121" stroke-width="0.12065" stroke-miterlimit="10"/>
<path d="M29.5252 120.572C28.6484 121.471 27.9813 122.293 27.5842 122.967C35.7432 132.796 45.7928 139.95 56.4993 143.501L56.4426 139.726C46.5022 136.294 37.1742 129.64 29.5252 120.572Z" fill="#1C2121"/>
<path d="M63.9006 136.731C65.5044 131.615 64.9494 126.887 62.6603 126.169C60.3716 125.451 57.2158 129.016 55.6115 134.131C54.0077 139.247 54.5627 143.976 56.8518 144.693C59.1405 145.411 62.2967 141.846 63.9006 136.731Z" fill="#1C2121" stroke="#1C2121" stroke-width="0.12065" stroke-miterlimit="10"/>
<path d="M85.3221 86.7091L86.1103 86.4232C86.3677 86.9585 86.72 87.0791 87.2875 86.8716C87.6973 86.7224 87.9969 86.4232 87.8421 85.9985C87.6764 85.5473 87.2666 85.5943 86.6018 85.6522C85.824 85.723 85.0932 85.7411 84.7414 84.7811C84.41 83.871 84.8753 83.1681 85.758 82.8483C86.6516 82.523 87.4162 82.8218 87.8155 83.7271L87.043 84.0074C86.8302 83.559 86.4333 83.4411 86.0235 83.5903C85.5899 83.748 85.3848 84.0625 85.5059 84.3931C85.6426 84.7683 85.9603 84.7759 86.6018 84.7104C87.4926 84.6187 88.2414 84.603 88.6042 85.5971C88.9456 86.5334 88.4859 87.2915 87.5923 87.6168C86.5149 88.0077 85.7029 87.6772 85.3193 86.712L85.3221 86.7091Z" fill="#1C2121"/>
<path d="M100.88 78.7258L101.607 78.4611L101.756 78.8726L101.772 78.8673C101.848 78.511 102.037 78.2018 102.426 78.0602C103.18 77.7851 103.922 78.3248 104.301 79.3552C104.692 80.4245 104.44 81.2815 103.707 81.549C103.308 81.693 102.98 81.6013 102.715 81.3785L102.704 81.3837L103.237 82.8383L102.484 83.1138L100.882 78.7258H100.88ZM103.547 79.6616C103.319 79.0379 102.97 78.6683 102.505 78.836C102.035 79.0065 102.017 79.5462 102.232 80.1386C102.45 80.739 102.833 81.0431 103.282 80.8806C103.665 80.7414 103.776 80.2854 103.547 79.6616Z" fill="#1C2121"/>
<path d="M88.0002 82.0567L88.7507 81.7816L89.0354 82.5683L88.2854 82.8437L88.0002 82.0567ZM88.4736 83.3601L89.2236 83.085L90.4261 86.3917L89.6761 86.6671L88.4736 83.3601Z" fill="#1C2121"/>
<path d="M93.9198 81.8243L93.9355 81.8191C94.0011 81.3948 94.1921 81.1121 94.5798 80.9709C95.167 80.7562 95.7485 81.1278 96.0103 81.8505L96.7965 84.0049L96.0445 84.2796L95.3057 82.2534C95.1774 81.8999 94.9076 81.7141 94.5931 81.8267C94.2605 81.947 94.1294 82.3451 94.2943 82.7952L94.9783 84.6668L94.2263 84.9419L93.021 81.6409L93.7574 81.3739L93.9223 81.8243H93.9198Z" fill="#1C2121"/>
<path d="M98.6088 82.2582C99.0435 82.9391 99.7151 82.9519 99.7151 82.9519C100.021 82.958 100.204 82.8655 100.59 82.7187C101.174 82.4971 101.37 81.8351 101.095 81.1168L100.279 78.9717L99.5301 79.2556L100.298 81.2729C100.433 81.6244 100.351 81.9417 100.039 82.0623C99.7087 82.1886 99.3488 81.9735 99.1786 81.5246L98.4696 79.6606L97.7212 79.9445C97.7212 79.9445 98.174 81.5777 98.6088 82.2582Z" fill="#1C2121"/>
<path d="M90.9978 86.2399L91.7434 85.9669C91.8797 86.1507 92.0993 86.2528 92.4476 86.1269C92.8739 85.9721 92.9917 85.6572 92.8268 85.206L92.6961 84.844L92.6804 84.8493C92.594 85.13 92.4395 85.3765 92.0812 85.5076C91.4502 85.7388 90.6209 85.3845 90.257 84.3848C89.8986 83.3978 90.1786 82.579 90.8956 82.3168C91.2487 82.1881 91.568 82.2537 91.8403 82.4688L91.8508 82.4636L91.7253 82.1145L92.45 81.8495L93.5624 84.9068C93.7325 85.3713 93.7192 85.7336 93.5909 86.0352C93.4474 86.3791 93.1252 86.6309 92.7038 86.7833C91.9292 87.0664 91.3143 86.8512 91.003 86.2347L90.9978 86.2399ZM92.2932 83.6182C92.1178 83.1356 91.7462 82.8022 91.2934 82.9675C90.9113 83.1067 90.783 83.5474 90.9845 84.1036C91.1888 84.6655 91.5628 84.9015 91.9501 84.76C92.4267 84.5866 92.4709 84.1093 92.2932 83.6182Z" fill="#1C2121"/>
<path d="M136.091 45.7388L135.357 42.9976L138.851 40.3633C139.59 39.8053 140.161 39.96 140.399 40.8564C140.643 41.7702 140.323 42.5494 139.584 43.1045L136.091 45.7388ZM134.65 40.3542L133.942 37.7109L137.266 35.2037C137.964 34.6791 138.514 34.8242 138.743 35.6789C138.972 36.5329 138.671 37.3224 137.974 37.8476L134.65 40.3542ZM135.362 29.9491L133.722 31.1859L134.458 33.9376L133.191 34.8926L132.455 32.141L130.815 33.3778L131.551 36.1294L130.122 37.2082L128.255 38.6173L129.008 41.435L130.875 40.0264L133.007 47.9947L131.139 49.4038L131.893 52.225L133.76 50.8164L135.189 49.7371L135.914 52.4435L137.554 51.2067L136.83 48.5008L138.097 47.5452L138.822 50.2516L140.462 49.0147L139.737 46.3083L140.877 45.4503C143.207 43.6933 144.162 41.1988 143.549 38.904C143.134 37.3487 142.23 36.7217 140.969 37.0415C141.76 35.7224 141.989 34.287 141.631 32.9441C141.032 30.709 139.326 30.2686 137.011 32.0149L136.099 32.7042L135.362 29.9526" fill="#1C2121"/>
</svg>
