<svg width="190" height="178" viewBox="0 0 190 178" fill="none" xmlns="http://www.w3.org/2000/svg">
<path d="M125.444 45.8703C125.291 45.8261 125.116 45.8543 124.952 45.9693L124.064 46.5878C123.9 46.7008 123.725 46.729 123.572 46.6847L128.849 48.1921C129.002 48.2367 129.177 48.2065 129.34 48.0955L130.229 47.4766C130.393 47.364 130.568 47.3354 130.721 47.3781L125.444 45.8703Z" fill="#1C2121" stroke="#1C2121" stroke-width="0.12065" stroke-miterlimit="10"/>
<path d="M139.262 18.6142L138.891 17.5762C138.816 17.3685 138.674 17.2335 138.504 17.1851L133.227 15.6775C133.397 15.7259 133.54 15.8609 133.614 16.0685L133.985 17.1065C134.06 17.3121 134.201 17.4471 134.37 17.4955L139.647 19.0031C139.48 18.9548 139.336 18.8197 139.262 18.6142Z" fill="white" stroke="#1C2121" stroke-width="0.12065" stroke-miterlimit="10"/>
<path d="M129.353 49.3509C129.2 49.3067 129.025 49.3349 128.862 49.4499L127.973 50.0684C127.809 50.1814 127.634 50.2116 127.479 50.1673L132.755 51.6751C132.911 51.7193 133.086 51.6891 133.249 51.5761L134.138 50.9576C134.301 50.8446 134.477 50.8164 134.63 50.8587L129.353 49.3509Z" fill="#1C2121" stroke="#1C2121" stroke-width="0.12065" stroke-miterlimit="10"/>
<path d="M144.405 18.1381L144.034 17.1002C143.959 16.8926 143.817 16.7595 143.649 16.7111L138.372 15.2035C138.54 15.2519 138.683 15.3869 138.757 15.5925L139.128 16.6305C139.203 16.8361 139.344 16.9711 139.513 17.0195L144.79 18.5272C144.623 18.4788 144.479 18.3437 144.405 18.1381Z" fill="white" stroke="#1C2121" stroke-width="0.12065" stroke-miterlimit="10"/>
<path d="M134.497 48.8751C134.342 48.8309 134.166 48.861 134.003 48.974L130.986 51.0701C130.822 51.1831 130.647 51.2113 130.494 51.1691L135.771 52.6764C135.924 52.721 136.099 52.6929 136.263 52.5779L139.28 50.4818C139.443 50.3688 139.62 50.3386 139.774 50.3828L134.497 48.8751Z" fill="#1C2121" stroke="#1C2121" stroke-width="0.12065" stroke-miterlimit="10"/>
<path d="M147.054 18.1038C146.979 17.8962 146.836 17.7612 146.669 17.7128L141.392 16.2052C141.559 16.2536 141.703 16.3886 141.777 16.5962L143.037 20.1133C143.111 20.3209 143.255 20.454 143.422 20.5024L148.698 22.01C148.531 21.9616 148.388 21.8266 148.313 21.621L147.054 18.1038Z" fill="white" stroke="#1C2121" stroke-width="0.12065" stroke-miterlimit="10"/>
<path d="M144.804 19.7849C145.144 19.5491 145.539 19.6801 145.68 20.0772L148.72 28.5546C148.863 28.9536 148.7 29.4716 148.361 29.7075L147.473 30.3262C147.132 30.562 146.971 31.08 147.111 31.4771L148.371 34.9942C148.515 35.3933 148.351 35.9113 148.011 36.1491L147.121 36.7659C146.779 37.0037 146.618 37.5217 146.759 37.9188L147.13 38.9568C147.271 39.3538 147.109 39.8718 146.769 40.1077L143.752 42.204C143.409 42.4416 143.248 42.9596 143.389 43.3566L143.76 44.3946C143.901 44.7919 143.74 45.3099 143.399 45.5456L136.127 50.5984C135.786 50.8345 135.391 50.7034 135.25 50.3064L134.879 49.2684C134.738 48.8711 134.343 48.7404 134 48.9781L130.983 51.0742C130.643 51.3102 130.247 51.1791 130.107 50.7822L129.735 49.7442C129.595 49.3469 129.199 49.2157 128.859 49.4518L127.97 50.0704C127.627 50.3084 127.232 50.1773 127.091 49.7784L125.831 46.261C125.69 45.8641 125.293 45.733 124.955 45.9691L124.066 46.5876C123.725 46.8237 123.33 46.6926 123.187 46.2932L120.148 37.816C120.006 37.4189 120.168 36.901 120.508 36.6651L121.397 36.0463C121.738 35.8105 121.899 35.2925 121.758 34.8955L120.498 31.3784C120.355 30.9793 120.518 30.4613 120.859 30.2234L121.748 29.6047C122.089 29.3688 122.25 28.8509 122.109 28.4538L121.738 27.4158C121.597 27.0187 121.758 26.5007 122.099 26.2649L125.116 24.1687C125.459 23.9309 125.62 23.4129 125.479 23.0159L125.108 21.9778C124.965 21.5787 125.128 21.0608 125.467 20.8249L132.739 15.772C133.079 15.5361 133.474 15.6672 133.617 16.0662L133.988 17.1042C134.129 17.5013 134.524 17.6323 134.867 17.3945L137.884 15.2983C138.225 15.0625 138.62 15.1935 138.761 15.5906L139.132 16.6286C139.273 17.0257 139.668 17.1566 140.011 16.9188L140.899 16.3021C141.242 16.0642 141.637 16.1952 141.778 16.5943L143.038 20.1114C143.179 20.5085 143.576 20.6395 143.915 20.4037L144.804 19.7849Z" fill="white" stroke="#1C2121" stroke-width="0.12065" stroke-miterlimit="10"/>
<path d="M143.403 45.5397L136.131 50.5925C135.967 50.7055 135.792 50.7337 135.639 50.6914L140.916 52.1992C141.071 52.2434 141.244 52.2152 141.408 52.1002L148.68 47.0474L143.403 45.5397Z" fill="#1C2121" stroke="#1C2121" stroke-width="0.12065" stroke-miterlimit="10"/>
<path d="M143.391 43.3525L143.762 44.3905C143.903 44.7879 143.742 45.3059 143.401 45.5415L148.678 47.0493C149.018 46.8136 149.18 46.2952 149.038 45.8983L148.668 44.8603L143.391 43.3525Z" fill="white" stroke="#1C2121" stroke-width="0.12065" stroke-miterlimit="10"/>
<path d="M148.359 29.7076L147.47 30.3264C147.13 30.5622 146.968 31.0802 147.11 31.4773L152.386 32.9849C152.245 32.5878 152.406 32.0699 152.747 31.8341L153.636 31.2153L148.359 29.7076Z" fill="#1C2121" stroke="#1C2121" stroke-width="0.12065" stroke-miterlimit="10"/>
<path d="M150.957 21.5849C150.883 21.3773 150.74 21.2442 150.572 21.1958L145.296 19.6882C145.463 19.7366 145.606 19.8716 145.681 20.0772L148.72 28.5546C148.863 28.9537 148.7 29.4717 148.361 29.7075L153.638 31.2151C153.979 30.9793 154.14 30.4613 153.997 30.0622L150.957 21.5849Z" fill="white" stroke="#1C2121" stroke-width="0.12065" stroke-miterlimit="10"/>
<path d="M146.772 40.1036L143.754 42.2C143.411 42.4377 143.251 42.9556 143.391 43.3526L148.668 44.8603C148.527 44.4634 148.688 43.9454 149.031 43.7073L152.048 41.6112L146.772 40.1036Z" fill="#1C2121" stroke="#1C2121" stroke-width="0.12065" stroke-miterlimit="10"/>
<path d="M148.009 36.1472L147.12 36.7639C146.778 37.0018 146.616 37.5198 146.757 37.9168L152.034 39.4245C151.893 39.0274 152.054 38.5094 152.397 38.2716L153.286 37.6548L148.009 36.1472Z" fill="#1C2121" stroke="#1C2121" stroke-width="0.12065" stroke-miterlimit="10"/>
<path d="M146.759 37.917L147.13 38.955C147.271 39.352 147.11 39.87 146.769 40.1059L152.046 41.6134C152.387 41.3777 152.548 40.8597 152.407 40.4626L152.036 39.4246L146.759 37.917Z" fill="white" stroke="#1C2121" stroke-width="0.12065" stroke-miterlimit="10"/>
<path d="M147.111 31.4752L148.37 34.9924C148.513 35.3914 148.35 35.9094 148.009 36.1473L153.286 37.6549C153.629 37.417 153.79 36.899 153.647 36.5L152.387 32.9829L147.111 31.4752Z" fill="white" stroke="#1C2121" stroke-width="0.12065" stroke-miterlimit="10"/>
<path d="M9.99842 138.057L11.8245 137.15C12.6085 136.761 13.5578 136.801 13.9327 137.239L14.8075 138.261C15.6641 139.261 17.4418 138.946 18.7559 137.561L20.0983 136.147C20.6747 135.54 21.7067 135.149 22.392 135.278L23.9863 135.578C25.5463 135.872 27.2253 134.879 27.715 133.367L28.2149 131.825C28.4306 131.162 29.269 130.444 30.0773 130.231L31.9618 129.731C33.808 129.241 34.9388 127.834 34.4712 126.603L33.9955 125.345C33.7899 124.805 34.2112 123.952 34.9287 123.453L36.6016 122.286C37.8512 121.415 38.3088 120.367 37.8795 119.643C37.7464 119.417 37.5267 119.224 37.2183 119.077L35.8921 118.442C35.3237 118.17 35.2129 117.412 35.6462 116.759L36.658 115.237C37.1539 114.492 37.2385 113.846 36.9785 113.407L39.0182 116.847C39.2782 117.287 39.1936 117.934 38.6977 118.678L37.9621 119.784L39.9192 123.084C40.3485 123.807 39.891 124.855 38.6413 125.726L36.9684 126.893C36.2509 127.395 35.8297 128.246 36.0352 128.786L36.5109 130.043C36.9765 131.275 35.8478 132.684 34.0015 133.171L32.117 133.671C31.3068 133.885 30.4683 134.605 30.2547 135.265L29.7548 136.807C29.265 138.319 27.5861 139.313 26.026 139.018L24.4317 138.718C23.7464 138.589 22.7165 138.98 22.138 139.587L20.7957 141.002C19.4795 142.387 17.7038 142.703 16.8472 141.701L15.9725 140.679C15.5976 140.24 14.6483 140.2 13.8642 140.591L12.0381 141.498C10.6736 142.175 9.53484 142.074 9.10754 141.351L7.27136 138.255L7.31572 138.198C7.85386 138.646 8.84347 138.632 9.99842 138.057Z" fill="white" stroke="#0F3DFB" stroke-width="0.12065" stroke-linecap="round" stroke-linejoin="round"/>
<path d="M5.82606 138.166C4.93522 138.243 4.32651 138.009 4.0665 137.568L2.14771 134.288C2.45205 134.623 3.01237 134.792 3.78634 134.725L5.6064 134.568C6.38841 134.502 6.99914 134.962 6.96488 135.592L6.88625 137.06C6.86812 137.4 6.93262 137.687 7.06562 137.912C7.13214 138.023 7.2168 138.118 7.31356 138.2L7.2692 138.257L7.14827 138.053L5.82405 138.168L5.82606 138.166Z" fill="#0F3DFB"/>
<path d="M13.9332 137.239L14.808 138.261C15.0438 138.537 15.3502 138.708 15.6969 138.789L17.7366 142.229C17.3899 142.149 17.0835 141.975 16.8478 141.701L15.973 140.679C15.6606 140.315 14.9552 140.226 14.2739 140.429L12.2341 136.989C12.9134 136.785 13.6208 136.874 13.9332 137.239Z" fill="#0F3DFB"/>
<path d="M22.3941 135.278L23.9884 135.578C24.7684 135.725 25.5787 135.55 26.2539 135.151L28.2936 138.592C27.6184 138.993 26.8082 139.168 26.0282 139.019L24.4339 138.718C24.1255 138.66 23.7445 138.708 23.3676 138.833L21.3279 135.393C21.7048 135.268 22.0837 135.219 22.3941 135.278Z" fill="#0F3DFB"/>
<path d="M30.0794 130.231L31.9639 129.731C32.625 129.555 33.1934 129.261 33.6288 128.9L35.6685 132.341C35.2311 132.702 34.6648 132.996 34.0036 133.171L32.1191 133.671C31.7805 133.76 31.4399 133.939 31.1396 134.163L29.0999 130.722C29.4002 130.499 29.7428 130.322 30.0794 130.231Z" fill="#0F3DFB"/>
<path d="M9.10708 141.353L7.16614 138.078L7.18226 138.068C7.56722 138.517 8.29888 138.638 9.19982 138.374L11.2395 141.815C10.2418 142.106 9.44972 141.927 9.10708 141.351V141.353Z" fill="#0F3DFB"/>
<path d="M31.9418 109.622L34.4007 113.772L31.2948 113.975L29.8093 110.886L31.9418 109.622Z" fill="white" stroke="#0F3DFB" stroke-width="0.12065" stroke-linecap="round" stroke-linejoin="round"/>
<path d="M1.1261 127.891L3.32506 126.587L5.12898 130.607L3.65561 132.157L1.1261 127.891Z" fill="#0F3DFB"/>
<path d="M23.9861 135.578C25.5462 135.873 27.2251 134.879 27.7149 133.367L28.2147 131.826C28.4304 131.162 29.2689 130.444 30.0771 130.231L31.9617 129.731C33.8079 129.241 34.9386 127.834 34.471 126.603L33.9953 125.345C33.7897 124.805 34.211 123.955 34.9285 123.453L36.6014 122.286C37.8511 121.415 38.3086 120.367 37.8793 119.643C37.7463 119.417 37.5266 119.224 37.2182 119.077L35.892 118.442C35.3236 118.17 35.2127 117.412 35.6461 116.759L36.6579 115.237C37.1537 114.492 37.2383 113.847 36.9783 113.407C36.7183 112.968 36.1096 112.732 35.2188 112.809L33.3987 112.966C32.6167 113.032 32.006 112.573 32.0402 111.942L32.1189 110.474C32.137 110.134 32.0725 109.848 31.9395 109.622C31.5101 108.898 30.3714 108.798 29.0089 109.475L27.1828 110.382C26.3987 110.771 25.4494 110.731 25.0745 110.293L24.1998 109.271C23.3432 108.272 21.5654 108.586 20.2513 109.971L18.909 111.386C18.3325 111.992 17.3006 112.384 16.6153 112.254L15.021 111.954C13.461 111.66 11.782 112.653 11.2922 114.165L10.7923 115.707C10.5767 116.37 9.73823 117.088 8.92999 117.301L7.04548 117.801C5.19921 118.291 4.0685 119.698 4.53611 120.929L5.0118 122.187C5.21735 122.727 4.79612 123.578 4.07858 124.079L2.40568 125.246C1.15604 126.117 0.698509 127.165 1.12782 127.889C1.26085 128.115 1.48054 128.308 1.78892 128.455L3.11515 129.09C3.68353 129.362 3.79439 130.12 3.36105 130.773L2.34924 132.295C1.92396 132.936 1.80101 133.502 1.94009 133.93C2.12552 134.496 2.77251 134.812 3.78834 134.726L5.60837 134.568C6.39043 134.502 7.00112 134.962 6.96685 135.592L6.88827 137.06C6.87009 137.4 6.9346 137.687 7.06764 137.912C7.49695 138.636 8.63573 138.737 9.99823 138.06L11.8243 137.152C12.6084 136.763 13.5577 136.804 13.9326 137.241L14.8073 138.263C15.664 139.263 17.4417 138.948 18.7558 137.564L20.0981 136.149C20.6746 135.542 21.7066 135.151 22.3918 135.28L23.9861 135.58V135.578Z" fill="white" stroke="#0F3DFB" stroke-width="0.12065" stroke-linecap="round" stroke-linejoin="round"/>
<path d="M27.8683 120.827C27.4793 121.266 26.9976 121.61 26.4211 121.861C25.8447 122.11 25.3146 122.205 24.8268 122.145C24.3411 122.084 24.0609 121.887 23.9883 121.55C23.9158 121.214 24.069 120.833 24.4479 120.403C24.462 120.387 24.4761 120.373 24.4902 120.357L22.5835 120.583C22.2368 121.032 22.0091 121.459 21.9002 121.858C21.7632 122.368 21.8256 122.786 22.0897 123.114C22.3537 123.443 22.7992 123.644 23.428 123.723C24.0427 123.799 24.718 123.735 25.4536 123.529C26.1893 123.326 26.9069 123.003 27.6082 122.564C28.3097 122.124 28.9224 121.61 29.4444 121.02C29.8677 120.54 30.164 120.089 30.3333 119.664L28.358 119.897C28.3359 120.172 28.1726 120.48 27.8683 120.824V120.827Z" fill="#0F3DFB"/>
<path d="M21.3433 130.029L22.9718 128.191L18.6122 121.058L16.0262 121.365L21.3433 130.029Z" fill="#0F3DFB"/>
<path d="M16.1089 125.17C16.3668 125.496 16.4273 125.915 16.2883 126.423C16.1512 126.933 15.8206 127.481 15.2986 128.072C14.7766 128.663 14.1639 129.177 13.4624 129.616C12.7611 130.055 12.0455 130.378 11.3179 130.583C10.5903 130.789 9.91105 130.852 9.28424 130.775C8.65738 130.698 8.20993 130.495 7.9459 130.168C7.68184 129.84 7.61939 129.422 7.75644 128.912C7.8935 128.405 8.22404 127.854 8.74606 127.264C9.26811 126.673 9.88081 126.159 10.5802 125.72C11.2816 125.28 11.9991 124.958 12.7348 124.754C13.4705 124.551 14.1517 124.487 14.7786 124.565C15.4054 124.642 15.8489 124.845 16.1068 125.172L16.1089 125.17ZM13.3838 126.141C12.8981 126.081 12.3619 126.176 11.7795 126.425C11.197 126.675 10.7112 127.018 10.3222 127.457C9.94331 127.885 9.79012 128.264 9.86066 128.594C9.9312 128.923 10.2093 129.118 10.6971 129.179C11.1849 129.239 11.719 129.144 12.3015 128.896C12.884 128.649 13.3637 128.31 13.7426 127.881C14.1316 127.441 14.2909 127.056 14.2203 126.728C14.1497 126.399 13.8716 126.204 13.3838 126.143V126.141Z" fill="#0F3DFB"/>
<path d="M15.2347 120.076L16.0269 121.365L18.6128 121.058L16.8774 118.22L15.2347 120.076Z" fill="#0F3DFB"/>
<path d="M30.2444 118.117C29.9804 117.789 29.541 117.587 28.9263 117.513C28.2994 117.436 27.6182 117.498 26.8825 117.704C26.1468 117.908 25.4293 118.23 24.7279 118.67C24.0265 119.109 23.4137 119.623 22.8917 120.213C22.7809 120.341 22.6801 120.463 22.5853 120.586L24.492 120.361C24.8649 119.955 25.3325 119.631 25.9009 119.393C26.4894 119.145 27.0276 119.05 27.5154 119.111C28.0031 119.171 28.2793 119.363 28.3498 119.685C28.3639 119.754 28.3659 119.827 28.3599 119.901L30.3351 119.667C30.3754 119.568 30.4097 119.472 30.4359 119.375C30.5729 118.867 30.5105 118.448 30.2464 118.119L30.2444 118.117Z" fill="#0F3DFB"/>
<path d="M27.9689 105.557C23.0026 98.2601 19.0602 89.7627 16.5649 80.3805C10.9678 59.3238 13.9145 38.5134 23.0328 23.4452L39.139 34.3614C33.294 44.8201 31.6674 59.8579 35.767 75.275C37.706 82.5711 40.7172 89.1562 44.4381 94.725L27.9689 105.557Z" fill="#0F3DFB" stroke="#1C2121" stroke-width="0.12065" stroke-miterlimit="10"/>
<path d="M31.6232 34.4927C31.6232 34.4927 30.2144 38.6085 29.5835 45.4188C29.0837 50.8167 31.8591 51.399 33.7174 45.56C35.5757 39.7211 38.7442 33.5494 38.7442 33.5494L31.6253 34.4927H31.6232Z" fill="#1C2121"/>
<path d="M30.8348 102.749C26.2293 95.9826 22.5731 88.1017 20.2592 79.3988C16.6192 65.705 15.5892 54.4725 18.6952 40.1359C19.1366 38.0942 18.4755 35.8428 17.5382 39.1463C14.0393 51.4756 13.7712 65.7292 17.5927 80.1082C20.0355 89.301 23.8993 97.6275 28.7648 104.776C28.8052 104.835 28.8475 104.893 28.8878 104.954L31.2742 103.384C31.1271 103.172 30.9799 102.963 30.8348 102.749Z" fill="#1C2121"/>
<path d="M37.2933 101.789C41.8432 98.8005 45.0501 95.6447 44.4556 94.7394C43.8608 93.8341 39.6905 95.522 35.1405 98.5097C30.5903 101.497 27.3837 104.654 27.9782 105.559C28.5727 106.464 32.7432 104.776 37.2933 101.789Z" fill="#1C2121" stroke="#1C2121" stroke-width="0.12065" stroke-miterlimit="10"/>
<path d="M39.1182 34.4062C40.5553 32.2995 38.1234 28.138 33.6865 25.1114C29.2495 22.0846 24.4877 21.3389 23.0505 23.4457C21.6134 25.5524 24.0452 29.7139 28.4822 32.7405C32.9191 35.7672 37.681 36.513 39.1182 34.4062Z" fill="#1C2121" stroke="#1C2121" stroke-width="0.12065" stroke-miterlimit="10"/>
<path d="M38.8545 84.3146C37.6452 81.4508 36.6051 78.4293 35.7667 75.2751C34.0273 68.7347 33.3239 62.2626 33.5315 56.1778C32.1911 52.9649 30.0708 50.0584 26.9729 51.4411C21.2044 54.0149 16.9032 62.3494 14.3293 68.8111C14.7949 72.6369 15.5346 76.5025 16.5646 80.3786C18.1649 86.399 20.3639 92.0523 23.0445 97.2608C23.0607 97.1377 23.6714 92.522 24.5341 89.9462C26.9729 82.6661 34.8496 78.9111 38.8545 84.3126V84.3146Z" fill="#1C2121"/>
<path d="M181.101 133.689L173.718 129.896C172.485 129.264 170.678 127.939 169.705 126.952L148.969 105.968C147.995 104.982 146.341 103.845 144.898 103.245L130.212 97.1377C129.063 96.6599 127.223 95.9887 125.98 95.9324L114.795 95.4244L116.952 104.049L128.84 109.015L132.573 111.257C133.066 111.553 133.31 112.238 133.117 112.778L132.919 113.329L125.26 111.912L106.288 108.693L84.9936 108.453C82.3915 108.423 80.3176 109.306 80.2753 111.412L80.2552 112.458C80.2086 114.893 82.472 116.819 86.1265 117.281L110.645 120.377L130.446 123.328V124.847L110.111 121.955L88.3396 121.129C86.2129 121.048 84.4675 121.941 84.4655 123.704V124.75C84.4635 127.038 86.1908 128.534 89.6997 129.199L110.645 133.165L133.046 138.124C133.556 138.237 134.004 138.755 134.04 139.277L134.113 140.317L117.932 139.646L101.577 139.98L97.4519 141.572C96.5044 141.937 96.0266 143.014 96.3894 143.961L96.835 145.12C97.3087 146.353 98.6387 147.006 100.098 147.363C101.313 147.662 103.617 148.008 108.344 148.018L120.503 148.58L133.312 150.729L147.75 159.271C149.431 160.265 152.4 161.196 154.346 161.339L163.229 161.992L170.344 165.558" fill="#1C2121"/>
<path d="M181.101 133.689L173.718 129.896C172.485 129.264 170.678 127.939 169.705 126.952L148.969 105.968C147.995 104.982 146.341 103.845 144.898 103.245L130.212 97.1377C129.063 96.6599 127.223 95.9887 125.98 95.9324L114.795 95.4244L116.952 104.049L128.84 109.015L132.573 111.257C133.066 111.553 133.31 112.238 133.117 112.778L132.919 113.329L125.26 111.912L106.288 108.693L84.9936 108.453C82.3915 108.423 80.3176 109.306 80.2753 111.412L80.2552 112.458C80.2086 114.893 82.472 116.819 86.1265 117.281L110.645 120.377L130.446 123.328V124.847L110.111 121.955L88.3396 121.129C86.2129 121.048 84.4675 121.941 84.4655 123.704V124.75C84.4635 127.038 86.1908 128.534 89.6997 129.199L110.645 133.165L133.046 138.124C133.556 138.237 134.004 138.755 134.04 139.277L134.113 140.317L117.932 139.646L101.577 139.98L97.4519 141.572C96.5044 141.937 96.0266 143.014 96.3894 143.961L96.835 145.12C97.3087 146.353 98.6387 147.006 100.098 147.363C101.314 147.662 103.617 148.008 108.344 148.018L120.503 148.58L133.312 150.729L147.75 159.271C149.431 160.265 152.4 161.196 154.346 161.339L163.229 161.992L170.344 165.558" stroke="#1C2121" stroke-width="0.12065" stroke-miterlimit="10"/>
<path d="M132.419 115.449C132.419 115.449 131.792 117.573 131.681 119.248" stroke="#0F3DFB" stroke-width="0.12065" stroke-miterlimit="10"/>
<path d="M133.828 111.268C133.828 111.268 135.124 108.941 136.444 107.322L133.828 111.268Z" fill="white"/>
<path d="M133.828 111.268C133.828 111.268 135.124 108.941 136.444 107.322" stroke="#0F3DFB" stroke-width="0.12065" stroke-miterlimit="10"/>
<path d="M135.25 145.545C135.25 145.545 134.114 142.931 134.114 140.315" stroke="#7F908E" stroke-width="0.12065" stroke-miterlimit="10"/>
<path d="M120.545 146.363V144.084" stroke="#0F3DFB" stroke-width="0.12065" stroke-miterlimit="10"/>
<path d="M53.0281 64.1712L59.3229 58.3446L58.317 38.6586C58.1678 35.7522 55.7673 34.5086 52.9598 35.5204L41.2635 39.7349L53.0281 64.1733V64.1712Z" fill="#0F3DFB" stroke="#1C2121" stroke-width="0.12065" stroke-miterlimit="10"/>
<path d="M11.7094 50.3808L52.9595 35.5183C54.314 35.0305 55.5715 35.0729 56.5311 35.5687C55.5354 34.7725 54.0602 34.6052 52.4455 35.1857L11.1954 50.0482C9.72611 50.5783 8.42607 51.5841 7.54126 52.8622L8.05925 53.1868C8.94406 51.9127 10.24 50.9089 11.7074 50.3808H11.7094Z" fill="white"/>
<path d="M7.54177 52.8621C6.73756 54.0227 6.27197 55.4054 6.34653 56.8648L7.66874 82.7624C7.74334 84.2058 8.43668 85.2739 9.48275 85.8201C8.72692 85.2216 8.24319 84.2862 8.1807 83.095L6.85849 57.1974C6.78393 55.7359 7.24952 54.3493 8.05775 53.1866L7.53976 52.8621H7.54177Z" fill="#1C2121" stroke="#1C2121" stroke-width="0.12065" stroke-miterlimit="10" stroke-linecap="round"/>
<path d="M7.3175 66.1567L8.1822 83.0932C8.32328 85.8565 10.7339 87.2431 13.5395 86.2317L54.7897 71.3688C57.5972 70.3569 59.7923 67.5675 59.639 64.5525L58.7744 47.6156L7.3175 66.1567Z" fill="#EA8A2A" stroke="#1C2121" stroke-width="0.12065" stroke-linecap="round" stroke-linejoin="round"/>
<path d="M44.2764 67.6017V69.1862C44.2764 69.4259 44.4618 69.555 44.6874 69.4741L46.0459 68.9843V66.963" stroke="#1C2121" stroke-width="0.12065" stroke-miterlimit="10"/>
<path d="M46.0466 71.006V68.9863" stroke="#1C2121" stroke-width="0.12065" stroke-miterlimit="10"/>
<path d="M49.1558 65.8462L47.7972 66.336C47.5716 66.4165 47.3862 66.6807 47.3862 66.9204V68.0694C47.3862 68.3091 47.5716 68.4382 47.7972 68.3577L48.7468 68.0151" stroke="#1C2121" stroke-width="0.12065" stroke-miterlimit="10"/>
<path d="M47.3862 70.5241L48.7448 70.0343C48.9704 69.9539 49.1558 69.6896 49.1558 69.4499V68.301C49.1558 68.0613 48.9704 67.9322 48.7448 68.013L47.7952 68.3556" stroke="#1C2121" stroke-width="0.12065" stroke-miterlimit="10"/>
<path d="M50.3636 66.9972C50.3636 67.2369 50.549 67.366 50.7747 67.2851L51.7242 66.9425C51.9498 66.8621 52.1352 66.5978 52.1352 66.3581V65.2092C52.1352 64.9695 51.9498 64.8404 51.7242 64.9212L50.7747 65.2638C50.549 65.3443 50.3636 65.6085 50.3636 65.8482V66.9972Z" stroke="#1C2121" stroke-width="0.12065" stroke-miterlimit="10"/>
<path d="M50.3636 69.0188C50.3636 69.2585 50.5511 69.3957 50.7787 69.3229L51.8593 68.9802C52.0869 68.9078 52.2623 68.6516 52.2442 68.414L52.1613 67.2328C52.1452 66.9931 51.9458 66.864 51.7202 66.9444L50.7706 67.2871C50.545 67.3679 50.3596 67.6317 50.3596 67.8718V69.0208L50.3636 69.0188Z" stroke="#1C2121" stroke-width="0.12065" stroke-miterlimit="10"/>
<path d="M43.6863 71.8093C43.7824 71.6424 43.7643 71.4518 43.6457 71.3834C43.527 71.315 43.3529 71.3946 43.2568 71.5615C43.1602 71.728 43.1783 71.9187 43.297 71.9874C43.4156 72.0558 43.5898 71.9762 43.6863 71.8093Z" fill="#1C2121"/>
<path d="M42.3434 72.2983C42.4395 72.1314 42.4218 71.9408 42.3032 71.8724C42.1846 71.804 42.0104 71.8837 41.9139 72.0506C41.8178 72.2171 41.8359 72.4081 41.9545 72.4765C42.0732 72.5448 42.2473 72.4652 42.3434 72.2983Z" fill="#1C2121"/>
<path d="M40.9963 72.788C41.0926 72.6211 41.0745 72.4305 40.9559 72.3621C40.8374 72.2938 40.6632 72.3734 40.5669 72.5403C40.4706 72.7068 40.4887 72.8974 40.6072 72.9662C40.7258 73.0346 40.9 72.9549 40.9963 72.788Z" fill="#1C2121"/>
<path d="M56.1705 70.6996C58.2807 69.3938 59.7683 67.0515 59.6412 64.5525L58.7766 47.6156L47.0884 51.8283L56.1725 70.6996H56.1705Z" fill="#1C2121"/>
<path d="M18.1698 73.7327C18.7808 71.7384 17.9922 69.728 16.4084 69.2429C14.8247 68.7579 13.0455 69.9817 12.4346 71.9761C11.8236 73.9708 12.6123 75.9808 14.196 76.4659C15.7797 76.9513 17.5589 75.7275 18.1698 73.7327Z" stroke="#0F3DFB" stroke-width="0.12065" stroke-miterlimit="10"/>
<path d="M18.4618 78.539C19.0728 76.5443 18.2842 74.5342 16.7004 74.0492C15.1166 73.5642 13.3375 74.7876 12.7266 76.7824C12.1156 78.7767 12.9042 80.7871 14.488 81.2722C16.0717 81.7572 17.8509 80.5338 18.4618 78.539Z" fill="#0F3DFB" stroke="#1C2121" stroke-width="0.12065" stroke-miterlimit="10"/>
<path d="M11.7092 50.3809C8.90157 51.3928 6.70461 54.134 6.86182 57.1977L8.18403 83.0952C8.32511 85.8585 10.7357 87.2452 13.5414 86.2337L54.7914 71.3708C57.5993 70.359 59.7939 67.5695 59.6411 64.5545L58.3188 38.6586C58.1696 35.7522 55.769 34.5086 52.9615 35.5204L11.7092 50.3809Z" stroke="#1C2121" stroke-width="0.12065" stroke-miterlimit="10" stroke-linecap="round"/>
<path d="M45.3368 54.3012C44.4178 54.6318 43.6983 55.5287 43.7506 56.5325L43.942 60.2734C43.9883 61.1783 44.7765 61.6319 45.6955 61.3014L50.5448 59.554C51.4642 59.2234 52.1836 58.3101 52.1334 57.3227L51.9415 53.5818C51.8933 52.6302 51.1075 52.2232 50.1881 52.5538L45.3388 54.3012H45.3368Z" fill="white"/>
<path d="M50.7609 59.4631C51.5733 59.0762 52.1778 58.2316 52.1315 57.3227L51.9401 53.5818C51.8918 52.6302 51.1056 52.2232 50.1866 52.5538L47.8424 53.3984L50.7609 59.461V59.4631Z" fill="#0F3DFB" stroke="#1C2121" stroke-width="0.12065" stroke-miterlimit="10"/>
<path d="M49.2571 58.1647L49.3637 59.9788" stroke="#1C2121" stroke-width="0.12065" stroke-miterlimit="10" stroke-linecap="round"/>
<path d="M46.7612 59.0642L46.8678 60.878" stroke="#1C2121" stroke-width="0.12065" stroke-miterlimit="10" stroke-linecap="round"/>
<path d="M48.9813 52.989L49.0859 54.8052" stroke="#1C2121" stroke-width="0.12065" stroke-miterlimit="10" stroke-linecap="round"/>
<path d="M46.4855 53.8882L46.59 55.704" stroke="#1C2121" stroke-width="0.12065" stroke-miterlimit="10" stroke-linecap="round"/>
<path d="M46.691 55.6679C46.2498 55.8272 45.9052 56.2587 45.9293 56.7401L46.0202 58.5362C46.0423 58.9693 46.4211 59.1893 46.8623 59.03L49.1905 58.1915C49.632 58.0322 49.9767 57.5947 49.9522 57.1193L49.8597 55.3232C49.8355 54.8656 49.4587 54.6701 49.0171 54.8294L46.689 55.6679H46.691Z" stroke="#1C2121" stroke-width="0.12065" stroke-miterlimit="10" stroke-linecap="round"/>
<path d="M98.7203 143.945C100 147.454 102.929 149.637 105.944 148.538L131.433 139.251C134.524 138.124 135.284 134.593 134.006 131.083L108.673 61.5732C107.393 58.0643 104.416 55.8974 101.449 56.978L75.9629 66.2677C73.1027 67.3097 72.1089 70.9236 73.389 74.4325L98.7224 143.943L98.7203 143.945Z" fill="white"/>
<path d="M73.387 74.4346C73.1393 73.7533 72.976 73.066 72.8976 72.3968L75.8061 71.3668L103.782 146.422L100.915 147.361C99.9904 146.509 99.2267 145.331 98.7227 143.945L73.3894 74.4346H73.387Z" fill="#1C2121"/>
<path d="M72.9621 69.859C72.9621 69.859 73.4278 68.2527 74.0266 67.6463L76.703 66.6425L76.4248 68.6276L72.9601 69.859H72.9621Z" fill="#1C2121"/>
<path d="M98.7203 143.945C100 147.454 102.929 149.637 105.944 148.538L131.433 139.251C134.524 138.124 135.284 134.593 134.006 131.083L108.673 61.5732C107.393 58.0643 104.416 55.8974 101.449 56.978L75.9629 66.2677C73.1027 67.3097 72.1089 70.9236 73.389 74.4325L98.7224 143.943L98.7203 143.945Z" stroke="#1C2121" stroke-width="0.12065" stroke-miterlimit="10" stroke-linecap="round"/>
<path d="M94.8605 118.698C95.9813 121.774 98.5512 123.688 101.193 122.725L123.538 114.584C125.922 113.715 126.916 110.501 125.793 107.425L115.26 78.5222C114.139 75.4464 111.529 73.5457 108.927 74.4928L86.5847 82.6359C84.0776 83.5488 83.2065 86.7171 84.3273 89.7929L94.8605 118.696V118.698Z" fill="#EA8A2A"/>
<path d="M104.929 119.752L103.254 121.008C101.315 122.461 98.0942 121.994 95.0406 119.53C91.0217 116.289 88.8146 110.819 90.1108 107.314C90.4229 106.471 90.9087 105.819 91.5216 105.359L93.1962 104.104C92.5817 104.563 92.0959 105.216 91.7854 106.058C90.4897 109.563 92.6967 115.034 96.7156 118.275C99.7692 120.738 102.99 121.205 104.929 119.752Z" fill="#EA8A2A" stroke="#1C2121" stroke-width="0.12065" stroke-miterlimit="10"/>
<path d="M101.412 105.581C105.433 108.824 107.638 114.292 106.341 117.799C105.046 121.304 100.738 121.52 96.7172 118.277C92.6984 115.036 90.4913 109.565 91.7874 106.061C93.0832 102.554 97.3945 102.34 101.414 105.581H101.412Z" fill="#EA8A2A" stroke="#1C2121" stroke-width="0.12065" stroke-linecap="round" stroke-linejoin="round"/>
<path d="M91.6144 110.162C91.31 108.677 91.3441 107.254 91.7857 106.061C92.0982 105.218 92.584 104.565 93.1965 104.106L91.5215 105.361C90.907 105.821 90.4212 106.474 90.1107 107.316C89.6937 108.445 89.6414 109.775 89.8931 111.17L91.6144 110.162Z" fill="#1C2121"/>
<path d="M111.779 111.236L110.594 112.964C109.224 114.963 106.023 115.552 102.341 114.197C97.4949 112.416 93.6514 107.941 93.7564 104.206C93.7805 103.307 94.0323 102.535 94.4658 101.903L95.651 100.175C95.2174 100.808 94.9657 101.582 94.9412 102.479C94.8366 106.214 98.6801 110.688 103.525 112.47C107.208 113.824 110.409 113.236 111.779 111.236Z" fill="#EA8A2A" stroke="#1C2121" stroke-width="0.12065" stroke-linecap="round" stroke-linejoin="round"/>
<path d="M103.905 98.9393C108.752 100.723 112.593 105.196 112.488 108.933C112.384 112.667 108.373 114.251 103.525 112.47C98.68 110.688 94.8365 106.214 94.941 102.479C95.046 98.7419 99.0588 97.1577 103.905 98.9393Z" fill="#EA8A2A" stroke="#1C2121" stroke-width="0.12065" stroke-linecap="round" stroke-linejoin="round"/>
<path d="M96.0919 106.417C95.3282 105.109 94.9027 103.751 94.9393 102.477C94.9635 101.578 95.2152 100.806 95.6487 100.173L94.4636 101.901C94.03 102.533 93.7783 103.307 93.7541 104.204C93.7196 105.406 94.0968 106.686 94.7841 107.925L96.0919 106.417Z" fill="#1C2121"/>
<path d="M135.587 130.509L110.254 60.999C109.201 58.1106 106.751 56.327 104.308 57.2178L102.29 57.9534C101.814 58.1267 101.438 58.6849 101.454 59.1908L101.494 60.4186C101.522 61.2668 100.889 62.2002 100.091 62.4926L85.9019 67.6645C85.1036 67.9545 83.9792 67.6826 83.4025 67.0596L82.4936 66.0759C82.1489 65.7031 81.4777 65.5398 80.9999 65.7152L79.0048 66.4431C76.6505 67.3017 75.8341 70.2746 76.8862 73.1629L102.22 142.673C103.272 145.561 105.685 147.357 108.166 146.454L133.469 137.233C135.706 136.417 136.639 133.4 135.587 130.511V130.509ZM122.526 113.707L101.407 121.403C98.908 122.314 96.4813 120.504 95.4212 117.596L85.4644 90.2767C84.4043 87.3683 85.2267 84.3753 87.5971 83.5107L108.716 75.8132C111.175 74.9164 113.642 76.712 114.702 79.6205L124.659 106.939C125.719 109.848 124.78 112.885 122.526 113.705V113.707Z" fill="white"/>
<path d="M136.547 130.16L111.213 60.6502C109.934 57.1413 106.957 54.9744 103.99 56.0546L78.5032 65.3443C75.6434 66.3863 74.6496 70.0002 75.9293 73.5095L101.263 143.02C102.543 146.529 105.471 148.712 108.486 147.613L133.975 138.325C136.694 137.336 137.827 133.667 136.549 130.158L136.547 130.16ZM133.469 137.231L108.166 146.452C105.685 147.357 103.272 145.559 102.22 142.671L76.8869 73.1608C75.8348 70.2724 76.6508 67.2976 79.0051 66.441L81.0007 65.7131C81.4764 65.5397 82.1492 65.703 82.4939 66.0738L83.4032 67.0575C83.9795 67.6825 85.1044 67.9544 85.9023 67.6624L100.092 62.4905C100.89 62.2002 101.521 61.2671 101.495 60.4165L101.454 59.1887C101.438 58.6808 101.815 58.1246 102.291 57.9513L104.308 57.2157C106.751 56.3249 109.202 58.1085 110.254 60.9969L135.588 130.507C136.64 133.395 135.707 136.412 133.469 137.229V137.231Z" fill="white" stroke="#1C2121" stroke-width="0.12065" stroke-miterlimit="10" stroke-linecap="round"/>
<path d="M80.4927 91.2613L80.7903 91.1531C81.0381 91.0626 81.1659 90.7887 81.0755 90.5406L78.3299 83.0056C78.2394 82.7575 77.9655 82.63 77.7174 82.7201L77.4202 82.8286C77.1724 82.9187 77.0445 83.193 77.135 83.4407L79.8806 90.9761C79.9707 91.2239 80.245 91.3518 80.4927 91.2613Z" fill="white" stroke="#1C2121" stroke-width="0.12065" stroke-miterlimit="10" stroke-linecap="round"/>
<path d="M108.934 137.906C109.301 138.916 110.143 139.543 111.01 139.227L126.642 133.53C127.424 133.246 127.749 132.192 127.382 131.182L126.459 128.649C126.092 127.639 125.235 127.016 124.383 127.328L108.75 133.027C107.928 133.327 107.642 134.365 108.01 135.375L108.934 137.908V137.906Z" stroke="#1C2121" stroke-width="0.12065" stroke-miterlimit="10"/>
<path d="M111.785 135.249C111.598 134.738 111.735 134.258 112.169 134.099C112.602 133.942 113.015 134.222 113.201 134.733C113.388 135.245 113.251 135.723 112.817 135.88C112.384 136.038 111.971 135.761 111.783 135.249H111.785ZM112.898 134.844C112.773 134.502 112.545 134.284 112.275 134.383C112.005 134.482 111.965 134.796 112.09 135.139C112.213 135.48 112.449 135.693 112.717 135.596C112.987 135.498 113.021 135.185 112.898 134.844Z" fill="#1C2121"/>
<path d="M113.222 134.3L113.506 134.197L113.908 134.772C113.982 134.879 114.026 134.951 114.026 134.951H114.03C114.03 134.951 114.016 134.865 114.004 134.737L113.946 134.038L114.226 133.936L114.305 135.296L114.037 135.393L113.224 134.3H113.222Z" fill="#1C2121"/>
<path d="M114.56 134.506C114.427 134.143 114.536 133.782 114.845 133.671C115.183 133.549 115.475 133.782 115.635 134.22L114.869 134.498C114.957 134.679 115.093 134.764 115.25 134.705C115.359 134.665 115.401 134.585 115.399 134.48L115.675 134.379C115.715 134.611 115.617 134.857 115.345 134.956C114.996 135.082 114.694 134.871 114.56 134.504V134.506ZM114.792 134.272L115.262 134.101C115.197 133.948 115.07 133.873 114.941 133.92C114.794 133.974 114.758 134.103 114.792 134.272Z" fill="#1C2121"/>
<path d="M115.951 133.528H115.957C115.969 133.363 116.016 133.266 116.139 133.222C116.169 133.21 116.189 133.205 116.207 133.208L116.31 133.492H116.304C116.112 133.54 116.022 133.699 116.117 133.958L116.334 134.556L116.054 134.659L115.607 133.432L115.876 133.333L115.949 133.528H115.951Z" fill="#1C2121"/>
<path d="M116.37 133.153L116.655 133.051L117.056 133.625C117.13 133.732 117.175 133.805 117.175 133.805H117.179C117.179 133.805 117.165 133.718 117.152 133.591L117.094 132.892L117.374 132.789L117.453 134.149L117.185 134.246L116.372 133.153H116.37Z" fill="#1C2121"/>
<path d="M117.393 132.233L117.673 132.13L117.78 132.422L117.5 132.525L117.393 132.233ZM117.568 132.716L117.849 132.613L118.296 133.841L118.016 133.944L117.568 132.716Z" fill="#1C2121"/>
<path d="M118.303 133.141C118.17 132.778 118.279 132.418 118.587 132.307C118.925 132.184 119.218 132.418 119.377 132.855L118.611 133.133C118.7 133.314 118.835 133.399 118.992 133.341C119.101 133.3 119.143 133.22 119.141 133.115L119.417 133.014C119.458 133.246 119.359 133.492 119.087 133.591C118.738 133.717 118.436 133.506 118.303 133.139V133.141ZM118.535 132.908L119.004 132.736C118.94 132.583 118.813 132.508 118.684 132.555C118.537 132.609 118.5 132.738 118.535 132.908Z" fill="#1C2121"/>
<path d="M119.251 132.103L119.53 132.003L119.864 132.525C119.922 132.617 119.995 132.736 119.995 132.736H119.999C119.999 132.736 119.973 132.595 119.959 132.486L119.884 131.872L120.122 131.785L120.467 132.301C120.527 132.396 120.6 132.515 120.6 132.515H120.604C120.604 132.515 120.582 132.376 120.568 132.267L120.493 131.648L120.765 131.549L120.898 132.892L120.644 132.984L120.285 132.432C120.227 132.341 120.161 132.236 120.161 132.236H120.156C120.156 132.236 120.171 132.363 120.185 132.468L120.261 133.123L120.009 133.216L119.253 132.101L119.251 132.103Z" fill="#1C2121"/>
<path d="M90.4081 63.6009C90.5167 63.8993 90.8232 64.0625 91.1698 63.9375L94.5601 62.702C94.8746 62.587 95.0359 62.2524 94.9269 61.9544L94.9168 61.9258C94.8078 61.6278 94.4978 61.4666 94.1551 61.5892L90.7648 62.8251C90.4343 62.9457 90.2891 63.2743 90.3981 63.5727L90.4081 63.6009Z" stroke="#1C2121" stroke-width="0.12065" stroke-miterlimit="10" stroke-linecap="round"/>
<path d="M89.0781 64.8955C89.4047 64.774 89.5507 64.3562 89.4039 63.9616C89.2571 63.5671 88.8734 63.3459 88.5469 63.4674C88.2203 63.5888 88.0747 64.0071 88.2211 64.4016C88.3679 64.7957 88.7516 65.0169 89.0781 64.8955Z" stroke="#1C2121" stroke-width="0.12065" stroke-miterlimit="10" stroke-linecap="round"/>
<path d="M80.0002 70.2384L79.5168 71.9778L80.9196 72.9128" stroke="#1C2121" stroke-width="0.12065" stroke-miterlimit="10" stroke-linecap="round"/>
<path d="M118.647 92.2541L118.54 94.6547C118.447 96.7367 115.037 98.4354 110.288 98.6007C104.959 98.7865 99.9583 96.9724 99.1218 94.5497C99.0313 94.2855 98.9931 94.0257 99.0032 93.7715L99.1097 91.371C99.0977 91.6251 99.1363 91.8849 99.2288 92.1492C100.067 94.5718 105.066 96.386 110.395 96.2002C115.144 96.0353 118.554 94.3361 118.647 92.2541Z" fill="#EA8A2A" stroke="#1C2121" stroke-width="0.12065" stroke-linecap="round" stroke-linejoin="round"/>
<path d="M107.361 87.4251C112.69 87.2393 117.691 89.0534 118.529 91.4761C119.368 93.8988 115.725 96.015 110.396 96.2008C105.067 96.3862 100.066 94.572 99.2303 92.1493C98.3918 89.7247 102.034 87.6085 107.363 87.4231L107.361 87.4251Z" fill="#EA8A2A" stroke="#1C2121" stroke-width="0.12065" stroke-linecap="round" stroke-linejoin="round"/>
<path d="M101.794 94.5817C100.474 93.9125 99.5471 93.076 99.2266 92.151C99.1357 91.8868 99.0975 91.627 99.1075 91.3728L99.0009 93.7733C98.9889 94.0275 99.0271 94.2873 99.1196 94.5515C99.4341 95.4604 100.333 96.2829 101.615 96.946L101.794 94.5817Z" fill="#1C2121"/>
<path d="M120.379 86.4292L119.863 88.4589C119.267 90.8088 116.465 92.4657 112.543 92.4657C107.379 92.4657 102.227 89.5934 101.036 86.0523C100.75 85.1997 100.717 84.3874 100.907 83.6437L101.423 81.614C101.233 82.3576 101.266 83.17 101.552 84.0226C102.743 87.5637 107.895 90.436 113.059 90.436C116.983 90.436 119.783 88.779 120.379 86.4292Z" fill="#0F3DFB" stroke="#1C2121" stroke-width="0.12065" stroke-miterlimit="10"/>
<path d="M108.744 77.6047C113.91 77.6047 119.059 80.477 120.251 84.0205C121.442 87.5616 118.223 90.4339 113.059 90.4339C107.895 90.4339 102.743 87.5616 101.552 84.0205C100.361 80.477 103.58 77.6047 108.744 77.6047Z" fill="#EA8A2A" stroke="#1C2121" stroke-width="0.12065" stroke-linecap="round" stroke-linejoin="round"/>
<path d="M103.995 87.322C102.826 86.3584 101.959 85.2299 101.552 84.0226C101.266 83.17 101.233 82.3576 101.423 81.614L100.907 83.6437C100.717 84.3874 100.75 85.1997 101.036 86.0523C101.419 87.1909 102.215 88.261 103.285 89.1884L103.993 87.322H103.995Z" fill="#1C2121"/>
<path d="M110.706 72.3263C115.882 70.9397 120.135 71.8566 120.203 74.3782C120.272 76.8974 116.13 80.064 110.954 81.4507C105.776 82.8374 101.523 81.9204 101.454 79.4009C101.386 76.8813 105.528 73.713 110.706 72.3263Z" fill="white" stroke="#1C2121" stroke-width="0.12065" stroke-linecap="round" stroke-linejoin="round"/>
<path d="M120.095 73.7732L120.859 76.0487C120.923 76.2385 120.958 76.44 120.964 76.6535C121.032 79.1731 116.89 82.3394 111.715 83.726C106.974 84.9957 103.009 84.3349 102.322 82.281L101.558 80.0052C102.248 82.059 106.212 82.7202 110.95 81.4506C116.126 80.0639 120.269 76.8952 120.2 74.3781C120.194 74.1641 120.158 73.9626 120.095 73.7732Z" fill="#0F3DFB" stroke="#1C2121" stroke-width="0.12065" stroke-miterlimit="10"/>
<path d="M110.706 72.3263C115.882 70.9397 120.135 71.8566 120.203 74.3782C120.272 76.8974 116.13 80.064 110.954 81.4507C105.776 82.8374 101.523 81.9204 101.454 79.4009C101.386 76.8813 105.528 73.713 110.706 72.3263Z" stroke="#1C2121" stroke-width="0.12065" stroke-miterlimit="10"/>
<path d="M104.725 81.9726C103.061 81.7084 101.902 81.0292 101.557 80.0052L102.321 82.2811C102.655 83.2785 103.764 83.9457 105.358 84.226L104.725 81.9726Z" fill="#1C2121"/>
<path d="M121.031 64.645L120.924 67.0455C120.831 69.1275 117.421 70.8267 112.672 70.992C107.341 71.1774 102.34 69.3636 101.502 66.9409C101.411 66.6767 101.373 66.4165 101.385 66.1627L101.492 63.7622C101.48 64.0164 101.518 64.2762 101.609 64.5404C102.447 66.9631 107.446 68.7768 112.779 68.5914C117.527 68.4261 120.938 66.727 121.031 64.645Z" fill="#0F3DFB" stroke="#1C2121" stroke-width="0.12065" stroke-miterlimit="10"/>
<path d="M109.746 59.8156C115.075 59.6302 120.075 61.4444 120.912 63.8671C121.75 66.2897 118.108 68.4059 112.779 68.5913C107.448 68.7767 102.447 66.963 101.609 64.5399C100.771 62.1172 104.413 60.001 109.746 59.8156Z" fill="white" stroke="#1C2121" stroke-width="0.12065" stroke-linecap="round" stroke-linejoin="round"/>
<path d="M109.746 59.8156C104.414 60.001 100.772 62.1172 101.609 64.5399C101.905 65.4005 102.729 66.1827 103.903 66.8258L118.485 61.5088C116.348 60.3799 113.112 59.6966 109.744 59.8156H109.746Z" fill="#1C2121"/>
<path d="M109.746 59.8156C115.075 59.6302 120.075 61.4444 120.912 63.8671C121.75 66.2897 118.108 68.4059 112.779 68.5913C107.448 68.7767 102.447 66.963 101.609 64.5399C100.771 62.1172 104.413 60.001 109.746 59.8156Z" stroke="#1C2121" stroke-width="0.12065" stroke-miterlimit="10"/>
<path d="M104.724 67.2289C103.115 66.5215 101.974 65.5884 101.612 64.5404C101.521 64.2762 101.483 64.0164 101.495 63.7622L101.388 66.1627C101.376 66.4165 101.414 66.6767 101.505 66.9409C101.851 67.9464 102.917 68.8456 104.425 69.543L104.726 67.2289H104.724Z" fill="#1C2121"/>
<path d="M109.746 59.8156C115.075 59.6302 120.075 61.4444 120.912 63.8671C121.75 66.2897 118.108 68.4059 112.779 68.5913C107.448 68.7767 102.447 66.963 101.609 64.5399C100.771 62.1172 104.413 60.001 109.746 59.8156Z" stroke="#1C2121" stroke-width="0.12065" stroke-miterlimit="10"/>
<path d="M111.36 50.927C116.34 49.9598 119.174 50.5622 117.689 52.2755C116.205 53.9867 110.963 56.1616 105.982 57.1288C101 58.0964 98.1661 57.494 99.6493 55.7828C101.135 54.0695 106.375 51.8966 111.358 50.929L111.36 50.927Z" fill="white" stroke="#1C2121" stroke-width="0.12065" stroke-linecap="round" stroke-linejoin="round"/>
<path d="M118.061 51.2938L118.791 53.7973C118.869 54.0656 118.753 54.3937 118.42 54.779C116.937 56.4902 111.694 58.6647 106.714 59.6324C102.85 60.384 100.278 60.1886 100.01 59.2656L99.2803 56.7621C99.5485 57.6855 102.12 57.8789 105.984 57.1289C110.964 56.1617 116.205 53.9887 117.69 52.2755C118.025 51.8906 118.14 51.5621 118.061 51.2938Z" fill="#0F3DFB" stroke="#1C2121" stroke-width="0.12065" stroke-miterlimit="10"/>
<path d="M102.423 57.5765C100.595 57.6469 99.4536 57.3589 99.2803 56.7621L100.01 59.2656C100.182 59.8539 101.29 60.1443 103.072 60.084L102.425 57.5765H102.423Z" fill="#1C2121"/>
<path d="M115.268 44.8482C114.758 47.2467 110.507 50.8827 105.775 52.9728C101.038 55.0629 97.614 54.8131 98.1239 52.4146C98.6339 50.0181 102.885 46.3801 107.621 44.29C112.354 42.202 115.78 42.4517 115.27 44.8482H115.268Z" fill="#1C2121" stroke="#1C2121" stroke-width="0.12065" stroke-miterlimit="10"/>
<path d="M113.876 41.5288L115.144 43.7013C114.408 42.4417 111.442 42.603 107.622 44.2901C102.885 46.3801 98.6345 50.0181 98.1246 52.4146C98.026 52.8783 98.0743 53.2612 98.2497 53.5616L96.982 51.3887C96.8067 51.0863 96.758 50.7034 96.8569 50.2417C97.3669 47.8452 101.618 44.2072 106.354 42.1172C110.173 40.4322 113.142 40.269 113.876 41.5288Z" fill="#0F3DFB" stroke="#1C2121" stroke-width="0.12065" stroke-miterlimit="10"/>
<path d="M99.6042 49.883L98.2215 47.8452C97.494 48.7038 97.0082 49.5283 96.8569 50.2417C96.758 50.7054 96.8067 51.0883 96.982 51.3887L98.2497 53.5616C98.0743 53.2592 98.026 52.8763 98.1246 52.4146C98.2838 51.665 98.8099 50.7923 99.6042 49.883Z" fill="#1C2121"/>
<path d="M110.06 32.7006C110.112 33.4504 106.482 36.4213 101.952 39.3378C97.4227 42.2523 93.7059 44.0078 93.6536 43.2601C93.6014 42.5101 97.2313 39.5394 101.762 36.6249C106.293 33.7084 110.01 31.9528 110.062 32.7026L110.06 32.7006Z" fill="#1C2121" stroke="#1C2121" stroke-width="0.12065" stroke-miterlimit="10"/>
<path d="M108.573 30.3868L110.036 32.6179C109.695 32.1 106.104 33.8273 101.762 36.6208C97.2332 39.5353 93.6012 42.5064 93.6535 43.2561C93.6555 43.2882 93.6635 43.3144 93.6796 43.3365L92.2165 41.1053C92.2025 41.0832 92.1924 41.055 92.1904 41.0248C92.1377 40.275 95.7681 37.3041 100.299 34.3896C104.64 31.5961 108.232 29.8668 108.573 30.3868Z" fill="#0F3DFB" stroke="#1C2121" stroke-width="0.12065" stroke-miterlimit="10"/>
<path d="M95.3888 41.2587L93.8915 39.0558C92.8069 39.995 92.1683 40.7105 92.1904 41.027C92.1924 41.0592 92.2004 41.0853 92.2165 41.1074L93.6796 43.3387C93.6655 43.3165 93.6555 43.2884 93.6535 43.2582C93.6313 42.9377 94.2824 42.2102 95.3888 41.2566V41.2587Z" fill="#1C2121"/>
<path d="M85.4226 31.6384C85.4226 29.7034 89.252 26.1541 93.9723 23.7092C98.6969 21.2643 102.524 20.8512 102.524 22.7861C102.524 24.721 98.6949 28.2704 93.9723 30.7152C89.25 33.1581 85.4226 33.5713 85.4226 31.6363V31.6384Z" fill="white" stroke="#1C2121" stroke-width="0.12065" stroke-linecap="round" stroke-linejoin="round"/>
<path d="M102.382 22.2157L103.686 24.4106C103.781 24.5699 103.831 24.7613 103.831 24.981C103.831 26.916 100.002 30.4654 95.2794 32.9102C91.0948 35.0749 87.612 35.6453 86.8725 34.4017L85.5682 32.2068C86.3078 33.4504 89.791 32.88 93.9751 30.7153C98.6994 28.2704 102.527 24.721 102.527 22.7861C102.527 22.5664 102.477 22.377 102.382 22.2157Z" fill="#0F3DFB" stroke="#1C2121" stroke-width="0.12065" stroke-miterlimit="10"/>
<path d="M89.69 32.4627C87.5738 33.0553 86.0299 32.9888 85.5682 32.2087L86.8725 34.4037C87.3116 35.1434 88.7204 35.2422 90.6697 34.7443L89.6921 32.4607L89.69 32.4627Z" fill="#1C2121"/>
<path d="M41.3146 31.2957L39.9802 33.2266C39.3029 34.2062 37.878 34.6718 35.8483 34.3936C31.6882 33.8252 26.5627 30.3545 24.402 26.6398C23.2955 24.7392 23.1806 23.1408 23.8921 22.1129L25.2264 20.182C24.5149 21.2099 24.6298 22.8083 25.7363 24.7089C27.897 28.4236 33.0225 31.8944 37.1826 32.4627C39.2122 32.7409 40.6372 32.2753 41.3146 31.2957Z" fill="#0F3DFB" stroke="#1C2121" stroke-width="0.12065" stroke-miterlimit="10"/>
<path d="M37.1821 32.4626C34.7332 32.1281 31.9497 30.7857 29.6319 28.9818L28.2552 30.8804C30.5792 32.7005 33.3828 34.057 35.8458 34.3936C37.8754 34.6717 39.3004 34.2061 39.9777 33.2266L41.3118 31.2957C40.6347 32.2752 39.2097 32.7408 37.1801 32.4626H37.1821Z" fill="#1C2121"/>
<path d="M29.3561 19.0132C33.5182 19.5816 38.6417 23.0524 40.8024 26.765C42.9629 30.4796 41.3446 33.0293 37.1825 32.461C33.0224 31.8926 27.8969 28.4218 25.7362 24.7071C23.5755 20.9945 25.198 18.4448 29.3581 19.0132H29.3561Z" fill="white" stroke="#1C2121" stroke-width="0.12065" stroke-linecap="round" stroke-linejoin="round"/>
<path d="M43.7847 28.1838L42.3212 30.02C41.5796 30.9511 40.1264 31.318 38.121 30.9028C34.0073 30.0522 29.1316 26.2388 27.229 22.3851C26.2554 20.4119 26.2494 18.8115 27.0294 17.834L28.4927 15.9978C27.7127 16.9754 27.7187 18.5757 28.6923 20.5489C30.595 24.4027 35.4726 28.216 39.5843 29.0666C41.5897 29.4818 43.0431 29.115 43.7847 28.1838Z" fill="#0F3DFB" stroke="#1C2121" stroke-width="0.12065" stroke-miterlimit="10"/>
<path d="M32.6951 15.115C36.8068 15.9656 41.6824 19.7789 43.5851 23.6307C45.4877 27.4844 43.6961 29.9172 39.5842 29.0666C35.4705 28.2161 30.5949 24.4026 28.6922 20.5489C26.7896 16.6972 28.5814 14.2644 32.6951 15.115Z" fill="white" stroke="#1C2121" stroke-width="0.12065" stroke-linecap="round" stroke-linejoin="round"/>
<path d="M32.6951 15.115C36.8068 15.9656 41.6824 19.7789 43.5851 23.6307C45.4877 27.4844 43.6961 29.9172 39.5842 29.0666C35.4705 28.2161 30.5949 24.4026 28.6922 20.5489C26.7896 16.6972 28.5814 14.2644 32.6951 15.115Z" stroke="#1C2121" stroke-width="0.12065" stroke-miterlimit="10"/>
<path d="M39.5841 29.0666C37.3025 28.595 34.7871 27.2103 32.6748 25.4144L31.2639 27.293C33.3661 29.0686 35.8594 30.4332 38.1228 30.9008C40.1283 31.3159 41.5814 30.9491 42.3233 30.018L43.7864 28.1818C43.0448 29.113 41.5914 29.4798 39.5861 29.0646L39.5841 29.0666Z" fill="#1C2121"/>
<path d="M34.4492 10.4669L36.3479 9.42883C34.425 10.481 33.5926 13.3309 34.4452 16.9327L32.5465 17.9707C31.6939 14.3669 32.5264 11.517 34.4492 10.4669Z" fill="#0F3DFB" stroke="#1C2121" stroke-width="0.12065" stroke-miterlimit="10"/>
<path d="M34.4447 16.935C33.2757 11.9888 35.2792 8.46162 38.9212 9.05823C42.5614 9.65485 46.4592 14.1455 47.6283 19.0936C48.7974 24.0378 46.7938 27.565 43.1538 26.9684C39.5118 26.3718 35.6137 21.8811 34.4447 16.935Z" fill="white" stroke="#1C2121" stroke-width="0.12065" stroke-linecap="round" stroke-linejoin="round"/>
<path d="M34.4447 16.935C33.2757 11.9888 35.2792 8.46162 38.9212 9.05823C42.5614 9.65485 46.4592 14.1455 47.6283 19.0936C48.7974 24.0378 46.7938 27.565 43.1538 26.9684C39.5118 26.3718 35.6137 21.8811 34.4447 16.935Z" stroke="#1C2121" stroke-width="0.12065" stroke-miterlimit="10"/>
<path d="M45.7254 26.5955L43.8267 27.6335C43.1113 28.0245 42.2426 28.1676 41.2549 28.0064C37.6127 27.4097 33.7147 22.9191 32.5457 17.973L34.4443 16.9349C35.6133 21.8791 39.5114 26.3717 43.1535 26.9683C44.1412 27.1296 45.0079 26.9885 45.7254 26.5955Z" fill="#0F3DFB" stroke="#1C2121" stroke-width="0.12065" stroke-miterlimit="10"/>
<path d="M43.1538 26.9664C40.8905 26.5955 38.5303 24.721 36.7848 22.1674L34.7814 23.0502C36.5349 25.6825 38.9475 27.6275 41.2552 28.0044C42.2429 28.1656 43.1096 28.0245 43.827 27.6315L45.7257 26.5935C45.0102 26.9845 44.1415 27.1276 43.1538 26.9664Z" fill="#1C2121"/>
<path d="M42.6246 6.3573L44.0599 4.84363C43.3525 5.59142 42.931 6.6274 42.8928 7.91534L41.4579 9.42902C41.4941 8.14108 41.9151 7.10308 42.6246 6.3573Z" fill="#0F3DFB" stroke="#1C2121" stroke-width="0.12065" stroke-miterlimit="10"/>
<path d="M58.2602 18.2895L56.8252 19.8032C55.3437 21.3673 52.6065 21.6555 49.5147 20.289C44.9497 18.2734 41.3398 13.4099 41.4548 9.4292L42.8898 7.91553C42.7747 11.8963 46.3846 16.7597 50.95 18.7753C54.0419 20.1398 56.779 19.8516 58.2602 18.2895Z" fill="#0F3DFB" stroke="#1C2121" stroke-width="0.12065" stroke-miterlimit="10"/>
<path d="M50.9524 18.7772C49.5597 18.1625 48.2579 17.2817 47.121 16.2417L45.668 17.7392C46.8085 18.7853 48.1168 19.6721 49.5175 20.2909C52.6094 21.6555 55.3465 21.3672 56.8281 19.8052L58.263 18.2915C56.7815 19.8556 54.0443 20.1438 50.9524 18.7772Z" fill="#1C2121"/>
<path d="M42.8921 7.91535C43.0071 3.93263 46.8003 2.34035 51.3657 4.3559C55.9327 6.37344 59.5426 11.237 59.4276 15.2197C59.3129 19.2004 55.5197 20.7947 50.9523 18.7771C46.3873 16.7616 42.7774 11.8981 42.8921 7.91736V7.91535Z" fill="white" stroke="#1C2121" stroke-width="0.12065" stroke-linecap="round" stroke-linejoin="round"/>
<path d="M42.8921 7.91535C43.0071 3.93263 46.8003 2.34035 51.3657 4.3559C55.9327 6.37344 59.5426 11.237 59.4276 15.2197C59.3129 19.2004 55.5197 20.7947 50.9523 18.7771C46.3873 16.7616 42.7774 11.8981 42.8921 7.91736V7.91535Z" stroke="#1C2121" stroke-width="0.12065" stroke-miterlimit="10"/>
<path d="M58.2074 0.915425L60.3722 0.709839C57.518 0.979922 55.3898 4.83363 55.5028 9.79995L53.3379 10.0055C53.2249 5.0372 55.3536 1.18551 58.2074 0.915425Z" fill="#0F3DFB" stroke="#1C2121" stroke-width="0.12065" stroke-miterlimit="10"/>
<path d="M55.5013 9.8019C55.3802 4.43047 57.8777 0.363101 61.0806 0.717837C64.283 1.07257 66.9779 5.71439 67.099 11.0858C67.2196 16.4593 64.7226 20.5266 61.5197 20.1739C58.3169 19.8192 55.6223 15.1753 55.4993 9.8019H55.5013Z" fill="white" stroke="#1C2121" stroke-width="0.12065" stroke-linecap="round" stroke-linejoin="round"/>
<path d="M55.5013 9.8019C55.3802 4.43047 57.8777 0.363101 61.0806 0.717837C64.283 1.07257 66.9779 5.71439 67.099 11.0858C67.2196 16.4593 64.7226 20.5266 61.5197 20.1739C58.3169 19.8192 55.6223 15.1753 55.4993 9.8019H55.5013Z" stroke="#1C2121" stroke-width="0.12065" stroke-miterlimit="10"/>
<path d="M62.2283 20.1801L60.0635 20.3856C59.8318 20.4078 59.5962 20.4058 59.3541 20.3796C56.1516 20.0249 53.4567 15.3811 53.3336 10.0076L55.4985 9.802C55.6195 15.1755 58.3141 19.8193 61.5189 20.174C61.7586 20.2002 61.9967 20.2022 62.2283 20.1801Z" fill="#0F3DFB" stroke="#1C2121" stroke-width="0.12065" stroke-miterlimit="10"/>
<path d="M54.3945 15.4113C55.4888 18.1907 57.3191 20.1538 59.3565 20.3796C59.5966 20.4058 59.8342 20.4078 60.0663 20.3857L62.2308 20.1801C61.9991 20.2022 61.763 20.2002 61.5213 20.174C59.4856 19.9483 57.6557 17.9892 56.561 15.2137L54.3945 15.4113Z" fill="#1C2121"/>
<path d="M74.0139 3.16063L75.9427 4.74084C75.6081 4.4667 75.1364 4.34779 74.5299 4.4143C71.8511 4.70657 67.5419 8.47765 64.9016 12.8373C62.8598 16.2093 62.4146 18.9444 63.5552 19.8776L61.6264 18.2974C60.4854 17.3642 60.9331 14.6291 62.9728 11.2571C65.6131 6.89746 69.9223 3.12637 72.6011 2.83411C73.2076 2.7676 73.6793 2.88652 74.0139 3.16063Z" fill="#0F3DFB" stroke="#1C2121" stroke-width="0.12065" stroke-miterlimit="10"/>
<path d="M64.9686 20.2022C62.2902 20.4945 62.262 17.197 64.9023 12.8354C67.5425 8.47576 71.8517 4.70468 74.5306 4.41243C77.2094 4.12017 77.2375 7.41762 74.5989 11.7772C71.9587 16.1389 67.6475 19.91 64.9706 20.2022H64.9686Z" fill="#1C2121" stroke="#1C2121" stroke-width="0.12065" stroke-miterlimit="10"/>
<path d="M63.5529 19.8756C62.9042 19.3455 62.7711 18.2289 63.1519 16.7455L61.1729 15.3749C60.8584 16.7535 61.0056 17.7915 61.6241 18.2974L63.5529 19.8776V19.8756Z" fill="#1C2121"/>
<path d="M84.1705 28.9194C81.4273 30.1731 81.484 28.1898 84.2935 24.4933C87.1051 20.7948 91.6081 16.7818 94.3513 15.5302C97.0921 14.2785 97.0378 16.2598 94.2242 19.9583C91.4143 23.6548 86.9116 27.6678 84.1705 28.9194Z" fill="#1C2121" stroke="#1C2121" stroke-width="0.12065" stroke-miterlimit="10"/>
<path d="M94.3512 13.4744L96.1972 15.3327C95.9173 15.0525 95.3044 15.0969 94.3512 15.5302C91.608 16.7839 87.1074 20.7948 84.2934 24.4934C82.4595 26.906 81.7984 28.589 82.3244 29.117L80.4781 27.2587C79.952 26.7306 80.6132 25.0476 82.4471 22.635C85.259 18.9365 89.7617 14.9236 92.5049 13.6719C93.456 13.2366 94.0709 13.1922 94.3512 13.4744Z" fill="#0F3DFB" stroke="#1C2121" stroke-width="0.12065" stroke-miterlimit="10"/>
<path d="M81.0623 24.6909C80.3147 25.997 80.1192 26.9 80.4779 27.2608L82.3243 29.1191C81.9615 28.7522 82.167 27.8332 82.9368 26.5009L81.0643 24.6909H81.0623Z" fill="#1C2121"/>
<path d="M74.6931 24.5054L72.7724 23.413C72.4679 23.2396 72.188 23.0139 71.9379 22.7338L73.8586 23.8262C74.1088 24.1063 74.3887 24.3321 74.6931 24.5054Z" fill="white" stroke="#1C2121" stroke-width="0.12065" stroke-linecap="round" stroke-linejoin="round"/>
<path d="M82.429 6.40369L84.3497 7.49609C82.0743 6.20212 78.4359 7.87502 75.6766 11.6884C72.5485 16.0118 71.7362 21.4457 73.8588 23.826L71.9381 22.7336C69.8154 20.3533 70.6278 14.9174 73.7558 10.596C76.5131 6.78261 80.1511 5.10971 82.429 6.40369Z" fill="#0F3DFB" stroke="#1C2121" stroke-width="0.12065" stroke-miterlimit="10"/>
<path d="M73.8592 23.8263C71.7366 21.4459 72.5489 16.01 75.677 11.6887C78.803 7.36735 83.06 5.7952 85.1822 8.17559C87.3069 10.5579 86.4945 15.9919 83.3684 20.3132C80.2404 24.6365 75.9855 26.2086 73.8612 23.8283L73.8592 23.8263Z" fill="white" stroke="#1C2121" stroke-width="0.12065" stroke-linecap="round" stroke-linejoin="round"/>
<path d="M70.759 19.0734C70.7771 20.5689 71.1584 21.8589 71.9402 22.7336L73.8609 23.826C73.049 22.915 72.6677 21.5565 72.6798 19.9844L70.759 19.0734Z" fill="#1C2121"/>
<path d="M73.8592 23.8263C71.7366 21.4459 72.5489 16.01 75.677 11.6887C78.803 7.36735 83.06 5.7952 85.1822 8.17559C87.3069 10.5579 86.4945 15.9919 83.3684 20.3132C80.2404 24.6365 75.9855 26.2086 73.8612 23.8283L73.8592 23.8263Z" stroke="#1C2121" stroke-width="0.12065" stroke-linecap="round" stroke-linejoin="round"/>
<path d="M155.036 124.424L148.513 122.405C147.6 122.122 145.79 121.955 144.839 122.04L131.847 123.202C130.309 123.34 128.682 123.767 127.271 124.394L123.504 126.071L118.441 127.641C117.357 127.977 116.504 130.136 116.825 131.227L117.135 132.285C117.431 133.296 118.808 134.693 121.332 134.808C124.194 134.939 127.799 135.143 133.387 133.794L143.22 135.804C143.22 135.804 147.679 146.686 161.507 151.67" fill="#1C2121"/>
<path d="M155.036 124.424L148.513 122.405C147.6 122.122 145.79 121.955 144.839 122.04L131.847 123.202C130.309 123.34 128.682 123.767 127.271 124.394L123.504 126.071L118.441 127.641C117.357 127.977 116.504 130.136 116.825 131.227L117.135 132.285C117.431 133.296 118.808 134.693 121.332 134.808C124.194 134.939 127.799 135.143 133.387 133.794L143.22 135.804C143.22 135.804 147.679 146.686 161.507 151.67" stroke="#7F908E" stroke-width="0.12065" stroke-miterlimit="10"/>
<path d="M155.035 124.424L148.512 122.405C147.6 122.122 145.79 121.955 144.838 122.04L133.902 123.017" stroke="#0F3DFB" stroke-width="0.12065" stroke-miterlimit="10"/>
<path d="M133.386 133.795C133.386 133.795 133.981 133.006 133.534 131.777" stroke="#7F908E" stroke-width="0.12065" stroke-miterlimit="10"/>
<path d="M136.933 134.52L141.53 135.459C142.548 135.667 143.423 136.31 143.927 137.219C145.65 140.329 150.735 147.788 161.508 151.672" stroke="#0F3DFB" stroke-width="0.12065" stroke-miterlimit="10"/>
<path d="M152.004 117.027L150.015 119.905C149.333 120.893 147.795 121.784 146.6 121.886L144.837 122.038" stroke="#7F908E" stroke-width="0.12065" stroke-miterlimit="10"/>
<path d="M123.702 126.649L124.819 130.183C124.966 130.65 124.754 131.255 124.349 131.529L120.906 133.849C120.906 133.849 118.611 133.649 117.821 131.565C117.258 130.082 117.758 129.286 118.167 128.629" stroke="#7F908E" stroke-width="0.12065" stroke-miterlimit="10"/>
<path d="M133.314 133.109L132.999 131.857" stroke="#1C2121" stroke-width="0.12065" stroke-miterlimit="10"/>
<path d="M144.463 136.151C146.988 136.799 149.403 135.804 149.403 135.804" stroke="#7F908E" stroke-width="0.12065" stroke-miterlimit="10"/>
<path d="M189.385 135.32L180.332 131.344C175.204 130.049 164.749 146.96 162.998 157.63C161.837 164.715 161.647 168.113 166.582 169.433L171.552 170.762C173.045 171.161 175.226 172.312 176.397 173.317L177.004 173.837" fill="white"/>
<path d="M189.385 135.32L180.332 131.344C175.204 130.049 164.749 146.96 162.998 157.63C161.837 164.715 161.647 168.113 166.582 169.433L171.552 170.762C173.045 171.161 175.226 172.312 176.397 173.317L177.004 173.837" stroke="#1C2121" stroke-width="0.12065" stroke-miterlimit="10"/>
<path d="M181.557 168.538C181.557 168.538 173.332 163.084 164.197 162.181C164.197 162.181 163.151 169.328 166.356 171.035L179.233 177.896" fill="white"/>
<path d="M181.557 168.538C181.557 168.538 173.332 163.084 164.197 162.181C164.197 162.181 163.151 169.328 166.356 171.035L179.233 177.896" stroke="#1C2121" stroke-width="0.12065" stroke-miterlimit="10"/>
<path d="M168.906 170.913C169.287 171.529 169.89 172.18 170.658 172.751C171.426 173.323 172.222 173.714 172.921 173.902L174 174.706L174.804 173.625C175.391 172.84 174.484 171.173 172.778 169.903C171.073 168.633 169.217 168.242 168.631 169.028L167.826 170.109L168.904 170.913H168.906Z" fill="white" stroke="#1C2121" stroke-width="0.12065" stroke-miterlimit="10"/>
<path d="M173.999 174.702C174.584 173.915 173.677 172.248 171.972 170.978C170.267 169.708 168.41 169.316 167.824 170.102C167.238 170.889 168.145 172.556 169.85 173.826C171.556 175.096 173.413 175.488 173.999 174.702Z" fill="white" stroke="#1C2121" stroke-width="0.12065" stroke-miterlimit="10"/>
<path d="M41.0499 105.762C40.3202 104.778 36.1964 106.619 31.8428 109.856C27.4933 113.089 24.5586 116.503 25.2782 117.491C25.2782 117.491 25.2782 117.491 25.2782 117.493C33.548 127.528 43.9019 134.631 54.8806 137.701L60.661 119.168C53.5945 117.372 46.7375 112.631 41.0478 105.76L41.0499 105.762Z" fill="#EA8A2A" stroke="#1C2121" stroke-width="0.12065" stroke-miterlimit="10"/>
<path d="M27.525 113.572C26.6483 114.471 25.9812 115.293 25.5841 115.967C33.743 125.796 43.7927 132.95 54.4992 136.501L54.4425 132.726C44.5021 129.294 35.1741 122.64 27.525 113.572Z" fill="#1C2121"/>
<path d="M61.9006 129.731C63.5044 124.615 62.9494 119.887 60.6603 119.169C58.3716 118.451 55.2158 122.016 53.6115 127.131C52.0077 132.247 52.5627 136.976 54.8518 137.693C57.1405 138.411 60.2967 134.846 61.9006 129.731Z" fill="#1C2121" stroke="#1C2121" stroke-width="0.12065" stroke-miterlimit="10"/>
<path d="M83.322 79.7091L84.1102 79.4232C84.3676 79.9585 84.7199 80.0791 85.2874 79.8716C85.6972 79.7224 85.9968 79.4232 85.8419 78.9985C85.6762 78.5473 85.2664 78.5943 84.6017 78.6522C83.8239 78.723 83.0931 78.7411 82.7412 77.7811C82.4098 76.871 82.8752 76.1681 83.7579 75.8483C84.6515 75.523 85.416 75.8218 85.8154 76.7271L85.0428 77.0074C84.8301 76.559 84.4331 76.4411 84.0233 76.5903C83.5898 76.748 83.3847 77.0625 83.5057 77.3931C83.6425 77.7683 83.9602 77.7759 84.6017 77.7104C85.4925 77.6187 86.2413 77.603 86.604 78.5971C86.9455 79.5334 86.4858 80.2915 85.5922 80.6168C84.5148 81.0077 83.7028 80.6772 83.3191 79.712L83.322 79.7091Z" fill="#1C2121"/>
<path d="M98.8796 71.7258L99.6068 71.4611L99.7564 71.8726L99.772 71.8673C99.8485 71.511 100.037 71.2018 100.426 71.0602C101.18 70.7851 101.922 71.3248 102.301 72.3552C102.692 73.4245 102.44 74.2815 101.707 74.549C101.308 74.693 100.98 74.6013 100.715 74.3785L100.704 74.3837L101.237 75.8383L100.484 76.1138L98.8821 71.7258H98.8796ZM101.547 72.6616C101.319 72.0379 100.97 71.6683 100.505 71.836C100.035 72.0065 100.017 72.5462 100.232 73.1386C100.45 73.739 100.833 74.0431 101.282 73.8806C101.665 73.7414 101.776 73.2854 101.547 72.6616Z" fill="#1C2121"/>
<path d="M86.0001 75.0567L86.7506 74.7816L87.0353 75.5683L86.2853 75.8437L86.0001 75.0567ZM86.4735 76.3601L87.2235 76.085L88.426 79.3917L87.6759 79.6671L86.4735 76.3601Z" fill="#1C2121"/>
<path d="M91.9197 74.8243L91.9354 74.8191C92.001 74.3948 92.192 74.1121 92.5797 73.9709C93.1668 73.7562 93.7484 74.1278 94.0102 74.8505L94.7964 77.0049L94.0444 77.2796L93.3056 75.2534C93.1773 74.8999 92.9074 74.7141 92.5929 74.8267C92.2604 74.947 92.1293 75.3451 92.2941 75.7952L92.9782 77.6668L92.2262 77.9419L91.0209 74.6409L91.7572 74.3739L91.9221 74.8243H91.9197Z" fill="#1C2121"/>
<path d="M96.6088 75.2582C97.0435 75.9391 97.7151 75.9519 97.7151 75.9519C98.0212 75.958 98.2042 75.8655 98.5899 75.7187C99.1742 75.4971 99.3705 74.8351 99.0954 74.1168L98.2786 71.9717L97.5301 72.2556L98.2983 74.2729C98.433 74.6244 98.3506 74.9417 98.0389 75.0623C97.7087 75.1886 97.3488 74.9735 97.1786 74.5246L96.4696 72.6606L95.7212 72.9445C95.7212 72.9445 96.174 74.5777 96.6088 75.2582Z" fill="#1C2121"/>
<path d="M88.9977 79.2399L89.7433 78.9669C89.8796 79.1507 90.0992 79.2528 90.4475 79.1269C90.8738 78.9721 90.9916 78.6572 90.8267 78.206L90.696 77.844L90.6803 77.8493C90.5938 78.13 90.4394 78.3765 90.0811 78.5076C89.4501 78.7388 88.6208 78.3845 88.2569 77.3848C87.8985 76.3978 88.1784 75.579 88.8955 75.3168C89.2486 75.1881 89.5679 75.2537 89.8402 75.4688L89.8506 75.4636L89.7252 75.1145L90.4499 74.8495L91.5623 77.9068C91.7324 78.3713 91.7191 78.7336 91.5908 79.0352C91.4473 79.3791 91.1251 79.6309 90.7036 79.7833C89.9291 80.0664 89.3142 79.8512 89.0029 79.2347L88.9977 79.2399ZM90.293 76.6182C90.1177 76.1356 89.7461 75.8022 89.2932 75.9675C88.9112 76.1067 88.7829 76.5474 88.9844 77.1036C89.1887 77.6655 89.5627 77.9015 89.95 77.76C90.4265 77.5866 90.4708 77.1093 90.293 76.6182Z" fill="#1C2121"/>
<path d="M134.091 38.7388L133.357 35.9976L136.85 33.3633C137.589 32.8053 138.161 32.96 138.399 33.8564C138.643 34.7702 138.323 35.5494 137.584 36.1045L134.091 38.7388ZM132.65 33.3542L131.942 30.7109L135.266 28.2037C135.964 27.6791 136.514 27.8242 136.742 28.6789C136.972 29.5329 136.671 30.3224 135.974 30.8476L132.65 33.3542ZM133.362 22.9491L131.722 24.1859L132.458 26.9376L131.191 27.8926L130.455 25.141L128.815 26.3778L129.551 29.1294L128.122 30.2082L126.255 31.6173L127.008 34.435L128.875 33.0264L131.006 40.9947L129.139 42.4038L129.893 45.225L131.76 43.8164L133.189 42.7371L133.914 45.4435L135.554 44.2067L134.829 41.5008L136.097 40.5452L136.821 43.2516L138.462 42.0147L137.737 39.3083L138.877 38.4503C141.207 36.6933 142.162 34.1988 141.549 31.904C141.134 30.3487 140.23 29.7217 138.968 30.0415C139.76 28.7224 139.989 27.287 139.631 25.9441C139.032 23.709 137.325 23.2686 135.011 25.0149L134.099 25.7042L133.362 22.9526" fill="#1C2121"/>
</svg>
