<svg width="232" height="175" viewBox="0 0 232 175" fill="none" xmlns="http://www.w3.org/2000/svg">
<path d="M137.57 12.3905H72.8278C71.9514 12.3905 71.1109 12.7387 70.4912 13.3584C69.8716 13.9781 69.5234 14.8186 69.5234 15.695V45.328C69.5234 46.2044 69.8716 47.0449 70.4912 47.6646C71.1109 48.2843 71.9514 48.6325 72.8278 48.6325H115.15C116.856 50.786 118.802 53.2393 120.217 55.0213C120.87 55.8449 122.188 55.3721 122.188 54.3207V48.6325H137.57C138.447 48.6325 139.287 48.2843 139.907 47.6646C140.526 47.0449 140.875 46.2044 140.875 45.328V15.695C140.875 14.8186 140.526 13.9781 139.907 13.3584C139.287 12.7387 138.447 12.3905 137.57 12.3905Z" fill="white"/>
<mask id="mask0_1_6467" style="mask-type:luminance" maskUnits="userSpaceOnUse" x="69" y="12" width="72" height="44">
<path d="M137.568 12.3942H72.8258C71.9494 12.3942 71.109 12.7423 70.4893 13.3621C69.8696 13.9818 69.5215 14.8222 69.5215 15.6986V45.3317C69.5215 46.2081 69.8696 47.0485 70.4893 47.6683C71.109 48.288 71.9494 48.6361 72.8258 48.6361H115.148C116.854 50.7896 118.8 53.2429 120.215 55.025C120.868 55.8485 122.186 55.3758 122.186 54.3244V48.6361H137.568C138.445 48.6361 139.285 48.288 139.905 47.6683C140.525 47.0485 140.873 46.2081 140.873 45.3317V15.6986C140.873 14.8222 140.525 13.9818 139.905 13.362C139.285 12.7423 138.445 12.3942 137.568 12.3942Z" fill="white"/>
</mask>
<g mask="url(#mask0_1_6467)">
<path d="M203.946 -32.6436C203.496 12.3404 115.566 -1.85694 126.472 9.0164C137.378 19.8898 164.76 26.1342 164.76 26.1342L186.214 22.9046L191.289 -29" fill="#EFF1F7"/>
</g>
<path d="M137.57 12.3905H72.8278C71.9514 12.3905 71.1109 12.7387 70.4912 13.3584C69.8716 13.9781 69.5234 14.8186 69.5234 15.695V45.328C69.5234 46.2044 69.8716 47.0449 70.4912 47.6646C71.1109 48.2843 71.9514 48.6325 72.8278 48.6325H115.15C116.856 50.786 118.802 53.2393 120.217 55.0213C120.87 55.8449 122.188 55.3721 122.188 54.3207V48.6325H137.57C138.447 48.6325 139.287 48.2843 139.907 47.6646C140.526 47.0449 140.875 46.2044 140.875 45.328V15.695C140.875 14.8186 140.526 13.9781 139.907 13.3584C139.287 12.7387 138.447 12.3905 137.57 12.3905Z" stroke="#2256FF" stroke-width="0.348001" stroke-linecap="round" stroke-linejoin="round"/>
<path d="M83.9295 32.8224C85.7523 32.8224 87.23 31.3447 87.23 29.5219C87.23 27.699 85.7523 26.2213 83.9295 26.2213C82.1066 26.2213 80.6289 27.699 80.6289 29.5219C80.6289 31.3447 82.1066 32.8224 83.9295 32.8224Z" fill="white" stroke="#2256FF" stroke-width="0.348001" stroke-linecap="round" stroke-linejoin="round"/>
<path d="M97.7263 32.8224C99.5492 32.8224 101.027 31.3447 101.027 29.5219C101.027 27.699 99.5492 26.2213 97.7263 26.2213C95.9035 26.2213 94.4258 27.699 94.4258 29.5219C94.4258 31.3447 95.9035 32.8224 97.7263 32.8224Z" fill="white" stroke="#2256FF" stroke-width="0.348001" stroke-linecap="round" stroke-linejoin="round"/>
<path d="M111.523 32.8224C113.346 32.8224 114.824 31.3447 114.824 29.5219C114.824 27.699 113.346 26.2213 111.523 26.2213C109.7 26.2213 108.223 27.699 108.223 29.5219C108.223 31.3447 109.7 32.8224 111.523 32.8224Z" fill="white" stroke="#2256FF" stroke-width="0.348001" stroke-linecap="round" stroke-linejoin="round"/>
<path d="M125.321 32.8224C127.144 32.8224 128.622 31.3447 128.622 29.5219C128.622 27.699 127.144 26.2213 125.321 26.2213C123.498 26.2213 122.021 27.699 122.021 29.5219C122.021 31.3447 123.498 32.8224 125.321 32.8224Z" fill="white" stroke="#2256FF" stroke-width="0.348001" stroke-linecap="round" stroke-linejoin="round"/>
<path d="M88.7561 17.4077L83.457 21.2437M128.186 40.2448L125.048 41.4156" stroke="#2256FF" stroke-width="0.348001" stroke-linecap="round" stroke-linejoin="round"/>
<path d="M183.622 95.9073H139.862C136.58 95.9073 133.895 98.5927 133.895 101.875V129.722C133.895 133.004 136.58 135.689 139.862 135.689H152.511L160.578 143.295C160.893 143.592 161.309 143.757 161.742 143.757C162.174 143.757 162.59 143.591 162.905 143.294L170.966 135.689H183.622C186.904 135.689 189.589 133.004 189.589 129.722V101.875C189.587 100.293 188.957 98.7765 187.839 97.6579C186.72 96.5394 185.204 95.9099 183.622 95.9073Z" fill="#2256FF"/>
<mask id="mask1_1_6467" style="mask-type:luminance" maskUnits="userSpaceOnUse" x="133" y="95" width="57" height="49">
<path d="M183.625 95.9133H139.865C136.583 95.9133 133.897 98.5987 133.897 101.881V129.728C133.897 133.01 136.583 135.695 139.865 135.695H152.514L160.581 143.301C160.896 143.597 161.312 143.763 161.745 143.763C162.177 143.763 162.593 143.597 162.908 143.3L170.969 135.695H183.625C186.907 135.695 189.592 133.01 189.592 129.728V101.881C189.59 100.299 188.96 98.7825 187.842 97.6639C186.723 96.5454 185.207 95.9159 183.625 95.9133Z" fill="white"/>
</mask>
<g mask="url(#mask1_1_6467)">
<path d="M182.455 92.5807L129.204 149.681L180.596 147.643L195.833 130.898L197.928 106.687" fill="#2256FF"/>
</g>
<path d="M183.622 95.9073H139.862C136.58 95.9073 133.895 98.5927 133.895 101.875V129.722C133.895 133.004 136.58 135.689 139.862 135.689H152.511L160.578 143.295C160.893 143.592 161.309 143.757 161.742 143.757C162.174 143.757 162.59 143.591 162.905 143.294L170.966 135.689H183.622C186.904 135.689 189.589 133.004 189.589 129.722V101.875C189.587 100.293 188.957 98.7765 187.839 97.6579C186.72 96.5394 185.204 95.9099 183.622 95.9073Z" stroke="#2256FF" stroke-width="0.348001" stroke-linecap="round" stroke-linejoin="round"/>
<path d="M173.117 108.451C170.027 105.362 165.15 105.098 161.743 107.642C158.374 105.126 153.567 105.356 150.472 108.35C146.97 111.738 147.081 117.488 150.526 120.934L159.61 130.018C160.177 130.581 160.944 130.898 161.743 130.898C162.543 130.898 163.309 130.581 163.876 130.018L173.117 120.777C176.507 117.387 176.507 111.841 173.117 108.451Z" fill="white" stroke="#2256FF" stroke-width="0.348001" stroke-linecap="round" stroke-linejoin="round"/>
<path d="M178.716 124.414L177.086 127.674L178.716 124.414ZM142.042 103.227C141.648 103.513 141.318 103.878 141.072 104.298C140.827 104.718 140.671 105.185 140.615 105.669" fill="#2256FF"/>
<path d="M178.716 124.414L177.086 127.674M142.042 103.227C141.648 103.513 141.318 103.878 141.072 104.298C140.827 104.718 140.671 105.185 140.615 105.669" stroke="#2256FF" stroke-width="0.348001" stroke-linecap="round" stroke-linejoin="round"/>
<path d="M98.7139 60.1238C98.7139 60.1238 98.9609 65.8048 100.566 67.1633L126.625 69.5932C126.625 69.5932 135.336 59.0681 134.404 58.8889C133.472 58.7097 98.7139 60.1238 98.7139 60.1238Z" fill="#F3841C"/>
<mask id="mask2_1_6467" style="mask-type:luminance" maskUnits="userSpaceOnUse" x="98" y="58" width="37" height="12">
<path d="M98.7139 60.1284C98.7139 60.1284 98.9609 65.8093 100.566 67.1678L126.625 69.5977C126.625 69.5977 135.336 59.0726 134.404 58.8934C133.472 58.7142 98.7139 60.1284 98.7139 60.1284Z" fill="white"/>
</mask>
<g mask="url(#mask2_1_6467)">
<path d="M109.743 65.6384C118.455 67.666 117.582 64.3046 122.062 65.2216C126.542 66.1385 129.587 62.7272 129.587 62.7272C131.049 61.9875 129.314 68.714 128.223 68.2802C122.907 70.4747 114.629 67.8634 110.021 67.1204" fill="#F3841C"/>
</g>
<path d="M98.7139 60.1238C98.7139 60.1238 98.9609 65.8048 100.566 67.1633L126.625 69.5932C126.625 69.5932 135.336 59.0681 134.404 58.8889C133.472 58.7097 98.7139 60.1238 98.7139 60.1238Z" stroke="#2256FF" stroke-width="0.348001" stroke-linecap="round" stroke-linejoin="round"/>
<path d="M63.8189 139.296C63.6725 139.607 56.1797 151.596 56.1797 151.596L62.6718 153.409L71.4582 140.455L63.8189 139.296Z" fill="white"/>
<mask id="mask3_1_6467" style="mask-type:luminance" maskUnits="userSpaceOnUse" x="56" y="139" width="16" height="15">
<path d="M63.8219 139.295C63.6754 139.606 56.1826 151.595 56.1826 151.595L62.6747 153.409L71.4611 140.455L63.8219 139.295Z" fill="white"/>
</mask>
<g mask="url(#mask3_1_6467)">
<path d="M61.3746 142.869C57.2068 143.89 66.5043 152.142 66.5043 152.142L68.989 143.124" fill="#EFF1F7"/>
</g>
<path d="M63.8189 139.296C63.6725 139.607 56.1797 151.596 56.1797 151.596L62.6718 153.409L71.4582 140.455L63.8189 139.296Z" stroke="#2256FF" stroke-width="0.348001" stroke-linecap="round" stroke-linejoin="round"/>
<path d="M131.88 141.768C137.342 153.618 137.812 151.139 133.143 156.048L124.041 143.365L131.88 141.768Z" fill="white"/>
<mask id="mask4_1_6467" style="mask-type:luminance" maskUnits="userSpaceOnUse" x="124" y="141" width="13" height="16">
<path d="M131.881 141.763C137.343 153.613 137.813 151.133 133.144 156.042L124.042 143.359L131.881 141.763Z" fill="white"/>
</mask>
<g mask="url(#mask4_1_6467)">
<path d="M127.179 154.269C132.148 151.291 133.502 144.16 133.502 144.16C123.892 147.737 126.308 146.364 125.095 153.162" fill="#EFF1F7"/>
</g>
<path d="M131.88 141.768C137.342 153.618 137.812 151.139 133.143 156.048L124.041 143.365L131.88 141.768Z" stroke="#2256FF" stroke-width="0.348001" stroke-linecap="round" stroke-linejoin="round"/>
<path d="M58.1406 142.413C64.6858 150.44 75.8777 151.896 75.8777 151.896L97.4676 112.415L136.795 87.1662L121.717 71.4833L83.9935 101.547C83.4466 101.959 82.9811 102.47 82.6205 103.052L58.1406 142.413Z" fill="white"/>
<mask id="mask5_1_6467" style="mask-type:luminance" maskUnits="userSpaceOnUse" x="58" y="71" width="79" height="81">
<path d="M58.1436 142.412C64.6888 150.44 75.8806 151.896 75.8806 151.896L97.4705 112.414L136.797 87.1661L121.72 71.4832L83.9964 101.547C83.4496 101.959 82.984 102.47 82.6235 103.052L58.1436 142.412Z" fill="white"/>
</mask>
<g mask="url(#mask5_1_6467)">
<path d="M88.8404 97.752C91.4468 103.047 80.8844 108.84 77.3493 104.591C73.1468 99.1971 85.8615 92.2873 88.8404 97.752Z" fill="white" stroke="#2256FF" stroke-width="0.348001" stroke-linecap="round" stroke-linejoin="round"/>
<path d="M60.301 134.359C59.2096 138.549 73.0915 147.863 80.7563 147.659" stroke="#2256FF" stroke-width="0.348001" stroke-linecap="round" stroke-linejoin="round"/>
<path d="M113.855 93.7875L90.106 106.511C89.6819 106.739 89.3237 107.072 89.0661 107.478L66.4648 143.126" stroke="#2256FF" stroke-width="0.348001" stroke-linecap="round" stroke-linejoin="round"/>
<path d="M120.297 80.7794C119.435 83.5791 118.461 85.9546 117.404 87.9968C114.949 83.9081 108.101 98.8404 92.7176 113.53C86.3593 128.728 134.474 119.78 134.474 119.78" fill="#EFF1F7"/>
</g>
<path d="M58.1406 142.413C64.6858 150.44 75.8777 151.896 75.8777 151.896L97.4676 112.415L136.795 87.1662L121.717 71.4833L83.9935 101.547C83.4466 101.959 82.9811 102.47 82.6205 103.052L58.1406 142.413Z" stroke="#2256FF" stroke-width="0.348001" stroke-linecap="round" stroke-linejoin="round"/>
<path d="M113.465 91.7083L105.382 113.128C104.643 115.019 104.787 117.27 105.757 118.985L117.903 154.578C117.903 154.578 130.981 152.141 133.504 144.16L119.268 114.17C119.268 114.17 138.618 96.3109 137.578 82.9185C136.539 69.5262 119.629 76.6673 119.629 76.6673" fill="white"/>
<mask id="mask6_1_6467" style="mask-type:luminance" maskUnits="userSpaceOnUse" x="104" y="74" width="34" height="81">
<path d="M113.465 91.7118L105.382 113.132C104.643 115.022 104.787 117.273 105.757 118.989L117.903 154.581C117.903 154.581 130.981 152.144 133.504 144.164L119.268 114.174C119.268 114.174 138.618 96.3144 137.578 82.9221C136.539 69.5298 119.629 76.6708 119.629 76.6708" fill="white"/>
</mask>
<g mask="url(#mask6_1_6467)">
<path d="M116.595 79.6835C115.689 87.1301 130.647 93.8665 128.977 100.566C127.307 107.265 136.796 96.6759 136.796 96.6759L128.726 85.7519L119.266 81.8829" fill="#EFF1F7"/>
<path d="M106.829 109.128C112.82 111.369 108.621 123.49 103 121.988C97.0092 119.747 101.209 107.626 106.829 109.128Z" fill="white" stroke="#2256FF" stroke-width="0.348001" stroke-linecap="round" stroke-linejoin="round"/>
<path d="M108.76 150.469C118.162 153.228 132.282 139.295 132.282 139.295" stroke="#2256FF" stroke-width="0.348001" stroke-linecap="round" stroke-linejoin="round"/>
<path d="M121.565 94.6277C118.117 104.669 110.993 112.852 115.963 118.504C119.9 126.057 129.251 143.995 129.274 144.038" stroke="#2256FF" stroke-width="0.348001" stroke-linecap="round" stroke-linejoin="round"/>
</g>
<path d="M113.465 91.7083L105.382 113.128C104.643 115.019 104.787 117.27 105.757 118.985L117.903 154.578C117.903 154.578 130.981 152.141 133.504 144.16L119.268 114.17C119.268 114.17 138.618 96.3109 137.578 82.9185C136.539 69.5262 119.629 76.6673 119.629 76.6673" stroke="#2256FF" stroke-width="0.348001" stroke-linecap="round" stroke-linejoin="round"/>
<path d="M42.4111 155.959C44.5896 146.519 55.7051 154.09 57.1314 147.658L65.0116 151.451L62.0615 156.135L42.4111 155.959ZM121.962 162.859C124.727 155.043 134.058 162.294 131.16 155.163C131.15 155.179 135.871 149.312 135.935 149.235C140.579 157.478 140.064 157.314 135.724 162.859C135.031 162.859 122.027 162.859 121.962 162.859Z" fill="white" stroke="#2256FF" stroke-width="0.348001" stroke-linecap="round" stroke-linejoin="round"/>
<path d="M129.987 62.9607L113.464 78.185C113.464 78.185 118.27 92.4079 134.775 92.2359C134.775 92.2359 151.033 69.928 150.386 67.1656C150.265 66.6517 149.964 59.0764 134.404 58.8911" fill="#F3841C"/>
<mask id="mask7_1_6467" style="mask-type:luminance" maskUnits="userSpaceOnUse" x="113" y="58" width="38" height="35">
<path d="M129.989 62.9543L113.466 78.1786C113.466 78.1786 118.272 92.4016 134.777 92.2296C134.777 92.2296 151.035 69.9216 150.388 67.1592C150.267 66.6454 149.966 59.07 134.406 58.8848" fill="white"/>
</mask>
<g mask="url(#mask7_1_6467)">
<path d="M138.492 57.8932C130.185 65.8284 140.302 71.0915 147.865 62.0982L138.492 57.8932Z" fill="white"/>
<path d="M138.492 57.8932C130.185 65.8284 140.302 71.0915 147.865 62.0982" stroke="#2256FF" stroke-width="0.348001" stroke-linecap="round" stroke-linejoin="round"/>
<path d="M147.126 61.0977C145.372 63.8395 141.164 66.767 137.463 65.2876C130.901 60.0097 150.99 50.985 147.126 61.0977Z" fill="white" stroke="#2256FF" stroke-width="0.348001" stroke-linecap="round" stroke-linejoin="round"/>
<path d="M137.636 72.7594C137.81 67.5037 129.43 64.5914 126.518 70.013C122.011 79.0572 133.746 74.4374 137.636 72.7594Z" fill="#F3841C"/>
<path d="M137.636 72.7594C137.81 67.5037 129.43 64.5914 126.518 70.013C122.011 79.0572 133.746 74.4374 137.636 72.7594Z" stroke="#2256FF" stroke-width="0.348001" stroke-linecap="round" stroke-linejoin="round"/>
<path d="M126.831 76.4227C129.753 80.7485 136.968 78.963 137.594 73.7137C134.992 74.937 130.245 76.2349 126.831 76.4227Z" fill="#F3841C" stroke="#2256FF" stroke-width="0.348001" stroke-linecap="round" stroke-linejoin="round"/>
<path d="M140.801 70.6785C140.536 69.8353 138.745 69.3217 136.539 69.5227C137.798 71.2627 142.895 69.8338 137.637 72.7601C134.413 74.1845 118.525 79.1126 125.776 72.2317C113.322 79.5332 140.974 75.8879 140.801 70.6785Z" fill="white" stroke="#2256FF" stroke-width="0.348001" stroke-linecap="round" stroke-linejoin="round"/>
</g>
<path d="M129.987 62.9607L113.464 78.185C113.464 78.185 118.27 92.4079 134.775 92.2359C134.775 92.2359 151.033 69.928 150.386 67.1656C150.265 66.6517 149.964 59.0764 134.404 58.8911" stroke="#2256FF" stroke-width="0.348001" stroke-linecap="round" stroke-linejoin="round"/>
<path d="M145.855 61.7746L147.555 53.2434C138.841 55.2648 140.196 54.5393 138.491 59.9423" fill="white"/>
<mask id="mask8_1_6467" style="mask-type:luminance" maskUnits="userSpaceOnUse" x="138" y="53" width="10" height="9">
<path d="M145.857 61.7697L147.557 53.2385C138.843 55.2599 140.198 54.5344 138.493 59.9374" fill="white"/>
</mask>
<g mask="url(#mask8_1_6467)">
<path d="M136.664 60.4297C138.726 58.7799 143.984 58.1259 143.209 57.2742C142.434 56.4225 139.831 55.8451 139.831 55.8451L136.664 60.4297Z" fill="#EFF1F7"/>
</g>
<path d="M145.855 61.7746L147.555 53.2434C138.841 55.2648 140.196 54.5393 138.491 59.9423" stroke="#2256FF" stroke-width="0.348001" stroke-linecap="round" stroke-linejoin="round"/>
<path d="M149.379 103.063C149.37 103.053 90.3273 70.2064 87.7731 68.7811C84.4102 66.9052 87.7171 63.3251 91.4159 56.385C94.4195 49.5949 96.7337 51.8187 98.0464 52.4653C105.673 56.7091 154.502 83.8813 158.485 86.0978C161.501 87.8759 159.939 89.8849 156.055 96.7172C153.184 101.359 153.25 104.163 149.379 103.063Z" fill="white" stroke="#2256FF" stroke-width="0.348001" stroke-linecap="round" stroke-linejoin="round"/>
<path d="M148.592 103.85C148.583 103.84 89.5402 70.9934 86.986 69.5681C83.6231 67.6921 86.93 64.1121 90.6288 57.1719C93.6324 50.3819 95.9466 52.6057 97.2593 53.2523C104.885 57.496 153.715 84.6683 157.698 86.8848C160.714 88.6628 159.152 90.6719 155.268 97.5042C152.397 102.146 152.463 104.95 148.592 103.85Z" fill="#2256FF"/>
<mask id="mask9_1_6467" style="mask-type:luminance" maskUnits="userSpaceOnUse" x="85" y="52" width="75" height="53">
<path d="M148.592 103.849C148.583 103.838 89.5402 70.9918 86.986 69.5665C83.6231 67.6906 86.93 64.1105 90.6288 57.1704C93.6324 50.3803 95.9466 52.6041 97.2593 53.2507C104.885 57.4945 153.715 84.6667 157.698 86.8832C160.714 88.6613 159.152 90.6703 155.268 97.5026C152.397 102.145 152.463 104.948 148.592 103.849Z" fill="white"/>
</mask>
<g mask="url(#mask9_1_6467)">
<path d="M92.5235 53.7659C72.9018 69.4649 109.369 78.525 114.947 83.908C120.525 89.291 54.0977 71.4856 54.0977 71.4856L63.091 60.0144" fill="#2256FF"/>
</g>
<path d="M148.592 103.85C148.583 103.84 89.5402 70.9934 86.986 69.5681C83.6231 67.6921 86.93 64.1121 90.6288 57.1719C93.6324 50.3819 95.9466 52.6057 97.2593 53.2523C104.885 57.496 153.715 84.6683 157.698 86.8848C160.714 88.6628 159.152 90.6719 155.268 97.5041C152.397 102.146 152.463 104.95 148.592 103.85Z" stroke="#2256FF" stroke-width="0.348001" stroke-linecap="round" stroke-linejoin="round"/>
<g opacity="0.49">
<path d="M148.842 91.0531C148.824 91.0408 126.253 78.485 115.693 72.6068C111.428 69.6981 110.725 71.1215 109.598 68.0906C109.612 63.2971 121.156 72.6262 131.718 77.7784C141.914 83.7949 157.342 90.2577 148.842 91.0531ZM120.296 80.7745C119.273 79.3955 102.886 73.5161 108.378 70.994C109.608 70.2834 118.975 76.7108 121.635 77.8306C122.716 77.8102 123.503 81.5777 120.296 80.7745ZM137.031 90.0869C136.008 88.7079 119.62 82.8284 125.112 80.3064C126.343 79.5957 135.71 86.0231 138.37 87.1429C139.451 87.1225 140.238 90.89 137.031 90.0869Z" fill="white" stroke="#2256FF" stroke-width="0.348001" stroke-linecap="round" stroke-linejoin="round"/>
</g>
<path d="M96.1212 68.3907C91.6076 61.3889 94.9402 56.0538 97.6203 65.7418C100.277 65.1221 110.366 61.617 106.253 66.1529C103.547 66.5704 98.1152 68.8076 96.1212 68.3907Z" fill="white" stroke="#2256FF" stroke-width="0.348001" stroke-linecap="round" stroke-linejoin="round"/>
<path d="M138.992 93.3273C134.712 95.0997 132.087 94.9931 130.817 91.7085C130.817 91.7085 129.382 92.6258 131.134 95.281C131.134 95.281 129.8 96.3149 129.346 96.7011C128.892 97.0874 130.591 100.307 133.9 100.307C137.209 100.307 142.683 94.9994 142.683 94.9994" fill="white"/>
<mask id="mask10_1_6467" style="mask-type:luminance" maskUnits="userSpaceOnUse" x="129" y="91" width="14" height="10">
<path d="M138.99 93.3301C134.71 95.1025 132.085 94.9959 130.815 91.7113C130.815 91.7113 129.38 92.6286 131.132 95.2838C131.132 95.2838 129.798 96.3177 129.344 96.7039C128.89 97.0902 130.589 100.31 133.898 100.31C137.207 100.31 142.681 95.0022 142.681 95.0022" fill="white"/>
</mask>
<g mask="url(#mask10_1_6467)">
<path d="M136.928 93.3002C135.62 94.2983 138.304 96.9788 136.928 99.1746C135.552 101.37 139.744 100.309 139.744 100.309L139.431 95.2678" fill="#EFF1F7"/>
</g>
<path d="M138.992 93.3273C134.712 95.0997 132.087 94.9931 130.817 91.7085C130.817 91.7085 129.382 92.6258 131.134 95.281C131.134 95.281 129.8 96.3149 129.346 96.7011C128.892 97.0874 130.591 100.307 133.9 100.307C137.209 100.307 142.683 94.9994 142.683 94.9994" stroke="#2256FF" stroke-width="0.348001" stroke-linecap="round" stroke-linejoin="round"/>
<path d="M140.967 74.3684C144.868 85.6503 148.315 86.1871 136.075 92.5386C135.458 92.1164 140.512 104.687 142.157 104.117C147.393 102.306 153.306 95.521 154.376 91.6312C158.698 75.916 150.405 65.362 149.028 63.8635" fill="#F3841C"/>
<mask id="mask11_1_6467" style="mask-type:luminance" maskUnits="userSpaceOnUse" x="136" y="63" width="20" height="42">
<path d="M140.966 74.3673C144.867 85.6492 148.314 86.186 136.074 92.5375C135.457 92.1153 140.511 104.685 142.156 104.116C147.393 102.305 153.305 95.5199 154.375 91.6301C158.697 75.9149 150.404 65.3609 149.027 63.8624" fill="white"/>
</mask>
<g mask="url(#mask11_1_6467)">
<path d="M159.389 92.9063C159.12 99.1245 151.494 98.8594 151.265 92.906C151.534 86.688 159.16 86.9532 159.389 92.9063Z" fill="#F3841C"/>
</g>
<path d="M140.965 74.369C144.867 85.6509 148.313 86.1877 136.074 92.5392C135.456 92.117 140.51 104.687 142.156 104.118C147.392 102.306 153.305 95.5216 154.375 91.6318C158.697 75.9166 150.403 65.3626 149.027 63.8641M120.526 89.2897C118.073 94.3654 122.877 95.0808 122.877 95.0808M145.803 87.9952H146.893M145.665 73.4144L144.712 75.186M122.371 62.5176L122.1 62.9278M105.197 89.3578L105.742 93.1731M68.9445 132.416C68.9119 133.095 69.1076 133.766 69.5004 134.321M122.639 142.227C122.789 142.44 122.997 142.604 123.239 142.7C123.48 142.796 123.745 142.819 123.999 142.766M129.741 155.684L131.566 156.64C130.036 156.773 128.511 156.947 126.99 157.161M54.6063 147.958C54.7863 148.717 55.1254 149.428 55.6011 150.045C54.7387 149.749 53.8246 149.634 52.9159 149.707C52.0071 149.78 51.1232 150.04 50.3193 150.47M131.835 95.3421H132.449M104.717 71.6242L104.315 73.3972M118.922 114.573L116.88 114.283M93.7041 111.302L92.4816 110.479" stroke="#2256FF" stroke-width="0.348001" stroke-linecap="round" stroke-linejoin="round"/>
<path d="M147.611 54.1937C148.873 54.8143 149.823 54.135 150.359 53.5383C150.548 53.3287 150.713 53.0985 150.852 52.852C150.852 52.852 152.336 49.9602 152.793 49.1265C153.25 48.2928 151.239 42.9942 147.428 43.445C145.68 40.3584 139.123 41.7205 140.613 47.3638C142.103 53.0071 147.24 53.4103 147.24 53.4103" fill="#2256FF"/>
<path d="M147.611 54.1937C148.873 54.8143 149.823 54.135 150.359 53.5383C150.548 53.3287 150.713 53.0985 150.852 52.852C150.852 52.852 152.336 49.9602 152.793 49.1265C153.25 48.2928 151.239 42.9942 147.428 43.445C145.68 40.3584 139.123 41.7205 140.613 47.3638C142.103 53.0071 147.24 53.4103 147.24 53.4103" stroke="#2256FF" stroke-width="0.348001" stroke-linecap="round" stroke-linejoin="round"/>
<path d="M141.426 45.7374C141.102 50.2078 137.685 49.7893 137.962 53.4093C138.226 56.8513 138.984 58.3253 144.05 57.1837C149.115 56.0422 149.849 50.9687 149.849 50.9687L150.024 46.8616L143.205 44.7876L141.426 45.7374Z" fill="white"/>
<mask id="mask12_1_6467" style="mask-type:luminance" maskUnits="userSpaceOnUse" x="137" y="44" width="14" height="14">
<path d="M141.428 45.7418C141.104 50.2122 137.687 49.7937 137.964 53.4137C138.228 56.8557 138.986 58.3297 144.051 57.1881C149.117 56.0466 149.851 50.9731 149.851 50.9731L150.026 46.866L143.207 44.792L141.428 45.7418Z" fill="white"/>
</mask>
<g mask="url(#mask12_1_6467)">
<path opacity="0.5" d="M140.76 51.1334C140.561 51.7303 139.68 52.0228 138.818 51.7896C137.981 51.5634 137.481 50.926 137.679 50.3631C137.875 49.8037 138.695 49.505 139.533 49.698C140.397 49.8968 140.957 50.5404 140.76 51.1334Z" fill="#EFF1F7"/>
<path d="M140.724 46.5045C149.599 47.427 149.767 47.9015 149.087 47.9825C148.407 48.0635 146.192 52.6394 148.277 53.0897C150.361 53.54 151.672 49.6542 151.672 49.6542C151.672 49.6542 148.533 44.6487 148.479 44.6669C148.425 44.6852 144.062 44.8139 144.062 44.8139" fill="#EFF1F7"/>
</g>
<path d="M141.426 45.7374C141.102 50.2078 137.685 49.7893 137.962 53.4093C138.226 56.8513 138.984 58.3253 144.05 57.1837C149.115 56.0422 149.849 50.9687 149.849 50.9687L150.024 46.8616L143.205 44.7876L141.426 45.7374Z" stroke="#2256FF" stroke-width="0.348001" stroke-linecap="round" stroke-linejoin="round"/>
<path d="M149.468 53.476C147.077 53.1746 148.08 50.1083 149.374 48.3363C150.667 46.5643 142.796 45.2682 141.334 46.5485C141.334 46.5485 139.282 44.5249 141.988 44.3773C144.693 44.2297 144.935 44.2631 144.935 44.2631L150.025 46.8614L151.015 48.387L149.976 52.2409L149.468 53.476Z" fill="#2256FF" stroke="#2256FF" stroke-width="0.348001" stroke-linecap="round" stroke-linejoin="round"/>
<path d="M144.445 50.0432C143.463 51.7121 145.145 52.6518 146.222 51.0953C147.254 49.3445 145.473 48.5432 144.445 50.0432Z" fill="white"/>
<mask id="mask13_1_6467" style="mask-type:luminance" maskUnits="userSpaceOnUse" x="144" y="49" width="3" height="3">
<path d="M144.444 50.0375C143.462 51.7064 145.144 52.646 146.221 51.0896C147.253 49.3388 145.472 48.5375 144.444 50.0375Z" fill="white"/>
</mask>
<g mask="url(#mask13_1_6467)">
<path d="M144.515 50.0952C144.125 50.9447 144.976 51.4259 145.487 50.5048C145.886 49.6356 145.015 49.1936 144.515 50.0952Z" fill="#160A0A"/>
</g>
<path d="M140.87 48.2389C139.982 49.7541 141.36 50.5237 142.32 49.1109C143.249 47.5286 141.791 46.8729 140.87 48.2389Z" fill="white"/>
<mask id="mask14_1_6467" style="mask-type:luminance" maskUnits="userSpaceOnUse" x="140" y="47" width="3" height="3">
<path d="M140.868 48.2346C139.98 49.7497 141.358 50.5193 142.318 49.1065C143.247 47.5242 141.789 46.8685 140.868 48.2346Z" fill="white"/>
</mask>
<g mask="url(#mask14_1_6467)">
<path d="M140.8 48.4775C140.444 49.2467 141.139 49.6475 141.598 48.8125C141.961 48.0273 141.249 47.6587 140.8 48.4775Z" fill="#160A0A"/>
</g>
<path d="M142.116 45.9176C143.993 46.5087 143.989 47.5034 142.742 47.1738C141.568 46.8635 140.982 45.5605 142.116 45.9176ZM146.305 47.6507C148.747 48.1145 148.976 49.2333 147.359 48.991C145.845 48.764 144.841 47.3726 146.305 47.6507Z" fill="#160A0A"/>
<path d="M141.62 51.1082C142.15 50.7874 142.579 49.6947 142.886 49.9821C143.311 50.0768 142.483 50.9734 142.485 51.6066C142.487 52.2494 141.934 52.296 141.623 52.1082C141.622 52.1077 141.622 52.1066 141.621 52.1061C141.621 52.1057 141.62 52.1063 141.619 52.1059C141.314 51.9213 141.097 51.4244 141.62 51.1082Z" fill="#EFF1F7"/>
<path opacity="0.5" d="M142.971 52.6203C142.852 53.1754 143.314 53.7892 144.024 54.0011C144.758 54.2203 145.483 53.9303 145.62 53.3424C145.758 52.75 145.241 52.1112 144.488 51.9255C143.761 51.7462 143.091 52.0613 142.971 52.6203Z" fill="#EFF1F7"/>
<path d="M147.839 52.5879C152.994 51.2284 150.697 57.3316 146.312 56.2933L147.839 52.5879Z" fill="white"/>
<path d="M147.839 52.5879C152.994 51.2284 150.697 57.3316 146.312 56.2933" stroke="#2256FF" stroke-width="0.348001" stroke-linecap="round" stroke-linejoin="round"/>
<path d="M140.368 52.8382C140.316 52.844 140.269 52.8669 140.232 52.9031C140.195 52.9393 140.171 52.9868 140.165 53.0381C140.024 54.3436 141.106 54.8456 141.979 54.3656C143.501 53.6457 141.959 52.646 140.368 52.8382Z" fill="#2256FF"/>
<mask id="mask15_1_6467" style="mask-type:luminance" maskUnits="userSpaceOnUse" x="140" y="52" width="3" height="3">
<path d="M140.369 52.8341C140.317 52.84 140.27 52.8629 140.233 52.8991C140.196 52.9353 140.172 52.9828 140.166 53.034C140.025 54.3396 141.107 54.8415 141.98 54.3616C143.502 53.6417 141.96 52.642 140.369 52.8341Z" fill="white"/>
</mask>
<g mask="url(#mask15_1_6467)">
<path d="M142.412 54.5489C142.452 55.7743 139.651 55.8405 140.222 54.1223C140.668 53.2602 142.242 53.3571 142.412 54.5489Z" fill="#2256FF"/>
<path d="M140.683 52.6636C140.271 53.1008 142.221 54.154 142.292 53.067L140.876 52.6451" fill="white"/>
</g>
<path d="M148.826 53.637C149.207 53.751 149.08 54.7068 148.175 54.7862" stroke="#2256FF" stroke-width="0.348001" stroke-linecap="round" stroke-linejoin="round"/>
</svg>
