<svg width="36" height="37" viewBox="0 0 36 37" fill="none" xmlns="http://www.w3.org/2000/svg">
<circle cx="27" cy="25.4186" r="9" fill="#EA8A2A"/>
<path fill-rule="evenodd" clip-rule="evenodd" d="M7.75 31.6439H5.16667C4.45367 31.6439 3.875 30.9777 3.875 30.157V21.2355C3.875 20.4147 4.45367 19.7485 5.16667 19.7485H7.75C8.463 19.7485 9.04167 20.4147 9.04167 21.2355V30.157C9.04167 30.9777 8.463 31.6439 7.75 31.6439Z" stroke="#E5E5E5" stroke-width="1.5" stroke-linecap="round" stroke-linejoin="round"/>
<path d="M16.7917 25.6962H19.8052C20.3645 25.6962 20.9083 25.488 21.3552 25.1014L24.4759 22.4071C25.2547 21.7351 26.3449 21.8243 27.0334 22.6168V22.6168C27.798 23.4971 27.798 24.923 27.0334 25.8018L24.3557 28.8842C23.635 29.7139 22.7153 30.2804 21.7156 30.5109L17.931 31.3822C17.1805 31.5547 16.4068 31.5339 15.6641 31.3197L12.2412 30.3354C11.8317 30.2164 11.412 30.157 10.9896 30.157H9.04175" stroke="#E5E5E5" stroke-width="1.5" stroke-linecap="round" stroke-linejoin="round"/>
<path d="M16.7917 25.6962H18.7099C19.791 25.6962 20.6667 24.6881 20.6667 23.4435V22.993C20.6667 21.9596 20.0558 21.0585 19.1852 20.8087L16.2247 19.9567C15.7429 19.8184 15.2495 19.7485 14.7535 19.7485V19.7485C13.5561 19.7485 12.3846 20.156 11.3887 20.9217L9.04175 22.7224" stroke="#E5E5E5" stroke-width="1.5" stroke-linecap="round" stroke-linejoin="round"/>
<path d="M22.1763 8.084C23.6079 9.73196 23.6079 12.4038 22.1763 14.0518C20.7447 15.6998 18.4237 15.6998 16.9921 14.0518C15.5606 12.4038 15.5606 9.73196 16.9921 8.084C18.4237 6.43603 20.7447 6.43603 22.1763 8.084" stroke="#E5E5E5" stroke-width="1.5" stroke-linecap="round" stroke-linejoin="round"/>
<path d="M18.8984 6.92389C18.7782 6.08378 18.445 5.27638 17.8818 4.62809C16.4507 2.98058 14.1295 2.98058 12.6984 4.62809C11.2672 6.27559 11.2672 8.94758 12.6984 10.5951C13.5896 11.6211 14.8245 12.0062 15.9753 11.7549" stroke="#E5E5E5" stroke-width="1.5" stroke-linecap="round" stroke-linejoin="round"/>
</svg>
