<svg width="33" height="37" viewBox="0 0 33 37" fill="none" xmlns="http://www.w3.org/2000/svg">
<circle cx="24" cy="22.4186" r="9" fill="#EA8A2A"/>
<rect x="3.875" y="19.7485" width="9.04167" height="5.94767" rx="1.9375" stroke="#E5E5E5" stroke-width="1.9375" stroke-linecap="round" stroke-linejoin="round"/>
<rect x="3.875" y="25.6962" width="9.04167" height="5.94768" rx="1.9375" stroke="#E5E5E5" stroke-width="1.9375" stroke-linecap="round" stroke-linejoin="round"/>
<path fill-rule="evenodd" clip-rule="evenodd" d="M13.5625 4.87939H20.0208C21.0909 4.87939 21.9583 5.87797 21.9583 7.10977V7.10977C21.9583 9.98398 19.9343 12.314 17.4375 12.314H16.1458C13.649 12.314 11.625 9.98398 11.625 7.10977V7.10977C11.625 5.87797 12.4924 4.87939 13.5625 4.87939Z" stroke="#E5E5E5" stroke-width="1.9375" stroke-linecap="round" stroke-linejoin="round"/>
<path d="M16.7918 31.6441H21.9584C24.8119 31.6441 27.1251 28.9813 27.1251 25.6964V24.2095C27.1296 19.5355 24.7533 15.2927 21.0533 13.3682C17.3532 11.4436 13.0167 12.195 9.97266 15.288" stroke="#E5E5E5" stroke-width="1.9375" stroke-linecap="round" stroke-linejoin="round"/>
</svg>
