<svg width="18" height="18" viewBox="0 0 18 18" fill="none" xmlns="http://www.w3.org/2000/svg">
<path opacity="0.5" fill-rule="evenodd" clip-rule="evenodd" d="M14.0779 2.69162L14.1956 2.81109L14.3172 2.68254C14.5236 2.46235 14.811 2.33609 15.1128 2.33306C15.4146 2.33003 15.7045 2.45049 15.9152 2.6665L15.94 2.6916C16.3873 3.15132 16.3873 3.88364 15.94 4.34336L14.7237 5.57831C14.5844 5.71983 14.3942 5.79952 14.1956 5.79952C13.997 5.79952 13.8067 5.71983 13.6674 5.57831L12.4512 4.34339C12.0039 3.88367 12.0039 3.15134 12.4512 2.69162V2.69162C12.6658 2.47369 12.9588 2.35096 13.2646 2.35096C13.5704 2.35096 13.8634 2.47369 14.0779 2.69162Z" stroke="white" stroke-width="1.03995" stroke-linecap="round" stroke-linejoin="round"/>
<path d="M10.3095 2.82798C7.59055 2.23726 4.80834 3.51389 3.48301 5.96032C2.15768 8.40675 2.60799 11.4346 4.58792 13.3894C6.56784 15.3443 9.60115 15.756 12.0305 14.3996C14.4598 13.0432 15.7009 10.2449 15.0756 7.53374" stroke="white" stroke-width="1.03995" stroke-linecap="round" stroke-linejoin="round"/>
<path d="M7.67844 7.70447V11.6566" stroke="white" stroke-width="1.03995" stroke-linecap="round" stroke-linejoin="round"/>
<path fill-rule="evenodd" clip-rule="evenodd" d="M11.0078 11.6929C11.4959 11.6929 11.9184 11.3533 12.0234 10.8766L12.4376 8.99482C12.5053 8.68713 12.4299 8.36532 12.2325 8.11976C12.0351 7.87419 11.737 7.73135 11.422 7.73134H10.3246V6.25261C10.3246 5.98995 10.1762 5.74984 9.9412 5.63243L9.76579 5.54479C9.34294 5.33353 8.82879 5.50009 8.61013 5.91917L7.67852 7.70501H6.22261C5.93544 7.70501 5.70264 7.93781 5.70264 8.22498V11.1729C5.70264 11.4601 5.93544 11.6929 6.22261 11.6929H11.0078Z" stroke="white" stroke-width="1.03995" stroke-linecap="round" stroke-linejoin="round"/>
</svg>
