<?xml version="1.0" encoding="utf-8"?>
<!-- Generator: Adobe Illustrator 26.5.0, SVG Export Plug-In . SVG Version: 6.00 Build 0)  -->
<svg version="1.1" id="Layer_1" xmlns="http://www.w3.org/2000/svg" xmlns:xlink="http://www.w3.org/1999/xlink" x="0px" y="0px"
	 viewBox="0 0 25.1 22.2" style="enable-background:new 0 0 25.1 22.2;" xml:space="preserve">
<style type="text/css">
	.st0{display:none;fill:#888888;}
	.st1{fill:#EA8A2A;}
	
		.st2{opacity:0.5;fill:none;stroke:#FFFFFF;stroke-width:1.04;stroke-linecap:round;stroke-linejoin:round;enable-background:new    ;}
	.st3{fill:none;stroke:#FFFFFF;stroke-width:1.04;stroke-linecap:round;stroke-linejoin:round;}
</style>
<rect class="st0" width="25.1" height="22.2"/>
<path class="st1" d="M15,13.2c0,3.1-2.5,5.7-5.7,5.7c-3.1,0-5.7-2.5-5.7-5.7c0-3.1,2.5-5.7,5.7-5.7C12.5,7.7,15,10.1,15,13.2z"/>
<path class="st2" d="M19.9,15.5l2.4-2.4c0.3-0.3,0.3-0.7,0-1L21.2,11c-0.3-0.3-0.7-0.3-1,0l-2.4,2.4c-0.1,0.1-0.2,0.3-0.2,0.5v1.8
	h1.8C19.6,15.7,19.8,15.6,19.9,15.5z"/>
<path class="st3" d="M12.1,10.8h2.8"/>
<path class="st3" d="M12.1,7.4h5.5"/>
<path class="st3" d="M20.4,8.1V6c0-1.1-0.9-2.1-2.1-2.1h-6.9c-1.1,0-2.1,0.9-2.1,2.1v6.2c0,1.1,0.9,2.1,2.1,2.1h3.5"/>
</svg>
