<svg width="308" height="234" viewBox="0 0 308 234" fill="none" xmlns="http://www.w3.org/2000/svg">
<path d="M265.129 198.138L284.777 190.985C288.423 189.661 288.423 187.49 284.777 186.163L262.182 177.94L265.129 198.138Z" fill="#0D1C4C"/>
<path d="M4.34899 175.494C0.0962337 173.945 0.0962337 171.411 4.34899 169.862L43.7753 155.514C48.028 153.965 54.9884 153.965 59.2264 155.514L98.649 169.862C102.906 171.411 102.906 173.945 98.649 175.494L59.2412 189.842C54.9884 191.391 48.028 191.391 43.79 189.842L4.34899 175.494Z" fill="white" stroke="#0D1C4C" stroke-width="1.36" stroke-miterlimit="10" stroke-linecap="round"/>
<path d="M61.4813 196.272C57.2286 194.724 57.2286 192.192 61.4813 190.644L100.904 176.296C105.157 174.751 112.117 174.751 116.374 176.296L155.797 190.644C160.049 192.192 160.049 194.724 155.797 196.272L116.374 210.62C112.117 212.169 105.157 212.169 100.904 210.62L61.4813 196.272Z" fill="white" stroke="#0D1C4C" stroke-width="1.36" stroke-miterlimit="10" stroke-linecap="round"/>
<path d="M118.676 217.09C114.423 215.541 114.423 213.008 118.676 211.463L158.103 197.115C162.356 195.566 169.315 195.566 173.554 197.115L212.976 211.463C217.233 213.008 217.233 215.541 212.976 217.09L173.554 231.438C169.301 232.987 162.341 232.987 158.103 231.438L118.676 217.09Z" fill="#EBEBEB" stroke="#0D1C4C" stroke-width="1.36" stroke-miterlimit="10" stroke-linecap="round"/>
<path d="M58.2907 109.275V151.869C58.2907 152.892 59.354 153.91 61.4803 154.683L100.903 169.031C105.156 170.579 112.116 170.579 116.373 169.031L187.761 143.047C189.886 142.274 190.95 141.252 190.95 140.233V97.646L58.2907 109.275Z" fill="white" stroke="#0D1C4C" stroke-width="1.36" stroke-miterlimit="10" stroke-linecap="round"/>
<path d="M58.2907 149.716L64.5742 152.001C66.2371 152.608 67.5981 151.656 67.5981 149.886V142.414C67.553 141.481 67.2451 140.583 66.7099 139.818C66.1748 139.054 65.4344 138.457 64.5742 138.095L60.8181 136.727C59.7161 136.304 58.8136 135.481 58.2907 134.423" stroke="#0D1C4C" stroke-width="1.36" stroke-miterlimit="10" stroke-linecap="round"/>
<path d="M108.636 170.193C111.443 170.193 114.246 169.825 116.362 169.034L187.75 143.051C189.876 142.279 190.939 141.256 190.939 140.236V101.211L114.272 129.17C111.167 130.304 108.625 133.934 108.625 137.238L108.636 170.193Z" fill="#E9ECEC"/>
<path d="M58.2907 109.275V151.869C58.2907 152.892 59.354 153.91 61.4803 154.683L100.903 169.031C105.156 170.579 112.116 170.579 116.373 169.031L187.761 143.047C189.886 142.274 190.95 141.252 190.95 140.233V97.646L58.2907 109.275Z" stroke="#0D1C4C" stroke-width="1.36" stroke-miterlimit="10" stroke-linecap="round"/>
<path d="M61.4804 112.093C57.2277 110.544 57.2277 108.013 61.4804 106.464L132.869 80.4804C137.122 78.9317 144.082 78.9317 148.32 80.4804L187.746 94.828C191.999 96.3731 191.999 98.9079 187.746 100.457L116.373 126.444C112.116 127.989 105.156 127.989 100.903 126.444L61.4804 112.093Z" fill="white"/>
<path d="M114.733 114.878L167.344 95.7292L141.703 89.9681L108.851 109.043L114.733 114.878Z" fill="#0D1C4C" stroke="#0D1C4C" stroke-width="1.36" stroke-miterlimit="10"/>
<path d="M61.4804 112.093C57.2277 110.544 57.2277 108.013 61.4804 106.464L132.869 80.4804C137.122 78.9317 144.082 78.9317 148.32 80.4804L187.746 94.828C191.999 96.3731 191.999 98.9079 187.746 100.457L116.373 126.444C112.116 127.989 105.156 127.989 100.903 126.444L61.4804 112.093Z" stroke="#0D1C4C" stroke-width="1.36" stroke-miterlimit="10" stroke-linecap="round"/>
<path d="M169.717 93.6364V60.0925H127.594V93.6364C127.594 94.3942 128.385 95.152 129.967 95.7296L142.902 100.446C146.065 101.597 151.246 101.597 154.409 100.446L167.344 95.7369C168.926 95.152 169.717 94.3942 169.717 93.6364Z" fill="white" stroke="#0D1C4C" stroke-width="1.36" stroke-miterlimit="10" stroke-linecap="round"/>
<path d="M149.094 101.292C150.899 101.291 152.693 101.006 154.409 100.446L167.344 95.7369C168.926 95.1594 169.717 94.4015 169.717 93.6437V60.0925L149.094 67.7409V101.292Z" fill="#FF902F"/>
<path d="M169.717 93.6364V60.0925H127.594V93.6364C127.594 94.3942 128.385 95.152 129.967 95.7296L142.902 100.446C146.065 101.597 151.246 101.597 154.409 100.446L167.344 95.7369C168.926 95.152 169.717 94.3942 169.717 93.6364Z" stroke="#0D1C4C" stroke-width="1.36" stroke-miterlimit="10" stroke-linecap="round"/>
<path d="M129.967 62.1856C126.803 61.0306 126.803 59.147 129.967 57.9955L142.902 53.2866C146.065 52.1351 151.245 52.1351 154.409 53.2866L167.344 57.9955C170.508 59.147 170.508 61.0306 167.344 62.1856L154.409 66.8946C151.245 68.0461 146.065 68.0461 142.902 66.8946L129.967 62.1856Z" fill="white" stroke="#0D1C4C" stroke-width="1.36" stroke-miterlimit="10" stroke-linecap="round"/>
<path d="M143.416 103.209V58.6321H101.292V103.209C101.292 103.97 102.083 104.728 103.665 105.306L116.6 110.011C119.764 111.162 124.944 111.162 128.107 110.011L141.042 105.306C142.624 104.728 143.416 103.97 143.416 103.209Z" fill="white" stroke="#0D1C4C" stroke-width="1.36" stroke-miterlimit="10" stroke-linecap="round"/>
<path d="M122.793 110.868C124.599 110.866 126.393 110.576 128.109 110.011L141.043 105.306C142.625 104.728 143.416 103.97 143.416 103.209V58.6321L122.793 66.2768V110.868Z" fill="#FF902F"/>
<path d="M143.416 103.209V58.6321H101.292V103.209C101.292 103.97 102.083 104.728 103.665 105.306L116.6 110.011C119.764 111.162 124.944 111.162 128.107 110.011L141.042 105.306C142.624 104.728 143.416 103.97 143.416 103.209Z" stroke="#0D1C4C" stroke-width="1.36" stroke-miterlimit="10" stroke-linecap="round"/>
<path d="M103.665 60.714C100.501 59.5627 100.501 57.6791 103.665 56.5239L116.6 51.8297C119.764 50.6782 124.944 50.6782 128.107 51.8297L141.043 56.5349C144.206 57.6901 144.206 59.5737 141.043 60.7252L128.107 65.434C124.944 66.5856 119.764 66.5856 116.6 65.434L103.665 60.714Z" fill="white" stroke="#0D1C4C" stroke-width="1.36" stroke-miterlimit="10" stroke-linecap="round"/>
<path d="M117.112 112.784V97.6349H74.9888V112.784C74.9888 113.542 75.7798 114.3 77.3618 114.878L90.2929 119.576C93.4603 120.726 98.6365 120.726 101.804 119.576L114.735 114.867C116.317 114.3 117.112 113.542 117.112 112.784Z" fill="white" stroke="#0D1C4C" stroke-width="1.36" stroke-miterlimit="10" stroke-linecap="round"/>
<path d="M96.4891 120.439C98.2955 120.433 100.089 120.142 101.805 119.576L114.736 114.867C116.318 114.289 117.113 113.531 117.113 112.773V97.6349L96.4891 105.283V120.439Z" fill="#FF902F"/>
<path d="M117.112 112.784V97.6349H74.9888V112.784C74.9888 113.542 75.7798 114.3 77.3618 114.878L90.2929 119.576C93.4603 120.726 98.6365 120.726 101.804 119.576L114.735 114.867C116.317 114.3 117.112 113.542 117.112 112.784Z" stroke="#0D1C4C" stroke-width="1.36" stroke-miterlimit="10" stroke-linecap="round"/>
<path d="M77.3618 99.7318C74.1979 98.5766 74.1979 96.6932 77.3618 95.5417L90.2929 90.8326C93.4603 89.6813 98.6365 89.6813 101.804 90.8326L114.735 95.5417C117.903 96.6932 117.903 98.5766 114.735 99.7318L101.804 104.437C98.6365 105.589 93.4603 105.589 90.2929 104.437L77.3618 99.7318Z" fill="white" stroke="#0D1C4C" stroke-width="1.36" stroke-miterlimit="10" stroke-linecap="round"/>
<path opacity="0.7" d="M141.768 102.443C143.497 107.189 147.46 110.143 151.536 108.657L186.002 96.097C189.681 94.7579 191.212 89.7988 189.482 85.0604L161.398 7.99211C159.67 3.24639 155.641 0.314363 151.627 1.77854L117.164 14.3602C113.294 15.7693 111.951 20.6548 113.68 25.3968L141.768 102.443Z" fill="#EBEBEB"/>
<path d="M116.289 14.6544C112.419 16.0635 111.076 20.9527 112.805 25.6911L140.879 102.759C142.608 107.505 146.569 110.456 150.647 108.969L151.514 108.657C147.441 110.128 143.484 107.185 141.754 102.443L113.681 25.3966C111.952 20.6509 113.295 15.7655 117.165 14.3601L116.289 14.6544Z" fill="white"/>
<path d="M185.772 95.4583L163.87 103.44L129.978 10.3995L151.861 2.41755C153.639 1.76924 155.424 2.08313 156.995 3.12366C158.577 4.17236 159.937 5.96253 160.761 8.22516L188.845 85.2935C189.662 87.5346 189.701 89.8056 189.123 91.6504C188.546 93.4939 187.37 94.8763 185.772 95.4583Z" fill="#0F3DFB" stroke="#0D1C4C" stroke-width="1.36"/>
<path d="M164.627 89.0597C167.42 89.0597 169.685 86.1377 169.685 82.5333C169.685 78.929 167.42 76.0071 164.627 76.0071C161.834 76.0071 159.568 78.929 159.568 82.5333C159.568 86.1377 161.834 89.0597 164.627 89.0597Z" fill="white" stroke="#0D1C4C" stroke-width="1.36" stroke-miterlimit="10" stroke-linecap="round"/>
<path d="M171.01 86.5507C173.804 86.5507 176.068 83.6287 176.068 80.0244C176.068 76.42 173.804 73.498 171.01 73.498C168.217 73.498 165.952 76.42 165.952 80.0244C165.952 83.6287 168.217 86.5507 171.01 86.5507Z" fill="#FF902F"/>
<path d="M164.627 89.0597C167.42 89.0597 169.685 86.1377 169.685 82.5333C169.685 78.929 167.42 76.0071 164.627 76.0071C161.834 76.0071 159.568 78.929 159.568 82.5333C159.568 86.1377 161.834 89.0597 164.627 89.0597Z" stroke="#0D1C4C" stroke-width="1.36" stroke-miterlimit="10" stroke-linecap="round"/>
<path d="M141.768 102.443C143.497 107.189 147.46 110.143 151.536 108.657L186.002 96.097C189.681 94.7579 191.212 89.7988 189.482 85.0604L161.398 7.99211C159.67 3.24639 155.641 0.314363 151.627 1.77854L117.164 14.3602C113.294 15.7693 111.951 20.6548 113.68 25.3968L141.768 102.443Z" stroke="#0D1C4C" stroke-width="1.36" stroke-miterlimit="10" stroke-linecap="round"/>
<path d="M139.836 31.989C140.402 33.5414 141.7 34.5089 143.032 34.0197L148.013 32.206C149.216 31.7682 149.716 30.1459 149.15 28.5933L146.163 20.3932C145.597 18.8408 144.279 17.8806 142.967 18.3588L137.989 20.1761C136.719 20.636 136.282 22.2363 136.848 23.7889L139.836 31.989Z" fill="#FF902F"/>
<path d="M146.03 20.0328C145.4 18.6974 144.19 17.9211 142.984 18.3589L138.006 20.1762C136.737 20.6361 136.299 22.2364 136.865 23.7888L138.304 27.7547L146.03 20.0328Z" fill="white"/>
<path d="M144.477 23.2954L146.89 22.3905" stroke="#0D1C4C" stroke-width="1.36" stroke-miterlimit="10" stroke-linecap="round"/>
<path d="M146.015 27.515L148.429 26.6062" stroke="#0D1C4C" stroke-width="1.36" stroke-miterlimit="10" stroke-linecap="round"/>
<path d="M137.59 25.8302L140.165 24.8662" stroke="#0D1C4C" stroke-width="1.36" stroke-miterlimit="10" stroke-linecap="round"/>
<path d="M139.128 30.0464L141.703 29.0861" stroke="#0D1C4C" stroke-width="1.36" stroke-miterlimit="10" stroke-linecap="round"/>
<path d="M141.48 28.9723C141.752 29.7081 142.374 30.1827 143.018 29.9509L145.405 29.0753C145.983 28.8657 146.225 28.0858 145.953 27.339L144.519 23.4026C144.247 22.6668 143.614 22.1959 142.984 22.4276L140.594 23.2995C139.987 23.5202 139.773 24.2892 140.045 25.0323L141.48 28.9723Z" stroke="#0D1C4C" stroke-width="1.36" stroke-miterlimit="10" stroke-linecap="round"/>
<path d="M103.012 195.054C102.276 194.787 102.276 194.349 103.012 194.079L110.344 191.408C111.218 191.14 112.152 191.14 113.026 191.408L114.266 191.861C115.002 192.13 115.002 192.567 114.266 192.836L106.934 195.507C106.06 195.775 105.126 195.775 104.252 195.507L103.012 195.054Z" fill="#0D1C4C"/>
<path d="M102.457 179.908V192.784C102.457 192.961 102.641 193.153 103.013 193.274L104.252 193.727C105.126 193.995 106.06 193.995 106.934 193.727L114.266 191.056C114.634 190.92 114.822 190.743 114.822 190.566V177.701L102.457 179.908Z" fill="white" stroke="#0D1C4C" stroke-width="1.36" stroke-miterlimit="10" stroke-linecap="round"/>
<path d="M103.011 180.394C102.275 180.126 102.275 179.688 103.011 179.42L110.343 176.749C111.217 176.48 112.151 176.48 113.025 176.749L114.264 177.202C115 177.47 115 177.908 114.264 178.176L106.932 180.847C106.059 181.116 105.124 181.116 104.25 180.847L103.011 180.394Z" fill="white" stroke="#0D1C4C" stroke-width="1.36" stroke-miterlimit="10" stroke-linecap="round"/>
<path d="M108.849 179.323C109.778 179.323 110.531 179.026 110.531 178.658C110.531 178.29 109.778 177.992 108.849 177.992C107.921 177.992 107.168 178.29 107.168 178.658C107.168 179.026 107.921 179.323 108.849 179.323Z" fill="#0D1C4C"/>
<path d="M231.334 226.289C225.815 226.289 220.261 225.519 216.045 223.985L211.756 222.426C211.345 222.274 211.012 221.966 210.828 221.569C210.644 221.172 210.624 220.719 210.774 220.309C210.923 219.898 211.229 219.562 211.624 219.376C212.019 219.189 212.472 219.166 212.884 219.313L217.178 220.877C224.852 223.669 237.816 223.669 245.505 220.877L290.019 204.69C298.976 201.43 304.116 197.111 304.116 192.843C304.116 188.576 298.966 184.26 290.019 181.002L214.779 153.613L153.062 176.076C150.323 177.062 147.361 177.263 144.513 176.657C141.665 176.05 139.043 174.66 136.942 172.643C133.609 169.413 128.532 165.208 123.29 163.486C120.527 162.578 118.114 162.854 116.12 164.3C112.264 167.092 110.506 173.699 110.506 178.648C110.506 179.086 110.331 179.507 110.021 179.817C109.71 180.129 109.289 180.303 108.85 180.303C108.411 180.303 107.99 180.129 107.68 179.817C107.369 179.507 107.195 179.086 107.195 178.648C107.195 172.684 109.354 165.098 114.184 161.607C117.047 159.532 120.556 159.091 124.331 160.33C130.173 162.246 135.669 166.783 139.253 170.263C140.904 171.845 142.963 172.937 145.2 173.413C147.436 173.89 149.761 173.735 151.914 172.963L214.764 150.088L291.112 177.878C301.608 181.697 307.387 187.009 307.387 192.833C307.387 198.656 301.608 203.968 291.112 207.791L246.597 223.978C242.414 225.527 236.871 226.289 231.334 226.289Z" fill="#0D1C4C"/>
<path d="M231.345 225.743C225.698 225.743 220.246 224.931 216.232 223.467C216.083 223.428 215.944 223.36 215.823 223.265C215.702 223.171 215.603 223.052 215.531 222.917C215.459 222.781 215.415 222.631 215.404 222.479C215.392 222.325 215.414 222.172 215.464 222.028C215.516 221.883 215.597 221.75 215.702 221.639C215.808 221.527 215.935 221.439 216.076 221.38C216.217 221.32 216.37 221.291 216.523 221.293C216.677 221.296 216.828 221.331 216.968 221.395C221.014 222.867 226.684 223.647 232.499 223.525C232.645 223.522 232.789 223.548 232.924 223.6C233.06 223.653 233.182 223.732 233.287 223.832C233.392 223.932 233.476 224.051 233.534 224.185C233.593 224.318 233.624 224.461 233.627 224.605C233.631 224.75 233.605 224.895 233.552 225.029C233.5 225.165 233.421 225.288 233.321 225.392C233.22 225.497 233.101 225.581 232.969 225.64C232.835 225.698 232.693 225.73 232.548 225.732L231.345 225.743Z" fill="#FF902F"/>
<path d="M147.786 176.451C143.887 176.454 140.139 174.947 137.326 172.246C137.126 172.04 137.015 171.764 137.015 171.477C137.015 171.191 137.126 170.916 137.325 170.709C137.525 170.504 137.797 170.383 138.084 170.373C138.369 170.365 138.648 170.467 138.86 170.66C140.587 172.317 142.742 173.459 145.081 173.957C147.42 174.456 149.853 174.291 152.105 173.482C152.38 173.381 152.683 173.395 152.948 173.519C153.214 173.643 153.419 173.867 153.52 174.142C153.619 174.418 153.605 174.721 153.482 174.986C153.358 175.251 153.133 175.457 152.859 175.556C151.232 176.146 149.516 176.45 147.786 176.451Z" fill="#FF902F"/>
<path d="M134.499 169.336C134.243 169.334 133.996 169.244 133.8 169.083C133.138 168.537 132.475 168.019 131.824 167.534C131.699 167.451 131.591 167.343 131.509 167.218C131.426 167.093 131.37 166.951 131.344 166.803C131.317 166.655 131.321 166.504 131.356 166.357C131.39 166.212 131.454 166.073 131.544 165.953C131.634 165.832 131.747 165.732 131.877 165.655C132.006 165.581 132.15 165.532 132.3 165.514C132.45 165.496 132.601 165.51 132.745 165.552C132.889 165.596 133.022 165.668 133.138 165.764C133.822 166.267 134.514 166.813 135.202 167.378C135.378 167.523 135.506 167.718 135.565 167.937C135.627 168.158 135.617 168.39 135.541 168.605C135.463 168.82 135.322 169.005 135.136 169.136C134.949 169.266 134.726 169.337 134.499 169.336Z" fill="#FF902F"/>
<path d="M278.552 69.3964C280.903 62.9474 279.078 56.3034 273.822 54.3868L236.937 40.9405C231.485 38.9539 226.011 42.9345 223.66 49.3835L195.032 127.938L223.031 173.504L175.876 190.666C171.623 192.215 171.623 194.75 175.876 196.298L215.298 210.646C219.551 212.195 226.512 212.195 230.767 210.646L265.129 198.138C272.165 195.562 274.694 188.264 270.79 181.881L255.987 157.814C252.654 152.388 251.708 143.054 253.886 137.073L278.552 69.3964Z" fill="#EBEBEB" stroke="#0D1C4C" stroke-width="1.36" stroke-miterlimit="10" stroke-linecap="round"/>
<path d="M246.241 150.912L216.354 140.376L208.996 146.126L223.038 173.504L187.136 186.571L239.376 205.591C244.35 203.575 251.369 200.757 261.755 196.824C265.893 195.258 270.127 193.145 270.127 188.15C270.127 184.232 269.212 184.273 254.335 159.859C252.715 157.178 249.912 152.207 246.241 150.912Z" fill="#0D1C4C"/>
<path d="M214.982 209.442C217.498 210.144 220.096 210.515 222.707 210.546C229.719 210.546 229.13 209.178 261.777 196.817C265.916 195.249 270.149 193.138 270.149 188.142C270.149 184.224 269.234 184.264 254.357 159.851C252.726 157.169 249.942 152.2 246.264 150.905L216.376 140.369" stroke="#0D1C4C" stroke-width="1.36" stroke-miterlimit="10" stroke-linecap="round"/>
<path d="M232.651 182.02C230.304 188.469 224.926 192.483 219.375 190.482L172.518 173.394C166.833 171.323 165.435 164.833 167.786 158.383L218.035 20.5482C220.387 14.0991 225.861 10.115 231.316 12.0868L278.158 29.1604C283.416 31.077 285.241 37.721 282.89 44.17L232.651 182.02Z" fill="#0F3DFB" stroke="#0D1C4C" stroke-width="1.36" stroke-miterlimit="10" stroke-linecap="round"/>
<path d="M283.669 35.7747C283.669 35.7747 282.812 32.8317 281.711 31.7059L276.792 29.8665L277.304 33.5159L283.669 35.7747Z" fill="#0D1C4C"/>
<path d="M282.882 44.1844C283.326 42.9735 283.629 41.7158 283.784 40.4357L278.439 38.5448L223.351 186.575L228.624 188.301C230.45 186.557 231.837 184.404 232.67 182.02L282.882 44.1844Z" fill="#0D1C4C"/>
<path d="M228.623 188.301C230.45 186.557 231.837 184.404 232.669 182.02L243.045 153.561" stroke="#FF902F" stroke-width="1.36" stroke-miterlimit="10" stroke-linecap="round"/>
<path d="M227.982 180.32C225.632 186.769 220.257 190.783 214.706 188.782L167.859 171.713C162.863 169.892 160.78 163.152 163.132 156.702L213.351 18.8485C215.703 12.3994 221.177 8.41524 226.629 10.3871L273.471 27.4605C278.732 29.3773 280.553 36.0213 278.203 42.4703L227.982 180.32Z" fill="#0F3DFB" stroke="#0D1C4C" stroke-width="1.36" stroke-miterlimit="10" stroke-linecap="round"/>
<path d="M272.252 71.0863C272.473 70.4792 272.16 69.8078 271.553 69.5867C270.946 69.3654 270.274 69.6782 270.054 70.2853L265.207 83.5861C264.985 84.1932 265.298 84.8646 265.906 85.0858C266.512 85.3071 267.184 84.9943 267.406 84.3871L272.252 71.0863Z" fill="#0F3DFB" stroke="#0D1C4C" stroke-width="1.36" stroke-miterlimit="10" stroke-linecap="round"/>
<path d="M272.58 29.4912L268.902 28.152C268.427 28.0072 267.921 27.9925 267.438 28.1096C266.956 28.2268 266.514 28.4714 266.157 28.818L264.487 30.6279C263.891 31.2074 263.149 31.6157 262.341 31.8099C261.533 32.0041 260.687 31.977 259.892 31.7317L233.805 22.2328C233.052 21.9186 232.406 21.3907 231.949 20.7141C231.491 20.0375 231.242 19.2419 231.23 18.4252L231.3 16.1664C231.295 15.6785 231.145 15.2032 230.872 14.7992C230.599 14.395 230.212 14.08 229.762 13.8928L226.058 12.5391C221.566 10.9056 217.063 14.1835 215.129 19.4921L164.893 157.328C162.958 162.636 164.673 168.181 168.785 169.681L215.293 186.626C219.852 188.288 224.284 184.985 226.219 179.677L276.455 41.8411C278.389 36.5325 276.889 31.0657 272.58 29.4912Z" fill="white"/>
<path d="M168.787 169.681L215.294 186.626C219.852 188.288 224.285 184.985 226.221 179.677L229.237 171.402L276.455 41.8411C278.39 36.5325 276.889 31.0657 272.563 29.4912L268.884 28.152C268.409 28.007 267.903 27.9925 267.421 28.1096C266.938 28.2267 266.496 28.4713 266.139 28.8179L264.487 30.6279C263.891 31.2074 263.15 31.6157 262.341 31.8099C261.533 32.0039 260.687 31.977 259.893 31.7315L236.127 23.0716L233.814 22.2254C233.06 21.9111 232.414 21.3832 231.957 20.7067C231.499 20.0301 231.249 19.2345 231.238 18.4178L231.308 16.159C231.302 15.6712 231.153 15.1958 230.88 14.7916C230.607 14.3876 230.22 14.0725 229.77 13.8855L226.066 12.5316C221.574 10.8982 217.071 14.1761 215.135 19.4846" stroke="#0D1C4C" stroke-width="1.36" stroke-miterlimit="10" stroke-linecap="round"/>
<path d="M241.639 125.583C239.688 130.925 235.226 134.25 230.635 132.573L191.819 118.435C187.678 116.927 185.933 111.342 187.902 105.997L206.2 55.7841C208.146 50.4425 212.683 47.1426 217.203 48.7943L256.027 62.9211C260.382 64.5103 261.894 70.0139 259.944 75.3556L241.639 125.583Z" fill="#FF902F"/>
<path d="M251.612 24.2707C251.564 24.4067 251.491 24.5315 251.393 24.6373C251.295 24.7431 251.176 24.8275 251.046 24.8856C250.914 24.9437 250.771 24.9739 250.628 24.9744C250.484 24.975 250.341 24.9458 250.209 24.8889L243.978 22.619C243.707 22.5261 243.483 22.3295 243.358 22.0722C243.231 21.8149 243.212 21.518 243.305 21.2468L243.322 21.1952C243.37 21.0596 243.445 20.9353 243.543 20.8298C243.641 20.7243 243.758 20.64 243.89 20.582C244.021 20.5241 244.163 20.4938 244.307 20.4929C244.45 20.4921 244.593 20.5208 244.725 20.5773L250.953 22.8508C251.089 22.8942 251.214 22.9646 251.323 23.0579C251.431 23.1511 251.519 23.265 251.583 23.3931C251.646 23.5212 251.682 23.6607 251.69 23.8033C251.699 23.9458 251.678 24.0885 251.629 24.223L251.612 24.2707Z" stroke="#0D1C4C" stroke-width="1.36" stroke-miterlimit="10" stroke-linecap="round"/>
<path d="M255.629 25.7484C255.9 25.0229 255.632 24.2538 255.032 24.0308C254.432 23.8077 253.726 24.215 253.457 24.9406C253.188 25.6662 253.454 26.4351 254.054 26.6583C254.654 26.8813 255.36 26.474 255.629 25.7484Z" stroke="#0D1C4C" stroke-width="1.36" stroke-miterlimit="10" stroke-linecap="round"/>
<path d="M216.227 158.689C215.088 161.816 212.361 163.717 209.491 162.673L185.211 153.844C182.635 152.898 181.481 149.584 182.635 146.456C183.776 143.329 186.547 141.442 189.371 142.473L213.634 151.302C216.361 152.292 217.368 155.559 216.227 158.685V158.689Z" fill="#0D1C4C"/>
<path d="M175.568 162.838C176.269 160.921 175.534 158.892 173.93 158.306C172.325 157.72 170.456 158.798 169.756 160.713C169.057 162.629 169.79 164.659 171.395 165.245C172.999 165.831 174.868 164.754 175.568 162.838Z" fill="#EBEBEB"/>
<path d="M186.668 166.881C187.368 164.964 186.634 162.935 185.029 162.349C183.424 161.763 181.556 162.841 180.855 164.756C180.156 166.673 180.889 168.702 182.494 169.288C184.099 169.874 185.968 168.797 186.668 166.881Z" fill="#EBEBEB"/>
<path d="M197.773 170.922C198.473 169.005 197.74 166.978 196.135 166.39C194.53 165.804 192.662 166.882 191.961 168.799C191.261 170.714 191.995 172.743 193.6 173.329C195.205 173.915 197.074 172.838 197.773 170.922Z" fill="#EBEBEB"/>
<path d="M208.877 174.961C209.576 173.046 208.843 171.017 207.238 170.43C205.633 169.844 203.764 170.921 203.064 172.838C202.364 174.754 203.098 176.783 204.703 177.369C206.308 177.955 208.176 176.877 208.877 174.961Z" fill="#EBEBEB"/>
<path d="M219.98 179.003C220.68 177.086 219.946 175.057 218.341 174.471C216.736 173.885 214.867 174.962 214.167 176.878C213.468 178.795 214.201 180.824 215.806 181.41C217.41 181.996 219.279 180.919 219.98 179.003Z" fill="#EBEBEB"/>
<path d="M195.832 104.431L193.878 103.724L191.551 110.156L193.505 110.863L195.832 104.431Z" fill="#0D1C4C"/>
<path d="M199.835 105.006L197.882 104.295L196.76 107.375L198.713 108.086L199.835 105.006Z" fill="#0D1C4C"/>
<path d="M206.976 97.5538L205.023 96.8423L200.669 108.795L202.621 109.507L206.976 97.5538Z" fill="#0D1C4C"/>
<path d="M211.913 96.1605L209.96 95.4489L207.732 101.564L209.685 102.275L211.913 96.1605Z" fill="#0D1C4C"/>
<path d="M213.852 102.993L211.9 102.282L209.428 109.064L211.381 109.775L213.852 102.993Z" fill="#0D1C4C"/>
<path d="M219.521 99.5747L217.568 98.8632L213.213 110.816L215.166 111.527L219.521 99.5747Z" fill="#0D1C4C"/>
<path d="M228.293 87.6572L226.34 86.9456L219.33 106.185L221.283 106.896L228.293 87.6572Z" fill="#0D1C4C"/>
<path d="M228.516 99.7097L226.562 99.0029L224.265 105.355L226.218 106.062L228.516 99.7097Z" fill="#0D1C4C"/>
<path d="M232.993 99.0532L231.04 98.3416L226.685 110.294L228.638 111.006L232.993 99.0532Z" fill="#0D1C4C"/>
<path d="M244.105 80.7039L242.152 79.9923L235.018 99.5702L236.971 100.282L244.105 80.7039Z" fill="#0D1C4C"/>
<path d="M241.482 100.068L239.529 99.3566L237.411 105.167L239.364 105.879L241.482 100.068Z" fill="#0D1C4C"/>
<path d="M246.501 98.9141L244.548 98.2073L239.317 112.666L241.272 113.373L246.501 98.9141Z" fill="#0D1C4C"/>
<path d="M212.319 222.525C212.127 222.524 211.937 222.491 211.756 222.426L209.041 221.436C206.197 220.402 204.92 218.89 203.798 217.554C202.769 216.329 201.878 215.273 199.653 214.464L191.614 211.521C190.068 210.961 188.649 210.099 187.442 208.983C186.233 207.868 185.259 206.523 184.577 205.027C183.895 203.531 183.518 201.914 183.469 200.27C183.42 198.627 183.699 196.99 184.289 195.456L187.601 186.939C187.758 186.529 188.073 186.199 188.475 186.021C188.876 185.843 189.332 185.832 189.741 185.99C190.152 186.148 190.481 186.462 190.659 186.863C190.837 187.266 190.848 187.721 190.691 188.131L187.406 196.647C186.971 197.77 186.766 198.97 186.801 200.173C186.835 201.378 187.11 202.563 187.609 203.659C188.108 204.757 188.821 205.741 189.706 206.559C190.59 207.376 191.629 208.01 192.762 208.419L200.801 211.362C203.854 212.466 205.179 214.044 206.344 215.431C207.367 216.646 208.184 217.606 210.189 218.338L212.901 219.324C213.267 219.457 213.574 219.714 213.768 220.051C213.964 220.388 214.034 220.784 213.966 221.168C213.898 221.551 213.698 221.898 213.399 222.148C213.101 222.399 212.723 222.536 212.334 222.536L212.319 222.525Z" fill="#0D1C4C"/>
<path d="M185.905 178.241L197.287 182.4L193.736 192.12C193.509 192.742 193.042 193.25 192.441 193.53C191.839 193.809 191.151 193.839 190.528 193.61L183.845 191.169C183.222 190.942 182.715 190.475 182.434 189.874C182.156 189.272 182.126 188.584 182.354 187.961L185.905 178.241Z" fill="white" stroke="#0D1C4C" stroke-width="1.36" stroke-miterlimit="10" stroke-linecap="round"/>
<path d="M195.458 181.729L191.235 192.649" stroke="#0D1C4C" stroke-width="1.36" stroke-miterlimit="10" stroke-linecap="round"/>
<path d="M52.0338 159.355C51.6054 159.355 51.1934 159.19 50.8847 158.892C50.576 158.596 50.3944 158.19 50.3782 157.762C50.3782 157.306 50.0802 146.508 59.6343 142.822C60.044 142.665 60.4999 142.675 60.9014 142.854C61.303 143.032 61.6173 143.361 61.7753 143.772C61.9335 144.181 61.9222 144.637 61.7442 145.038C61.5663 145.44 61.2361 145.755 60.8262 145.912C57.7875 147.086 55.6758 149.371 54.5243 152.704C53.9805 154.295 53.6984 155.965 53.6893 157.648C53.7022 158.086 53.541 158.511 53.2412 158.831C52.9414 159.152 52.527 159.34 52.089 159.355H52.0338Z" fill="#0D1C4C"/>
<path d="M61.7268 146.531C62.6616 146.232 63.0647 144.878 62.6272 143.509C62.1896 142.138 61.077 141.269 60.1421 141.568C59.2074 141.866 58.8043 143.219 59.2418 144.59C59.6794 145.96 60.7921 146.829 61.7268 146.531Z" fill="#0D1C4C"/>
<path d="M55.7763 148.447C55.5647 148.443 55.3586 148.379 55.1823 148.262C55.006 148.145 54.8672 147.981 54.7822 147.786C54.6973 147.592 54.67 147.378 54.7033 147.169C54.7368 146.961 54.8295 146.765 54.9707 146.607C56.3218 145.166 57.9855 144.052 59.8342 143.351C59.9694 143.3 60.1137 143.275 60.2585 143.278C60.4035 143.282 60.5463 143.313 60.6789 143.373C60.8115 143.432 60.9312 143.516 61.0311 143.621C61.1311 143.725 61.2093 143.849 61.2615 143.985C61.3137 144.12 61.3387 144.264 61.3352 144.41C61.3315 144.554 61.2996 144.697 61.2407 144.83C61.1819 144.962 61.0978 145.081 60.9928 145.182C60.8876 145.281 60.764 145.36 60.6287 145.412C59.0923 145.993 57.7084 146.916 56.582 148.113C56.4776 148.22 56.3522 148.305 56.2137 148.363C56.0751 148.42 55.9264 148.449 55.7763 148.447Z" fill="#FF902F"/>
<path d="M52.0308 160.006C53.6381 160.006 54.9408 159.491 54.9408 158.854C54.9408 158.219 53.6381 157.703 52.0308 157.703C50.4237 157.703 49.121 158.219 49.121 158.854C49.121 159.491 50.4237 160.006 52.0308 160.006Z" fill="#0D1C4C"/>
<path d="M35.4931 177.701C30.1881 175.774 30.1881 172.613 35.4931 170.682L49.2741 165.678C54.5789 163.747 63.2537 163.747 68.5659 165.678C73.8782 167.609 73.8709 170.77 68.5659 172.701L54.7923 177.701C49.4801 179.647 40.8127 179.647 35.4931 177.701Z" fill="#0D1C4C"/>
<path d="M66.5354 168.136C61.9664 166.474 54.4945 166.474 49.9255 168.136L37.6675 172.595C34.2609 173.834 33.3963 175.538 35.0702 177.083C35.508 177.314 36.1738 177.873 36.7331 178.061C41.35 179.532 49.9328 179.511 54.8514 177.72L67.6281 173.07C68.3455 172.818 69.0327 172.489 69.6772 172.086C70.516 170.711 69.4675 169.199 66.5354 168.136Z" fill="#EBEBEB"/>
<path d="M35.4931 177.701C30.1881 175.774 30.1881 172.613 35.4931 170.682L49.2741 165.678C54.5789 163.747 63.2537 163.747 68.5659 165.678C73.8782 167.609 73.8709 170.77 68.5659 172.701L54.7923 177.701C49.4801 179.647 40.8127 179.647 35.4931 177.701Z" stroke="#0D1C4C" stroke-width="1.36" stroke-miterlimit="10" stroke-linecap="round"/>
<path d="M70.6114 166.635C68.2238 165.193 63.8828 164.226 58.92 164.226C53.9572 164.226 49.6124 165.193 47.2248 166.635H45.2825V170.314C45.2825 173.055 51.3856 175.277 58.92 175.277C66.4543 175.277 72.5537 171.914 72.5537 169.173V166.621L70.6114 166.635Z" fill="white"/>
<path d="M58.9128 164.226V175.291C59.9057 175.291 60.8978 175.237 61.8853 175.133L68.8493 172.598C70.3983 172.036 72.5283 170.681 72.5283 169.188V166.635H70.6115C68.2167 165.193 63.8756 164.226 58.9128 164.226Z" fill="#0D1C4C"/>
<path d="M57.6403 171.575V175.133" stroke="#0D1C4C" stroke-width="1.36" stroke-miterlimit="10" stroke-linecap="round"/>
<path d="M70.6114 166.635C68.2238 165.193 63.8828 164.226 58.92 164.226C53.9572 164.226 49.6124 165.193 47.2248 166.635H45.2825V170.314C45.2825 173.055 51.3856 175.277 58.92 175.277C59.3835 175.277 60.9765 175.21 61.8924 175.118L68.8566 172.584C71.3508 171.48 72.5354 170.476 72.5354 169.173V166.621L70.6114 166.635Z" stroke="#0D1C4C" stroke-width="1.36" stroke-miterlimit="10" stroke-linecap="round"/>
<path d="M58.9134 171.598C66.4452 171.598 72.5509 169.376 72.5509 166.636C72.5509 163.894 66.4452 161.672 58.9134 161.672C51.3817 161.672 45.276 163.894 45.276 166.636C45.276 169.376 51.3817 171.598 58.9134 171.598Z" fill="white" stroke="#0D1C4C" stroke-width="1.36" stroke-miterlimit="10" stroke-linecap="round"/>
<path d="M67.2049 195.371C70.0941 195.371 72.4362 194.445 72.4362 193.303C72.4362 192.161 70.0941 191.235 67.2049 191.235C64.3157 191.235 61.9736 192.161 61.9736 193.303C61.9736 194.445 64.3157 195.371 67.2049 195.371Z" fill="white" stroke="#0D1C4C" stroke-width="1.36" stroke-miterlimit="10" stroke-linecap="round"/>
<path d="M70.2428 193.303H64.1542V190.651C64.1563 189.855 64.4732 189.093 65.0357 188.53C65.5983 187.967 66.3607 187.651 67.1563 187.649C67.9769 187.652 68.7631 187.98 69.3433 188.559C69.9236 189.14 70.251 189.926 70.2538 190.746L70.2428 193.303Z" fill="#FF902F"/>
<path d="M67.2039 194.51C68.8903 194.51 70.2573 193.969 70.2573 193.303C70.2573 192.636 68.8903 192.096 67.2039 192.096C65.5175 192.096 64.1504 192.636 64.1504 193.303C64.1504 193.969 65.5175 194.51 67.2039 194.51Z" fill="#FF902F"/>
<path d="M68.5443 191.876C69.0645 191.876 69.4861 191.454 69.4861 190.933C69.4861 190.414 69.0645 189.992 68.5443 189.992C68.0242 189.992 67.6026 190.414 67.6026 190.933C67.6026 191.454 68.0242 191.876 68.5443 191.876Z" fill="white"/>
<path d="M127.907 137.161C127.128 137.489 126.458 138.03 125.973 138.722C125.489 139.416 125.21 140.23 125.17 141.075V150.478C125.17 152.083 126.402 152.946 127.907 152.398L135.684 149.565C136.463 149.239 137.135 148.699 137.619 148.007C138.105 147.315 138.384 146.5 138.424 145.655V136.248C138.424 134.645 137.192 133.784 135.684 134.332L127.907 137.161Z" fill="#0D1C4C"/>
<path d="M132.192 146.361V147.293L131.316 147.63V146.722C131.143 146.776 130.961 146.783 130.784 146.745C130.609 146.707 130.445 146.622 130.312 146.501C130.035 146.175 129.893 145.755 129.914 145.328L130.889 144.96C130.925 145.276 131.007 145.474 131.139 145.559C131.236 145.6 131.339 145.619 131.442 145.613C131.546 145.608 131.648 145.579 131.739 145.53C131.96 145.461 132.154 145.321 132.287 145.13C132.42 144.94 132.487 144.71 132.475 144.478C132.485 144.393 132.477 144.308 132.453 144.226C132.428 144.144 132.386 144.068 132.332 144.003C132.264 143.958 132.186 143.928 132.106 143.916C132.024 143.905 131.943 143.91 131.864 143.934L131.445 144.003C131.268 144.056 131.082 144.068 130.9 144.041C130.716 144.014 130.542 143.947 130.388 143.845C130.259 143.709 130.161 143.546 130.101 143.368C130.041 143.19 130.022 143.002 130.043 142.814C130.039 142.348 130.156 141.887 130.386 141.48C130.604 141.08 130.924 140.746 131.312 140.508V139.724L132.188 139.386V140.177C132.343 140.145 132.504 140.153 132.657 140.198C132.809 140.244 132.948 140.326 133.059 140.438C133.303 140.734 133.433 141.105 133.428 141.487L132.416 141.877C132.42 141.778 132.405 141.679 132.37 141.586C132.334 141.492 132.281 141.408 132.213 141.336C132.136 141.292 132.047 141.269 131.958 141.269C131.868 141.269 131.781 141.292 131.702 141.336C131.506 141.405 131.338 141.533 131.221 141.705C131.105 141.888 131.045 142.102 131.051 142.318C131.041 142.398 131.049 142.478 131.078 142.555C131.105 142.631 131.15 142.697 131.21 142.752C131.373 142.835 131.562 142.854 131.739 142.803L132.22 142.727C132.385 142.68 132.556 142.673 132.723 142.707C132.889 142.741 133.046 142.814 133.178 142.922C133.297 143.065 133.387 143.23 133.441 143.41C133.496 143.588 133.514 143.777 133.493 143.962C133.504 144.452 133.384 144.933 133.148 145.36C132.922 145.772 132.591 146.116 132.192 146.361Z" fill="white"/>
<path d="M154.393 127.523C153.613 127.849 152.942 128.39 152.456 129.084C151.972 129.776 151.693 130.592 151.652 131.437V140.847C151.652 142.451 152.884 143.315 154.393 142.767L162.166 139.935C162.946 139.609 163.616 139.068 164.102 138.375C164.587 137.683 164.866 136.869 164.907 136.024V126.61C164.907 125.005 163.675 124.144 162.166 124.694L154.393 127.523Z" fill="#0D1C4C"/>
<path d="M154.576 134.585V133.189C154.561 132.783 154.662 132.382 154.867 132.033C155.07 131.72 155.369 131.48 155.72 131.353C156.114 131.202 156.401 131.204 156.585 131.353C156.692 131.482 156.772 131.633 156.82 131.795C156.867 131.956 156.881 132.126 156.861 132.294V133.696C156.876 134.116 156.78 134.534 156.585 134.906C156.387 135.234 156.081 135.483 155.72 135.608C155.327 135.763 155.036 135.752 154.852 135.575C154.636 135.294 154.536 134.939 154.576 134.585ZM155.985 133.994V132.768C155.994 132.601 155.979 132.434 155.937 132.272C155.907 132.19 155.834 132.173 155.72 132.216C155.669 132.235 155.623 132.265 155.584 132.305C155.546 132.343 155.517 132.39 155.499 132.441C155.46 132.616 155.444 132.795 155.452 132.975V134.199C155.442 134.362 155.457 134.527 155.495 134.685C155.528 134.766 155.603 134.781 155.72 134.736C155.771 134.721 155.819 134.694 155.857 134.657C155.895 134.621 155.924 134.574 155.94 134.523C155.978 134.349 155.993 134.172 155.985 133.994ZM160.13 129.657L156.853 137.787L156.017 138.11L159.288 129.98L160.13 129.657ZM159.273 135.435V134.034C159.258 133.629 159.359 133.228 159.564 132.878C159.767 132.564 160.066 132.325 160.417 132.198C160.811 132.048 161.098 132.052 161.282 132.198C161.391 132.328 161.471 132.479 161.519 132.64C161.566 132.802 161.58 132.972 161.558 133.14V134.542C161.574 134.962 161.479 135.379 161.282 135.752C161.085 136.08 160.779 136.329 160.417 136.455C160.024 136.605 159.733 136.594 159.549 136.421C159.334 136.141 159.235 135.787 159.273 135.435ZM160.682 134.844V133.618C160.693 133.451 160.677 133.284 160.635 133.122C160.605 133.04 160.531 133.023 160.417 133.066C160.367 133.085 160.32 133.115 160.282 133.155C160.244 133.193 160.214 133.239 160.197 133.291C160.157 133.466 160.141 133.645 160.149 133.824V135.049C160.141 135.212 160.156 135.375 160.193 135.535C160.227 135.616 160.3 135.631 160.417 135.586C160.469 135.571 160.516 135.544 160.554 135.507C160.593 135.471 160.622 135.424 160.639 135.373C160.678 135.2 160.694 135.022 160.69 134.844H160.682Z" fill="white"/>
</svg>
