<svg width="22" height="17" viewBox="0 0 22 17" fill="none" xmlns="http://www.w3.org/2000/svg">
<path d="M4.54286 8.96062C5.03436 8.72081 5.40298 8.48101 5.7716 8.12131C6.01735 7.76161 6.2631 7.4019 6.50884 7.0422C6.63172 6.56261 6.7546 6.083 6.7546 5.6034H18.4276C19.1649 5.6034 19.7792 5.3636 20.2707 5.0039C20.6393 4.5243 20.8851 3.92479 20.8851 3.0855V0.207886H19.2877V2.96559C19.2877 3.56509 18.919 3.92479 18.3047 3.92479H6.7546V3.32529C6.7546 2.7258 6.63172 2.36609 6.50884 1.88649C6.50884 1.52679 6.2631 1.16709 6.01735 0.927288C5.7716 0.687487 5.52586 0.567587 5.2801 0.447686C4.91148 0.327787 4.54286 0.207886 4.29712 0.207886C3.80562 0.207886 3.437 0.327787 3.06837 0.447686C2.82263 0.687487 2.45401 0.807388 2.33113 1.16709C2.08539 1.40689 1.83964 1.64669 1.83964 2.00639C1.71677 2.36609 1.59389 2.7258 1.59389 3.0855C1.59389 3.4452 1.59389 3.8049 1.71677 4.1646C1.83964 4.5243 1.96251 4.7641 2.08539 5.0039C2.33113 5.1238 2.57689 5.3636 2.94551 5.4835C3.31413 5.6034 3.68275 5.6034 4.29712 5.6034H5.2801C5.2801 5.84321 5.15724 6.083 5.15724 6.3228C5.03436 6.56261 4.78862 6.80241 4.66574 7.0422C4.54286 7.16211 4.29712 7.28201 3.92849 7.4019C3.68275 7.52181 3.31413 7.6417 2.94551 7.6417H1.34814V9.32032H2.94551C3.55987 9.20041 4.05137 9.08051 4.54286 8.96062ZM4.29712 3.92479C3.80562 3.92479 3.55987 3.92479 3.31413 3.685C3.19125 3.56509 3.06837 3.32529 3.06837 2.96559C3.06837 2.60589 3.19125 2.24619 3.31413 2.12629C3.55987 2.00639 3.80562 1.88649 4.17424 1.88649C4.54286 1.88649 4.78861 2.00639 5.03436 2.24619C5.2801 2.48599 5.2801 2.84569 5.2801 3.32529V4.0447H4.29712V3.92479Z" fill="white"/>
<path d="M17.2009 0.207886H12.5317V1.64669H17.2009V0.207886Z" fill="white"/>
<path d="M20.7594 12.6766C20.6364 12.317 20.5136 12.0771 20.2679 11.8373C20.0221 11.5975 19.7764 11.3577 19.4078 11.2378C19.162 11.1179 18.7933 10.998 18.4248 10.998C18.0561 10.998 17.6875 11.1179 17.3188 11.2378C16.9502 11.3577 16.7045 11.5975 16.4587 11.8373C16.213 12.0771 16.0902 12.317 15.9672 12.6766C15.8444 13.0364 15.8444 13.396 15.8444 13.7558V14.1154C15.8444 14.4752 15.7215 14.5951 15.5987 14.8348C15.3529 14.9547 15.1071 15.0746 14.7386 15.0746H14.2471C14.0013 15.0746 13.7556 14.9547 13.6326 14.8348C13.5098 14.5951 13.3869 14.3552 13.3869 14.1154V8.36023H11.7896V14.3552C11.7896 14.8348 11.7895 15.1946 11.9124 15.4344C12.0353 15.6741 12.1582 15.914 12.4039 16.1538C12.6497 16.2736 12.7725 16.5134 13.1411 16.5134C13.3869 16.6334 13.6326 16.6334 14.0013 16.6334H14.8614C15.1071 16.6334 15.4757 16.5134 15.7215 16.3935C15.9672 16.2736 16.3359 16.0339 16.4587 15.6741C16.7045 16.0339 16.9502 16.2736 17.3188 16.3935C17.6875 16.5134 18.0561 16.6334 18.5476 16.6334C19.2849 16.6334 20.0221 16.3935 20.3907 15.914C20.8822 15.4344 21.128 14.715 21.128 13.8757C21.0051 13.396 20.8822 13.0364 20.7594 12.6766ZM18.4248 14.9547C18.0561 14.9547 17.8103 14.8348 17.6875 14.715C17.3188 14.4752 17.3188 14.2353 17.3188 13.8757C17.3188 13.5159 17.4418 13.2761 17.5647 13.0364C17.6875 12.7965 18.0561 12.6766 18.4248 12.6766C18.7933 12.6766 19.162 12.7965 19.2849 13.0364C19.4078 13.2761 19.5306 13.5159 19.5306 13.8757C19.4078 14.5951 19.0391 14.9547 18.4248 14.9547Z" fill="white"/>
<path d="M8.59771 12.6774C8.59771 13.0372 8.59771 13.2769 8.47483 13.6366C8.35195 13.8764 8.22909 14.1162 8.10621 14.356C7.86047 14.5958 7.61471 14.7157 7.36897 14.8356C7.12322 14.9555 6.7546 15.0754 6.2631 15.0754H5.15724C4.78862 15.0754 4.41999 15.0754 4.05137 14.9555C3.80562 14.7157 3.55987 14.5958 3.437 14.356C3.31413 14.1162 3.06837 13.8764 3.06837 13.6366C2.94551 13.3968 2.94551 13.0372 2.94551 12.6774V11.3585H1.34814V12.7973C1.34814 13.9963 1.71677 14.9555 2.33113 15.6749C2.94551 16.3943 3.80562 16.7541 5.03436 16.7541H6.2631C6.87747 16.7541 7.36897 16.6342 7.86047 16.3943C8.35195 16.1545 8.72057 15.9148 9.0892 15.555C9.45782 15.1954 9.70357 14.7157 9.82644 14.2361C9.94932 13.7566 10.0722 13.2769 10.0722 12.6774V8.36099L8.47483 8.24109L8.59771 12.6774Z" fill="white"/>
<path d="M6.75218 10.9989H4.90967V12.6769H6.75218V10.9989Z" fill="white"/>
</svg>
