<svg width="96" height="76" viewBox="0 0 96 76" fill="none" xmlns="http://www.w3.org/2000/svg">
<path d="M44.5016 68.6548C61.4987 68.6548 75.2776 54.9294 75.2776 37.9983C75.2776 21.0672 61.4987 7.3418 44.5016 7.3418C27.5045 7.3418 13.7256 21.0672 13.7256 37.9983C13.7256 54.9294 27.5045 68.6548 44.5016 68.6548Z" fill="#ECF3FE"/>
<path d="M12.0031 57.6577C12.1154 56.5278 11.2868 55.5213 10.1525 55.4095C9.01827 55.2977 8.00778 56.123 7.89557 57.2529C7.78335 58.3828 8.6119 59.3893 9.74617 59.5011C10.8804 59.6129 11.8909 58.7876 12.0031 57.6577Z" stroke="#2256FF" stroke-width="0.39375" stroke-miterlimit="10" stroke-linecap="round"/>
<path d="M76.0754 24.7736C77.0609 24.7736 77.8598 23.9779 77.8598 22.9962C77.8598 22.0145 77.0609 21.2188 76.0754 21.2188C75.0899 21.2188 74.291 22.0145 74.291 22.9962C74.291 23.9779 75.0899 24.7736 76.0754 24.7736Z" stroke="#2256FF" stroke-width="0.39375" stroke-miterlimit="10" stroke-linecap="round"/>
<path d="M79.5884 70.4274C79.9597 70.4274 80.2607 70.1275 80.2607 69.7576C80.2607 69.3877 79.9597 69.0879 79.5884 69.0879C79.217 69.0879 78.916 69.3877 78.916 69.7576C78.916 70.1275 79.217 70.4274 79.5884 70.4274Z" stroke="#2256FF" stroke-width="0.39375" stroke-miterlimit="10" stroke-linecap="round"/>
<path d="M73.5881 12.2129C74.0337 12.2129 74.3949 11.853 74.3949 11.4092C74.3949 10.9653 74.0337 10.6055 73.5881 10.6055C73.1425 10.6055 72.7812 10.9653 72.7812 11.4092C72.7812 11.853 73.1425 12.2129 73.5881 12.2129Z" fill="#2256FF"/>
<path d="M22.2857 18.3778C21.187 18.6989 20.4756 19.4066 20.1532 20.502C20.1103 20.6464 19.9062 20.6464 19.8642 20.502C19.5419 19.4076 18.8314 18.6998 17.7318 18.3778C17.5868 18.335 17.5868 18.1317 17.7318 18.0899C18.8304 17.7688 19.5419 17.0611 19.8642 15.9657C19.9072 15.8213 20.1113 15.8213 20.1532 15.9657C20.4756 17.0601 21.1861 17.7679 22.2857 18.0899C22.4307 18.1327 22.4307 18.336 22.2857 18.3778Z" fill="#2256FF"/>
<path d="M4.53953 19.105C4.06649 19.4612 3.85382 19.9343 3.89959 20.5233C3.90532 20.6012 3.80708 20.6383 3.7594 20.5765C3.40176 20.1053 2.92681 19.8935 2.33552 19.9391C2.25732 19.9448 2.22012 19.8469 2.28211 19.7994C2.75515 19.4432 2.96782 18.9701 2.92205 18.3811C2.91632 18.3032 3.01456 18.2661 3.06224 18.3279C3.41988 18.7991 3.89482 19.0109 4.48612 18.9653C4.56432 18.9596 4.60152 19.0575 4.53953 19.105Z" fill="#2256FF"/>
<path d="M83.0689 56.3447C82.3698 56.4245 81.8653 56.7788 81.5554 57.4077C81.5144 57.4904 81.3913 57.4695 81.3799 57.3773C81.2998 56.681 80.944 56.1784 80.3127 55.8697C80.2297 55.8288 80.2507 55.7063 80.3432 55.6949C81.0423 55.6151 81.5468 55.2607 81.8567 54.6318C81.8977 54.5492 82.0208 54.5701 82.0322 54.6622C82.1123 55.3586 82.4681 55.8611 83.0994 56.1699C83.1824 56.2107 83.1614 56.3333 83.0689 56.3447Z" fill="#2256FF"/>
<path d="M83.6428 38.8457C84.0884 38.8457 84.4496 38.4859 84.4496 38.042C84.4496 37.5981 84.0884 37.2383 83.6428 37.2383C83.1972 37.2383 82.8359 37.5981 82.8359 38.042C82.8359 38.4859 83.1972 38.8457 83.6428 38.8457Z" fill="#2256FF"/>
<path d="M30.2871 68.5639C30.6026 68.5639 30.8584 68.3091 30.8584 67.9948C30.8584 67.6806 30.6026 67.4258 30.2871 67.4258C29.9716 67.4258 29.7158 67.6806 29.7158 67.9948C29.7158 68.3091 29.9716 68.5639 30.2871 68.5639Z" fill="#2256FF"/>
<path d="M7.63767 39.0562C8.22337 39.0562 8.69818 38.5832 8.69818 37.9998C8.69818 37.4163 8.22337 36.9434 7.63767 36.9434C7.05196 36.9434 6.57715 37.4163 6.57715 37.9998C6.57715 38.5832 7.05196 39.0562 7.63767 39.0562Z" stroke="#2256FF" stroke-width="0.39375" stroke-miterlimit="10" stroke-linecap="round"/>
<path d="M68.1379 70.6351C55.9563 68.0254 42.881 63.6383 29.5463 59.3443C27.8564 58.7962 26.6089 57.3142 26.4926 55.6707C25.8469 46.4585 25.8307 37.2274 26.4458 27.9763C26.6032 25.7495 28.667 23.687 30.8672 23.5844C43.5314 23.0401 56.4675 23.9853 69.6124 25.8635C71.6771 26.1656 73.4634 27.9839 73.6313 29.9798C74.6174 42.0296 74.4762 54.183 73.3585 66.4304C73.1096 68.9802 70.4945 71.1367 68.1379 70.6351Z" fill="#2256FF"/>
<path d="M26.2361 51.3348C26.2361 52.3466 26.2475 53.2538 26.2647 54.0357C26.3038 55.834 26.3524 56.196 26.5288 56.6463C26.9571 57.7407 27.7591 58.38 28.1635 58.7049C29.1868 59.5267 30.2264 59.7841 30.6841 59.9C32.954 60.4748 35.1332 61.3858 37.4201 61.8874C39.8721 62.4261 39.401 62.5553 45.9129 64.6643C55.3135 67.709 53.0885 66.4018 58.6973 68.3408C58.6973 68.3408 65.0508 70.6284 68.2229 69.3905C69.0745 69.058 69.5609 68.5051 69.5609 68.5051C70.034 67.9684 70.2132 67.3575 70.4831 66.4047C70.7082 65.6114 70.8007 65.0006 70.8084 64.9502C71.2471 61.9986 71.1469 59.5894 71.1469 59.5894C71.0859 58.1368 71.2251 59.3557 71.5246 51.1021C71.6381 47.9718 71.7058 45.3888 71.6095 42.2994C71.5112 39.1748 71.5856 36.2536 71.6209 35.0794C71.6591 33.8054 71.6944 33.2364 71.5227 32.3472C71.3625 31.5169 71.1088 30.8566 70.9123 30.4187C70.9123 30.4187 70.8198 30.2325 70.6539 29.9627C70.6539 29.9627 70.3477 29.462 69.9557 28.9994C69.5409 28.5092 64.9498 27.1089 58.352 26.4363C58.024 26.4401 57.6949 26.4448 57.3669 26.4486C54.5115 26.0867 52.1215 25.8482 50.3829 25.6924C43.0527 25.036 43.9559 25.548 39.153 24.9961C37.6862 24.8279 36.0926 24.8108 32.9053 24.7776C31.8887 24.7671 30.6517 24.7681 29.2946 25.4293C29.0085 25.5689 27.9375 26.1171 27.1516 27.107C25.8164 28.7904 26.0882 30.7673 26.1502 33.604C26.2399 37.6425 25.7707 36.3989 25.7325 41.7237C25.7153 44.1281 25.8002 47.4094 26.2351 51.3358L26.2361 51.3348Z" fill="#EA8A2A"/>
<path d="M26.2609 31.1379C26.2085 30.6087 26.1875 29.8487 26.3487 28.9586C26.3706 28.8075 26.4116 28.59 26.4927 28.3373C27.0563 26.5864 28.7367 25.7153 29.2928 25.4274C30.6794 24.7092 31.8926 24.7073 35.6273 24.8489C40.6485 25.0398 42.9317 25.189 42.9317 25.189C43.4076 25.2203 48.8961 25.5785 49.5075 25.6184C52.3829 25.854 54.8253 26.082 56.7022 26.2682C60.3968 26.633 62.2651 26.8667 64.4558 27.2818C67.3389 27.8281 68.7799 28.1017 69.5371 28.6517C71.9481 30.4026 71.5352 33.9546 71.5399 40.1553C71.5437 44.8758 71.807 56.1086 70.5872 65.716C70.4928 66.4608 70.2868 67.9247 69.1538 68.9251C68.0732 69.8789 66.5578 70.0499 65.1501 69.9245" stroke="#2256FF" stroke-width="0.39375" stroke-miterlimit="10" stroke-linecap="round"/>
<path d="M68.1379 70.6351C55.9563 68.0254 42.881 63.6383 29.5463 59.3443C27.8564 58.7962 26.6089 57.3142 26.4926 55.6707C25.8469 46.4585 25.8307 37.2274 26.4458 27.9763C26.6032 25.7495 28.667 23.687 30.8672 23.5844C43.5314 23.0401 56.4675 23.9853 69.6124 25.8635C71.6771 26.1656 73.4634 27.9839 73.6313 29.9798C74.6174 42.0296 74.4762 54.183 73.3585 66.4304C73.1096 68.9802 70.4945 71.1367 68.1379 70.6351Z" stroke="#2256FF" stroke-width="0.39375" stroke-miterlimit="10"/>
<path d="M68.1379 70.6351C55.9563 68.0254 42.881 63.6383 29.5463 59.3443C27.8564 58.7962 26.6089 57.3142 26.4926 55.6707C25.8469 46.4585 25.8307 37.2274 26.4458 27.9763C26.6032 25.7495 28.667 23.687 30.8672 23.5844C43.5314 23.0401 56.4675 23.9853 69.6124 25.8635C71.6771 26.1656 73.4634 27.9839 73.6313 29.9798C74.6174 42.0296 74.4762 54.183 73.3585 66.4304C73.1096 68.9802 70.4945 71.1367 68.1379 70.6351Z" fill="#2256FF"/>
<path d="M26.2361 51.3348C26.2361 52.3466 26.2475 53.2538 26.2647 54.0357C26.3038 55.834 26.3524 56.196 26.5288 56.6463C26.9571 57.7407 27.7591 58.38 28.1635 58.7049C29.1868 59.5267 30.2264 59.7841 30.6841 59.9C32.954 60.4748 35.1332 61.3858 37.4201 61.8874C39.8721 62.4261 39.401 62.5553 45.9129 64.6643C55.3135 67.709 53.0885 66.4018 58.6973 68.3408C58.6973 68.3408 65.0508 70.6284 68.2229 69.3905C69.0745 69.058 69.5609 68.5051 69.5609 68.5051C70.034 67.9684 70.2132 67.3575 70.4831 66.4047C70.7082 65.6114 70.8007 65.0006 70.8084 64.9502C71.2471 61.9986 71.1469 59.5894 71.1469 59.5894C71.0859 58.1368 71.2251 59.3557 71.5246 51.1021C71.6381 47.9718 71.7058 45.3888 71.6095 42.2994C71.5112 39.1748 71.5856 36.2536 71.6209 35.0794C71.6591 33.8054 71.6944 33.2364 71.5227 32.3472C71.3625 31.5169 71.1088 30.8566 70.9123 30.4187C70.9123 30.4187 70.8198 30.2325 70.6539 29.9627C70.6539 29.9627 70.3477 29.462 69.9557 28.9994C69.5409 28.5092 64.9498 27.1089 58.352 26.4363C58.024 26.4401 57.6949 26.4448 57.3669 26.4486C54.5115 26.0867 52.1215 25.8482 50.3829 25.6924C43.0527 25.036 43.9559 25.548 39.153 24.9961C37.6862 24.8279 36.0926 24.8108 32.9053 24.7776C31.8887 24.7671 30.6517 24.7681 29.2946 25.4293C29.0085 25.5689 27.9375 26.1171 27.1516 27.107C25.8164 28.7904 26.0882 30.7673 26.1502 33.604C26.2399 37.6425 25.7707 36.3989 25.7325 41.7237C25.7153 44.1281 25.8002 47.4094 26.2351 51.3358L26.2361 51.3348Z" fill="#84B3D5"/>
<path d="M26.2609 31.1379C26.2085 30.6087 26.1875 29.8487 26.3487 28.9586C26.3706 28.8075 26.4116 28.59 26.4927 28.3373C27.0563 26.5864 28.7367 25.7153 29.2928 25.4274C30.6794 24.7092 31.8926 24.7073 35.6273 24.8489C40.6485 25.0398 42.9317 25.189 42.9317 25.189C43.4076 25.2203 48.8961 25.5785 49.5075 25.6184C52.3829 25.854 54.8253 26.082 56.7022 26.2682C60.3968 26.633 62.2651 26.8667 64.4558 27.2818C67.3389 27.8281 68.7799 28.1017 69.5371 28.6517C71.9481 30.4026 71.5352 33.9546 71.5399 40.1553C71.5437 44.8758 71.807 56.1086 70.5872 65.716C70.4928 66.4608 70.2868 67.9247 69.1538 68.9251C68.0732 69.8789 66.5578 70.0499 65.1501 69.9245" stroke="#2256FF" stroke-width="0.39375" stroke-miterlimit="10" stroke-linecap="round"/>
<path d="M68.1379 70.6351C55.9563 68.0254 42.881 63.6383 29.5463 59.3443C27.8564 58.7962 26.6089 57.3142 26.4926 55.6707C25.8469 46.4585 25.8307 37.2274 26.4458 27.9763C26.6032 25.7495 28.667 23.687 30.8672 23.5844C43.5314 23.0401 56.4675 23.9853 69.6124 25.8635C71.6771 26.1656 73.4634 27.9839 73.6313 29.9798C74.6174 42.0296 74.4762 54.183 73.3585 66.4304C73.1096 68.9802 70.4945 71.1367 68.1379 70.6351Z" stroke="#2256FF" stroke-width="0.39375" stroke-miterlimit="10"/>
<path d="M37.0646 47.931C36.9139 47.931 36.7842 47.8256 36.7546 47.6793C35.8658 43.2608 35.1114 36.7942 36.1338 29.1267C37.489 18.9674 41.3391 11.3912 43.998 7.05064C44.0638 6.94329 44.1878 6.88629 44.3127 6.90339L69.727 10.5172C69.9607 10.5504 70.077 10.8174 69.9416 11.0102C67.4668 14.5461 63.6663 21.0128 62.1537 29.9475C60.8862 37.4326 61.7255 43.6902 62.58 47.6061C62.6229 47.8028 62.4722 47.988 62.27 47.9871C53.8679 47.9681 45.4658 47.9491 37.0646 47.9301V47.931Z" fill="#EA8A2A"/>
<path d="M37.0646 47.931C36.9139 47.931 36.7842 47.8256 36.7546 47.6793C35.8658 43.2608 35.1114 36.7942 36.1338 29.1267C37.489 18.9674 41.3391 11.3912 43.998 7.05064C44.0638 6.94329 44.1878 6.88629 44.3127 6.90339L69.727 10.5172C69.9607 10.5504 70.077 10.8174 69.9416 11.0102C67.4668 14.5461 63.6662 21.0128 62.1537 29.9475C60.8862 37.4326 61.7255 43.6902 62.58 47.6061C62.6229 47.8028 62.4722 47.988 62.27 47.9871C53.8679 47.9681 45.4658 47.9491 37.0646 47.9301V47.931Z" stroke="#2256FF" stroke-width="0.39375" stroke-miterlimit="10"/>
<path d="M59.7046 45.551C59.264 42.8597 59.0494 40.155 59.0628 37.4504C59.0695 35.9608 59.1515 33.0576 59.7475 29.5445C60.3236 26.153 61.5729 21.0458 64.5542 15.2213C63.7512 15.2622 63.013 14.7815 62.7374 14.0452C62.477 13.3508 62.6764 12.5556 63.24 12.0521C58.0309 11.3111 52.8217 10.5711 47.6136 9.83008C47.5964 9.96308 47.4657 10.8713 46.6446 11.3947C45.9598 11.8317 45.0595 11.8317 44.3261 11.3985C42.9376 14.0224 41.5843 17.1042 40.4923 20.6259C39.8399 22.7292 39.0474 25.7483 38.5543 29.4476C37.8429 34.7837 37.9373 40.1759 38.8347 45.5045L59.7037 45.552L59.7046 45.551Z" fill="#ECF3FE"/>
<path d="M59.7046 45.5503C59.264 42.8589 59.0495 40.1543 59.0628 37.4496C59.0695 35.96 59.1515 33.0568 59.7476 29.5437C60.3236 26.1513 61.573 21.0441 64.5542 15.2206C63.406 15.0201 62.6173 14.1803 62.602 13.3158C62.5906 12.667 63.0169 12.191 63.1647 12.0409C57.9174 11.2952 52.6701 10.5485 47.4228 9.80273C47.4314 10.5352 47.0109 11.2068 46.3509 11.5175C45.709 11.8196 44.9442 11.7312 44.3844 11.2895C42.9958 13.9001 41.611 17.0199 40.4932 20.6251C39.8419 22.7275 39.0484 25.7466 38.5553 29.4468C37.8438 34.783 37.9383 40.1752 38.8357 45.5037L59.7046 45.5512V45.5503Z" stroke="#2256FF" stroke-width="0.39375" stroke-linejoin="round"/>
<path d="M43.5241 27.6361C42.5466 31.268 44.4368 35.9714 47.9321 36.6944C51.3178 37.3945 54.7139 34.0505 55.5246 30.6457C56.3009 27.3863 54.9676 22.9821 51.6897 21.9903C48.2888 20.9624 44.4721 24.1154 43.5251 27.6361H43.5241Z" fill="#EA8A2A"/>
<path d="M43.5241 27.6361C42.5466 31.268 44.4368 35.9714 47.9321 36.6944C51.3178 37.3945 54.7139 34.0505 55.5246 30.6457C56.3009 27.3863 54.9676 22.9821 51.6897 21.9903C48.2888 20.9624 44.4721 24.1154 43.5251 27.6361H43.5241Z" stroke="#2256FF" stroke-width="0.39375" stroke-miterlimit="10"/>
<path d="M54.0784 17.092C54.2574 16.2943 53.765 15.5056 52.9785 15.3305C52.1921 15.1554 51.4094 15.6601 51.2304 16.4579C51.0514 17.2556 51.5438 18.0443 52.3303 18.2194C53.1167 18.3945 53.8994 17.8898 54.0784 17.092Z" fill="#2256FF"/>
<path d="M54.3106 46.743C54.4594 46.7648 54.6034 46.6803 54.6549 46.5397C56.1951 42.3027 57.9099 36.0203 58.0472 28.2873C58.2294 18.0406 55.5562 9.97609 53.5772 5.28974C53.5286 5.17384 53.4141 5.09879 53.2882 5.09784L27.6164 4.89454C27.3799 4.89264 27.2254 5.13964 27.3303 5.35054C29.2482 9.21419 32.0378 16.1739 32.1952 25.2331C32.3277 32.8226 30.5605 38.8855 29.1281 42.6304C29.0565 42.8185 29.1777 43.0237 29.3779 43.0532C37.6885 44.2825 45.9991 45.5127 54.3106 46.742V46.743Z" fill="#EA8A2A"/>
<path d="M54.3106 46.743C54.4594 46.7648 54.6034 46.6803 54.6549 46.5397C56.1951 42.3027 57.9099 36.0203 58.0472 28.2873C58.2294 18.0406 55.5562 9.97609 53.5772 5.28974C53.5286 5.17384 53.4141 5.09879 53.2882 5.09784L27.6164 4.89454C27.3799 4.89264 27.2254 5.13964 27.3303 5.35054C29.2482 9.21419 32.0378 16.1739 32.1952 25.2331C32.3277 32.8226 30.5605 38.8855 29.1281 42.6304C29.0565 42.8185 29.1777 43.0237 29.3779 43.0532C37.6885 44.2825 45.9991 45.5127 54.3106 46.742V46.743Z" stroke="#2256FF" stroke-width="0.39375" stroke-miterlimit="10"/>
<path d="M32.2811 41.024C33.1194 38.4286 33.7364 35.7857 34.1293 33.1096C34.3458 31.6361 34.6996 28.7528 34.6357 25.1903C34.5747 21.7504 34.1036 16.5149 32.0283 10.3133C32.8161 10.4729 33.6181 10.1072 34.0006 9.42035C34.362 8.77245 34.2838 7.9564 33.8022 7.375C39.0638 7.4168 44.3254 7.4586 49.587 7.5004C49.5841 7.63435 49.5765 8.55205 50.3108 9.1914C50.9231 9.7253 51.8129 9.8583 52.6026 9.5391C53.582 12.3406 54.4594 15.5887 55.0116 19.2329C55.3416 21.4103 55.6735 24.513 55.6067 28.2437C55.5114 33.6254 54.6101 38.9435 52.924 44.0792L32.2811 41.0249V41.024Z" fill="#ECF3FE"/>
<path d="M32.281 41.025C33.1193 38.4296 33.7364 35.7867 34.1293 33.1106C34.3458 31.6371 34.6996 28.7539 34.6357 25.1914C34.5747 21.7514 34.1036 16.516 32.0273 10.3144C33.1928 10.2868 34.0978 9.5743 34.2428 8.7212C34.3515 8.08185 34.0006 7.54795 33.8775 7.37695C39.1782 7.41875 44.4779 7.4615 49.7786 7.5033C49.6604 8.22625 49.9751 8.953 50.5817 9.35865C51.171 9.7529 51.9407 9.7795 52.5606 9.4261C53.5429 12.2144 54.4451 15.5042 55.0097 19.2358C55.3387 21.4113 55.6716 24.514 55.6048 28.2466C55.5094 33.6283 54.6082 38.9464 52.922 44.0821L32.2791 41.0279L32.281 41.025Z" stroke="#2256FF" stroke-width="0.39375" stroke-linejoin="round"/>
<path d="M50.9634 25.7151C51.3859 29.4514 48.8118 33.8214 45.2488 34.0162C41.7964 34.2052 38.9391 30.3938 38.6472 26.9073C38.3678 23.569 40.3458 19.4118 43.7362 18.9188C47.2535 18.4077 50.5542 22.0927 50.9643 25.7151H50.9634Z" fill="#EA8A2A"/>
<path d="M50.9634 25.7151C51.3859 29.4514 48.8118 33.8214 45.2488 34.0162C41.7964 34.2052 38.9391 30.3938 38.6472 26.9073C38.3678 23.569 40.3458 19.4118 43.7362 18.9188C47.2535 18.4077 50.5542 22.0927 50.9643 25.7151H50.9634Z" stroke="#2256FF" stroke-width="0.39375" stroke-miterlimit="10"/>
<path d="M43.6649 15.0952C44.4688 15.0389 45.0738 14.3322 45.0163 13.5168C44.9588 12.7014 44.2605 12.086 43.4566 12.1422C42.6527 12.1985 42.0476 12.9052 42.1051 13.7206C42.1627 14.536 42.861 15.1514 43.6649 15.0952Z" fill="#2256FF"/>
<path d="M19.8325 51.0358C19.8 52.0466 19.7838 52.9539 19.7762 53.7367C19.759 55.535 19.7972 55.8979 19.9583 56.3539C20.3522 57.4616 21.1343 58.1257 21.5272 58.462C22.5238 59.3151 23.5557 59.6048 24.0087 59.734C26.2595 60.3791 28.4091 61.3566 30.6789 61.9304C33.1137 62.5451 32.6378 62.6591 39.0811 64.9695C48.3816 68.304 46.1995 66.9284 51.7443 69.0412C51.7443 69.0412 58.0226 71.5254 61.2327 70.3864C62.0939 70.0805 62.5984 69.5428 62.5984 69.5428C63.0877 69.0203 63.286 68.4161 63.5855 67.4718C63.8354 66.6861 63.947 66.0781 63.9565 66.0278C64.4877 63.0904 64.4629 60.6802 64.4629 60.6802C64.4477 59.2267 64.5478 60.4484 65.1067 52.2091C65.3184 49.0845 65.4672 46.5043 65.4672 43.413C65.4672 40.2866 65.6322 37.3701 65.7046 36.1968C65.7828 34.9248 65.8353 34.3576 65.6922 33.4627C65.5578 32.6277 65.3251 31.9598 65.1429 31.5162C65.1429 31.5162 65.0561 31.3281 64.8997 31.0526C64.8997 31.0526 64.6088 30.5434 64.2321 30.0674C63.8335 29.5649 59.2881 28.0221 52.7142 27.1452C52.3862 27.1395 52.0571 27.1329 51.7291 27.1272C48.8861 26.6769 46.5047 26.3643 44.7718 26.1544C37.4655 25.2699 38.3524 25.8105 33.5696 25.1103C32.1085 24.8966 30.5168 24.8301 27.3324 24.698C26.3167 24.6562 25.0807 24.6182 23.7026 25.2376C23.4117 25.3678 22.3245 25.8827 21.5081 26.8479C20.1205 28.4895 20.3303 30.4731 20.3045 33.3107C20.2673 37.3501 19.8382 36.0923 19.6331 41.4133C19.5406 43.8158 19.5235 47.0981 19.8353 51.0358H19.8325Z" fill="#EA8A2A"/>
<path d="M57.911 66.8797C47.1752 64.4733 35.7364 60.5565 24.086 56.7251C23.1561 56.4183 22.4914 55.5728 22.4771 54.6598C22.3503 46.6722 22.7985 38.658 23.7722 30.6191C23.921 29.4183 25.0798 28.3885 26.2566 28.4227C37.4121 28.7714 48.8499 30.4168 60.4822 32.6626C61.5713 32.8754 62.4506 33.8596 62.4802 34.915C62.7511 44.7912 62.0997 54.7463 60.712 64.7726C60.5232 66.1026 59.1422 67.1552 57.911 66.8797Z" stroke="#2256FF" stroke-width="0.1575" stroke-miterlimit="10" stroke-linecap="round"/>
<path d="M61.1108 71.6281C49.0169 68.6422 36.0847 63.8504 22.8912 59.1441C21.2193 58.5437 20.0186 57.0237 19.9537 55.3774C19.5961 46.15 19.8698 36.9227 20.773 27.6953C21 25.4752 23.1277 23.4773 25.3298 23.4431C38.0054 23.2921 50.9052 24.6392 63.9843 26.9239C66.0386 27.2906 67.7667 29.1631 67.8726 31.1628C68.482 43.2373 67.9603 55.3802 66.4592 67.5877C66.1302 70.128 63.4493 72.2028 61.1099 71.6281H61.1108Z" stroke="#2256FF" stroke-width="0.39375" stroke-miterlimit="10"/>
<path d="M61.1108 71.6281C49.0169 68.6422 36.0847 63.8504 22.8912 59.1441C21.2193 58.5437 20.0186 57.0237 19.9537 55.3774C19.5961 46.15 19.8698 36.9227 20.773 27.6953C21 25.4752 23.1277 23.4773 25.3298 23.4431C38.0054 23.2921 50.9052 24.6392 63.9843 26.9239C66.0386 27.2906 67.7667 29.1631 67.8726 31.1628C68.482 43.2373 67.9603 55.3802 66.4592 67.5877C66.1302 70.128 63.4493 72.2028 61.1099 71.6281H61.1108Z" fill="#2256FF"/>
<path d="M65.7036 36.1964C65.6673 36.7825 65.6082 37.8057 65.5567 39.0711C65.5062 40.3384 65.4652 41.8489 65.4652 43.4126C65.4652 46.5039 65.3173 49.0822 65.1056 52.2077C64.5467 60.448 64.4466 59.2253 64.4619 60.6788C64.4619 60.6788 64.4876 63.089 63.9554 66.0264C63.9478 66.072 63.8505 66.6002 63.6369 67.3022C63.6216 67.3573 63.6035 67.4134 63.5854 67.4694C63.2859 68.4137 63.0866 69.0179 62.5974 69.5404C62.5974 69.5404 62.0938 70.0781 61.2326 70.384C58.0215 71.5231 51.7442 69.0388 51.7442 69.0388C46.1984 66.927 48.3815 68.3026 39.08 64.9671C32.6377 62.6567 33.1127 62.5427 30.6779 61.929C28.409 61.3552 26.2593 60.3777 24.0077 59.7326C23.5556 59.6034 22.5237 59.3127 21.5261 58.4606C21.1313 58.1243 20.3502 57.4593 19.9563 56.3525C19.7961 55.8965 19.757 55.5336 19.7742 53.7353C19.7818 52.9534 19.799 52.0462 19.8304 51.0344C19.5186 47.0957 19.5357 43.8144 19.6282 41.4109C19.8323 36.09 20.2615 37.3487 20.2987 33.3084C20.3245 30.4707 20.1146 28.4871 21.5023 26.8465C22.3005 25.9022 23.3591 25.3882 23.6767 25.2438C23.6843 25.241 23.691 25.2372 23.6977 25.2353C25.0748 24.6168 26.3108 24.6539 27.3275 24.6966C30.5119 24.8287 32.1036 24.8952 33.5647 25.1089C38.3485 25.8091 37.4616 25.2685 44.7679 26.153C46.5008 26.3629 48.8822 26.6755 51.7251 27.1258C52.0532 27.1324 52.3813 27.1381 52.7103 27.1448C59.2842 28.0216 63.8286 29.5635 64.2282 30.067C64.6059 30.542 64.8967 31.0512 64.8967 31.0512C65.0532 31.3267 65.1399 31.5157 65.1399 31.5157C65.3221 31.9594 65.5548 32.6282 65.6902 33.4623C65.8342 34.3553 65.7818 34.9243 65.7026 36.1964H65.7036Z" fill="#84B3D5"/>
<path d="M65.7038 36.1964C65.6675 36.7825 65.6084 37.8057 65.5569 39.0711C65.5063 40.3384 65.4653 41.8489 65.4653 43.4126C65.4653 46.5039 65.3175 49.0822 65.1058 52.2077C64.5469 60.448 64.4468 59.2253 64.462 60.6788C64.462 60.6788 64.4878 63.089 63.9556 66.0264C63.948 66.072 63.8507 66.6002 63.6371 67.3022C60.302 67.9549 54.8077 65.7803 54.8077 65.7803C49.2619 63.6685 51.4449 65.0441 42.1435 61.7086C35.7012 59.3982 36.1761 59.2842 33.7413 58.6705C31.4706 58.0967 29.3209 57.1192 27.0711 56.4741C26.6172 56.3449 25.5862 56.0552 24.5886 55.2021C24.1957 54.8658 23.4127 54.2008 23.0198 53.094C22.8577 52.638 22.8205 52.2751 22.8376 50.4768C22.8453 49.6949 22.8624 48.7877 22.8939 47.7759C22.582 43.8372 22.5992 40.5559 22.6917 38.1534C22.8958 32.8315 23.325 34.0893 23.3622 30.0508C23.3803 28.1005 23.2868 26.5529 23.6769 25.2438C23.6845 25.241 23.6912 25.2372 23.6979 25.2353C25.075 24.6168 26.311 24.6539 27.3277 24.6966C30.5121 24.8287 32.1038 24.8952 33.5649 25.1089C38.3487 25.8091 37.4617 25.2685 44.7681 26.153C46.5009 26.3629 48.8823 26.6755 51.7253 27.1258C52.0534 27.1324 52.3815 27.1381 52.7105 27.1448C59.2844 28.0216 63.8288 29.5635 64.2284 30.067C64.606 30.542 64.8969 31.0512 64.8969 31.0512C65.0533 31.3267 65.1401 31.5157 65.1401 31.5157C65.3223 31.9594 65.555 32.6282 65.6904 33.4623C65.8344 34.3553 65.782 34.9243 65.7028 36.1964H65.7038Z" fill="#EA8A2A"/>
<path d="M20.6455 28.6749C20.6722 28.5248 20.7199 28.3082 20.8095 28.0583C21.4275 26.3265 23.1347 25.5076 23.6993 25.2368C25.1079 24.5614 26.321 24.5975 30.049 24.8549C35.0617 25.2007 37.3391 25.4211 37.3391 25.4211C37.8141 25.4667 43.2883 25.9959 43.8987 26.0548C46.7655 26.3797 49.1994 26.6837 51.0696 26.9269C54.7519 27.4066 56.6116 27.6983 58.7879 28.1809C61.6529 28.8164 63.0844 29.1347 63.8244 29.7075C66.1791 31.5325 65.6556 35.0703 65.4667 41.2671C65.3227 45.9858 65.234 57.2205 63.7148 66.786C63.5965 67.528 63.3447 68.9843 62.1822 69.9486C61.0721 70.8682 59.5518 70.9917 58.149 70.8226" stroke="#2256FF" stroke-width="0.39375" stroke-miterlimit="10" stroke-linecap="round"/>
<path d="M57.911 66.8797C47.1752 64.4733 35.7364 60.5565 24.086 56.7251C23.1561 56.4183 22.4914 55.5728 22.4771 54.6598C22.3503 46.6722 22.7985 38.658 23.7722 30.6191C23.921 29.4174 25.0798 28.3885 26.2566 28.4227C37.4121 28.7714 48.8499 30.4168 60.4822 32.6626C61.5713 32.8754 62.4506 33.8596 62.4802 34.915C62.7511 44.7912 62.0997 54.7463 60.712 64.7726C60.5232 66.1026 59.1422 67.1552 57.911 66.8797Z" stroke="#2256FF" stroke-width="0.1575" stroke-miterlimit="10" stroke-linecap="round"/>
<path d="M61.1108 71.6281C49.0169 68.6422 36.0847 63.8504 22.8912 59.1441C21.2193 58.5437 20.0186 57.0237 19.9537 55.3774C19.5961 46.15 19.8698 36.9227 20.773 27.6953C21 25.4752 23.1277 23.4773 25.3298 23.4431C38.0054 23.2921 50.9052 24.6392 63.9843 26.9239C66.0386 27.2906 67.7667 29.1631 67.8726 31.1628C68.482 43.2373 67.9603 55.3802 66.4592 67.5877C66.1302 70.128 63.4493 72.2028 61.1099 71.6281H61.1108Z" stroke="#2256FF" stroke-width="0.39375" stroke-miterlimit="10"/>
<path d="M75.8106 52.7729C75.4453 53.2223 74.3791 54.3803 70.446 55.1175C69.3149 55.3303 57.7961 57.3671 54.7357 52.0101C53.7553 50.2925 53.9908 48.5169 54.0204 48.3203C54.0233 48.3089 54.0242 48.3022 54.0242 48.3022C54.2674 46.8991 55.0981 45.7287 55.9478 45.038C58.766 42.7457 61.8856 45.6612 68.531 44.8119C72.6386 44.2856 73.8012 42.9243 75.3195 43.8857C76.3819 44.5592 77.0399 46.0336 77.1906 47.6771C77.3537 49.4384 76.936 51.3954 75.8116 52.7739L75.8106 52.7729Z" fill="#D8831E"/>
<path d="M77.1898 47.6762C77.0715 48.991 76.6271 50.2963 75.8107 51.2957C75.4455 51.745 74.3792 52.9031 70.4461 53.6403C69.3151 53.8531 57.7962 55.8899 54.7358 50.5328C54.2923 49.7557 54.0987 48.9691 54.0205 48.3203C54.0234 48.3089 54.0243 48.3022 54.0243 48.3022C54.2675 46.8991 55.0982 45.7287 55.9479 45.038C58.7661 42.7457 61.8857 45.6612 68.5311 44.8119C72.6387 44.2856 73.8013 42.9243 75.3196 43.8857C76.382 44.5592 77.0401 46.0336 77.1907 47.6771L77.1898 47.6762Z" fill="#F6A02F"/>
<path d="M59.5325 52.1244C60.9979 51.7461 61.8779 50.2561 61.4981 48.7964C61.1183 47.3367 59.6225 46.4601 58.1572 46.8384C56.6918 47.2168 55.8118 48.7067 56.1916 50.1664C56.5714 51.6261 58.0672 52.5027 59.5325 52.1244Z" fill="#2256FF"/>
<path d="M56.9101 50.2918C56.8042 50.041 56.7451 49.7664 56.7451 49.4776C56.7451 48.3224 57.6855 47.3848 58.8461 47.3848C59.5204 47.3848 60.1203 47.7011 60.5046 48.1932" stroke="white" stroke-width="0.1575" stroke-miterlimit="10" stroke-linecap="round"/>
<path d="M75.3181 43.8854C73.8007 42.924 72.6372 44.2872 68.5305 44.8126C61.8851 45.6628 58.7656 42.7473 55.9474 45.0387C55.0986 45.7293 54.2669 46.8997 54.0247 48.3019C54.0247 48.3019 53.6966 50.1886 54.7362 52.0098C57.7966 57.3678 69.3154 55.33 70.4465 55.1182C74.3796 54.381 75.4449 53.222 75.8111 52.7736C77.9846 50.1079 77.5182 45.279 75.3181 43.8854Z" stroke="#2256FF" stroke-width="0.39375" stroke-miterlimit="10"/>
<path d="M30.5347 46.4175C32.2758 42.1697 30.2304 37.3201 25.966 35.5858C21.7016 33.8514 16.8332 35.889 15.092 40.1368C13.3509 44.3846 15.3964 49.2341 19.6608 50.9685C23.9252 52.7028 28.7936 50.6653 30.5347 46.4175Z" fill="#2256FF"/>
<path d="M29.275 45.1615C31.0161 40.9137 28.9706 36.0642 24.7062 34.3298C20.4418 32.5954 15.5734 34.633 13.8323 38.8808C12.0912 43.1286 14.1366 47.9781 18.401 49.7125C22.6654 51.4469 27.5338 49.4093 29.275 45.1615Z" fill="#FFD39F" stroke="#2256FF" stroke-width="0.39375" stroke-miterlimit="10"/>
<path d="M27.2976 44.2449C28.5293 41.0849 26.9561 37.5285 23.7838 36.3015C20.6114 35.0745 17.0411 36.6416 15.8094 39.8017C14.5776 42.9617 16.1508 46.5181 19.3232 47.7451C22.4956 48.972 26.0658 47.405 27.2976 44.2449Z" fill="#F6A02F"/>
<path d="M27.6247 42.9195C27.3024 45.0741 25.8308 46.9865 23.6287 47.774C20.4405 48.915 16.927 47.2648 15.7816 44.089C15.0091 41.9458 15.5117 39.6563 16.8994 38.0422M21.891 35.9199C24.2782 36.052 26.4688 37.5748 27.3281 39.9574" stroke="#2256FF" stroke-width="0.1575" stroke-miterlimit="10" stroke-linecap="round"/>
</svg>
