<svg width="326" height="326" viewBox="0 0 326 326" fill="none" xmlns="http://www.w3.org/2000/svg">
<g clip-path="url(#clip0_1_4658)">
<mask id="mask0_1_4658" style="mask-type:alpha" maskUnits="userSpaceOnUse" x="2" y="27" width="322" height="272">
<path d="M323.959 27H2.99902V299H323.959V27Z" fill="#D9D9D9"/>
</mask>
<g mask="url(#mask0_1_4658)">
<path d="M275.129 244.138L294.777 236.985C298.423 235.661 298.423 233.49 294.777 232.163L272.182 223.94L275.129 244.138Z" fill="#0D1C4C"/>
<path d="M14.3492 221.494C10.0965 219.945 10.0965 217.411 14.3492 215.862L53.7755 201.514C58.0283 199.965 64.9886 199.965 69.2266 201.514L108.649 215.862C112.906 217.411 112.906 219.945 108.649 221.494L69.2415 235.842C64.9886 237.391 58.0283 237.391 53.7902 235.842L14.3492 221.494Z" fill="white" stroke="#0D1C4C" stroke-width="1.36" stroke-miterlimit="10" stroke-linecap="round"/>
<path d="M71.4815 242.272C67.2288 240.724 67.2288 238.192 71.4815 236.644L110.904 222.296C115.157 220.751 122.117 220.751 126.374 222.296L165.797 236.644C170.05 238.192 170.05 240.724 165.797 242.272L126.374 256.62C122.117 258.169 115.157 258.169 110.904 256.62L71.4815 242.272Z" fill="white" stroke="#0D1C4C" stroke-width="1.36" stroke-miterlimit="10" stroke-linecap="round"/>
<path d="M128.676 263.09C124.424 261.541 124.424 259.008 128.676 257.463L168.103 243.115C172.356 241.566 179.315 241.566 183.554 243.115L222.977 257.463C227.233 259.008 227.233 261.541 222.977 263.09L183.554 277.438C179.302 278.987 172.341 278.987 168.103 277.438L128.676 263.09Z" fill="#EBEBEB" stroke="#0D1C4C" stroke-width="1.36" stroke-miterlimit="10" stroke-linecap="round"/>
<path d="M68.2908 155.275V197.869C68.2908 198.892 69.354 199.91 71.4804 200.683L110.903 215.031C115.156 216.579 122.116 216.579 126.373 215.031L197.761 189.047C199.887 188.274 200.95 187.252 200.95 186.233V143.646L68.2908 155.275Z" fill="white" stroke="#0D1C4C" stroke-width="1.36" stroke-miterlimit="10" stroke-linecap="round"/>
<path d="M68.2908 195.716L74.5742 198.001C76.2371 198.608 77.5982 197.656 77.5982 195.886V188.414C77.5531 187.481 77.2451 186.583 76.71 185.818C76.1748 185.054 75.4344 184.457 74.5742 184.095L70.8182 182.727C69.7162 182.304 68.8137 181.481 68.2908 180.423" stroke="#0D1C4C" stroke-width="1.36" stroke-miterlimit="10" stroke-linecap="round"/>
<path d="M118.636 216.193C121.443 216.193 124.247 215.825 126.362 215.034L197.75 189.051C199.876 188.279 200.94 187.256 200.94 186.236V147.211L124.272 175.17C121.167 176.304 118.625 179.934 118.625 183.238L118.636 216.193Z" fill="#E9ECEC"/>
<path d="M68.2908 155.275V197.869C68.2908 198.892 69.354 199.91 71.4804 200.683L110.903 215.031C115.156 216.579 122.116 216.579 126.373 215.031L197.761 189.047C199.887 188.274 200.95 187.252 200.95 186.233V143.646L68.2908 155.275Z" stroke="#0D1C4C" stroke-width="1.36" stroke-miterlimit="10" stroke-linecap="round"/>
<path d="M71.4806 158.093C67.2278 156.544 67.2278 154.013 71.4806 152.464L142.869 126.48C147.122 124.932 154.082 124.932 158.32 126.48L197.746 140.828C201.999 142.373 201.999 144.908 197.746 146.457L126.373 172.444C122.116 173.989 115.156 173.989 110.903 172.444L71.4806 158.093Z" fill="white"/>
<path d="M124.733 160.878L177.344 141.729L151.703 135.968L118.851 155.043L124.733 160.878Z" fill="#0D1C4C" stroke="#0D1C4C" stroke-width="1.36" stroke-miterlimit="10"/>
<path d="M71.4806 158.093C67.2278 156.544 67.2278 154.013 71.4806 152.464L142.869 126.48C147.122 124.932 154.082 124.932 158.32 126.48L197.746 140.828C201.999 142.373 201.999 144.908 197.746 146.457L126.373 172.444C122.116 173.989 115.156 173.989 110.903 172.444L71.4806 158.093Z" stroke="#0D1C4C" stroke-width="1.36" stroke-miterlimit="10" stroke-linecap="round"/>
<path d="M179.717 139.636V106.093H137.594V139.636C137.594 140.394 138.385 141.152 139.967 141.73L152.902 146.446C156.066 147.597 161.246 147.597 164.409 146.446L177.344 141.737C178.926 141.152 179.717 140.394 179.717 139.636Z" fill="white" stroke="#0D1C4C" stroke-width="1.36" stroke-miterlimit="10" stroke-linecap="round"/>
<path d="M159.094 147.292C160.899 147.291 162.693 147.006 164.409 146.446L177.344 141.737C178.926 141.159 179.717 140.402 179.717 139.644V106.093L159.094 113.741V147.292Z" fill="#FF902F"/>
<path d="M179.717 139.636V106.093H137.594V139.636C137.594 140.394 138.385 141.152 139.967 141.73L152.902 146.446C156.066 147.597 161.246 147.597 164.409 146.446L177.344 141.737C178.926 141.152 179.717 140.394 179.717 139.636Z" stroke="#0D1C4C" stroke-width="1.36" stroke-miterlimit="10" stroke-linecap="round"/>
<path d="M139.967 108.186C136.803 107.031 136.803 105.147 139.967 103.995L152.902 99.2866C156.065 98.1351 161.245 98.1351 164.409 99.2866L177.344 103.995C180.508 105.147 180.508 107.031 177.344 108.186L164.409 112.895C161.245 114.046 156.065 114.046 152.902 112.895L139.967 108.186Z" fill="white" stroke="#0D1C4C" stroke-width="1.36" stroke-miterlimit="10" stroke-linecap="round"/>
<path d="M153.416 149.209V104.632H111.292V149.209C111.292 149.97 112.083 150.728 113.665 151.306L126.6 156.011C129.764 157.162 134.944 157.162 138.108 156.011L151.043 151.306C152.624 150.728 153.416 149.97 153.416 149.209Z" fill="white" stroke="#0D1C4C" stroke-width="1.36" stroke-miterlimit="10" stroke-linecap="round"/>
<path d="M132.793 156.868C134.599 156.866 136.393 156.576 138.109 156.011L151.043 151.306C152.625 150.728 153.416 149.97 153.416 149.209V104.632L132.793 112.277V156.868Z" fill="#FF902F"/>
<path d="M153.416 149.209V104.632H111.292V149.209C111.292 149.97 112.083 150.728 113.665 151.306L126.6 156.011C129.764 157.162 134.944 157.162 138.108 156.011L151.043 151.306C152.624 150.728 153.416 149.97 153.416 149.209Z" stroke="#0D1C4C" stroke-width="1.36" stroke-miterlimit="10" stroke-linecap="round"/>
<path d="M113.665 106.714C110.502 105.563 110.502 103.679 113.665 102.524L126.6 97.8297C129.764 96.6782 134.944 96.6782 138.108 97.8297L151.043 102.535C154.206 103.69 154.206 105.574 151.043 106.725L138.108 111.434C134.944 112.586 129.764 112.586 126.6 111.434L113.665 106.714Z" fill="white" stroke="#0D1C4C" stroke-width="1.36" stroke-miterlimit="10" stroke-linecap="round"/>
<path d="M127.112 158.784V143.635H84.989V158.784C84.989 159.542 85.78 160.3 87.3619 160.878L100.293 165.576C103.461 166.726 108.637 166.726 111.804 165.576L124.735 160.867C126.317 160.3 127.112 159.542 127.112 158.784Z" fill="white" stroke="#0D1C4C" stroke-width="1.36" stroke-miterlimit="10" stroke-linecap="round"/>
<path d="M106.489 166.439C108.296 166.433 110.09 166.142 111.805 165.576L124.736 160.867C126.318 160.289 127.113 159.531 127.113 158.773V143.635L106.489 151.283V166.439Z" fill="#FF902F"/>
<path d="M127.112 158.784V143.635H84.989V158.784C84.989 159.542 85.78 160.3 87.3619 160.878L100.293 165.576C103.461 166.726 108.637 166.726 111.804 165.576L124.735 160.867C126.317 160.3 127.112 159.542 127.112 158.784Z" stroke="#0D1C4C" stroke-width="1.36" stroke-miterlimit="10" stroke-linecap="round"/>
<path d="M87.3619 145.732C84.198 144.577 84.198 142.693 87.3619 141.542L100.293 136.833C103.461 135.681 108.637 135.681 111.804 136.833L124.735 141.542C127.903 142.693 127.903 144.577 124.735 145.732L111.804 150.437C108.637 151.589 103.461 151.589 100.293 150.437L87.3619 145.732Z" fill="white" stroke="#0D1C4C" stroke-width="1.36" stroke-miterlimit="10" stroke-linecap="round"/>
<path opacity="0.7" d="M151.768 148.443C153.497 153.189 157.46 156.143 161.536 154.657L196.002 142.097C199.681 140.758 201.212 135.799 199.482 131.06L171.398 53.9921C169.67 49.2464 165.642 46.3144 161.627 47.7785L127.164 60.3602C123.294 61.7693 121.951 66.6548 123.68 71.3968L151.768 148.443Z" fill="#EBEBEB"/>
<path d="M126.289 60.6544C122.419 62.0635 121.076 66.9527 122.806 71.6911L150.879 148.759C152.608 153.505 156.57 156.456 160.647 154.969L161.515 154.657C157.441 156.128 153.484 153.185 151.754 148.443L123.681 71.3966C121.952 66.6509 123.295 61.7655 127.165 60.3601L126.289 60.6544Z" fill="white"/>
<path d="M195.772 141.458L173.87 149.44L139.978 56.3995L161.862 48.4176C163.639 47.7692 165.425 48.0831 166.996 49.1237C168.577 50.1724 169.937 51.9625 170.761 54.2252L198.845 131.294C199.663 133.535 199.701 135.806 199.123 137.65C198.546 139.494 197.37 140.876 195.772 141.458Z" fill="#0F3DFB" stroke="#0D1C4C" stroke-width="1.36"/>
<path d="M174.627 135.06C177.421 135.06 179.685 132.138 179.685 128.533C179.685 124.929 177.421 122.007 174.627 122.007C171.834 122.007 169.568 124.929 169.568 128.533C169.568 132.138 171.834 135.06 174.627 135.06Z" fill="white" stroke="#0D1C4C" stroke-width="1.36" stroke-miterlimit="10" stroke-linecap="round"/>
<path d="M181.01 132.551C183.804 132.551 186.068 129.629 186.068 126.024C186.068 122.42 183.804 119.498 181.01 119.498C178.217 119.498 175.953 122.42 175.953 126.024C175.953 129.629 178.217 132.551 181.01 132.551Z" fill="#FF902F"/>
<path d="M174.627 135.06C177.421 135.06 179.685 132.138 179.685 128.533C179.685 124.929 177.421 122.007 174.627 122.007C171.834 122.007 169.568 124.929 169.568 128.533C169.568 132.138 171.834 135.06 174.627 135.06Z" stroke="#0D1C4C" stroke-width="1.36" stroke-miterlimit="10" stroke-linecap="round"/>
<path d="M151.768 148.443C153.497 153.189 157.46 156.143 161.536 154.657L196.002 142.097C199.681 140.758 201.212 135.799 199.482 131.06L171.398 53.9921C169.67 49.2464 165.642 46.3144 161.627 47.7785L127.164 60.3602C123.294 61.7693 121.951 66.6548 123.68 71.3968L151.768 148.443Z" stroke="#0D1C4C" stroke-width="1.36" stroke-miterlimit="10" stroke-linecap="round"/>
<path d="M149.836 77.989C150.402 79.5414 151.701 80.5089 153.032 80.0197L158.014 78.206C159.216 77.7682 159.717 76.1459 159.151 74.5933L156.163 66.3932C155.597 64.8408 154.279 63.8806 152.967 64.3588L147.989 66.1761C146.719 66.636 146.282 68.2363 146.848 69.7889L149.836 77.989Z" fill="#FF902F"/>
<path d="M156.03 66.0328C155.401 64.6974 154.19 63.9211 152.984 64.3589L148.006 66.1762C146.737 66.6361 146.3 68.2364 146.865 69.7888L148.304 73.7547L156.03 66.0328Z" fill="white"/>
<path d="M154.478 69.2954L156.89 68.3905" stroke="#0D1C4C" stroke-width="1.36" stroke-miterlimit="10" stroke-linecap="round"/>
<path d="M156.015 73.515L158.429 72.6062" stroke="#0D1C4C" stroke-width="1.36" stroke-miterlimit="10" stroke-linecap="round"/>
<path d="M147.591 71.8302L150.165 70.8662" stroke="#0D1C4C" stroke-width="1.36" stroke-miterlimit="10" stroke-linecap="round"/>
<path d="M149.129 76.0464L151.703 75.0861" stroke="#0D1C4C" stroke-width="1.36" stroke-miterlimit="10" stroke-linecap="round"/>
<path d="M151.481 74.9723C151.753 75.7081 152.374 76.1827 153.019 75.9509L155.406 75.0753C155.984 74.8657 156.226 74.0858 155.954 73.339L154.519 69.4026C154.247 68.6668 153.614 68.1959 152.985 68.4276L150.594 69.2995C149.987 69.5202 149.774 70.2892 150.046 71.0323L151.481 74.9723Z" stroke="#0D1C4C" stroke-width="1.36" stroke-miterlimit="10" stroke-linecap="round"/>
<path d="M113.012 241.054C112.277 240.787 112.277 240.349 113.012 240.079L120.344 237.408C121.218 237.14 122.152 237.14 123.026 237.408L124.266 237.861C125.002 238.13 125.002 238.567 124.266 238.836L116.934 241.507C116.06 241.775 115.126 241.775 114.252 241.507L113.012 241.054Z" fill="#0D1C4C"/>
<path d="M112.457 225.908V238.784C112.457 238.961 112.641 239.153 113.013 239.274L114.252 239.727C115.126 239.995 116.06 239.995 116.934 239.727L124.266 237.056C124.634 236.92 124.822 236.743 124.822 236.566V223.701L112.457 225.908Z" fill="white" stroke="#0D1C4C" stroke-width="1.36" stroke-miterlimit="10" stroke-linecap="round"/>
<path d="M113.011 226.394C112.275 226.126 112.275 225.688 113.011 225.42L120.343 222.749C121.217 222.48 122.151 222.48 123.025 222.749L124.265 223.202C125 223.47 125 223.908 124.265 224.176L116.932 226.847C116.059 227.116 115.124 227.116 114.251 226.847L113.011 226.394Z" fill="white" stroke="#0D1C4C" stroke-width="1.36" stroke-miterlimit="10" stroke-linecap="round"/>
<path d="M118.849 225.323C119.778 225.323 120.531 225.026 120.531 224.658C120.531 224.29 119.778 223.992 118.849 223.992C117.921 223.992 117.168 224.29 117.168 224.658C117.168 225.026 117.921 225.323 118.849 225.323Z" fill="#0D1C4C"/>
<path d="M241.334 272.289C235.815 272.289 230.261 271.519 226.045 269.985L221.756 268.426C221.345 268.274 221.012 267.966 220.828 267.569C220.645 267.172 220.624 266.719 220.774 266.309C220.923 265.898 221.229 265.562 221.624 265.376C222.02 265.189 222.472 265.166 222.884 265.313L227.178 266.877C234.853 269.669 247.816 269.669 255.505 266.877L300.02 250.69C308.977 247.43 314.116 243.111 314.116 238.843C314.116 234.576 308.966 230.26 300.02 227.002L224.779 199.613L163.062 222.076C160.323 223.062 157.361 223.263 154.513 222.657C151.665 222.05 149.043 220.66 146.942 218.643C143.609 215.413 138.532 211.208 133.29 209.486C130.527 208.578 128.114 208.854 126.12 210.3C122.264 213.092 120.506 219.699 120.506 224.648C120.506 225.086 120.331 225.507 120.021 225.817C119.711 226.129 119.289 226.303 118.85 226.303C118.411 226.303 117.99 226.129 117.68 225.817C117.369 225.507 117.195 225.086 117.195 224.648C117.195 218.684 119.354 211.098 124.185 207.607C127.047 205.532 130.556 205.091 134.331 206.33C140.173 208.246 145.669 212.783 149.253 216.263C150.904 217.845 152.963 218.937 155.2 219.413C157.436 219.89 159.761 219.735 161.914 218.963L224.764 196.088L301.112 223.878C311.608 227.697 317.387 233.009 317.387 238.833C317.387 244.656 311.608 249.968 301.112 253.791L256.598 269.978C252.414 271.527 246.871 272.289 241.334 272.289Z" fill="#0D1C4C"/>
<path d="M241.345 271.743C235.698 271.743 230.246 270.931 226.233 269.467C226.083 269.428 225.944 269.36 225.823 269.265C225.702 269.171 225.603 269.052 225.531 268.917C225.459 268.781 225.415 268.631 225.404 268.479C225.392 268.325 225.414 268.172 225.464 268.028C225.516 267.883 225.598 267.75 225.702 267.639C225.808 267.527 225.935 267.439 226.076 267.38C226.218 267.32 226.37 267.291 226.524 267.293C226.677 267.296 226.828 267.331 226.968 267.395C231.014 268.867 236.684 269.647 242.5 269.525C242.645 269.522 242.789 269.548 242.924 269.6C243.06 269.653 243.182 269.732 243.287 269.832C243.392 269.932 243.476 270.051 243.535 270.185C243.593 270.318 243.624 270.461 243.627 270.605C243.631 270.75 243.605 270.895 243.552 271.029C243.501 271.165 243.422 271.288 243.321 271.392C243.22 271.497 243.101 271.581 242.969 271.64C242.836 271.698 242.693 271.73 242.549 271.732L241.345 271.743Z" fill="#FF902F"/>
<path d="M157.786 222.451C153.887 222.454 150.139 220.947 147.326 218.246C147.126 218.04 147.015 217.764 147.015 217.477C147.015 217.191 147.126 216.916 147.325 216.709C147.525 216.504 147.797 216.383 148.084 216.373C148.369 216.365 148.648 216.467 148.86 216.66C150.588 218.317 152.742 219.459 155.081 219.957C157.42 220.456 159.853 220.291 162.105 219.482C162.38 219.381 162.683 219.395 162.949 219.519C163.214 219.643 163.419 219.867 163.52 220.142C163.619 220.418 163.606 220.721 163.482 220.986C163.358 221.251 163.134 221.457 162.859 221.556C161.232 222.146 159.516 222.45 157.786 222.451Z" fill="#FF902F"/>
<path d="M144.499 215.336C144.244 215.334 143.996 215.244 143.8 215.083C143.138 214.537 142.476 214.019 141.824 213.534C141.699 213.451 141.592 213.343 141.509 213.218C141.426 213.093 141.37 212.951 141.344 212.803C141.317 212.655 141.321 212.504 141.356 212.357C141.39 212.212 141.454 212.073 141.544 211.953C141.634 211.832 141.747 211.732 141.877 211.655C142.006 211.581 142.151 211.532 142.3 211.514C142.45 211.496 142.601 211.51 142.745 211.552C142.889 211.596 143.022 211.668 143.138 211.764C143.822 212.267 144.514 212.813 145.202 213.378C145.378 213.523 145.506 213.718 145.566 213.937C145.627 214.158 145.617 214.39 145.541 214.605C145.464 214.82 145.322 215.005 145.136 215.136C144.95 215.266 144.726 215.337 144.499 215.336Z" fill="#FF902F"/>
<path d="M288.552 115.396C290.904 108.947 289.079 102.303 283.822 100.387L246.938 86.9405C241.485 84.9539 236.011 88.9345 233.66 95.3835L205.032 173.938L233.032 219.504L185.876 236.666C181.624 238.215 181.624 240.75 185.876 242.298L225.299 256.646C229.551 258.195 236.512 258.195 240.767 256.646L275.129 244.138C282.166 241.562 284.694 234.264 280.791 227.881L265.987 203.814C262.654 198.388 261.709 189.054 263.886 183.073L288.552 115.396Z" fill="#EBEBEB" stroke="#0D1C4C" stroke-width="1.36" stroke-miterlimit="10" stroke-linecap="round"/>
<path d="M256.242 196.912L226.354 186.376L218.997 192.126L233.039 219.504L197.136 232.571L249.376 251.591C254.35 249.575 261.369 246.757 271.755 242.824C275.894 241.258 280.127 239.145 280.127 234.15C280.127 230.232 279.212 230.273 264.335 205.859C262.715 203.178 259.912 198.207 256.242 196.912Z" fill="#0D1C4C"/>
<path d="M224.982 255.442C227.498 256.144 230.096 256.515 232.707 256.546C239.719 256.546 239.131 255.178 271.777 242.817C275.916 241.249 280.149 239.138 280.149 234.142C280.149 230.224 279.234 230.264 264.357 205.851C262.726 203.169 259.943 198.2 256.264 196.905L226.376 186.369" stroke="#0D1C4C" stroke-width="1.36" stroke-miterlimit="10" stroke-linecap="round"/>
<path d="M242.651 228.02C240.304 234.469 234.927 238.483 229.375 236.482L182.518 219.394C176.833 217.323 175.435 210.833 177.786 204.383L228.036 66.5482C230.387 60.0991 235.861 56.115 241.316 58.0868L288.158 75.1604C293.416 77.077 295.241 83.721 292.89 90.17L242.651 228.02Z" fill="#0F3DFB" stroke="#0D1C4C" stroke-width="1.36" stroke-miterlimit="10" stroke-linecap="round"/>
<path d="M293.669 81.7747C293.669 81.7747 292.812 78.8317 291.712 77.7059L286.792 75.8665L287.304 79.5159L293.669 81.7747Z" fill="#0D1C4C"/>
<path d="M292.882 90.1844C293.326 88.9735 293.629 87.7158 293.784 86.4357L288.439 84.5448L233.351 232.575L238.624 234.301C240.45 232.557 241.837 230.404 242.67 228.02L292.882 90.1844Z" fill="#0D1C4C"/>
<path d="M238.623 234.301C240.45 232.557 241.837 230.404 242.669 228.02L253.045 199.561" stroke="#FF902F" stroke-width="1.36" stroke-miterlimit="10" stroke-linecap="round"/>
<path d="M237.982 226.32C235.632 232.769 230.258 236.783 224.706 234.782L177.859 217.713C172.863 215.892 170.781 209.152 173.132 202.702L223.351 64.8485C225.703 58.3994 231.177 54.4152 236.629 56.3871L283.472 73.4605C288.732 75.3773 290.553 82.0213 288.203 88.4703L237.982 226.32Z" fill="#0F3DFB" stroke="#0D1C4C" stroke-width="1.36" stroke-miterlimit="10" stroke-linecap="round"/>
<path d="M282.252 117.086C282.473 116.479 282.161 115.808 281.553 115.587C280.946 115.365 280.274 115.678 280.054 116.285L275.207 129.586C274.985 130.193 275.298 130.865 275.906 131.086C276.513 131.307 277.184 130.994 277.406 130.387L282.252 117.086Z" fill="#0F3DFB" stroke="#0D1C4C" stroke-width="1.36" stroke-miterlimit="10" stroke-linecap="round"/>
<path d="M282.581 75.4912L278.902 74.152C278.427 74.0072 277.921 73.9925 277.439 74.1096C276.956 74.2268 276.514 74.4714 276.158 74.818L274.487 76.6279C273.892 77.2074 273.149 77.6157 272.341 77.8099C271.534 78.0041 270.688 77.977 269.892 77.7317L243.806 68.2328C243.052 67.9186 242.406 67.3907 241.949 66.7141C241.491 66.0375 241.242 65.2419 241.23 64.4252L241.301 62.1664C241.295 61.6785 241.146 61.2032 240.872 60.7992C240.599 60.395 240.213 60.08 239.763 59.8928L236.058 58.5391C231.566 56.9056 227.063 60.1835 225.129 65.4921L174.893 203.328C172.958 208.636 174.673 214.181 178.786 215.681L225.293 232.626C229.852 234.288 234.284 230.985 236.22 225.677L286.455 87.8411C288.389 82.5325 286.889 77.0657 282.581 75.4912Z" fill="white"/>
<path d="M178.787 215.681L225.295 232.626C229.852 234.288 234.286 230.985 236.221 225.677L239.238 217.402L286.455 87.8411C288.391 82.5325 286.889 77.0657 282.563 75.4912L278.884 74.152C278.41 74.007 277.904 73.9925 277.421 74.1096C276.938 74.2267 276.496 74.4713 276.14 74.8179L274.487 76.6279C273.892 77.2074 273.15 77.6157 272.341 77.8099C271.533 78.0039 270.688 77.977 269.893 77.7315L246.127 69.0716L243.814 68.2254C243.06 67.9111 242.414 67.3832 241.958 66.7067C241.499 66.0301 241.249 65.2345 241.238 64.4178L241.309 62.159C241.302 61.6712 241.154 61.1958 240.88 60.7916C240.607 60.3876 240.221 60.0725 239.771 59.8855L236.066 58.5316C231.574 56.8982 227.071 60.1761 225.136 65.4846" stroke="#0D1C4C" stroke-width="1.36" stroke-miterlimit="10" stroke-linecap="round"/>
<path d="M251.639 171.583C249.688 176.925 245.226 180.25 240.635 178.573L201.819 164.435C197.678 162.927 195.933 157.342 197.902 151.997L216.2 101.784C218.146 96.4425 222.683 93.1426 227.204 94.7943L266.027 108.921C270.382 110.51 271.895 116.014 269.944 121.356L251.639 171.583Z" fill="#FF902F"/>
<path d="M261.612 70.2707C261.564 70.4067 261.491 70.5315 261.393 70.6373C261.295 70.7431 261.177 70.8275 261.046 70.8856C260.914 70.9437 260.771 70.9739 260.628 70.9744C260.484 70.975 260.342 70.9458 260.21 70.8889L253.978 68.619C253.707 68.5261 253.483 68.3295 253.358 68.0722C253.231 67.8149 253.212 67.518 253.305 67.2468L253.323 67.1952C253.37 67.0596 253.445 66.9353 253.543 66.8298C253.641 66.7243 253.758 66.64 253.89 66.582C254.022 66.5241 254.163 66.4938 254.307 66.4929C254.45 66.4921 254.593 66.5208 254.725 66.5773L260.954 68.8508C261.09 68.8942 261.215 68.9646 261.323 69.0579C261.431 69.1511 261.519 69.265 261.583 69.3931C261.646 69.5212 261.682 69.6607 261.691 69.8033C261.699 69.9458 261.678 70.0885 261.629 70.223L261.612 70.2707Z" stroke="#0D1C4C" stroke-width="1.36" stroke-miterlimit="10" stroke-linecap="round"/>
<path d="M265.629 71.7484C265.9 71.0229 265.632 70.2538 265.032 70.0308C264.432 69.8077 263.727 70.215 263.457 70.9406C263.188 71.6662 263.455 72.4351 264.054 72.6583C264.654 72.8813 265.36 72.474 265.629 71.7484Z" stroke="#0D1C4C" stroke-width="1.36" stroke-miterlimit="10" stroke-linecap="round"/>
<path d="M226.227 204.689C225.088 207.816 222.361 209.717 219.491 208.673L195.211 199.844C192.635 198.898 191.481 195.584 192.635 192.456C193.777 189.329 196.547 187.442 199.372 188.473L223.634 197.302C226.361 198.292 227.369 201.559 226.227 204.685V204.689Z" fill="#0D1C4C"/>
<path d="M185.569 208.838C186.269 206.921 185.535 204.892 183.93 204.306C182.325 203.72 180.456 204.798 179.756 206.713C179.057 208.629 179.79 210.659 181.395 211.245C183 211.831 184.868 210.754 185.569 208.838Z" fill="#EBEBEB"/>
<path d="M196.668 212.881C197.369 210.964 196.634 208.935 195.029 208.349C193.425 207.763 191.556 208.841 190.856 210.756C190.156 212.673 190.89 214.702 192.494 215.288C194.099 215.874 195.968 214.797 196.668 212.881Z" fill="#EBEBEB"/>
<path d="M207.773 216.922C208.473 215.005 207.74 212.978 206.135 212.39C204.531 211.804 202.662 212.882 201.962 214.799C201.261 216.714 201.996 218.743 203.6 219.329C205.205 219.915 207.074 218.838 207.773 216.922Z" fill="#EBEBEB"/>
<path d="M218.877 220.961C219.576 219.046 218.843 217.017 217.238 216.43C215.633 215.844 213.765 216.921 213.064 218.838C212.364 220.754 213.098 222.783 214.703 223.369C216.308 223.955 218.176 222.877 218.877 220.961Z" fill="#EBEBEB"/>
<path d="M229.98 225.003C230.68 223.086 229.946 221.057 228.341 220.471C226.736 219.885 224.867 220.962 224.167 222.878C223.468 224.795 224.201 226.824 225.806 227.41C227.411 227.996 229.279 226.919 229.98 225.003Z" fill="#EBEBEB"/>
<path d="M205.833 150.431L203.878 149.724L201.551 156.156L203.506 156.863L205.833 150.431Z" fill="#0D1C4C"/>
<path d="M209.835 151.006L207.882 150.295L206.76 153.375L208.713 154.086L209.835 151.006Z" fill="#0D1C4C"/>
<path d="M216.977 143.554L215.024 142.842L210.669 154.795L212.622 155.507L216.977 143.554Z" fill="#0D1C4C"/>
<path d="M221.913 142.161L219.96 141.449L217.732 147.564L219.685 148.275L221.913 142.161Z" fill="#0D1C4C"/>
<path d="M223.853 148.993L221.9 148.282L219.429 155.064L221.382 155.775L223.853 148.993Z" fill="#0D1C4C"/>
<path d="M229.521 145.575L227.568 144.863L223.214 156.816L225.167 157.527L229.521 145.575Z" fill="#0D1C4C"/>
<path d="M238.293 133.657L236.34 132.946L229.331 152.185L231.284 152.896L238.293 133.657Z" fill="#0D1C4C"/>
<path d="M238.517 145.71L236.562 145.003L234.265 151.355L236.218 152.062L238.517 145.71Z" fill="#0D1C4C"/>
<path d="M242.993 145.053L241.041 144.342L236.686 156.294L238.639 157.006L242.993 145.053Z" fill="#0D1C4C"/>
<path d="M254.105 126.704L252.152 125.992L245.018 145.57L246.971 146.282L254.105 126.704Z" fill="#0D1C4C"/>
<path d="M251.482 146.068L249.529 145.357L247.411 151.167L249.364 151.879L251.482 146.068Z" fill="#0D1C4C"/>
<path d="M256.501 144.914L254.548 144.207L249.318 158.666L251.272 159.373L256.501 144.914Z" fill="#0D1C4C"/>
<path d="M222.319 268.525C222.127 268.524 221.937 268.491 221.756 268.426L219.041 267.436C216.197 266.402 214.92 264.89 213.798 263.554C212.769 262.329 211.878 261.273 209.653 260.464L201.614 257.521C200.068 256.961 198.649 256.099 197.442 254.983C196.233 253.868 195.259 252.523 194.578 251.027C193.895 249.531 193.518 247.914 193.469 246.27C193.42 244.627 193.699 242.99 194.289 241.456L197.601 232.939C197.759 232.529 198.073 232.199 198.475 232.021C198.876 231.843 199.332 231.832 199.741 231.99C200.152 232.148 200.481 232.462 200.659 232.863C200.838 233.266 200.848 233.721 200.691 234.131L197.406 242.647C196.971 243.77 196.766 244.97 196.801 246.173C196.835 247.378 197.11 248.563 197.609 249.659C198.108 250.757 198.821 251.741 199.706 252.559C200.59 253.376 201.629 254.01 202.762 254.419L210.801 257.362C213.854 258.466 215.179 260.044 216.344 261.431C217.367 262.646 218.184 263.606 220.189 264.338L222.901 265.324C223.267 265.457 223.574 265.714 223.769 266.051C223.964 266.388 224.034 266.784 223.966 267.168C223.898 267.551 223.698 267.898 223.399 268.148C223.101 268.399 222.723 268.536 222.334 268.536L222.319 268.525Z" fill="#0D1C4C"/>
<path d="M195.905 224.241L207.287 228.4L203.736 238.12C203.509 238.742 203.043 239.25 202.442 239.53C201.839 239.809 201.151 239.839 200.528 239.61L193.845 237.169C193.222 236.942 192.715 236.475 192.435 235.874C192.156 235.272 192.126 234.584 192.355 233.961L195.905 224.241Z" fill="white" stroke="#0D1C4C" stroke-width="1.36" stroke-miterlimit="10" stroke-linecap="round"/>
<path d="M205.458 227.729L201.235 238.649" stroke="#0D1C4C" stroke-width="1.36" stroke-miterlimit="10" stroke-linecap="round"/>
<path d="M62.0338 205.355C61.6054 205.355 61.1934 205.19 60.8847 204.892C60.576 204.596 60.3944 204.19 60.3782 203.762C60.3782 203.306 60.0802 192.508 69.6343 188.822C70.044 188.665 70.4999 188.675 70.9014 188.854C71.303 189.032 71.6173 189.361 71.7753 189.772C71.9335 190.181 71.9222 190.637 71.7442 191.038C71.5663 191.44 71.2361 191.755 70.8262 191.912C67.7875 193.086 65.6758 195.371 64.5243 198.704C63.9805 200.295 63.6984 201.965 63.6893 203.648C63.7022 204.086 63.541 204.511 63.2412 204.831C62.9414 205.152 62.527 205.34 62.089 205.355H62.0338Z" fill="#0D1C4C"/>
<path d="M71.7268 192.531C72.6617 192.232 73.0648 190.878 72.6273 189.509C72.1896 188.138 71.077 187.269 70.1422 187.568C69.2074 187.866 68.8043 189.219 69.2418 190.59C69.6795 191.96 70.7921 192.829 71.7268 192.531Z" fill="#0D1C4C"/>
<path d="M65.7765 194.447C65.5649 194.443 65.3587 194.379 65.1825 194.262C65.0062 194.145 64.8674 193.981 64.7824 193.786C64.6975 193.592 64.6702 193.378 64.7035 193.169C64.7369 192.961 64.8297 192.765 64.9709 192.607C66.322 191.166 67.9857 190.052 69.8344 189.351C69.9695 189.3 70.1138 189.275 70.2587 189.278C70.4037 189.282 70.5465 189.313 70.6791 189.373C70.8117 189.432 70.9313 189.516 71.0313 189.621C71.1313 189.725 71.2095 189.849 71.2617 189.985C71.3139 190.12 71.3389 190.264 71.3354 190.41C71.3317 190.554 71.2998 190.697 71.2409 190.83C71.1821 190.962 71.0979 191.081 70.9929 191.182C70.8878 191.281 70.7642 191.36 70.6289 191.412C69.0925 191.993 67.7085 192.916 66.5822 194.113C66.4777 194.22 66.3524 194.305 66.2139 194.363C66.0753 194.42 65.9265 194.449 65.7765 194.447Z" fill="#FF902F"/>
<path d="M62.0309 206.006C63.6382 206.006 64.9409 205.491 64.9409 204.854C64.9409 204.219 63.6382 203.703 62.0309 203.703C60.4238 203.703 59.1211 204.219 59.1211 204.854C59.1211 205.491 60.4238 206.006 62.0309 206.006Z" fill="#0D1C4C"/>
<path d="M45.4931 223.701C40.1882 221.774 40.1882 218.613 45.4931 216.682L59.2741 211.678C64.5789 209.747 73.2537 209.747 78.566 211.678C83.8783 213.609 83.871 216.77 78.566 218.701L64.7923 223.701C59.4802 225.647 50.8128 225.647 45.4931 223.701Z" fill="#0D1C4C"/>
<path d="M76.5356 214.136C71.9666 212.474 64.4947 212.474 59.9257 214.136L47.6677 218.595C44.261 219.834 43.3965 221.538 45.0704 223.083C45.5082 223.314 46.174 223.873 46.7333 224.061C51.3502 225.532 59.933 225.511 64.8516 223.72L77.6282 219.07C78.3456 218.818 79.0328 218.489 79.6774 218.086C80.5162 216.711 79.4676 215.199 76.5356 214.136Z" fill="#EBEBEB"/>
<path d="M45.4931 223.701C40.1882 221.774 40.1882 218.613 45.4931 216.682L59.2741 211.678C64.5789 209.747 73.2537 209.747 78.566 211.678C83.8783 213.609 83.871 216.77 78.566 218.701L64.7923 223.701C59.4802 225.647 50.8128 225.647 45.4931 223.701Z" stroke="#0D1C4C" stroke-width="1.36" stroke-miterlimit="10" stroke-linecap="round"/>
<path d="M80.6116 212.635C78.224 211.193 73.883 210.226 68.9202 210.226C63.9575 210.226 59.6127 211.193 57.2251 212.635H55.2827V216.314C55.2827 219.055 61.3858 221.277 68.9202 221.277C76.4545 221.277 82.554 217.914 82.554 215.173V212.621L80.6116 212.635Z" fill="white"/>
<path d="M68.9128 210.226V221.291C69.9058 221.291 70.8979 221.237 71.8854 221.133L78.8494 218.598C80.3983 218.036 82.5283 216.681 82.5283 215.188V212.635H80.6116C78.2167 211.193 73.8756 210.226 68.9128 210.226Z" fill="#0D1C4C"/>
<path d="M67.6404 217.575V221.133" stroke="#0D1C4C" stroke-width="1.36" stroke-miterlimit="10" stroke-linecap="round"/>
<path d="M80.6116 212.635C78.224 211.193 73.883 210.226 68.9203 210.226C63.9575 210.226 59.6127 211.193 57.2251 212.635H55.2827V216.314C55.2827 219.055 61.3859 221.277 68.9203 221.277C69.3837 221.277 70.9767 221.21 71.8927 221.118L78.8568 218.584C81.3511 217.48 82.5356 216.476 82.5356 215.173V212.621L80.6116 212.635Z" stroke="#0D1C4C" stroke-width="1.36" stroke-miterlimit="10" stroke-linecap="round"/>
<path d="M68.9135 217.598C76.4453 217.598 82.5511 215.376 82.5511 212.636C82.5511 209.894 76.4453 207.672 68.9135 207.672C61.3818 207.672 55.2761 209.894 55.2761 212.636C55.2761 215.376 61.3818 217.598 68.9135 217.598Z" fill="white" stroke="#0D1C4C" stroke-width="1.36" stroke-miterlimit="10" stroke-linecap="round"/>
<path d="M77.2051 241.371C80.0943 241.371 82.4365 240.445 82.4365 239.303C82.4365 238.161 80.0943 237.235 77.2051 237.235C74.3159 237.235 71.9739 238.161 71.9739 239.303C71.9739 240.445 74.3159 241.371 77.2051 241.371Z" fill="white" stroke="#0D1C4C" stroke-width="1.36" stroke-miterlimit="10" stroke-linecap="round"/>
<path d="M80.2431 239.303H74.1545V236.651C74.1566 235.855 74.4735 235.093 75.036 234.53C75.5986 233.967 76.361 233.651 77.1566 233.649C77.9772 233.652 78.7634 233.98 79.3436 234.559C79.9239 235.14 80.2513 235.926 80.2541 236.746L80.2431 239.303Z" fill="#FF902F"/>
<path d="M77.2041 240.51C78.8905 240.51 80.2576 239.969 80.2576 239.303C80.2576 238.636 78.8905 238.096 77.2041 238.096C75.5177 238.096 74.1506 238.636 74.1506 239.303C74.1506 239.969 75.5177 240.51 77.2041 240.51Z" fill="#FF902F"/>
<path d="M78.5444 237.876C79.0646 237.876 79.4862 237.454 79.4862 236.933C79.4862 236.414 79.0646 235.992 78.5444 235.992C78.0244 235.992 77.6028 236.414 77.6028 236.933C77.6028 237.454 78.0244 237.876 78.5444 237.876Z" fill="white"/>
<path d="M137.907 183.161C137.128 183.489 136.458 184.03 135.974 184.722C135.489 185.416 135.211 186.23 135.17 187.075V196.478C135.17 198.083 136.402 198.946 137.907 198.398L145.684 195.565C146.464 195.239 147.135 194.699 147.62 194.007C148.105 193.315 148.384 192.5 148.425 191.655V182.248C148.425 180.645 147.193 179.784 145.684 180.332L137.907 183.161Z" fill="#0D1C4C"/>
<path d="M142.192 192.361V193.293L141.316 193.63V192.722C141.143 192.776 140.961 192.783 140.784 192.745C140.609 192.707 140.446 192.622 140.313 192.501C140.035 192.175 139.894 191.755 139.914 191.328L140.889 190.96C140.926 191.276 141.007 191.474 141.139 191.559C141.236 191.6 141.339 191.619 141.443 191.613C141.546 191.608 141.648 191.579 141.739 191.53C141.961 191.461 142.154 191.321 142.287 191.13C142.421 190.94 142.487 190.71 142.475 190.478C142.486 190.393 142.478 190.308 142.453 190.226C142.429 190.144 142.387 190.068 142.332 190.003C142.264 189.958 142.187 189.928 142.106 189.916C142.025 189.905 141.943 189.91 141.864 189.934L141.445 190.003C141.269 190.056 141.082 190.068 140.9 190.041C140.716 190.014 140.542 189.947 140.389 189.845C140.259 189.709 140.162 189.546 140.102 189.368C140.042 189.19 140.023 189.002 140.043 188.814C140.039 188.348 140.156 187.887 140.386 187.48C140.605 187.08 140.925 186.746 141.312 186.508V185.724L142.188 185.386V186.177C142.343 186.145 142.505 186.153 142.657 186.198C142.809 186.244 142.948 186.326 143.06 186.438C143.303 186.734 143.434 187.105 143.428 187.487L142.416 187.877C142.421 187.778 142.406 187.679 142.37 187.586C142.335 187.492 142.282 187.408 142.214 187.336C142.136 187.292 142.048 187.269 141.958 187.269C141.868 187.269 141.781 187.292 141.702 187.336C141.507 187.405 141.338 187.533 141.221 187.705C141.105 187.888 141.046 188.102 141.051 188.318C141.041 188.398 141.05 188.478 141.078 188.555C141.105 188.631 141.15 188.697 141.21 188.752C141.373 188.835 141.562 188.854 141.739 188.803L142.221 188.727C142.385 188.68 142.557 188.673 142.724 188.707C142.89 188.741 143.046 188.814 143.178 188.922C143.298 189.065 143.387 189.23 143.442 189.41C143.496 189.588 143.514 189.777 143.494 189.962C143.504 190.452 143.385 190.933 143.148 191.36C142.922 191.772 142.592 192.116 142.192 192.361Z" fill="white"/>
<path d="M164.393 173.523C163.613 173.849 162.942 174.39 162.456 175.084C161.972 175.776 161.693 176.592 161.652 177.437V186.847C161.652 188.451 162.885 189.315 164.393 188.767L172.167 185.935C172.946 185.609 173.616 185.068 174.102 184.375C174.587 183.683 174.866 182.869 174.907 182.024V172.61C174.907 171.005 173.675 170.144 172.167 170.694L164.393 173.523Z" fill="#0D1C4C"/>
<path d="M164.576 180.585V179.189C164.561 178.783 164.662 178.382 164.867 178.033C165.07 177.72 165.369 177.48 165.72 177.353C166.114 177.202 166.401 177.204 166.585 177.353C166.692 177.482 166.773 177.633 166.82 177.795C166.868 177.956 166.881 178.126 166.861 178.294V179.696C166.876 180.116 166.781 180.534 166.585 180.906C166.388 181.234 166.082 181.483 165.72 181.608C165.327 181.763 165.036 181.752 164.852 181.575C164.636 181.294 164.537 180.939 164.576 180.585ZM165.985 179.994V178.768C165.995 178.601 165.98 178.434 165.937 178.272C165.908 178.19 165.834 178.173 165.72 178.216C165.67 178.235 165.623 178.265 165.584 178.305C165.546 178.343 165.517 178.39 165.5 178.441C165.46 178.616 165.444 178.795 165.452 178.975V180.199C165.442 180.362 165.457 180.527 165.495 180.685C165.528 180.766 165.603 180.781 165.72 180.736C165.772 180.721 165.819 180.694 165.857 180.657C165.895 180.621 165.924 180.574 165.94 180.523C165.978 180.349 165.993 180.172 165.985 179.994ZM170.13 175.657L166.853 183.787L166.018 184.11L169.289 175.98L170.13 175.657ZM169.274 181.435V180.034C169.259 179.629 169.359 179.228 169.565 178.878C169.767 178.564 170.066 178.325 170.417 178.198C170.812 178.048 171.099 178.052 171.282 178.198C171.391 178.328 171.471 178.479 171.519 178.64C171.567 178.802 171.58 178.972 171.558 179.14V180.542C171.575 180.962 171.479 181.379 171.282 181.752C171.085 182.08 170.779 182.329 170.417 182.455C170.024 182.605 169.733 182.594 169.55 182.421C169.335 182.141 169.235 181.787 169.274 181.435ZM170.682 180.844V179.618C170.693 179.451 170.677 179.284 170.635 179.122C170.605 179.04 170.532 179.023 170.417 179.066C170.367 179.085 170.321 179.115 170.283 179.155C170.245 179.193 170.215 179.239 170.197 179.291C170.158 179.466 170.141 179.645 170.149 179.824V181.049C170.141 181.212 170.156 181.375 170.193 181.535C170.227 181.616 170.3 181.631 170.417 181.586C170.469 181.571 170.517 181.544 170.555 181.507C170.593 181.471 170.623 181.424 170.639 181.373C170.678 181.2 170.695 181.022 170.691 180.844H170.682Z" fill="white"/>
</g>
</g>
<defs>
<clipPath id="clip0_1_4658">
<rect width="320.96" height="272" fill="white" transform="translate(3 27)"/>
</clipPath>
</defs>
</svg>
