<svg width="326" height="326" viewBox="0 0 326 326" fill="none" xmlns="http://www.w3.org/2000/svg">
<g clip-path="url(#clip0_1_4859)">
<g clip-path="url(#clip1_1_4859)">
<path d="M246.699 225.151C269.893 190.982 241.754 131.416 183.846 92.1072C125.94 52.7976 60.1933 48.6305 36.9984 82.7992C13.8035 116.968 41.9432 176.533 99.85 215.843C157.757 255.152 223.504 259.319 246.699 225.151Z" fill="#0D1C4C" stroke="#0D1C4C" stroke-width="0.195116" stroke-linecap="round" stroke-linejoin="round"/>
<path d="M48.3423 119.356L49.0089 118.785L48.4378 118.118L47.7712 118.689L48.3423 119.356Z" fill="white"/>
<path d="M36.698 114.353L37.5558 113.618L36.8208 112.759L35.9629 113.494L36.698 114.353Z" fill="white"/>
<path d="M71.5938 130.216L72.4517 129.481L71.7168 128.623L70.8589 129.358L71.5938 130.216Z" fill="white"/>
<path d="M74.7645 132.53L75.6223 131.795L74.8874 130.937L74.0295 131.672L74.7645 132.53Z" fill="white"/>
<path d="M49.0251 141.683L49.5752 141.812L49.7037 141.261L49.1537 141.133L49.0251 141.683Z" fill="white"/>
<path d="M81.9641 127.059L82.3621 127.152L82.4545 126.754L82.0571 126.661L81.9641 127.059Z" fill="white"/>
<path d="M32.4138 119.916L33.1542 119.914L33.1523 119.174L32.4119 119.176L32.4138 119.916Z" fill="white"/>
<path d="M56.6884 152.726L57.355 152.155L56.7838 151.488L56.1172 152.059L56.6884 152.726Z" fill="white"/>
<path d="M93.4515 141.172L94.3094 140.437L93.5744 139.58L92.7166 140.315L93.4515 141.172Z" fill="white"/>
<path d="M65.054 125.897L65.7941 125.896L65.7921 125.155L65.052 125.157L65.054 125.897Z" fill="white"/>
<path d="M82.9373 133.249L83.6774 133.247L83.6754 132.507L82.9353 132.509L82.9373 133.249Z" fill="white"/>
<path d="M56.1091 136.717L56.8495 136.715L56.8476 135.975L56.1072 135.977L56.1091 136.717Z" fill="white"/>
<path d="M45.8457 137.259L46.586 137.257L46.5842 136.516L45.8438 136.518L45.8457 137.259Z" fill="white"/>
<path d="M51.9417 129.73L52.6821 129.728L52.6801 128.988L51.9397 128.99L51.9417 129.73Z" fill="white"/>
<path d="M198.409 145.011L199.076 144.439L198.505 143.773L197.838 144.344L198.409 145.011Z" fill="white"/>
<path d="M200.992 148.22L201.849 147.485L201.114 146.627L200.257 147.362L200.992 148.22Z" fill="white"/>
<path d="M221.554 157.541L222.412 156.806L221.677 155.948L220.819 156.683L221.554 157.541Z" fill="white"/>
<path d="M231.061 150.838L231.611 150.967L231.739 150.417L231.19 150.289L231.061 150.838Z" fill="white"/>
<path d="M215.401 140.061L216.141 140.059L216.139 139.319L215.399 139.321L215.401 140.061Z" fill="white"/>
<path d="M238.248 159.483L238.989 159.481L238.987 158.74L238.246 158.742L238.248 159.483Z" fill="white"/>
<path d="M209.652 144.684L210.393 144.682L210.391 143.941L209.65 143.943L209.652 144.684Z" fill="white"/>
<path d="M207.777 146.835L208.518 146.833L208.516 146.093L207.775 146.095L207.777 146.835Z" fill="white"/>
<path d="M57.1201 107.623L57.8605 107.621L57.8586 106.881L57.1182 106.883L57.1201 107.623Z" fill="white"/>
<path d="M38.8989 134.569C36.8457 134.504 34.9603 135.271 33.5635 136.565C35.3114 142.072 39.0554 149.575 39.0554 149.575C42.9177 149.376 46.0472 146.247 46.1693 142.313C46.299 138.168 43.0436 134.698 38.8989 134.573V134.569Z" fill="#0F3DFB" stroke="#0D1C4C" stroke-width="0.195116" stroke-linecap="round" stroke-linejoin="round"/>
<path d="M154.914 196.708C203.604 196.708 243.076 157.236 243.076 108.546C243.076 59.8558 203.604 20.3845 154.914 20.3845C106.224 20.3845 66.7522 59.8558 66.7522 108.546C66.7522 157.236 106.224 196.708 154.914 196.708Z" fill="#0F3DFB"/>
<path d="M219.917 54.8157C234.142 81.1811 225.045 120.625 196.02 149.652C182.318 163.353 166.287 172.618 150.409 177.086C143.15 179.123 135.93 180.161 128.972 180.161C118.915 180.161 109.411 177.993 101.184 173.557C115.77 185.628 134.492 192.879 154.907 192.879C201.486 192.879 239.239 155.118 239.239 108.546C239.239 88.132 231.981 69.4093 219.917 54.8233V54.8157Z" fill="#0D1C4C"/>
<path d="M152.631 185.298C152.17 184.644 151.155 183.937 150.379 183.714L137.945 180.238L137.522 178.439C137.338 177.655 136.638 176.655 135.977 176.209L122.167 166.998L117.408 165.329C116.655 165.06 115.586 164.368 115.04 163.776L114.21 162.885C113.664 162.292 112.572 161.908 111.772 162.016L111.173 162.1C110.38 162.215 109.281 162.784 108.743 163.376C108.197 163.961 107.205 164.092 106.528 163.668L101.738 160.639C101.062 160.208 100.323 159.24 100.093 158.471L98.5628 153.419L94.6182 147.991L96.7788 142.132C96.9863 141.563 96.7326 140.847 96.2175 140.54L94.7951 139.679C94.3567 139.417 93.8338 139.356 93.3493 139.502L89.4437 141.478C89.8125 142.278 87.9517 138.387 87.9517 138.387L87.7137 131.905L87.6441 130.083C87.6213 129.437 87.9212 128.476 88.3055 127.953L89.205 126.746C89.5894 126.223 90.4278 125.9 91.0658 126.023L94.1876 126.631C94.8257 126.754 95.5944 127.33 95.8943 127.907L99.1696 134.166C99.4701 134.743 100.169 134.935 100.723 134.597L100.877 134.496C101.43 134.158 101.884 133.343 101.884 132.697V129.414C101.884 128.768 102.345 127.976 102.915 127.669L107.643 125.093L111.096 118.296L113.818 117.596C114.448 117.435 115.317 116.912 115.755 116.427L117.001 115.059C117.439 114.574 118.285 114.382 118.884 114.628L120.584 115.32L125.858 113.906C126.489 113.737 126.719 113.144 126.381 112.591L123.644 108.1C123.306 107.547 122.498 107.039 121.853 106.978L119.431 106.747L119.907 106.132C120.307 105.624 121.161 105.278 121.806 105.379L128.173 106.332C128.819 106.432 129.664 106.086 130.049 105.563L132.217 102.687C132.609 102.172 132.632 101.303 132.279 100.758L129.249 96.1976C128.888 95.6598 128.542 94.6829 128.48 94.037L128.111 90.3695C128.042 89.7237 127.581 88.8626 127.073 88.4548L121.568 84.0416C121.06 83.634 120.437 83.7955 120.191 84.3952L115.993 94.4292C115.801 94.8982 115.309 95.529 114.909 95.8367L111.972 98.1046C111.573 98.4122 111.249 98.2509 111.249 97.7508L111.288 92.9685C111.288 92.4612 111.042 91.723 110.726 91.323L105.936 85.1794C105.629 84.7797 105.636 84.1415 105.967 83.7571L108.228 81.0967C108.558 80.7122 109.219 80.297 109.712 80.1663L118.131 78.0288C119.53 77.6751 121.199 76.3295 121.837 75.0378L123.029 72.6388C123.167 72.362 123.029 72.139 122.721 72.1467L119.761 72.2236C119.453 72.2236 119.223 71.9853 119.246 71.6777L119.638 66.7952C119.684 66.257 119.292 65.9264 118.769 66.0648C118.469 66.1417 118.1 66.4261 117.954 66.6953L116.224 69.8785C116.078 70.1476 115.755 70.2168 115.509 70.0323L109.712 65.6342C109.465 65.4496 109.396 65.0805 109.55 64.8115L110.404 63.389L109.119 57.9836C109.05 57.6838 108.75 57.3608 108.451 57.2686L106.259 56.5766C105.775 56.4228 105.482 55.8999 105.606 55.4078L107.835 46.3656C107.958 45.8735 107.728 45.22 107.328 44.9201L106.375 44.1896C105.975 43.8821 105.329 43.8975 104.937 44.2204L100.354 48.0341C99.9618 48.3571 99.262 48.7723 98.793 48.9645L95.3642 50.3331L89.0359 56.046C88.6593 56.3843 88.2672 57.0687 88.1592 57.5608L87.9823 58.3758C87.875 58.8679 88.1514 59.0755 88.5976 58.8371L93.3877 56.2459C93.8338 56.0076 94.1109 56.2152 94.0029 56.7073L92.1806 65.2036L85.4373 77.5059L84.2764 85.8792L76.5186 99.8652L77.2561 122.294C77.2795 122.94 77.5488 123.939 77.8564 124.516L79.0557 126.739V122.14C79.0479 121.033 79.7172 120.741 80.5321 121.487L81.2241 128.346L82.039 136.457L86.7368 144.269C87.1908 145.023 88.2438 145.822 89.0899 146.061C90.1663 146.361 91.458 147.422 91.9731 148.413L96.5173 157.271C96.9173 158.048 97.7784 159.155 98.4392 159.739L106.29 166.629C106.951 167.206 107.366 168.382 107.22 169.243L106.436 173.864C106.29 174.725 106.69 175.925 107.328 176.524L114.54 183.368L126.773 190.834L133.086 192.964L134.585 194.324C136.923 194.878 139.291 195.34 141.69 195.701L142.751 193.409L148.671 192.479L153.154 188.473C153.754 187.935 153.861 186.966 153.392 186.313L152.662 185.29L152.631 185.298Z" fill="#FF902F" stroke="#FF902F" stroke-width="0.0650388" stroke-miterlimit="10" stroke-linecap="round" stroke-linejoin="round"/>
<path d="M231.136 143.5L225.222 130.375L224.984 129.837C224.438 128.614 222.924 127.876 221.617 128.191L216.188 129.499C215.481 129.668 214.942 129.214 214.988 128.483L215.373 122.993L212.582 116.935C212.29 116.304 211.506 115.674 210.829 115.52C210.229 115.389 209.537 115.743 209.299 116.304L205.324 125.592C204.493 127.538 202.21 129.776 200.249 130.575L188.062 135.534C187.316 135.834 186.37 136.642 185.947 137.326L182.564 142.831L178.104 150.097C177.082 151.766 176.09 154.734 175.898 156.687L174.983 166.29C174.913 166.997 175.336 167.92 175.913 168.335L182.087 172.742C182.664 173.156 183.687 173.287 184.356 173.034L195.466 168.851C196.22 168.566 197.473 168.459 198.265 168.597L201.433 169.173C202.225 169.32 202.625 170.05 202.333 170.796L201.417 173.11C201.125 173.856 200.918 175.125 200.956 175.925L201.033 177.454C201.071 178.254 200.664 179.392 200.118 179.976L195.312 185.128L193.221 187.942C213.282 178.239 229.105 161.161 237.171 140.225L233.104 143.908C232.404 144.546 231.512 144.353 231.12 143.492L231.136 143.5Z" fill="#FF902F" stroke="#FF902F" stroke-width="0.0650388" stroke-miterlimit="10" stroke-linecap="round" stroke-linejoin="round"/>
<path d="M127.342 84.9872C128.173 86.1634 129.433 86.1023 130.141 84.8412L133.962 78.0749C134.216 77.6289 134.254 76.8753 134.054 76.4063L132.885 73.6614C132.67 73.1616 132.786 72.4158 133.132 72.0006L133.347 71.7392C133.693 71.324 133.87 70.5551 133.731 70.0322L132.032 63.512C131.893 62.9891 131.402 62.3279 130.94 62.0511L130.11 61.5512C129.648 61.2745 128.887 61.2822 128.433 61.5666L124.428 64.104C123.536 64.673 123.498 65.6495 124.351 66.2723L126.965 68.2022C127.495 68.5943 127.934 69.4555 127.942 70.1168L127.98 73.5383C127.98 74.1996 127.481 74.8993 126.85 75.0992L125.95 75.3837C125.32 75.5836 124.543 76.2141 124.212 76.7908L123.613 77.8518C123.289 78.4285 123.336 79.3358 123.713 79.8741L127.326 84.9796L127.342 84.9872Z" fill="#FF902F" stroke="#FF902F" stroke-width="0.0650388" stroke-miterlimit="10" stroke-linecap="round" stroke-linejoin="round"/>
<path d="M113.687 62.1202L115.701 63.4812C116.285 63.8733 117.116 63.7426 117.546 63.189L121.852 57.6376C122.245 57.1301 122.129 56.4227 121.606 56.0613L119.576 54.6773L120.422 52.3629L120.022 51.4403C119.823 50.9712 119.284 50.779 118.831 51.0096L115.501 52.7243C114.878 53.0472 114.417 53.8853 114.486 54.585L114.778 57.5607L113.256 60.2826C112.91 60.8977 113.11 61.7204 113.694 62.1202H113.687Z" stroke="#FF902F" stroke-width="0.0650388" stroke-miterlimit="10" stroke-linecap="round" stroke-linejoin="round"/>
<path d="M127.357 56.2998L130.41 58.5987C130.84 58.9217 131.594 59.0063 132.086 58.7833L132.639 58.5295C133.132 58.3066 133.832 57.7991 134.192 57.407L135.146 56.369C135.508 55.9691 136.192 55.4309 136.661 55.1694L145.373 50.2485C145.842 49.9871 145.957 49.4181 145.626 48.9952L145.157 48.3955C144.826 47.9726 144.119 47.5881 143.581 47.542L139.067 47.1806C138.529 47.1345 137.86 47.4728 137.568 47.9341L135.092 51.8478C134.808 52.3015 134.178 52.8781 133.655 53.0243L127.25 54.7927C126.734 54.9388 126.381 55.577 127.349 56.3074L127.357 56.2998Z" fill="#FF902F" stroke="#FF902F" stroke-width="0.0650388" stroke-miterlimit="10" stroke-linecap="round" stroke-linejoin="round"/>
<path d="M139.452 56.2843C139.014 56.5996 138.668 57.2992 138.675 57.8374L138.691 59.1446C138.691 59.6828 139.114 60.2749 139.621 60.4671L140.998 60.9823C141.728 61.2514 142.312 62.1125 142.297 62.8968L142.105 72.8848C142.097 73.3692 141.828 74.0688 141.513 74.4379L139.729 76.5063C139.413 76.8753 139.175 77.575 139.198 78.0594L139.829 89.362C139.86 89.8465 140.19 90.4924 140.575 90.7922L143.996 93.4913C144.38 93.7911 144.827 93.6682 144.988 93.2064L148.579 83.2803C148.741 82.8266 149.194 82.2038 149.57 81.9039L158.974 74.4533C159.582 73.969 159.805 73.0001 159.466 72.3004L157.983 69.2402C157.767 68.8019 157.875 68.1638 158.206 67.81L159.113 66.8643C159.451 66.5183 159.743 65.834 159.774 65.3496L160.351 54.116C160.381 53.5778 160.012 52.9242 159.543 52.6705L155.714 50.5791C155.245 50.3177 154.422 50.1793 153.892 50.2561L147.102 51.2788C146.572 51.3557 145.78 51.6863 145.342 52.0015L139.452 56.2843Z" fill="#FF902F" stroke="#FF902F" stroke-width="0.0650388" stroke-miterlimit="10" stroke-linecap="round" stroke-linejoin="round"/>
<path d="M163.526 81.7963L160.612 83.0342L159.805 82.7497C159.343 82.5882 158.813 82.8189 158.613 83.2648L158.267 84.0415L160.151 86.871C160.419 87.2788 161.035 87.5857 161.519 87.5552L164.595 87.3705C165.079 87.3399 165.541 86.925 165.625 86.4482L166.125 83.4417L164.925 82.1115C164.603 81.7501 163.964 81.6117 163.518 81.8039L163.526 81.7963Z" fill="#FF902F" stroke="#FF902F" stroke-width="0.0650388" stroke-miterlimit="10" stroke-linecap="round" stroke-linejoin="round"/>
<path d="M176.874 88.3703L179.442 90.5082C179.819 90.8158 179.919 91.4155 179.665 91.8304L179.173 92.6531L179.819 96.1828C179.965 96.9743 180.665 97.3203 181.38 96.9594L183.871 95.6983C184.586 95.3366 185.048 94.3988 184.893 93.6144L184.74 92.8379C184.586 92.0535 184.002 90.9387 183.44 90.3696L179.865 86.7561C179.526 86.4101 179.142 85.7408 179.011 85.2797L178.773 84.4107C178.642 83.9417 178.158 83.4419 177.697 83.2958L176.705 82.9883C176.243 82.8422 175.889 83.119 175.921 83.6034L176.136 86.9252C176.166 87.4097 176.497 88.0627 176.874 88.3703Z" fill="#FF902F" stroke="#FF902F" stroke-width="0.0650388" stroke-miterlimit="10" stroke-linecap="round" stroke-linejoin="round"/>
<path d="M176.898 95.2213C177.306 94.9598 177.605 94.3524 177.567 93.8678L177.328 91.2227C177.282 90.7388 176.89 90.1775 176.444 89.9772L176.314 89.9161C175.875 89.7157 175.291 89.8849 175.029 90.2926L173.807 92.1918L174.199 96.0057C174.245 96.4902 174.622 96.6664 175.037 96.4128L176.906 95.2213H176.898Z" fill="#FF902F" stroke="#FF902F" stroke-width="0.0650388" stroke-miterlimit="10" stroke-linecap="round" stroke-linejoin="round"/>
<path d="M199.449 32.4561L189.007 29.2345L183.763 28.95C182.902 28.9039 182.618 29.4267 183.141 30.1187L186.655 34.7782C186.993 35.2241 187.27 36.0469 187.277 36.6082L187.293 38.2921C187.293 38.7688 187.554 39.4531 187.854 39.8222L190.484 42.9593L190.999 44.1357L194.19 46.6346C195.251 47.465 195.066 47.811 193.783 47.3958L191.775 46.7576C191.322 46.6115 190.96 46.8806 190.968 47.3574L190.999 48.8105L194.997 52.163C195.243 52.3706 195.32 52.7704 195.159 53.0549L194.751 53.7854C194.582 54.0852 194.513 54.608 194.597 54.9387L195.105 56.9301C195.189 57.2608 194.99 57.6068 194.651 57.6837L194.344 57.7529C193.775 57.8913 193.652 58.3295 194.082 58.737L194.69 59.306C195.12 59.7135 195.559 60.5132 195.658 61.0975L196.028 63.1197C196.173 63.9117 195.635 64.6345 194.843 64.7421L193.836 64.8729L191.545 63.4965C190.96 63.1428 191.029 62.743 191.699 62.5969L193.405 62.2432L193.628 61.8357C193.913 61.3205 193.736 60.6362 193.236 60.321L190.93 58.8601L183.625 59.0369C183.287 59.0446 182.941 59.3214 182.849 59.6443L181.503 64.6422C181.349 65.2111 181.58 65.9954 182.018 66.3952C182.21 66.5721 182.418 66.9258 182.472 67.1795L183.187 70.5242L181.372 75.5989C181.172 76.1525 181.264 77.0137 181.572 77.5212L183.925 81.3426C184.233 81.8424 184.94 82.0808 185.486 81.8731L186.424 81.5117C186.977 81.3041 187.762 81.4733 188.177 81.8885L191.091 84.8257L192.314 83.8261L192.175 79.2127C192.16 78.6207 191.829 77.7749 191.445 77.3366L188.907 74.4148L188.4 68.0791C188.354 67.5024 188.754 67.2026 189.292 67.4025L189.768 67.5793L192.137 73.6998C192.352 74.2457 192.998 74.7762 193.582 74.8608L194.113 74.9453C194.697 75.0376 195.189 75.5912 195.213 76.1833L195.228 76.5601L196.573 78.2362C196.942 78.6976 196.835 79.3281 196.335 79.6434C195.943 79.8894 195.704 80.466 195.805 80.9197L196.573 84.3951C196.673 84.8487 196.404 85.3562 195.966 85.5253L191.983 87.0706C191.445 87.2787 190.73 87.0706 190.399 86.6017L189.814 85.7867C189.476 85.3178 189.184 85.4102 189.162 85.9792L188.969 90.5619L187.078 95.6596C186.801 96.4128 186.101 97.482 185.517 98.0355L182.518 100.919C181.942 101.472 182.018 102.28 182.702 102.703L183.348 103.11C184.025 103.54 184.786 104.509 185.032 105.27L185.732 107.431C185.978 108.193 185.563 109.03 184.801 109.292L181.011 110.607C180.258 110.868 179.696 111.737 179.765 112.537L180.396 119.657C180.465 120.456 181.126 121.364 181.864 121.679L184.694 122.878C185.432 123.194 186.493 122.979 187.054 122.402L190.153 119.219L189.814 114.912C189.776 114.451 189.953 113.751 190.2 113.359L194.92 105.955H196.281C196.758 105.955 197.481 106.185 197.873 106.455L203.463 110.269L204.785 112.291C205.047 112.691 205.316 112.629 205.377 112.152L205.769 109.13C205.831 108.654 205.531 108.092 205.101 107.877L198.826 104.747C198.411 104.54 198.104 103.994 198.15 103.533L198.242 102.61C198.311 101.91 198.849 101.649 199.442 102.026L204.17 105.002C204.578 105.255 205.155 105.778 205.447 106.155L210.052 112.06L211.082 111.798C211.552 111.683 211.798 111.214 211.636 110.76L210.406 107.3C210.244 106.847 210.383 106.193 210.706 105.839L211.559 104.924L212.912 107.623C213.128 108.054 213.651 108.585 214.073 108.808L216.403 110.03C216.826 110.253 217.464 110.168 217.81 109.838L220.009 107.77C220.363 107.439 220.778 107.539 220.932 107.992L222.462 112.383C222.623 112.836 222.623 113.575 222.462 114.029L221.424 116.996C221.193 117.65 221.309 118.657 221.678 119.241L222.77 120.987C222.939 121.256 223.308 121.364 223.592 121.217L224.108 120.964C224.4 120.818 224.761 120.933 224.915 121.217L228.844 128.23L231.889 133.659L232.004 136.78C232.019 137.256 232.427 137.656 232.911 137.656C233.603 137.656 234.341 137.119 234.549 136.465L239.793 120.018V118.426L239.823 114.866C239.823 114.244 239.524 113.329 239.147 112.829L237.517 110.669C237.141 110.168 236.671 110.245 236.479 110.838L235.595 113.498C235.395 114.09 234.941 114.159 234.58 113.652L231.919 109.892C231.558 109.384 231.774 108.915 232.396 108.861L237.325 108.392C237.948 108.331 238.686 107.831 238.978 107.277L239.785 105.717C240.07 105.163 240.501 105.186 240.739 105.763L242.945 111.176L242.999 111.299C242.999 111.145 242.999 110.991 243.007 110.838C243.03 110.068 243.045 109.292 243.045 108.515C243.045 76.0756 225.522 47.7341 199.426 32.4254L199.449 32.4561Z" fill="#FF902F"/>
<path d="M99.4692 143.07C99.9303 142.616 100.645 142.539 101.199 142.885L105.559 145.614L110.134 149.821C110.464 150.12 110.364 150.374 109.918 150.382L108.042 150.412C107.819 150.412 107.496 150.289 107.335 150.135L101.914 144.93L99.4536 144.253C99.038 144.138 98.9073 143.615 99.2149 143.315C99.2995 143.231 99.3918 143.146 99.4764 143.062L99.4692 143.07Z" stroke="#FF902F" stroke-width="0.0650388" stroke-miterlimit="10" stroke-linecap="round" stroke-linejoin="round"/>
<path d="M113.155 152.027C112.748 151.843 112.14 151.927 111.794 152.219L111.395 152.565C111.057 152.858 111.087 153.281 111.471 153.511L113.763 154.903C114.147 155.134 114.816 155.279 115.262 155.226L118.353 154.849C118.799 154.796 118.83 154.603 118.422 154.411L113.163 152.02L113.155 152.027Z" stroke="#FF902F" stroke-width="0.0650388" stroke-miterlimit="10" stroke-linecap="round" stroke-linejoin="round"/>
<path d="M154.914 196.708C203.604 196.708 243.076 157.236 243.076 108.546C243.076 59.8558 203.604 20.3845 154.914 20.3845C106.224 20.3845 66.7522 59.8558 66.7522 108.546C66.7522 157.236 106.224 196.708 154.914 196.708Z" stroke="#0D1C4C" stroke-width="0.130078" stroke-miterlimit="10" stroke-linecap="round" stroke-linejoin="round"/>
<path d="M240.929 147.351C253.266 147.351 263.267 137.35 263.267 125.012C263.267 112.676 253.266 102.675 240.929 102.675C228.592 102.675 218.591 112.676 218.591 125.012C218.591 137.35 228.592 147.351 240.929 147.351Z" fill="#0F3DFB"/>
<path d="M258.201 136.901C251.561 146.389 246.138 139.038 236.65 132.398C227.162 125.757 217.201 122.341 223.842 112.853C230.482 103.366 243.557 101.057 253.045 107.697C262.533 114.338 264.842 127.413 258.201 136.901Z" fill="white"/>
<path d="M240.929 147.351C253.266 147.351 263.267 137.35 263.267 125.012C263.267 112.676 253.266 102.675 240.929 102.675C228.592 102.675 218.591 112.676 218.591 125.012C218.591 137.35 228.592 147.351 240.929 147.351Z" stroke="#0D1C4C" stroke-width="0.195116" stroke-linecap="round" stroke-linejoin="round"/>
<path d="M238.592 136.058L231.273 133.47V122.85C231.273 115.894 237.125 112.278 244.278 114.809L251.598 117.397V128.017C251.598 134.973 245.746 138.589 238.592 136.058Z" fill="#FF902F"/>
<path d="M78.2498 217.513C95.407 217.513 109.316 203.604 109.316 186.447C109.316 169.289 95.407 155.38 78.2498 155.38C61.0925 155.38 47.1836 169.289 47.1836 186.447C47.1836 203.604 61.0925 217.513 78.2498 217.513Z" fill="white" stroke="#0D1C4C" stroke-width="0.195116" stroke-linecap="round" stroke-linejoin="round"/>
<path d="M78.2505 156.708C61.8282 156.708 48.5122 170.024 48.5122 186.446C48.5122 202.868 61.8282 216.185 78.2505 216.185C94.6728 216.185 107.988 202.868 107.988 186.446C107.988 170.024 94.6728 156.708 78.2505 156.708ZM73.9911 201.403C61.4503 193.022 47.4398 177.562 58.4007 166.601C69.3616 155.64 87.1348 155.64 98.0958 166.601C107.003 175.509 108.023 188.626 103.107 199.503C100.222 205.888 86.8792 210.021 73.9911 201.407V201.403Z" fill="#0F3DFB"/>
<path d="M75.1455 213.622C75.2847 212.977 73.965 212.146 72.1992 211.766C70.4334 211.387 68.8894 211.601 68.7502 212.246C68.6117 212.892 69.9307 213.722 71.6971 214.102C73.4629 214.482 75.007 214.267 75.1455 213.622Z" fill="white"/>
<path d="M100.329 164.598C105.542 171.624 63.0265 189 50.6037 187.569C47.3788 187.199 47.2414 185.893 47.207 185.294C47.1917 185.676 47.1765 186.061 47.1765 186.447C47.1765 194.766 50.451 202.315 55.7788 207.891C63.4922 213.624 108.217 196.202 109.297 187.057C109.301 186.855 109.313 186.653 109.313 186.447C109.313 177.925 105.881 170.208 100.325 164.598H100.329Z" fill="#0D1C4C" stroke="#0D1C4C" stroke-width="0.195116" stroke-linecap="round" stroke-linejoin="round"/>
<path d="M85.2181 188.584C66.5019 195.064 52.7286 204.075 55.7474 207.869C63.3801 213.693 108.434 196.129 109.312 186.992C108.801 183.332 99.3433 183.958 85.2181 188.584Z" fill="#0F3DFB" stroke="#0D1C4C" stroke-width="0.195116" stroke-linecap="round" stroke-linejoin="round"/>
<path d="M44.0972 95.9686C54.7394 95.9686 63.3665 87.3419 63.3665 76.6996C63.3665 66.0573 54.7394 57.4301 44.0972 57.4301C33.4551 57.4301 24.8279 66.0573 24.8279 76.6996C24.8279 87.3419 33.4551 95.9686 44.0972 95.9686Z" fill="white" stroke="#0D1C4C" stroke-width="0.195116" stroke-linecap="round" stroke-linejoin="round"/>
<path d="M58.4814 76.7986C57.4967 76.3368 56.3251 76.7986 55.9167 77.8062C54.4664 81.4013 50.1768 89.565 40.7462 90.9425C39.8837 91.0687 39.3837 91.9922 39.7539 92.7825C40.4943 94.3733 41.5935 94.53 42.0133 94.5261C42.1812 94.5261 42.3567 94.53 42.5247 94.545C47.4327 94.9762 52.4933 93.4003 56.3671 89.7594C58.9279 87.355 60.6226 84.3705 61.4428 81.2028C61.7289 80.096 61.3816 78.9168 60.542 78.1459C59.8935 77.5506 59.1531 77.1115 58.4852 76.7986H58.4814Z" fill="#0F3DFB"/>
<path d="M238.592 136.058L231.273 133.47V122.85C231.273 115.894 237.124 112.278 244.278 114.809L251.598 117.397V128.017C251.598 134.973 245.746 138.589 238.592 136.058Z" stroke="#0D1C4C" stroke-width="0.195116" stroke-linecap="round" stroke-linejoin="round"/>
<path d="M231.273 123.153V134.326L251.598 117.416L244.278 114.693C238.201 112.431 231.273 115.835 231.273 123.153Z" fill="#0D1C4C"/>
<path d="M235.719 124.798L250.963 130.515" stroke="#0D1C4C" stroke-width="0.195116" stroke-linecap="round" stroke-linejoin="round"/>
<path d="M45.5933 74.643C46.1253 72.9093 45.2764 71.5904 43.7058 71.6875C42.1351 71.7847 40.4238 73.2763 39.8917 75.01C39.3597 76.7438 40.2086 78.0626 41.7793 77.9655C43.3498 77.8684 45.0613 76.3768 45.5933 74.643Z" fill="#0D1C4C"/>
<path d="M37.9632 82.8779C37.9304 82.1762 38.5186 81.244 39.2788 80.8056L40.184 80.2815C41.3257 79.6194 41.9625 80.0052 41.604 81.1382L39.3673 88.1809C38.8247 89.879 38.3206 89.9746 38.2465 88.3883L37.9731 82.881L37.9632 82.8779Z" fill="#0D1C4C" stroke="#0D1C4C" stroke-width="0.195116" stroke-linecap="round" stroke-linejoin="round"/>
<path d="M50.86 72.4902C50.2174 73.0938 49.2622 73.3552 48.7391 73.0509L48.1036 72.6916C47.307 72.2418 47.5566 71.3635 48.6633 70.738L55.5161 66.8756C57.1733 65.9467 57.3414 66.3064 55.8929 67.6894L50.86 72.4902Z" fill="#0D1C4C" stroke="#0D1C4C" stroke-width="0.195116" stroke-linecap="round" stroke-linejoin="round"/>
<path d="M321.265 224.246L319.206 219.879L265.397 244.415L267.455 248.783C268.384 250.753 281.18 246.856 296.038 240.079C310.897 233.302 322.188 226.212 321.261 224.242L321.265 224.246Z" fill="#FF902F" stroke="#0D1C4C" stroke-width="0.195116" stroke-miterlimit="10"/>
<path d="M267.454 248.782C268.091 250.137 274.354 248.715 283.038 245.488L279.51 239.389L277.153 240.893L275.796 239.667L265.392 244.411L267.451 248.779L267.454 248.782Z" fill="#0D1C4C" stroke="#0D1C4C" stroke-width="0.195116" stroke-miterlimit="10"/>
<path d="M293.978 235.697C308.836 228.921 320.129 221.83 319.2 219.86C318.272 217.889 305.474 221.785 290.615 228.561C275.757 235.337 264.465 242.428 265.393 244.399C266.321 246.369 279.119 242.473 293.978 235.697Z" fill="#FF902F" stroke="#0D1C4C" stroke-width="0.195116" stroke-miterlimit="10"/>
<path d="M302.05 206.318L298.995 203.321L291.785 210.434C287.409 213.376 282.186 217.696 276.935 222.879C271.683 228.061 267.307 233.216 264.334 237.529L257.123 244.642L260.177 247.639C262.713 250.126 274.14 242.891 285.702 231.481C297.263 220.07 304.582 208.805 302.046 206.318H302.05Z" fill="#FF902F" stroke="#0D1C4C" stroke-width="0.195116" stroke-miterlimit="10"/>
<path d="M276.166 240.004L272.097 236.326L270.222 238.41L265.166 236.358C264.879 236.754 264.6 237.149 264.334 237.533L263.816 238.042L257.123 244.646L260.177 247.642C262 249.429 268.41 246.197 276.166 240.004Z" fill="#FF902F" stroke="#0D1C4C" stroke-width="0.195116" stroke-miterlimit="10"/>
<path d="M282.659 228.492C294.221 217.081 301.539 205.815 299.003 203.328C296.468 200.842 285.04 208.077 273.478 219.488C261.915 230.899 254.598 242.165 257.133 244.652C259.668 247.138 271.096 239.903 282.659 228.492Z" fill="#FF902F" stroke="#0D1C4C" stroke-width="0.195116" stroke-miterlimit="10"/>
<path d="M280.818 194.645L277.139 192.953L275.984 195.385C270.988 198.197 264.549 206.408 259.501 217.042C254.449 227.681 252.18 237.807 253.195 243.38L252.04 245.814L255.715 247.501C260.556 249.726 270.1 239.699 277.032 225.1C283.963 210.501 285.659 196.865 280.818 194.637V194.645Z" fill="#FF902F" stroke="#0D1C4C" stroke-width="0.195116" stroke-miterlimit="10"/>
<path d="M269.375 238.069L264.856 236.236L263.816 238.046L259.051 238.939L256.105 243.201L257.004 247.815C260.226 247.964 264.824 244.219 269.375 238.069Z" fill="#0D1C4C" stroke="#0D1C4C" stroke-width="0.195116" stroke-miterlimit="10"/>
<path d="M273.346 223.41C280.278 208.812 281.973 195.174 277.132 192.949C272.291 190.724 262.747 200.754 255.815 215.353C248.884 229.951 247.189 243.589 252.03 245.814C256.871 248.039 266.414 238.008 273.346 223.41Z" fill="#FF902F" stroke="#0D1C4C" stroke-width="0.195116" stroke-miterlimit="10"/>
<path d="M268.792 217.763C268.764 201.652 261.63 188.601 252.863 188.616L248.814 188.624V189.188C241.544 191.859 236.081 203.67 236.105 217.822C236.133 231.974 241.639 243.765 248.917 246.412V246.976L252.962 246.969H252.03C260.798 246.953 268.816 233.877 268.788 217.763H268.792Z" fill="#FF902F" stroke="#0D1C4C" stroke-width="0.195116" stroke-miterlimit="10"/>
<path d="M263.819 238.041L259.053 238.934L248.686 246.31C248.765 246.341 248.841 246.377 248.921 246.404V246.968L252.182 246.961C252.182 246.961 252.182 246.961 252.186 246.961C256.645 246.953 260.941 243.486 263.815 238.037L263.819 238.041Z" fill="#FF902F" stroke="#0D1C4C" stroke-width="0.195116" stroke-miterlimit="10"/>
<path d="M248.921 247.006C257.688 246.991 264.772 233.917 264.743 217.804C264.715 201.692 257.584 188.642 248.817 188.657C240.051 188.672 232.967 201.747 232.995 217.859C233.024 233.971 240.154 247.021 248.921 247.006Z" fill="#FF902F" stroke="#0D1C4C" stroke-width="0.195116" stroke-miterlimit="10"/>
<path d="M258.676 212.624C253.046 197.492 240.573 188.076 230.822 191.589L227.641 192.753L227.724 192.98C219.73 197.864 217.325 211.755 222.501 225.66C227.724 239.695 238.833 248.81 248.197 247.255L248.273 247.454L251.012 246.455L251.454 246.291C261.021 242.617 264.262 227.63 258.676 212.624Z" fill="#FF902F" stroke="#0D1C4C" stroke-width="0.195116" stroke-miterlimit="10"/>
<path d="M248.037 247.559C257.79 244.046 261.131 228.933 255.5 213.803C249.868 198.673 237.398 189.255 227.646 192.768C217.894 196.281 214.553 211.394 220.184 226.524C225.815 241.655 238.285 251.072 248.037 247.559Z" fill="#FF902F" stroke="#0D1C4C" stroke-width="0.195116" stroke-miterlimit="10"/>
<path d="M254.372 236.004L254.667 236.091L255.483 233.164C258.994 220.579 249.081 206.728 233.342 202.231C217.604 197.735 201.996 204.292 198.485 216.877L197.669 219.804L197.963 219.889C196.877 231.488 206.38 243.357 220.726 247.454C235.071 251.551 249.304 246.467 254.372 236.008V236.004Z" fill="#FF902F" stroke="#0D1C4C" stroke-width="0.195116" stroke-miterlimit="10"/>
<path d="M254.417 236.868C258.471 224.443 249.104 210.374 233.494 205.443C217.884 200.513 201.943 206.587 197.888 219.012C193.833 231.437 203.201 245.506 218.811 250.437C234.421 255.367 250.362 249.292 254.417 236.868Z" fill="#FF902F" stroke="#0D1C4C" stroke-width="0.195116" stroke-miterlimit="10"/>
<path d="M251.944 241.872C248.556 234.05 238.578 216.27 218.691 218.852L197.251 221.633C195.129 233.705 204.828 246.455 219.81 250.733C232.917 254.477 245.932 250.557 251.948 241.868L251.944 241.872Z" fill="#FF902F"/>
<path d="M227.573 215.432H227.556C225.363 215.138 223.237 215.354 221.179 216.063C220.04 216.458 218.973 217.026 217.974 217.763L216.17 216.701L213.351 218.06L215.943 219.584C215.851 219.682 215.76 219.776 215.672 219.874C215.529 220.035 215.401 220.195 215.27 220.36L212.256 218.585L209.441 219.948L213.845 222.537C213.379 223.474 213.092 224.406 213.001 225.338C212.817 227.156 213.239 228.871 214.271 230.481C215.302 232.092 216.839 233.498 218.877 234.696C220.426 235.609 221.951 236.24 223.452 236.596C224.005 236.725 224.551 236.827 225.084 236.897C225.996 237.019 226.88 237.05 227.732 236.999C229.082 236.913 230.308 236.647 231.415 236.212C232.521 235.777 233.445 235.221 234.194 234.543L228.712 231.284C227.815 231.97 226.788 232.311 225.618 232.307C225.367 232.307 225.112 232.287 224.861 232.256C223.942 232.134 223.01 231.798 222.07 231.245C220.462 230.297 219.562 229.126 219.359 227.724C219.275 227.136 219.343 226.529 219.55 225.899L223.133 228.006L225.928 226.631L220.832 223.635C220.96 223.474 221.091 223.309 221.234 223.149C221.322 223.047 221.414 222.957 221.505 222.859L227.011 226.098L229.802 224.719L223.667 221.112C224.371 220.708 225.108 220.426 225.876 220.277C226.601 220.136 227.322 220.113 228.034 220.211C228.998 220.34 229.954 220.681 230.897 221.237C232.135 221.966 232.927 222.804 233.262 223.744C233.6 224.688 233.469 225.616 232.88 226.533L238.382 229.772C239.358 228.339 239.808 226.893 239.728 225.432C239.645 223.971 239.099 222.577 238.088 221.241C237.076 219.905 235.667 218.703 233.843 217.633C231.844 216.458 229.75 215.722 227.565 215.432" fill="#0D1C4C"/>
<path d="M254.417 236.868C258.471 224.443 249.104 210.374 233.494 205.443C217.884 200.513 201.943 206.587 197.888 219.012C193.833 231.437 203.201 245.506 218.811 250.437C234.421 255.367 250.362 249.292 254.417 236.868Z" stroke="#0D1C4C" stroke-width="0.195116" stroke-miterlimit="10"/>
<path d="M247.353 229.373L247.571 229.162L245.306 226.905C236.61 218.253 220.123 220.427 208.478 231.755C196.832 243.083 194.439 259.28 203.135 267.932L205.4 270.189L205.619 269.977C214.713 276.123 229.349 273.409 239.959 263.083C250.573 252.758 253.499 238.391 247.353 229.377V229.373Z" fill="#FF902F" stroke="#0D1C4C" stroke-width="0.195116" stroke-miterlimit="10"/>
<path d="M203.136 267.933L206.078 270.819L213.117 263.843L198.466 249.264C196.981 256.381 198.442 263.256 203.14 267.929L203.136 267.933Z" fill="#0D1C4C" stroke="#0D1C4C" stroke-width="0.195116" stroke-miterlimit="10"/>
<path d="M242.215 265.316C253.86 253.987 256.251 237.789 247.555 229.139C238.86 220.487 222.371 222.659 210.726 233.988C199.081 245.318 196.69 261.515 205.385 270.166C214.081 278.817 230.57 276.645 242.215 265.316Z" fill="#FF902F"/>
<path d="M249.212 256.096L245.605 253.965L238.455 268.563C239.753 267.588 241.015 266.511 242.225 265.336C245.143 262.496 247.481 259.351 249.208 256.096H249.212Z" fill="white"/>
<path d="M236.747 269.781L237.264 271.007L238.459 268.567C237.894 268.99 237.324 269.398 236.747 269.781Z" fill="white"/>
<path d="M242.229 265.34C248.762 258.987 252.381 251.101 252.767 243.874C247.679 240.635 240.055 238.097 233.183 239.742C223.388 242.088 214.681 250.012 208.438 265.105L206.073 270.82C214.924 278.721 230.877 276.382 242.229 265.34Z" fill="#FF902F"/>
<path d="M225.814 255.092L224.794 252.014L230.798 249.26C232.068 248.676 233.008 248.876 233.339 249.883C233.677 250.909 233.087 251.759 231.817 252.339L225.814 255.092ZM223.811 249.044L222.828 246.075L228.541 243.454C229.739 242.906 230.643 243.094 230.961 244.054C231.28 245.013 230.723 245.875 229.524 246.424L223.811 249.044ZM225.758 237.528L222.939 238.821L223.962 241.912L221.784 242.91L220.761 239.819L217.943 241.112L218.966 244.203L216.509 245.331L213.3 246.804L214.347 249.969L217.556 248.496L220.518 257.446L217.309 258.919L218.356 262.088L221.565 260.616L224.022 259.487L225.029 262.527L227.848 261.234L226.84 258.195L229.019 257.196L230.026 260.236L232.845 258.943L231.837 255.903L233.796 255.006C237.801 253.169 239.573 250.447 238.721 247.869C238.144 246.122 236.687 245.382 234.564 245.675C235.978 244.25 236.464 242.667 235.966 241.159C235.134 238.649 232.327 238.076 228.349 239.902L226.781 240.623L225.758 237.532" fill="#0D1C4C"/>
<path d="M242.215 265.316C253.86 253.987 256.251 237.789 247.555 229.139C238.86 220.487 222.371 222.659 210.726 233.988C199.081 245.318 196.69 261.515 205.385 270.166C214.081 278.817 230.57 276.645 242.215 265.316Z" stroke="#0D1C4C" stroke-width="0.195116" stroke-miterlimit="10"/>
<path d="M265.101 263.636C262.633 249.378 252.62 238.876 241.778 238.355L241.711 237.959L238.052 238.571C225.861 240.611 218.208 255.143 220.956 271.027C223.707 286.911 235.814 298.133 248.005 296.088L251.664 295.478L251.597 295.082C261.654 291.059 267.57 277.894 265.101 263.631V263.636Z" fill="#FF902F" stroke="#0D1C4C" stroke-width="0.195116" stroke-miterlimit="10"/>
<path d="M260.87 287.228L260.934 275.011L225.881 284.118C231.164 292.567 239.566 297.511 248.006 296.097L251.665 295.486L251.598 295.09C255.332 293.597 258.497 290.836 260.874 287.232L260.87 287.228Z" fill="#0D1C4C" stroke="#0D1C4C" stroke-width="0.195116" stroke-miterlimit="10"/>
<path d="M224.492 281.674C225.658 283.942 227.04 286.006 228.585 287.823L240.401 285.845L239.251 279.202L224.492 281.674Z" fill="#FF902F" stroke="#0D1C4C" stroke-width="0.195116" stroke-miterlimit="10"/>
<path d="M224.304 281.306L228.608 280.624L230.993 283.95L226.239 284.675L224.304 281.306Z" fill="#0D1C4C"/>
<path d="M251.664 295.522C263.855 293.481 271.51 278.949 268.762 263.065C266.014 247.181 253.904 235.959 241.712 238.001C229.521 240.042 221.866 254.574 224.614 270.458C227.362 286.342 239.473 297.564 251.664 295.522Z" fill="#FF902F"/>
<path d="M268.76 263.025C267.765 257.279 265.547 252.144 262.541 248.027C255.49 244.411 234.464 248.52 234.416 279.716L234.401 289.485C239.329 294.146 245.489 296.52 251.668 295.486C263.859 293.445 271.511 278.912 268.765 263.029L268.76 263.025Z" fill="#FF902F"/>
<path d="M258.357 260.808L253.452 258.175L247.154 265.042L246.998 264.956L245.608 253.969L240.704 251.336L242.782 264.819L240.513 263.601L239.804 266.076L243.264 267.929L243.442 269.108L243.435 269.132L239.565 267.052L238.856 269.527L242.754 271.619L241.487 276.233L245.848 278.571L247.117 273.961L251.016 276.053L251.696 273.561L247.802 271.474L247.811 271.446L248.507 270.745L251.963 272.598L252.644 270.111L250.354 268.881L258.357 260.808Z" fill="#0D1C4C"/>
<path d="M251.664 295.522C263.855 293.481 271.51 278.949 268.762 263.065C266.014 247.181 253.904 235.959 241.712 238.001C229.521 240.042 221.866 254.574 224.614 270.458C227.362 286.342 239.473 297.564 251.664 295.522Z" stroke="#0D1C4C" stroke-width="0.195116" stroke-miterlimit="10"/>
<path d="M279.376 266.915C273.698 254.764 264.27 246.64 256.53 246.467L256.104 245.551L252.206 247.313C243.993 251.027 242.842 265.821 249.634 280.361C256.427 294.902 268.59 303.676 276.803 299.963L280.701 298.2L280.275 297.283C285.18 291.392 285.053 279.061 279.38 266.911L279.376 266.915Z" fill="#FF902F" stroke="#0D1C4C" stroke-width="0.195116" stroke-miterlimit="10"/>
<path d="M276.804 299.962L280.702 298.2L280.276 297.283C283.56 293.339 284.588 286.507 283.202 278.775L254.604 288.775C261.42 298.059 270.338 302.884 276.808 299.962H276.804Z" fill="#0D1C4C" stroke="#0D1C4C" stroke-width="0.195116" stroke-miterlimit="10"/>
<path d="M258.959 293.84L263.001 292.241L264.951 294.02L260.827 295.583L258.959 293.84Z" fill="#FF902F" stroke="#0D1C4C" stroke-width="0.195116" stroke-miterlimit="10"/>
<path d="M261.169 281.697L252.234 285.227C253.715 287.675 255.348 289.896 257.067 291.843L264.162 289.038L261.164 281.697H261.169Z" fill="#0D1C4C" stroke="#0D1C4C" stroke-width="0.195116" stroke-miterlimit="10"/>
<path d="M280.708 298.236C288.92 294.524 290.071 279.727 283.28 265.187C276.489 250.646 264.326 241.868 256.114 245.581C247.902 249.293 246.751 264.09 253.542 278.631C260.334 293.171 272.496 301.949 280.708 298.236Z" fill="#FF902F"/>
<path d="M270.477 257.999L267.324 256.295L267.412 259.511C266.795 259.311 266.221 259.213 265.688 259.213C264.684 259.213 263.908 259.558 263.359 260.235C262.809 260.917 262.554 261.92 262.595 263.248C262.634 264.861 263.096 266.378 263.98 267.791C264.864 269.202 266.058 270.526 267.551 271.748L269.366 273.24C270.318 274.02 271.023 274.713 271.477 275.312C271.931 275.912 272.166 276.507 272.19 277.106C272.201 277.753 271.974 278.156 271.517 278.313C271.055 278.466 270.41 278.321 269.574 277.87C268.654 277.372 267.906 276.711 267.324 275.876C266.743 275.046 266.416 274.106 266.345 273.052L262.359 270.898C262.455 273.404 263.164 275.61 264.498 277.525C265.449 278.892 266.611 280.064 267.989 281.051L268.077 284.235L271.23 285.939L271.147 282.817C272.624 283.416 273.818 283.538 274.722 283.162C275.896 282.676 276.458 281.419 276.409 279.394C276.362 277.69 275.868 276.064 274.932 274.525C274.001 272.982 272.679 271.517 270.967 270.134L269.474 268.915C268.69 268.289 268.065 267.674 267.595 267.067C267.125 266.459 266.89 265.845 266.89 265.222C266.883 264.646 267.073 264.27 267.467 264.114C267.861 263.953 268.463 264.094 269.267 264.528C270.079 264.967 270.713 265.52 271.166 266.186C271.616 266.852 271.883 267.58 271.959 268.375L275.944 270.53C275.896 269.19 275.585 267.873 275.016 266.573C274.447 265.276 273.663 264.086 272.663 262.989C272.03 262.3 271.333 261.685 270.565 261.145L270.481 258.002" fill="#0D1C4C"/>
<path d="M280.708 298.236C288.92 294.524 290.071 279.727 283.28 265.187C276.489 250.646 264.326 241.868 256.114 245.581C247.902 249.293 246.751 264.09 253.542 278.631C260.334 293.171 272.496 301.949 280.708 298.236Z" stroke="#0D1C4C" stroke-width="0.195116" stroke-miterlimit="10"/>
<path d="M314.672 277.663L317.048 272.88L263.761 247.266L261.384 252.049C260.647 253.529 271.983 260.467 286.694 267.537C301.409 274.611 313.935 279.143 314.672 277.663Z" fill="#FF902F" stroke="#0D1C4C" stroke-width="0.195116" stroke-miterlimit="10"/>
<path d="M276.907 253.584L263.76 247.266L261.384 252.049C260.898 253.028 265.684 256.389 273.233 260.6L276.903 253.584H276.907Z" fill="#FF902F" stroke="#0D1C4C" stroke-width="0.195116" stroke-miterlimit="10"/>
<path d="M276.907 253.584L273.109 251.759L269.582 258.5C270.708 259.17 271.93 259.871 273.236 260.599L276.907 253.584Z" fill="#0D1C4C" stroke="#0D1C4C" stroke-width="0.195116" stroke-miterlimit="10"/>
<path d="M266.448 256.565C267.029 256.938 267.65 257.329 268.311 257.733L271.644 251.055L269.792 250.165L266.444 256.565H266.448Z" fill="#0D1C4C"/>
<path d="M317.064 272.888C317.799 271.406 306.467 264.472 291.753 257.398C277.038 250.325 264.513 245.791 263.778 247.273C263.042 248.754 274.374 255.688 289.089 262.762C303.804 269.835 316.329 274.369 317.064 272.888Z" fill="#FF902F" stroke="#0D1C4C" stroke-width="0.195116" stroke-miterlimit="10"/>
<path d="M291.733 257.387C286.04 254.654 280.677 252.296 276.198 250.521L272.348 252.08C282.592 257.239 298.59 264.45 310.099 267.176C305.525 264.384 299.047 260.902 291.733 257.387Z" fill="#FF902F"/>
<path d="M317.064 272.888C317.799 271.406 306.467 264.472 291.753 257.398C277.038 250.325 264.513 245.791 263.778 247.273C263.042 248.754 274.374 255.688 289.089 262.762C303.804 269.835 316.329 274.369 317.064 272.888Z" stroke="#0D1C4C" stroke-width="0.195116" stroke-miterlimit="10"/>
<path d="M271.732 246.643L271.525 251.696L330.784 254.027L330.991 248.974C331.023 248.152 317.785 246.961 301.421 246.314C285.058 245.672 271.764 245.817 271.732 246.639V246.643Z" fill="#FF902F" stroke="#0D1C4C" stroke-width="0.195116" stroke-miterlimit="10"/>
<path d="M330.785 254.026C330.819 253.202 317.58 252.012 301.216 251.368C284.851 250.725 271.559 250.871 271.525 251.694C271.492 252.518 284.73 253.707 301.095 254.351C317.459 254.995 330.752 254.849 330.785 254.026Z" fill="#FF902F" stroke="#0D1C4C" stroke-width="0.195116" stroke-miterlimit="10"/>
<path d="M39.1832 68.953C39.8284 69.0605 40.2025 69.7585 40.0196 70.5167L39.7946 71.4129C39.5081 72.5416 38.6824 73.0222 37.9587 72.4885L33.4258 69.1267C32.328 68.3173 32.638 67.8594 34.0979 68.1063L39.1895 68.965L39.1832 68.953Z" fill="#0D1C4C" stroke="#0D1C4C" stroke-width="0.195116" stroke-linecap="round" stroke-linejoin="round"/>
</g>
</g>
<defs>
<clipPath id="clip0_1_4859">
<rect width="326" height="326" fill="white"/>
</clipPath>
<clipPath id="clip1_1_4859">
<rect width="336.121" height="285" fill="white" transform="translate(-5 20)"/>
</clipPath>
</defs>
</svg>
