<svg width="80" height="63" viewBox="0 0 80 63" fill="none" xmlns="http://www.w3.org/2000/svg">
<path d="M70.7064 8.49683H14.4111V59.68H70.7064V8.49683Z" fill="white"/>
<path d="M70.8316 59.805H14.2861V8.37158H70.8316V59.805ZM14.5364 59.5548H70.5814V8.62185H14.5364V59.5548Z" fill="#030047"/>
<path d="M70.7064 8.89392H14.4111V7.02153C14.4111 5.08639 15.9801 3.51746 17.9152 3.51746H67.2023C69.1374 3.51746 70.7064 5.08639 70.7064 7.02153V8.89392Z" fill="#0F3DFB"/>
<path d="M70.8316 9.01919H14.2861V7.02167C14.2861 5.0207 15.914 3.39246 17.9153 3.39246H67.2024C69.2034 3.39246 70.8313 5.02032 70.8313 7.02167V9.01919H70.8316ZM14.5364 8.76892H70.5814V7.02167C70.5814 5.15846 69.0656 3.64272 67.2024 3.64272H17.9153C16.0521 3.64272 14.5364 5.15846 14.5364 7.02167V8.76892Z" fill="#030047"/>
<path d="M16.9543 6.92967C17.354 6.92967 17.678 6.60569 17.678 6.20604C17.678 5.8064 17.354 5.48242 16.9543 5.48242C16.5547 5.48242 16.2307 5.8064 16.2307 6.20604C16.2307 6.60569 16.5547 6.92967 16.9543 6.92967Z" fill="white"/>
<path d="M18.9485 6.92967C19.3481 6.92967 19.6721 6.60569 19.6721 6.20604C19.6721 5.8064 19.3481 5.48242 18.9485 5.48242C18.5488 5.48242 18.2249 5.8064 18.2249 6.20604C18.2249 6.60569 18.5488 6.92967 18.9485 6.92967Z" fill="white"/>
<path d="M20.9421 6.92967C21.3418 6.92967 21.6658 6.60569 21.6658 6.20604C21.6658 5.8064 21.3418 5.48242 20.9421 5.48242C20.5425 5.48242 20.2185 5.8064 20.2185 6.20604C20.2185 6.60569 20.5425 6.92967 20.9421 6.92967Z" fill="white"/>
<path d="M57.0069 48.3608V59.6774H33.6462L34.3216 52.3585L34.3634 51.9215L34.9106 45.994C35.0273 44.7178 35.9598 43.6705 37.2108 43.3904C38.4001 43.1252 40.108 42.9335 41.996 42.8282C42.1093 42.8217 42.2229 42.8148 42.3381 42.8099C44.3548 42.7081 46.5498 42.7031 48.5209 42.8083C48.6261 42.8133 48.7294 42.8198 48.8328 42.8267C50.6906 42.9369 52.3238 43.1485 53.3876 43.4738C53.6597 43.5572 53.9195 43.6605 54.1683 43.7841C54.2452 43.8224 54.3217 43.8626 54.3952 43.9043C55.9844 44.7932 57.0069 46.4842 57.0069 48.3608Z" fill="#173085"/>
<path opacity="0.4" d="M48.8324 42.8266L34.6886 59.6773H34.3618L48.5205 42.8082C48.6253 42.8132 48.729 42.8201 48.8324 42.8266Z" fill="white"/>
<path d="M51.7698 54.4451L51.753 54.8522L47.7032 59.6773H47.3779L51.7698 54.4451Z" fill="white"/>
<path d="M62.1289 59.6773H51.5627L51.7529 54.8522L51.7698 54.4455L52.2117 43.2322L55.6611 43.7094C57.0586 43.903 58.3379 44.5149 59.3404 45.4241C59.404 45.4792 59.4637 45.5358 59.5237 45.5959C60.4578 46.5047 61.1267 47.6807 61.3885 49.0185C61.4386 49.2772 61.4719 49.5339 61.4887 49.7857L62.1289 59.6773Z" fill="#173085"/>
<path opacity="0.4" d="M54.0512 59.8024C54.0229 59.8024 53.9942 59.7928 53.9708 59.7729C53.918 59.7285 53.9112 59.6497 53.9555 59.5965L61.4543 50.6616C61.4987 50.6085 61.5779 50.6019 61.6307 50.6463C61.6835 50.6907 61.6904 50.7696 61.646 50.8228L54.1473 59.7576C54.1224 59.7871 54.0868 59.8024 54.0512 59.8024Z" fill="white"/>
<path d="M62.2617 59.8032H51.4373V48.6967H51.6875V59.5529H61.995L61.3636 49.7926L61.6131 49.7765L62.2617 59.8032Z" fill="#030047"/>
<path d="M37.4956 43.3168L33.646 59.6773H23.6404L25.5817 55.0172L25.9035 54.245L28.2534 48.6025C29.1374 46.4791 30.9803 44.9048 33.2139 44.3595L34.4549 44.0576L34.8636 43.9574L37.4956 43.3168Z" fill="#173085"/>
<path d="M26.5368 46.1998L23.7261 40.9301C23.5195 40.5429 23.2129 40.218 22.8383 39.9891L19.4372 37.9132C19.017 37.6568 18.474 37.736 18.1449 38.1018C17.7557 38.5343 17.8055 39.2032 18.2536 39.5736L20.2377 41.2129L17.4194 41.4146C17.4194 41.4146 16.5297 40.3802 15.7976 40.6343C15.7976 40.6343 14.8586 39.0776 13.8215 39.9421C13.8215 39.9421 12.7638 39.1691 12.2863 39.5759C11.8087 39.9826 14.7265 44.2838 15.1743 44.4365C15.6216 44.5892 17.1672 44.7518 17.1672 44.7518C17.1672 44.7518 17.1266 45.555 17.8992 46.0024C18.6722 46.4497 19.3025 46.3074 19.3025 46.3074L19.852 47.3781L26.5368 46.1998Z" fill="white"/>
<path d="M19.8524 47.5036C19.8061 47.5036 19.7628 47.4779 19.741 47.4355L19.2324 46.4447C19.0174 46.4685 18.4725 46.4788 17.8369 46.1107C17.1813 45.7311 17.0646 45.1211 17.0455 44.8643C16.6816 44.8238 15.524 44.6879 15.1341 44.5547C14.6424 44.3871 12.3242 40.9274 12.1252 39.8839C12.1118 39.8127 12.0704 39.5961 12.2055 39.481C12.6797 39.0776 13.5403 39.5988 13.8177 39.7867C14.0794 39.5946 14.3576 39.5219 14.6469 39.5705C15.2454 39.6711 15.7027 40.2689 15.8527 40.4897C16.5446 40.3385 17.2862 41.0843 17.4718 41.286L19.9174 41.1111L18.174 39.6708C17.9306 39.4699 17.7837 39.1855 17.7607 38.8706C17.7374 38.5557 17.8411 38.2534 18.0519 38.0188C18.4212 37.6086 19.0312 37.5194 19.5022 37.8072L22.9034 39.8831C23.2967 40.1235 23.6193 40.4652 23.8363 40.872L26.647 46.1417C26.6657 46.1769 26.6665 46.2193 26.6489 46.2553C26.6313 46.2913 26.5976 46.3169 26.5582 46.3238L19.8734 47.5024C19.8665 47.5028 19.8592 47.5036 19.8524 47.5036ZM19.3021 46.1826C19.3484 46.1826 19.392 46.2082 19.4138 46.2503L19.9216 47.2391L26.3454 46.1065L23.6159 40.989C23.42 40.6217 23.1288 40.3129 22.7736 40.0963L19.3725 38.0203C19.004 37.7953 18.5268 37.8653 18.2383 38.186C18.073 38.3693 17.9922 38.6062 18.0106 38.8522C18.0286 39.0983 18.1434 39.3206 18.3336 39.4779L20.3181 41.1172C20.3575 41.1498 20.3732 41.203 20.3575 41.2519C20.3422 41.3005 20.2982 41.335 20.2473 41.3384L17.4289 41.5401C17.388 41.5428 17.3512 41.5267 17.3252 41.4968C17.3168 41.4873 16.483 40.5299 15.8393 40.7533C15.7827 40.7728 15.7219 40.7503 15.6912 40.6998C15.6866 40.6921 15.2121 39.9191 14.6048 39.8173C14.3603 39.7764 14.1303 39.8487 13.9023 40.0389C13.8583 40.0756 13.7947 40.0775 13.7484 40.0439C13.476 39.8453 12.6976 39.3918 12.3682 39.6719C12.3685 39.6719 12.3349 39.7263 12.3976 39.9467C12.7405 41.1513 14.9232 44.2054 15.2156 44.3186C15.6442 44.4648 17.1657 44.6263 17.181 44.6278C17.2472 44.6347 17.2961 44.6921 17.2927 44.7587C17.2916 44.7882 17.2686 45.493 17.9627 45.8948C18.6791 46.3097 19.2703 46.1872 19.2761 46.186C19.2841 46.1834 19.2933 46.1826 19.3021 46.1826Z" fill="#030047"/>
<path d="M22.3532 44.1315C22.3532 44.1315 20.3399 43.3382 18.7944 44.0603C18.7944 44.0603 16.4831 40.4575 15.9351 41.7926C15.8425 42.018 15.8616 42.2748 15.9691 42.4937L17.1676 44.7518" fill="white"/>
<path d="M17.1672 44.877C17.1225 44.877 17.0792 44.8529 17.0566 44.8104L15.8581 42.5523C15.7292 42.2898 15.7154 41.9971 15.8191 41.7453C15.9362 41.4598 16.1226 41.3856 16.2584 41.3729C17.08 41.2983 18.5001 43.3838 18.8406 43.9027C20.4 43.243 22.316 43.9827 22.3987 44.0152C22.463 44.0405 22.4947 44.1132 22.4695 44.1775C22.4442 44.2418 22.3711 44.2732 22.3072 44.2483C22.2873 44.2406 20.3242 43.4837 18.8471 44.174C18.7905 44.2005 18.7228 44.1813 18.6891 44.1281C18.0504 43.1328 16.8381 41.5723 16.2814 41.6224C16.2182 41.6282 16.126 41.6569 16.0506 41.8405C15.9745 42.0261 15.9856 42.2443 16.0812 42.439L17.2778 44.6937C17.3104 44.7549 17.287 44.8303 17.2262 44.8628C17.207 44.8724 17.1871 44.877 17.1672 44.877Z" fill="#030047"/>
<path d="M15.1742 44.5616C15.1294 44.5616 15.0865 44.5375 15.0636 44.4954C14.5512 43.5395 13.3818 41.2738 13.5834 40.8754C13.6684 40.7074 13.8605 40.6056 14.097 40.6029C14.3384 40.6003 15.1772 40.7139 16.0245 42.2947C16.057 42.3556 16.0344 42.4313 15.9732 42.4642C15.912 42.4968 15.8366 42.4738 15.8037 42.413C15.1872 41.2623 14.5244 40.8532 14.1069 40.8532C14.1046 40.8532 14.1019 40.8532 14.0996 40.8532C13.9581 40.8547 13.8486 40.9053 13.8065 40.9887C13.7243 41.2236 14.5091 42.9315 15.284 44.3776C15.3165 44.4384 15.294 44.5142 15.2327 44.5471C15.2144 44.557 15.1941 44.5616 15.1742 44.5616Z" fill="#030047"/>
<path d="M31.9118 59.6773H21.0919L19.8027 54.1481L19.7327 53.8447L18.2166 47.3397L26.4026 45.897L26.7864 45.8305L27.125 45.7704L28.8378 50.7489L28.9328 51.0244L30.7309 56.2482L30.8258 56.5233L31.9118 59.6773Z" fill="#173085"/>
<path d="M25.9303 15.3527H18.0393C17.9261 15.3527 17.8342 15.2608 17.8342 15.1476V12.2787C17.8342 12.1654 17.9261 12.0736 18.0393 12.0736H25.9303C26.0436 12.0736 26.1354 12.1654 26.1354 12.2787V15.1476C26.1354 15.2608 26.0436 15.3527 25.9303 15.3527ZM57.0193 13.7133C57.0193 13.8886 56.9477 14.0486 56.8326 14.1653C56.7174 14.2804 56.5574 14.352 56.3806 14.352H54.0643C53.7108 14.352 53.4257 14.065 53.4257 13.7133C53.4257 13.5365 53.4972 13.3762 53.6124 13.2614C53.7276 13.1462 53.8876 13.0747 54.0643 13.0747H56.3806C56.7338 13.0747 57.0193 13.3598 57.0193 13.7133Z" fill="#E6F3FC"/>
<path d="M61.9022 13.7134C61.9022 13.8886 61.8307 14.0486 61.7155 14.1653C61.6003 14.2805 61.4403 14.352 61.2635 14.352H58.9473C58.5937 14.352 58.3086 14.065 58.3086 13.7134C58.3086 13.5366 58.3801 13.3762 58.4953 13.2614C58.6105 13.1463 58.7705 13.0747 58.9473 13.0747H61.2635C61.6171 13.0747 61.9022 13.3598 61.9022 13.7134Z" fill="#0F3DFB"/>
<path d="M66.7853 13.7134C66.7853 13.8886 66.7137 14.0486 66.5985 14.1653C66.4833 14.2805 66.3234 14.352 66.1466 14.352H63.8303C63.4767 14.352 63.1917 14.065 63.1917 13.7134C63.1917 13.5366 63.2632 13.3762 63.3784 13.2614C63.4936 13.1463 63.6535 13.0747 63.8303 13.0747H66.1466C66.4998 13.0747 66.7853 13.3598 66.7853 13.7134Z" fill="#E6F3FC"/>
<path d="M34.3701 22.6294V29.6597C34.3701 31.451 32.9175 32.9021 31.1263 32.9021H21.2956L18.9123 35.249C18.3134 35.8379 17.3529 35.8379 16.7541 35.249L14.3739 32.9021H4.54165C2.75039 32.9021 1.29932 31.451 1.29932 29.6597V22.6294C1.29932 20.8381 2.75039 19.3851 4.54165 19.3851H31.1263C32.9175 19.3851 34.3701 20.8381 34.3701 22.6294Z" fill="#0F3DFB"/>
<path d="M17.8331 35.8122C17.4106 35.8122 16.9882 35.6542 16.6663 35.3377L14.3225 33.0268H4.54154C2.68484 33.0268 1.17407 31.516 1.17407 29.6593V22.6294C1.17407 20.7715 2.68446 19.2604 4.54154 19.2604H31.1262C32.984 19.2604 34.4952 20.7719 34.4952 22.6294V29.6597C34.4952 31.5164 32.9836 33.0272 31.1262 33.0272H21.3467L18.9998 35.3381C18.6784 35.6542 18.2555 35.8122 17.8331 35.8122ZM4.54154 19.5103C2.8226 19.5103 1.42434 20.9093 1.42434 22.6294V29.6597C1.42434 31.3787 2.8226 32.7769 4.54154 32.7769H14.4251L16.8416 35.1598C17.388 35.6971 18.2774 35.6971 18.8242 35.1598L21.2438 32.7769H31.1258C32.8455 32.7769 34.2445 31.3787 34.2445 29.6597V22.6294C34.2445 20.9097 32.8455 19.5103 31.1258 19.5103H4.54154Z" fill="#030047"/>
<path d="M7.06274 27.6745C7.02256 27.5084 6.99578 27.3075 6.98238 27.0726C6.96899 26.8376 6.95368 26.3421 6.93685 25.5863C6.77919 25.9204 6.61464 26.2227 6.44321 26.4932C6.18644 26.9031 6.01271 27.2195 5.92201 27.443C5.92852 27.4698 5.93196 27.4943 5.93196 27.5161C5.93196 27.6167 5.88643 27.7055 5.79612 27.7817C5.70543 27.8582 5.59637 27.8965 5.46855 27.8965C5.34419 27.8965 5.24699 27.8651 5.1762 27.8019C5.10579 27.7388 5.07556 27.647 5.08551 27.526L5.05527 27.2264L4.98984 26.3222C4.973 26.0872 4.94162 25.8259 4.89532 25.5389C4.84902 25.2519 4.77822 24.8562 4.68256 24.3526C4.67605 24.3239 4.67261 24.299 4.67261 24.2772C4.67261 24.1815 4.71317 24.0962 4.79468 24.0216C4.87619 23.947 4.97491 23.9095 5.09048 23.9095C5.16433 23.9095 5.22939 23.9294 5.28564 23.9688C5.34189 24.0082 5.38934 24.0863 5.42799 24.203C5.46664 24.3197 5.51141 24.5921 5.56269 25.0203C5.61397 25.4485 5.65797 25.9296 5.69509 26.4638C5.88796 26.1228 6.08733 25.7359 6.29205 25.3024C6.54385 24.7517 6.74666 24.3939 6.90049 24.2294C7.05394 24.0648 7.18214 23.9826 7.28469 23.9826C7.3838 23.9826 7.4676 24.0212 7.53648 24.0985C7.60536 24.1758 7.63981 24.3817 7.63981 24.7157C7.63981 24.7846 7.63483 24.9526 7.6245 25.2197C7.61264 25.5369 7.63445 26.0635 7.68993 26.799C7.84453 26.5422 8.04428 26.1894 8.28957 25.7409L8.6975 25.0004C8.72122 24.9549 8.78819 24.7999 8.89916 24.5344C9.06715 24.118 9.26767 23.9098 9.50148 23.9098C9.59715 23.9098 9.67253 23.9359 9.72802 23.9879C9.7835 24.0399 9.81144 24.1073 9.81144 24.1896C9.81144 24.2248 9.8034 24.2638 9.78733 24.3067C9.77126 24.3495 9.72266 24.4444 9.64115 24.5914C9.55964 24.7383 9.48541 24.8826 9.41806 25.0246C9.35109 25.1665 9.26346 25.3315 9.15631 25.5193C9.04878 25.7076 8.94814 25.8787 8.85401 26.0333L8.32746 26.9149C8.22146 27.0929 8.13689 27.2417 8.07298 27.3607C7.92183 27.6428 7.80359 27.8192 7.71787 27.8896C7.63253 27.96 7.53228 27.9956 7.41824 27.9956C7.31416 27.9956 7.22576 27.9653 7.15382 27.9049C7.08111 27.8433 7.05088 27.7667 7.06274 27.6745ZM11.036 24.5183C10.969 24.9247 10.9093 25.2564 10.8573 25.5132C11.0654 25.4964 11.3987 25.4654 11.8572 25.4202C12.1813 25.39 12.3879 25.3747 12.4767 25.3747C12.5708 25.3747 12.6455 25.4007 12.701 25.4528C12.7564 25.5048 12.784 25.5737 12.784 25.6594C12.784 25.757 12.7526 25.8442 12.6895 25.9215C12.6267 25.9988 12.5253 26.0432 12.386 26.0551C12.2467 26.0669 12.0309 26.0876 11.7385 26.1167C11.4462 26.1461 11.1003 26.176 10.7008 26.2062C10.6032 26.6815 10.5546 27.0029 10.5546 27.1709C10.5546 27.2299 10.5611 27.2693 10.5745 27.2892C10.5879 27.3095 10.6904 27.3194 10.8818 27.3194H11.0781L11.8262 27.3045C11.848 27.3045 11.9261 27.2961 12.0608 27.2792C12.1748 27.2643 12.2674 27.2827 12.3378 27.3347C12.4082 27.3868 12.4434 27.4606 12.4434 27.5563C12.4434 27.7361 12.3719 27.8548 12.228 27.9125C12.0845 27.9703 11.6884 27.9994 11.0402 27.9994C10.496 27.9994 10.162 27.9366 10.0376 27.8119C9.91323 27.6868 9.85124 27.4908 9.85124 27.2237C9.85124 26.9383 9.93504 26.4335 10.103 25.7099C10.2542 25.077 10.3296 24.6537 10.3296 24.4402C10.338 24.2607 10.3525 24.1326 10.3736 24.056C10.3946 23.9795 10.4382 23.9163 10.5044 23.8658C10.5706 23.8153 10.6567 23.7901 10.7627 23.7901C10.8381 23.7901 10.902 23.8126 10.9545 23.8582C11.3475 23.7575 11.7068 23.707 12.0324 23.707C12.2911 23.707 12.5517 23.7342 12.8146 23.7889C13.0775 23.8436 13.2088 23.9489 13.2088 24.105C13.2088 24.2175 13.1682 24.3155 13.0867 24.3985C13.0052 24.4815 12.9114 24.5233 12.8058 24.5233C12.7687 24.5233 12.7327 24.5183 12.6975 24.5083C12.4358 24.436 12.1763 24.4 11.9192 24.4C11.6502 24.3997 11.3551 24.4395 11.036 24.5183ZM13.0174 27.4403L13.1938 26.6494C13.3465 25.9575 13.4961 25.1455 13.6423 24.2137C13.6557 24.1245 13.7012 24.0449 13.7782 23.9745C13.8555 23.9041 13.9454 23.8689 14.0476 23.8689C14.1363 23.8689 14.2087 23.8957 14.2641 23.9496C14.3196 24.0036 14.3472 24.0732 14.3472 24.1586C14.3472 24.224 14.3043 24.4926 14.219 24.9645L14.02 26.0375C13.9729 26.2808 13.88 26.7033 13.7403 27.3045C14.1367 27.2995 14.6621 27.2012 15.3172 27.0098C15.3593 26.9999 15.3972 26.9949 15.4305 26.9949C15.5331 26.9949 15.6077 27.0259 15.6548 27.0883C15.7018 27.1503 15.7252 27.2149 15.7252 27.2823C15.7252 27.435 15.6525 27.5513 15.507 27.6313C15.3616 27.7109 15.0723 27.7901 14.638 27.8681C14.2037 27.9462 13.839 27.9852 13.5436 27.9852C13.1858 27.9852 13.0071 27.8475 13.0071 27.572C13.0071 27.531 13.0105 27.487 13.0174 27.4403ZM18.9128 24.022C19.0016 23.9496 19.0957 23.9137 19.1948 23.9137C19.3796 23.9137 19.4719 24.038 19.4719 24.2864C19.4719 24.5853 19.4317 24.7907 19.3509 24.9021C19.2702 25.0138 19.1619 25.0697 19.0261 25.0697C18.8715 25.0697 18.7716 24.9909 18.7264 24.8328C18.7061 24.759 18.6828 24.7146 18.656 24.6993C18.6292 24.684 18.5611 24.6767 18.4521 24.6767C18.1968 24.6767 17.865 24.9075 17.4571 25.3693C17.0492 25.8312 16.8449 26.2342 16.8449 26.5786C16.8449 26.7282 16.8942 26.8568 16.9922 26.9651C17.0901 27.0733 17.2176 27.1277 17.3737 27.1277C17.5149 27.1277 17.6454 27.1043 17.7655 27.0573C17.8857 27.0102 18.0717 26.9088 18.3235 26.7527C18.4681 26.6654 18.573 26.6218 18.6384 26.6218C18.7291 26.6218 18.803 26.6505 18.86 26.7075C18.917 26.7645 18.9457 26.8369 18.9457 26.9241C18.9457 27.0083 18.9155 27.0837 18.855 27.1506C18.7945 27.218 18.6637 27.3133 18.462 27.4365C18.2603 27.5601 18.0594 27.6539 17.8585 27.7185C17.658 27.7832 17.4602 27.8153 17.2654 27.8153C16.9229 27.8153 16.6478 27.7032 16.4404 27.479C16.233 27.2547 16.1293 26.9907 16.1293 26.6869C16.1293 26.1446 16.4105 25.5595 16.973 24.9323C17.5356 24.3051 18.0644 23.9914 18.56 23.9914C18.7115 23.9917 18.829 24.0017 18.9128 24.022ZM19.5538 26.561C19.5538 26.2081 19.6659 25.8174 19.8901 25.3885C20.1144 24.9595 20.417 24.6097 20.7982 24.3392C21.1793 24.0686 21.5815 23.9336 22.0047 23.9336C23.0276 23.9336 23.5388 24.3442 23.5388 25.1654C23.5388 25.827 23.3047 26.4492 22.8363 27.032C22.3675 27.6148 21.8065 27.906 21.1537 27.906C20.6849 27.906 20.3015 27.7801 20.0026 27.5283C19.7034 27.2765 19.5538 26.954 19.5538 26.561ZM20.2793 26.4377C20.2793 26.6662 20.3715 26.8537 20.5563 27.0006C20.7412 27.1476 20.9761 27.2211 21.2616 27.2211C21.673 27.2211 22.0346 27.0068 22.3461 26.5786C22.6576 26.1504 22.8133 25.7111 22.8133 25.261C22.8133 25.0291 22.7444 24.8646 22.6067 24.7674C22.4689 24.6702 22.232 24.6212 21.8964 24.6212C21.6244 24.6212 21.3622 24.7188 21.1104 24.9136C20.8586 25.1084 20.657 25.3575 20.5058 25.6605C20.3547 25.9636 20.2793 26.2227 20.2793 26.4377ZM25.1797 25.5033C25.1261 25.6242 25.0033 25.9502 24.812 26.4817C24.6206 27.0133 24.497 27.373 24.4419 27.5613C24.3378 27.7997 24.1917 27.919 24.0038 27.919C23.9165 27.919 23.8473 27.8919 23.796 27.8372C23.7447 27.7824 23.7195 27.7135 23.7195 27.6294C23.7195 27.4162 23.8327 27.0619 24.0593 26.5663C24.1921 26.274 24.2904 26.0467 24.3539 25.8836L24.7618 24.7754C24.8977 24.4092 25.0171 24.1758 25.1196 24.0752C25.2222 23.9745 25.3347 23.924 25.4571 23.924C25.6236 23.924 25.7265 24.0078 25.7671 24.1758C25.8073 24.3438 25.8318 24.7586 25.8402 25.4202C25.8467 25.9709 25.8712 26.3891 25.9133 26.6746C26.1498 26.2315 26.423 25.6158 26.7318 24.8282L26.9637 24.2489C27.0594 24.0086 27.2197 23.8888 27.4447 23.8888C27.5488 23.8888 27.633 23.9435 27.6965 24.0526C27.7604 24.1616 27.7922 24.3859 27.7922 24.7249L27.7872 25.3219C27.7853 25.5385 27.7922 25.7757 27.8071 26.0336C27.8224 26.2916 27.8458 26.5395 27.8775 26.7779C27.9414 27.2433 27.9732 27.5176 27.9732 27.6014C27.9732 27.6871 27.9296 27.769 27.8423 27.8471C27.7551 27.9252 27.6567 27.9642 27.5477 27.9642C27.3628 27.9642 27.248 27.8314 27.2025 27.5662L27.1596 26.9593C27.1527 26.8587 27.1478 26.3386 27.1443 25.3999C27.116 25.4554 27.0812 25.5327 27.041 25.6318C26.8259 26.1492 26.6648 26.5101 26.5573 26.7152L26.3132 27.1813C26.1704 27.4533 26.0568 27.6355 25.973 27.7277C25.8888 27.8199 25.7839 27.8662 25.6581 27.8662C25.5153 27.8662 25.417 27.7729 25.3634 27.5865L25.298 27.1181C25.2628 26.861 25.2233 26.3226 25.1797 25.5033ZM29.7373 24.5183C29.6703 24.9247 29.6106 25.2564 29.5586 25.5132C29.7667 25.4964 30.1 25.4654 30.5585 25.4202C30.8826 25.39 31.0892 25.3747 31.178 25.3747C31.2722 25.3747 31.3468 25.4007 31.4023 25.4528C31.4577 25.5048 31.4853 25.5737 31.4853 25.6594C31.4853 25.757 31.4539 25.8442 31.3908 25.9215C31.328 25.9988 31.2266 26.0432 31.0873 26.0551C30.948 26.0669 30.7322 26.0876 30.4399 26.1167C30.1475 26.1461 29.8016 26.176 29.4021 26.2062C29.3045 26.6815 29.2559 27.0029 29.2559 27.1709C29.2559 27.2299 29.2624 27.2693 29.2758 27.2892C29.2892 27.3095 29.3917 27.3194 29.5831 27.3194H29.7794L30.5275 27.3045C30.5493 27.3045 30.6274 27.2961 30.7621 27.2792C30.8761 27.2643 30.9687 27.2827 31.0391 27.3347C31.1095 27.3868 31.1447 27.4606 31.1447 27.5563C31.1447 27.7361 31.0732 27.8548 30.9293 27.9125C30.7858 27.9703 30.3897 27.9994 29.7415 27.9994C29.1973 27.9994 28.8633 27.9366 28.7389 27.8119C28.6145 27.6868 28.5525 27.4908 28.5525 27.2237C28.5525 26.9383 28.6363 26.4335 28.8043 25.7099C28.9555 25.077 29.0309 24.6537 29.0309 24.4402C29.0393 24.2607 29.0538 24.1326 29.0749 24.056C29.0959 23.9795 29.1396 23.9163 29.2058 23.8658C29.272 23.8153 29.3581 23.7901 29.4641 23.7901C29.5394 23.7901 29.6033 23.8126 29.6558 23.8582C30.0488 23.7575 30.4081 23.707 30.7337 23.707C30.9924 23.707 31.253 23.7342 31.5159 23.7889C31.7788 23.8436 31.9101 23.9489 31.9101 24.105C31.9101 24.2175 31.8695 24.3155 31.788 24.3985C31.7065 24.4815 31.6127 24.5233 31.5071 24.5233C31.47 24.5233 31.434 24.5183 31.3988 24.5083C31.1371 24.436 30.8772 24.4 30.6205 24.4C30.3515 24.3997 30.0564 24.4395 29.7373 24.5183Z" fill="white"/>
<path d="M77.6752 34.7412L77.7074 31.8501L76.2008 31.8333C76.0298 30.9719 75.6988 30.1672 75.2426 29.4493L76.3202 28.3943L74.2986 26.3271L73.221 27.3821C72.5134 26.9087 71.7164 26.5613 70.8588 26.3711L70.8756 24.8645L67.9831 24.8324L67.9662 26.339C67.1048 26.51 66.3001 26.8399 65.5822 27.2972L64.5283 26.2184L62.4612 28.24L63.515 29.3188C63.0432 30.0263 62.6942 30.8238 62.504 31.681L60.9975 31.6641L60.9653 34.5552L62.4719 34.572C62.6429 35.4349 62.974 36.2397 63.4301 36.956L62.3525 38.0111L64.3741 40.0782L65.4517 39.0232C66.1593 39.4962 66.9564 39.844 67.8139 40.0342L67.7971 41.5423L70.6897 41.5744L70.7065 40.0664C71.5679 39.8953 72.3726 39.5654 73.0905 39.1082L74.1444 40.1869L76.2115 38.1653L75.1577 37.0865C75.6295 36.3805 75.9785 35.583 76.1687 34.7243L77.6752 34.7412ZM69.5818 36.6943C67.4244 36.8409 65.6584 35.0362 65.8516 32.8806C66.0035 31.1854 67.3937 29.8262 69.092 29.7118C71.251 29.5667 73.0159 31.3726 72.8215 33.5262C72.668 35.2207 71.279 36.5787 69.5818 36.6943Z" fill="#0F3DFB"/>
<path d="M75.2345 49.2531L74.1309 49.9476C73.6128 50.2706 72.9324 50.1156 72.6086 49.6013L71.9141 48.4977C71.5904 47.983 71.745 47.3026 72.2596 46.9789L73.364 46.2809C73.8783 45.9571 74.5591 46.1117 74.8863 46.6272L75.58 47.7343C75.9038 48.2486 75.7488 48.9289 75.2345 49.2531Z" fill="#173085"/>
<path d="M9.48174 15.5938L8.66743 16.4754C8.28438 16.8864 7.64264 16.9121 7.23166 16.5325L6.35 15.7181C5.93901 15.3385 5.91376 14.6964 6.29336 14.2858L7.10768 13.4007C7.48728 12.9897 8.12901 12.9645 8.54344 13.3437L9.42511 14.1615C9.83609 14.5407 9.86135 15.1824 9.48174 15.5938Z" fill="#173085"/>
<path d="M75.588 19.964L74.8342 20.4385C74.4802 20.6589 74.0156 20.5533 73.7945 20.202L73.32 19.4482C73.0988 19.0969 73.2044 18.6319 73.5561 18.4108L74.3103 17.934C74.6616 17.7128 75.1265 17.8184 75.35 18.1704L75.8237 18.9266C76.0449 19.2779 75.9393 19.7428 75.588 19.964Z" fill="#173085"/>
<path d="M11.4364 7.70778L10.6826 8.18229C10.3286 8.4027 9.86404 8.29709 9.64286 7.9458L9.16835 7.19195C8.94717 6.84066 9.05279 6.37572 9.40446 6.15454L10.1587 5.67773C10.51 5.45655 10.9749 5.56217 11.1984 5.91422L11.6721 6.67037C11.8937 7.02166 11.7877 7.48622 11.4364 7.70778Z" fill="#173085"/>
<g opacity="0.4">
<path d="M26.7864 45.8306L19.8027 54.1482L19.7327 53.8448L26.4025 45.8972L26.7864 45.8306Z" fill="white"/>
</g>
<g opacity="0.4">
<path d="M34.864 43.9573L28.9327 51.0244L25.582 55.0171L21.6708 59.6772H21.344L25.9038 54.2449L28.8378 50.7488L34.4553 44.0575L34.864 43.9573Z" fill="white"/>
</g>
<g opacity="0.4">
<path d="M42.3377 42.8098L34.322 52.3585L30.8259 56.5234L28.179 59.6774H27.8538L30.731 56.2483L34.3637 51.9219L41.996 42.8286C42.1089 42.8217 42.2225 42.8148 42.3377 42.8098Z" fill="white"/>
</g>
<g opacity="0.4">
<path d="M54.395 43.9042L41.1551 59.6774H40.8298L54.1681 43.7841C54.245 43.8223 54.3215 43.8625 54.395 43.9042Z" fill="white"/>
</g>
<g opacity="0.4">
<path d="M59.5237 45.5952L51.7529 54.8519L51.7698 54.4451L59.3404 45.4233C59.4036 45.4784 59.4637 45.5351 59.5237 45.5952Z" fill="white"/>
</g>
<path d="M73.5003 59.8059H11.788C11.7191 59.8059 11.6628 59.7501 11.6628 59.6808C11.6628 59.6115 11.7187 59.5557 11.788 59.5557H73.5003C73.5691 59.5557 73.6254 59.6115 73.6254 59.6808C73.6254 59.7501 73.5691 59.8059 73.5003 59.8059Z" fill="#030047"/>
<path d="M21.092 59.8032C21.035 59.8032 20.9838 59.7641 20.9704 59.7063L18.095 47.3688C18.0873 47.3355 18.0935 47.3003 18.1126 47.2716C18.1314 47.2429 18.1616 47.2234 18.1953 47.2173L27.1037 45.6468C27.1634 45.6357 27.2235 45.6713 27.2438 45.7291L30.731 55.8628C30.7536 55.9283 30.7188 55.9995 30.6534 56.022C30.5883 56.0446 30.5167 56.0098 30.4945 55.9444L27.0421 45.9116L18.369 47.4407L21.2145 59.6497C21.2302 59.7171 21.1881 59.7844 21.1211 59.8001C21.1108 59.802 21.1012 59.8032 21.092 59.8032Z" fill="#030047"/>
<path d="M31.9118 59.8032C31.9057 59.8032 31.8995 59.8028 31.893 59.8017C31.8249 59.7914 31.7775 59.7278 31.7878 59.6597L33.2086 50.0977C33.219 50.0292 33.2836 49.9825 33.351 49.9924C33.4191 50.0028 33.4665 50.0663 33.4562 50.1344L32.0354 59.6965C32.0258 59.7585 31.9726 59.8032 31.9118 59.8032Z" fill="#030047"/>
<path d="M40.6713 35.0501L40.1742 43.1086C40.1742 43.1086 36.9855 46.4597 41.3865 47.2204C47.3002 48.2425 46.9424 43.1335 46.9424 43.1335L48.1896 32.5999L40.6713 35.0501Z" fill="white"/>
<path d="M42.851 47.4809C42.3899 47.4809 41.8943 47.4353 41.3647 47.3435C40.0445 47.1154 39.2524 46.629 39.0102 45.8978C38.6153 44.7042 39.8318 43.2972 40.0518 43.0561L40.5462 35.0419C40.5496 34.9906 40.5833 34.9466 40.6323 34.9305L48.1502 32.4803C48.1903 32.4673 48.2351 32.4754 48.2684 32.5025C48.3013 32.5297 48.3182 32.5718 48.3132 32.6139L47.0676 43.1364C47.0787 43.3259 47.1564 45.2675 45.7906 46.502C45.0701 47.1533 44.0847 47.4805 42.851 47.4809ZM40.7911 35.1425L40.2994 43.1162C40.2975 43.1456 40.2852 43.1732 40.2653 43.1946C40.2512 43.2092 38.8709 44.6797 39.249 45.8197C39.4598 46.4561 40.1861 46.8858 41.4083 47.097C43.2738 47.4196 44.692 47.1575 45.6223 46.3179C46.9386 45.1301 46.8196 43.1617 46.8185 43.1418C46.8181 43.1342 46.8181 43.1261 46.8189 43.1185L48.043 32.7792L40.7911 35.1425Z" fill="#030047"/>
<path d="M44.646 25.8841C44.501 26.9586 43.3281 27.6872 42.0263 27.5116C40.7245 27.3359 39.7869 26.3222 39.9323 25.2473C40.0774 24.1728 42.1365 21.9606 43.438 22.1366C44.7394 22.3127 44.7911 24.8096 44.646 25.8841Z" fill="#030047"/>
<path d="M48.0005 36.782C48.2997 36.5161 48.5813 36.2256 48.8419 35.9115C50.0106 34.5036 50.9298 32.7966 52.1574 31.1102L43.8378 23.913C43.635 24.0063 39.5814 26.4095 37.644 31.9076C36.3134 35.6834 37.5793 37.723 40.3739 38.5186C42.0243 38.9885 43.7502 38.9135 45.3111 38.364" fill="white"/>
<path d="M42.5995 38.9559C41.8411 38.9559 41.0822 38.8507 40.3399 38.639C38.9171 38.2342 37.9337 37.5224 37.4174 36.524C36.8124 35.3546 36.8492 33.7876 37.5261 31.8662C39.5451 26.1366 43.7448 23.818 43.7858 23.7992C43.8305 23.7786 43.8826 23.7862 43.9197 23.8184L52.2393 31.0155C52.2886 31.058 52.297 31.1311 52.2588 31.1839C51.7445 31.8907 51.2826 32.604 50.8356 33.2936C50.2104 34.2586 49.6199 35.1702 48.9384 35.9917C48.677 36.3067 48.3893 36.604 48.0835 36.8757C48.0318 36.9212 47.953 36.917 47.9071 36.8654C47.8612 36.8137 47.8658 36.7345 47.9174 36.6886C48.2136 36.4253 48.4926 36.1368 48.7459 35.8318C49.4182 35.0221 50.0045 34.1163 50.6256 33.1577C51.0545 32.4953 51.4973 31.8111 51.989 31.13L43.8233 24.0659C43.2791 24.3935 39.5776 26.7986 37.7622 31.9496C37.109 33.8033 37.0677 35.3037 37.6398 36.4096C38.1231 37.3441 39.0549 38.0134 40.4084 38.3987C42.011 38.8549 43.692 38.8021 45.2698 38.2464C45.3344 38.2238 45.4064 38.2575 45.4293 38.323C45.4523 38.388 45.4182 38.4596 45.3528 38.4825C44.457 38.7978 43.5286 38.9559 42.5995 38.9559Z" fill="#030047"/>
<path d="M47.4559 39.6972L47.392 38.1363L46.867 34.5733C46.5976 34.8412 46.1418 34.6996 46.0664 34.3273C45.9317 33.661 46.8896 31.7404 47.9449 30.6112C47.9449 30.6112 40.711 28.1992 41.6524 24.7847C43.3013 18.804 46.6469 19.585 50.1533 24.5543C51.8899 27.0153 56.7761 29.4911 53.1159 33.281C54.1782 36.8138 49.5246 39.931 47.4559 39.6972Z" fill="#030047"/>
<path d="M45.9485 37.3116C45.9485 37.3116 46.7525 38.1565 48.0972 38.2663C49.4419 38.3765 51.1635 34.8992 50.2699 34.1572C49.3768 33.4156 46.8669 34.5732 46.8669 34.5732" fill="white"/>
<path d="M48.1605 38.3941C48.136 38.3941 48.1111 38.393 48.0867 38.3911C46.7102 38.2786 45.8917 37.4336 45.8576 37.3977C45.8102 37.3475 45.8121 37.2687 45.8618 37.2209C45.912 37.173 45.9912 37.1753 46.0386 37.2251C46.0463 37.2331 46.8288 38.0371 48.1069 38.1416C48.8076 38.2001 49.6701 37.1198 50.1087 36.0445C50.4527 35.2011 50.4844 34.4982 50.1894 34.2533C49.3674 33.5702 46.9433 34.6754 46.9188 34.6865C46.8552 34.7155 46.7818 34.688 46.7527 34.6252C46.7236 34.5625 46.7512 34.4882 46.8139 34.4592C46.9191 34.4106 49.4061 33.2775 50.3494 34.0608C50.7416 34.3865 50.7382 35.1633 50.3402 36.1387C49.8768 37.2771 48.9886 38.3941 48.1605 38.3941Z" fill="#030047"/>
<path d="M47.5632 35.3967C47.8055 35.1855 48.0925 35.0248 48.3994 34.9287C48.5918 34.8686 48.7966 34.8334 48.9956 34.8667C49.1945 34.9 49.387 35.0099 49.4865 35.1855C49.627 35.4338 49.5558 35.7465 49.4509 36.0121C49.26 36.4965 48.893 36.9592 48.3485 37.0797" fill="white"/>
<path d="M48.348 37.2052C48.2906 37.2052 48.2389 37.1654 48.2259 37.1072C48.211 37.0399 48.2534 36.9729 48.3212 36.958C48.9369 36.8218 49.2346 36.2194 49.3345 35.9669C49.4588 35.6516 49.473 35.4162 49.3777 35.2475C49.3035 35.1166 49.1531 35.0205 48.9752 34.9907C48.8209 34.9651 48.6449 34.9838 48.4371 35.0489C48.1478 35.1392 47.8742 35.2922 47.6462 35.4916C47.5941 35.5371 47.5149 35.5318 47.4697 35.4797C47.4242 35.4277 47.4299 35.3485 47.482 35.3033C47.7365 35.0814 48.0411 34.9111 48.3629 34.8105C48.6093 34.7335 48.8236 34.7121 49.0169 34.7446C49.2687 34.7871 49.4853 34.9291 49.5958 35.125C49.7305 35.3634 49.7217 35.6692 49.5675 36.0591C49.3261 36.6718 48.8917 37.0889 48.3759 37.2029C48.366 37.204 48.3568 37.2052 48.348 37.2052Z" fill="#030047"/>
<path d="M43.4518 32.4988C43.6012 32.1802 43.5491 31.8407 43.3354 31.7404C43.1217 31.6402 42.8273 31.8171 42.6778 32.1357C42.5284 32.4543 42.5805 32.7938 42.7942 32.8941C43.0079 32.9943 43.3023 32.8174 43.4518 32.4988Z" fill="#030047"/>
<path d="M41.3862 31.6715C41.2757 31.9968 40.5857 32.9324 40.2922 33.1115C39.9987 33.2906 39.2468 33.351 39.1526 33.6813C39.0654 33.987 39.1446 34.3349 39.3558 34.5725" fill="white"/>
<path d="M39.3561 34.698C39.3217 34.698 39.2872 34.6838 39.2624 34.6559C39.0247 34.3876 38.9344 33.9919 39.0324 33.6472C39.112 33.3678 39.4728 33.2595 39.8218 33.1547C39.9841 33.1061 40.1372 33.0598 40.2271 33.005C40.4965 32.8405 41.1669 31.9282 41.2675 31.6317C41.2897 31.5662 41.3605 31.531 41.4264 31.5536C41.4918 31.5758 41.527 31.647 41.5044 31.7124C41.3854 32.0625 40.6798 33.0223 40.3572 33.219C40.2397 33.2909 40.0713 33.3414 39.8934 33.395C39.6355 33.4723 39.3148 33.5691 39.2727 33.7164C39.1973 33.9808 39.2666 34.2847 39.4491 34.4906C39.495 34.5422 39.4901 34.6214 39.4384 34.667C39.4151 34.6876 39.3856 34.698 39.3561 34.698Z" fill="#030047"/>
<path d="M41.3619 36.273C41.1767 36.273 40.9914 36.2362 40.8227 36.1624C40.7592 36.1348 40.7305 36.061 40.758 35.9978C40.786 35.9343 40.8598 35.9056 40.9226 35.9331C41.1996 36.0541 41.5295 36.0529 41.8054 35.9312C42.0813 35.8095 42.3044 35.5662 42.4016 35.2807C42.4238 35.2153 42.4946 35.1801 42.5604 35.2026C42.6258 35.2248 42.661 35.296 42.6384 35.3614C42.519 35.712 42.2454 36.0108 41.9064 36.1605C41.7361 36.2355 41.549 36.273 41.3619 36.273Z" fill="#030047"/>
<path d="M44.1142 31.7434C44.0675 31.7434 44.0228 31.717 44.0013 31.6722C43.8613 31.3799 43.6259 31.0837 42.9723 31.1093C42.9031 31.1124 42.8453 31.058 42.8426 30.9892C42.8399 30.9203 42.8939 30.8621 42.9628 30.8594C43.5846 30.8361 43.9853 31.0596 44.2271 31.5643C44.257 31.6267 44.2306 31.7013 44.1682 31.7312C44.1506 31.7392 44.1322 31.7434 44.1142 31.7434Z" fill="#030047"/>
<path d="M40.5629 30.9548C40.7123 30.6363 40.6602 30.2967 40.4465 30.1965C40.2328 30.0962 39.9384 30.2732 39.7889 30.5918C39.6395 30.9103 39.6916 31.2499 39.9053 31.3501C40.119 31.4504 40.4134 31.2734 40.5629 30.9548Z" fill="#030047"/>
<path d="M41.2251 30.1993C41.1849 30.1993 41.1455 30.1802 41.1214 30.1442C40.8627 29.7619 40.521 29.5725 40.0764 29.5652C40.0075 29.5641 39.952 29.507 39.9531 29.4382C39.9543 29.3693 40.0105 29.3149 40.0802 29.3149C40.6048 29.3234 41.025 29.5553 41.3284 30.0037C41.3671 30.0611 41.3522 30.1388 41.2948 30.1775C41.2733 30.192 41.2492 30.1993 41.2251 30.1993Z" fill="#030047"/>
<path d="M52.8095 59.6782C52.8095 59.6782 51.169 57.2173 49.0199 57.1361C46.8709 57.0546 44.209 57.2938 43.8612 58.1123C43.5156 58.9259 43.5359 62.2 44.5324 62.2815C45.2973 62.3438 45.4271 61.2444 45.4271 61.2444C45.4271 61.2444 45.5086 62.5937 46.3631 62.5937C47.2176 62.5937 47.1154 60.7768 47.1154 60.7768C47.1154 60.7768 47.5229 62.1785 48.2136 62.1395C49.2916 62.0787 49.0505 60.5361 49.0505 60.5361C49.0505 60.5361 49.3544 61.7748 50.1675 61.8559C50.9807 61.9371 51.0201 59.679 51.0201 59.679H52.8095V59.6782Z" fill="white"/>
<path d="M46.363 62.7183C45.7871 62.7183 45.5219 62.2128 45.401 61.7949C45.2475 62.1328 44.9705 62.442 44.5224 62.4057C44.3035 62.3877 44.1156 62.2519 43.9641 62.0012C43.3904 61.0518 43.4674 58.7191 43.7459 58.0632C44.2549 56.8654 48.5381 56.9925 49.0244 57.0108C51.2122 57.0935 52.845 59.5058 52.9131 59.6088C52.9387 59.647 52.941 59.6964 52.9192 59.7373C52.8974 59.7779 52.8549 59.8035 52.809 59.8035H51.1402C51.1222 60.2008 51.0296 61.431 50.572 61.8382C50.4491 61.9476 50.3075 61.9955 50.1545 61.9802C49.683 61.9331 49.3711 61.5554 49.1798 61.2018C49.1492 61.4509 49.0734 61.7222 48.9066 61.9289C48.7401 62.1351 48.509 62.248 48.2201 62.2645C47.7655 62.292 47.4276 61.8095 47.224 61.3939C47.188 61.7785 47.0916 62.2465 46.8444 62.5079C46.712 62.6475 46.5501 62.7183 46.363 62.7183ZM45.4274 61.1188C45.4285 61.1188 45.4297 61.1188 45.4308 61.1188C45.4955 61.1207 45.5483 61.1716 45.5525 61.2363C45.5533 61.2485 45.6371 62.4681 46.3634 62.4681C46.4805 62.4681 46.5784 62.4248 46.663 62.3353C46.9837 61.9962 47.0082 61.0996 46.9906 60.7828C46.9871 60.7193 47.0319 60.6634 47.0943 60.6527C47.1578 60.642 47.2179 60.6799 47.2355 60.7411C47.3399 61.0993 47.7115 62.0142 48.1856 62.0142C48.1925 62.0142 48.1994 62.0142 48.2063 62.0138C48.4244 62.0016 48.5897 61.922 48.7118 61.7712C49.0463 61.3579 48.9276 60.5624 48.9265 60.5543C48.9162 60.4881 48.9598 60.4258 49.0256 60.4124C49.091 60.3994 49.1557 60.4399 49.1718 60.505C49.1745 60.5165 49.4645 61.6587 50.1797 61.7303C50.2624 61.7387 50.3362 61.7127 50.4063 61.6503C50.7843 61.3139 50.8873 60.1104 50.8949 59.6754C50.8961 59.6072 50.9519 59.5525 51.0201 59.5525H52.5641C52.1271 58.9778 50.7239 57.325 49.0156 57.2603C46.738 57.1742 44.2763 57.4555 43.9767 58.1604C43.7188 58.7673 43.669 61.0288 44.1784 61.8711C44.2859 62.049 44.4083 62.1447 44.5427 62.1558C45.1779 62.2071 45.3019 61.2385 45.303 61.2286C45.3107 61.1662 45.3642 61.1188 45.4274 61.1188Z" fill="#030047"/>
<path d="M49.0501 60.6603C48.9862 60.6603 48.9315 60.6113 48.9257 60.5463L48.7937 59.0841C48.7876 59.0152 48.8385 58.9544 48.907 58.9483C48.9747 58.9421 49.0367 58.993 49.0428 59.0615L49.1748 60.5237C49.181 60.5926 49.1301 60.6534 49.0616 60.6595C49.0578 60.6603 49.0535 60.6603 49.0501 60.6603Z" fill="#030047"/>
<path d="M47.115 60.9014C47.0538 60.9014 47.0006 60.8566 46.9914 60.7946L46.7787 59.347C46.7687 59.2785 46.8158 59.215 46.8843 59.205C46.9539 59.1947 47.0163 59.2421 47.0263 59.3106L47.239 60.7583C47.249 60.8268 47.2019 60.8903 47.1334 60.9002C47.1273 60.901 47.1212 60.9014 47.115 60.9014Z" fill="#030047"/>
<path d="M45.4271 61.3691C45.364 61.3691 45.3096 61.3213 45.3027 61.257L45.103 59.3414C45.0957 59.2725 45.1459 59.2113 45.2144 59.204C45.2832 59.1964 45.3448 59.2469 45.3517 59.3154L45.5515 61.231C45.5588 61.2999 45.5086 61.3611 45.4401 61.3684C45.4359 61.3691 45.4317 61.3691 45.4271 61.3691Z" fill="#030047"/>
</svg>
