<svg width="80" height="63" viewBox="0 0 80 63" fill="none" xmlns="http://www.w3.org/2000/svg">
<path d="M70.7064 8.49683H14.4111V59.68H70.7064V8.49683Z" fill="white"/>
<path d="M70.8316 59.805H14.2861V8.37158H70.8316V59.805ZM14.5364 59.5548H70.5814V8.62185H14.5364V59.5548Z" fill="#030047"/>
<path d="M70.7064 8.89392H14.4111V7.02153C14.4111 5.08639 15.9801 3.51746 17.9152 3.51746H67.2023C69.1374 3.51746 70.7064 5.08639 70.7064 7.02153V8.89392Z" fill="#0F3DFB"/>
<path d="M70.8316 9.01919H14.2861V7.02167C14.2861 5.0207 15.914 3.39246 17.9153 3.39246H67.2024C69.2034 3.39246 70.8313 5.02032 70.8313 7.02167V9.01919H70.8316ZM14.5364 8.76892H70.5814V7.02167C70.5814 5.15846 69.0656 3.64272 67.2024 3.64272H17.9153C16.0521 3.64272 14.5364 5.15846 14.5364 7.02167V8.76892Z" fill="#030047"/>
<path d="M16.9546 6.92967C17.3542 6.92967 17.6782 6.60569 17.6782 6.20604C17.6782 5.8064 17.3542 5.48242 16.9546 5.48242C16.5549 5.48242 16.231 5.8064 16.231 6.20604C16.231 6.60569 16.5549 6.92967 16.9546 6.92967Z" fill="white"/>
<path d="M18.9482 6.92967C19.3479 6.92967 19.6719 6.60569 19.6719 6.20604C19.6719 5.8064 19.3479 5.48242 18.9482 5.48242C18.5486 5.48242 18.2246 5.8064 18.2246 6.20604C18.2246 6.60569 18.5486 6.92967 18.9482 6.92967Z" fill="white"/>
<path d="M20.9424 6.92967C21.342 6.92967 21.666 6.60569 21.666 6.20604C21.666 5.8064 21.342 5.48242 20.9424 5.48242C20.5427 5.48242 20.2188 5.8064 20.2188 6.20604C20.2188 6.60569 20.5427 6.92967 20.9424 6.92967Z" fill="white"/>
<path d="M57.0071 48.3608V59.6774H33.6465L34.3219 52.3585L34.3636 51.9215L34.9108 45.994C35.0275 44.7178 35.9601 43.6705 37.211 43.3904C38.4004 43.1252 40.1082 42.9335 41.9963 42.8282C42.1095 42.8217 42.2232 42.8148 42.3384 42.8099C44.355 42.7081 46.55 42.7031 48.5211 42.8083C48.6264 42.8133 48.7297 42.8198 48.833 42.8267C50.6908 42.9369 52.3241 43.1485 53.3879 43.4738C53.66 43.5572 53.9198 43.6605 54.1685 43.7841C54.2454 43.8224 54.322 43.8626 54.3954 43.9043C55.9847 44.7932 57.0071 46.4842 57.0071 48.3608Z" fill="#173085"/>
<path opacity="0.4" d="M48.8324 42.8266L34.6886 59.6773H34.3618L48.5205 42.8082C48.6253 42.8132 48.729 42.8201 48.8324 42.8266Z" fill="white"/>
<path d="M51.7698 54.4451L51.753 54.8522L47.7032 59.6773H47.3779L51.7698 54.4451Z" fill="white"/>
<path d="M62.1292 59.6773H51.563L51.7532 54.8522L51.77 54.4455L52.212 43.2322L55.6613 43.7094C57.0588 43.903 58.3381 44.5149 59.3407 45.4241C59.4042 45.4792 59.4639 45.5358 59.524 45.5959C60.4581 46.5047 61.127 47.6807 61.3887 49.0185C61.4389 49.2772 61.4721 49.5339 61.489 49.7857L62.1292 59.6773Z" fill="#173085"/>
<path opacity="0.4" d="M54.0512 59.8024C54.0229 59.8024 53.9942 59.7928 53.9708 59.7729C53.918 59.7285 53.9112 59.6497 53.9555 59.5965L61.4543 50.6616C61.4987 50.6085 61.5779 50.6019 61.6307 50.6463C61.6835 50.6907 61.6904 50.7696 61.646 50.8228L54.1473 59.7576C54.1224 59.7871 54.0868 59.8024 54.0512 59.8024Z" fill="white"/>
<path d="M62.2615 59.8032H51.437V48.6967H51.6873V59.5529H61.9948L61.3634 49.7926L61.6129 49.7765L62.2615 59.8032Z" fill="#030047"/>
<path d="M37.4954 43.3168L33.6457 59.6773H23.6401L25.5814 55.0172L25.9032 54.245L28.2532 48.6025C29.1371 46.4791 30.9801 44.9048 33.2137 44.3595L34.4547 44.0576L34.8634 43.9574L37.4954 43.3168Z" fill="#173085"/>
<path d="M26.5365 46.1998L23.7258 40.9301C23.5192 40.5429 23.2127 40.218 22.8381 39.9891L19.4369 37.9132C19.0168 37.6568 18.4737 37.736 18.1447 38.1018C17.7555 38.5343 17.8052 39.2032 18.2533 39.5736L20.2375 41.2129L17.4191 41.4146C17.4191 41.4146 16.5294 40.3802 15.7974 40.6343C15.7974 40.6343 14.8583 39.0776 13.8213 39.9421C13.8213 39.9421 12.7636 39.1691 12.286 39.5759C11.8085 39.9826 14.7263 44.2838 15.174 44.4365C15.6214 44.5892 17.1669 44.7518 17.1669 44.7518C17.1669 44.7518 17.1264 45.555 17.899 46.0024C18.672 46.4497 19.3022 46.3074 19.3022 46.3074L19.8517 47.3781L26.5365 46.1998Z" fill="white"/>
<path d="M19.8521 47.5036C19.8058 47.5036 19.7626 47.4779 19.7408 47.4355L19.2322 46.4447C19.0171 46.4685 18.4722 46.4788 17.8366 46.1107C17.1811 45.7311 17.0644 45.1211 17.0453 44.8643C16.6813 44.8238 15.5238 44.6879 15.1338 44.5547C14.6421 44.3871 12.3239 40.9274 12.1249 39.8839C12.1115 39.8127 12.0702 39.5961 12.2053 39.481C12.6794 39.0776 13.54 39.5988 13.8175 39.7867C14.0792 39.5946 14.3574 39.5219 14.6467 39.5705C15.2452 39.6711 15.7025 40.2689 15.8525 40.4897C16.5443 40.3385 17.286 41.0843 17.4715 41.286L19.9172 41.1111L18.1737 39.6708C17.9304 39.4699 17.7834 39.1855 17.7605 38.8706C17.7371 38.5557 17.8408 38.2534 18.0517 38.0188C18.4209 37.6086 19.0309 37.5194 19.502 37.8072L22.9031 39.8831C23.2965 40.1235 23.6191 40.4652 23.8361 40.872L26.6467 46.1417C26.6655 46.1769 26.6663 46.2193 26.6487 46.2553C26.6311 46.2913 26.5974 46.3169 26.558 46.3238L19.8732 47.5024C19.8663 47.5028 19.859 47.5036 19.8521 47.5036ZM19.3018 46.1826C19.3481 46.1826 19.3918 46.2082 19.4136 46.2503L19.9214 47.2391L26.3452 46.1065L23.6156 40.989C23.4197 40.6217 23.1285 40.3129 22.7734 40.0963L19.3723 38.0203C19.0037 37.7953 18.5266 37.8653 18.238 38.186C18.0727 38.3693 17.992 38.6062 18.0103 38.8522C18.0283 39.0983 18.1431 39.3206 18.3333 39.4779L20.3178 41.1172C20.3572 41.1498 20.3729 41.203 20.3572 41.2519C20.3419 41.3005 20.2979 41.335 20.247 41.3384L17.4287 41.5401C17.3877 41.5428 17.351 41.5267 17.325 41.4968C17.3166 41.4873 16.4827 40.5299 15.8391 40.7533C15.7825 40.7728 15.7216 40.7503 15.691 40.6998C15.6864 40.6921 15.2119 39.9191 14.6046 39.8173C14.3601 39.7764 14.1301 39.8487 13.902 40.0389C13.858 40.0756 13.7945 40.0775 13.7482 40.0439C13.4757 39.8453 12.6974 39.3918 12.3679 39.6719C12.3683 39.6719 12.3346 39.7263 12.3974 39.9467C12.7403 41.1513 14.923 44.2054 15.2153 44.3186C15.6439 44.4648 17.1654 44.6263 17.1807 44.6278C17.2469 44.6347 17.2959 44.6921 17.2925 44.7587C17.2913 44.7882 17.2683 45.493 17.9625 45.8948C18.6789 46.3097 19.2701 46.1872 19.2758 46.186C19.2839 46.1834 19.293 46.1826 19.3018 46.1826Z" fill="#030047"/>
<path d="M22.3529 44.1315C22.3529 44.1315 20.3397 43.3382 18.7941 44.0603C18.7941 44.0603 16.4828 40.4575 15.9348 41.7926C15.8422 42.018 15.8614 42.2748 15.9689 42.4937L17.1674 44.7518" fill="white"/>
<path d="M17.167 44.877C17.1222 44.877 17.079 44.8529 17.0564 44.8104L15.8579 42.5523C15.7289 42.2898 15.7152 41.9971 15.8189 41.7453C15.936 41.4598 16.1223 41.3856 16.2582 41.3729C17.0797 41.2983 18.4998 43.3838 18.8404 43.9027C20.3998 43.243 22.3158 43.9827 22.3984 44.0152C22.4627 44.0405 22.4945 44.1132 22.4692 44.1775C22.444 44.2418 22.3709 44.2732 22.307 44.2483C22.2871 44.2406 20.324 43.4837 18.8469 44.174C18.7903 44.2005 18.7225 44.1813 18.6889 44.1281C18.0502 43.1328 16.8379 41.5723 16.2811 41.6224C16.218 41.6282 16.1258 41.6569 16.0504 41.8405C15.9742 42.0261 15.9853 42.2443 16.081 42.439L17.2776 44.6937C17.3101 44.7549 17.2868 44.8303 17.2259 44.8628C17.2068 44.8724 17.1869 44.877 17.167 44.877Z" fill="#030047"/>
<path d="M15.1744 44.5616C15.1296 44.5616 15.0868 44.5375 15.0638 44.4954C14.5514 43.5395 13.382 41.2738 13.5837 40.8754C13.6686 40.7074 13.8607 40.6056 14.0972 40.6029C14.3387 40.6003 15.1775 40.7139 16.0247 42.2947C16.0572 42.3556 16.0347 42.4313 15.9734 42.4642C15.9122 42.4968 15.8368 42.4738 15.8039 42.413C15.1874 41.2623 14.5247 40.8532 14.1072 40.8532C14.1049 40.8532 14.1022 40.8532 14.0999 40.8532C13.9583 40.8547 13.8489 40.9053 13.8068 40.9887C13.7245 41.2236 14.5093 42.9315 15.2842 44.3776C15.3168 44.4384 15.2942 44.5142 15.233 44.5471C15.2146 44.557 15.1943 44.5616 15.1744 44.5616Z" fill="#030047"/>
<path d="M31.9116 59.6773H21.0917L19.8025 54.1481L19.7324 53.8447L18.2163 47.3397L26.4023 45.897L26.7861 45.8305L27.1248 45.7704L28.8376 50.7489L28.9325 51.0244L30.7307 56.2482L30.8256 56.5233L31.9116 59.6773Z" fill="#173085"/>
<path d="M25.9301 15.3527H18.0391C17.9258 15.3527 17.834 15.2608 17.834 15.1476V12.2787C17.834 12.1654 17.9258 12.0736 18.0391 12.0736H25.9301C26.0433 12.0736 26.1352 12.1654 26.1352 12.2787V15.1476C26.1352 15.2608 26.0433 15.3527 25.9301 15.3527ZM57.0191 13.7133C57.0191 13.8886 56.9475 14.0486 56.8323 14.1653C56.7171 14.2804 56.5572 14.352 56.3804 14.352H54.0641C53.7105 14.352 53.4254 14.065 53.4254 13.7133C53.4254 13.5365 53.497 13.3762 53.6122 13.2614C53.7274 13.1462 53.8873 13.0747 54.0641 13.0747H56.3804C56.7336 13.0747 57.0191 13.3598 57.0191 13.7133Z" fill="#E6F3FC"/>
<path d="M61.9017 13.7134C61.9017 13.8886 61.8302 14.0486 61.715 14.1653C61.5998 14.2805 61.4398 14.352 61.2631 14.352H58.9468C58.5932 14.352 58.3081 14.065 58.3081 13.7134C58.3081 13.5366 58.3797 13.3762 58.4948 13.2614C58.61 13.1463 58.77 13.0747 58.9468 13.0747H61.2631C61.6166 13.0747 61.9017 13.3598 61.9017 13.7134Z" fill="#0F3DFB"/>
<path d="M66.785 13.7134C66.785 13.8886 66.7135 14.0486 66.5983 14.1653C66.4831 14.2805 66.3231 14.352 66.1464 14.352H63.8301C63.4765 14.352 63.1914 14.065 63.1914 13.7134C63.1914 13.5366 63.263 13.3762 63.3781 13.2614C63.4933 13.1463 63.6533 13.0747 63.8301 13.0747H66.1464C66.4996 13.0747 66.785 13.3598 66.785 13.7134Z" fill="#E6F3FC"/>
<path d="M34.3696 22.6294V29.6597C34.3696 31.451 32.917 32.9021 31.1258 32.9021H21.2951L18.9118 35.249C18.313 35.8379 17.3525 35.8379 16.7536 35.249L14.3734 32.9021H4.54116C2.7499 32.9021 1.29883 31.451 1.29883 29.6597V22.6294C1.29883 20.8381 2.7499 19.3851 4.54116 19.3851H31.1258C32.917 19.3851 34.3696 20.8381 34.3696 22.6294Z" fill="#0F3DFB"/>
<path d="M17.8328 35.8122C17.4104 35.8122 16.9879 35.6542 16.6661 35.3377L14.3223 33.0268H4.54129C2.6846 33.0268 1.17383 31.516 1.17383 29.6593V22.6294C1.17383 20.7715 2.68421 19.2604 4.54129 19.2604H31.1259C32.9838 19.2604 34.4949 20.7719 34.4949 22.6294V29.6597C34.4949 31.5164 32.9834 33.0272 31.1259 33.0272H21.3465L18.9996 35.3381C18.6782 35.6542 18.2553 35.8122 17.8328 35.8122ZM4.54129 19.5103C2.82236 19.5103 1.42409 20.9093 1.42409 22.6294V29.6597C1.42409 31.3787 2.82236 32.7769 4.54129 32.7769H14.4248L16.8413 35.1598C17.3878 35.6971 18.2771 35.6971 18.8239 35.1598L21.2435 32.7769H31.1255C32.8452 32.7769 34.2443 31.3787 34.2443 29.6597V22.6294C34.2443 20.9097 32.8452 19.5103 31.1255 19.5103H4.54129Z" fill="#030047"/>
<path d="M7.06299 27.6745C7.02281 27.5084 6.99602 27.3075 6.98263 27.0726C6.96923 26.8376 6.95393 26.3421 6.93709 25.5863C6.77943 25.9204 6.61489 26.2227 6.44345 26.4932C6.18668 26.9031 6.01295 27.2195 5.92226 27.443C5.92876 27.4698 5.93221 27.4943 5.93221 27.5161C5.93221 27.6167 5.88667 27.7055 5.79636 27.7817C5.70567 27.8582 5.59661 27.8965 5.4688 27.8965C5.34443 27.8965 5.24723 27.8651 5.17644 27.8019C5.10603 27.7388 5.0758 27.647 5.08575 27.526L5.05552 27.2264L4.99008 26.3222C4.97325 26.0872 4.94187 25.8259 4.89556 25.5389C4.84926 25.2519 4.77847 24.8562 4.6828 24.3526C4.6763 24.3239 4.67285 24.299 4.67285 24.2772C4.67285 24.1815 4.71341 24.0962 4.79492 24.0216C4.87643 23.947 4.97516 23.9095 5.09072 23.9095C5.16458 23.9095 5.22963 23.9294 5.28588 23.9688C5.34214 24.0082 5.38959 24.0863 5.42824 24.203C5.46689 24.3197 5.51166 24.5921 5.56293 25.0203C5.61421 25.4485 5.65822 25.9296 5.69534 26.4638C5.8882 26.1228 6.08757 25.7359 6.2923 25.3024C6.54409 24.7517 6.74691 24.3939 6.90074 24.2294C7.05419 24.0648 7.18238 23.9826 7.28493 23.9826C7.38405 23.9826 7.46785 24.0212 7.53673 24.0985C7.60561 24.1758 7.64005 24.3817 7.64005 24.7157C7.64005 24.7846 7.63508 24.9526 7.62474 25.2197C7.61288 25.5369 7.63469 26.0635 7.69018 26.799C7.84478 26.5422 8.04453 26.1894 8.28982 25.7409L8.69774 25.0004C8.72147 24.9549 8.78843 24.7999 8.89941 24.5344C9.0674 24.118 9.26791 23.9098 9.50172 23.9098C9.59739 23.9098 9.67278 23.9359 9.72826 23.9879C9.78375 24.0399 9.81168 24.1073 9.81168 24.1896C9.81168 24.2248 9.80365 24.2638 9.78757 24.3067C9.7715 24.3495 9.7229 24.4444 9.6414 24.5914C9.55989 24.7383 9.48565 24.8826 9.4183 25.0246C9.35134 25.1665 9.2637 25.3315 9.15656 25.5193C9.04903 25.7076 8.94839 25.8787 8.85425 26.0333L8.3277 26.9149C8.2217 27.0929 8.13713 27.2417 8.07323 27.3607C7.92208 27.6428 7.80383 27.8192 7.71811 27.8896C7.63278 27.96 7.53252 27.9956 7.41849 27.9956C7.3144 27.9956 7.226 27.9653 7.15406 27.9049C7.08136 27.8433 7.05113 27.7667 7.06299 27.6745ZM11.0362 24.5183C10.9692 24.9247 10.9096 25.2564 10.8575 25.5132C11.0657 25.4964 11.399 25.4654 11.8574 25.4202C12.1815 25.39 12.3882 25.3747 12.477 25.3747C12.5711 25.3747 12.6457 25.4007 12.7012 25.4528C12.7567 25.5048 12.7842 25.5737 12.7842 25.6594C12.7842 25.757 12.7529 25.8442 12.6897 25.9215C12.627 25.9988 12.5256 26.0432 12.3863 26.0551C12.247 26.0669 12.0312 26.0876 11.7388 26.1167C11.4464 26.1461 11.1005 26.176 10.701 26.2062C10.6034 26.6815 10.5548 27.0029 10.5548 27.1709C10.5548 27.2299 10.5613 27.2693 10.5747 27.2892C10.5881 27.3095 10.6907 27.3194 10.882 27.3194H11.0783L11.8264 27.3045C11.8482 27.3045 11.9263 27.2961 12.061 27.2792C12.175 27.2643 12.2676 27.2827 12.338 27.3347C12.4085 27.3868 12.4437 27.4606 12.4437 27.5563C12.4437 27.7361 12.3721 27.8548 12.2282 27.9125C12.0847 27.9703 11.6887 27.9994 11.0404 27.9994C10.4963 27.9994 10.1622 27.9366 10.0378 27.8119C9.91347 27.6868 9.85148 27.4908 9.85148 27.2237C9.85148 26.9383 9.93528 26.4335 10.1033 25.7099C10.2544 25.077 10.3298 24.6537 10.3298 24.4402C10.3382 24.2607 10.3528 24.1326 10.3738 24.056C10.3949 23.9795 10.4385 23.9163 10.5047 23.8658C10.5709 23.8153 10.657 23.7901 10.763 23.7901C10.8384 23.7901 10.9023 23.8126 10.9547 23.8582C11.3477 23.7575 11.707 23.707 12.0327 23.707C12.2914 23.707 12.552 23.7342 12.8149 23.7889C13.0777 23.8436 13.209 23.9489 13.209 24.105C13.209 24.2175 13.1684 24.3155 13.0869 24.3985C13.0054 24.4815 12.9117 24.5233 12.806 24.5233C12.7689 24.5233 12.733 24.5183 12.6978 24.5083C12.436 24.436 12.1766 24.4 11.9194 24.4C11.6504 24.3997 11.3554 24.4395 11.0362 24.5183ZM13.0177 27.4403L13.1941 26.6494C13.3468 25.9575 13.4964 25.1455 13.6426 24.2137C13.656 24.1245 13.7015 24.0449 13.7784 23.9745C13.8557 23.9041 13.9456 23.8689 14.0478 23.8689C14.1366 23.8689 14.2089 23.8957 14.2644 23.9496C14.3199 24.0036 14.3474 24.0732 14.3474 24.1586C14.3474 24.224 14.3046 24.4926 14.2192 24.9645L14.0203 26.0375C13.9732 26.2808 13.8802 26.7033 13.7405 27.3045C14.137 27.2995 14.6624 27.2012 15.3175 27.0098C15.3596 26.9999 15.3975 26.9949 15.4308 26.9949C15.5333 26.9949 15.6079 27.0259 15.655 27.0883C15.7021 27.1503 15.7254 27.2149 15.7254 27.2823C15.7254 27.435 15.6527 27.5513 15.5073 27.6313C15.3619 27.7109 15.0726 27.7901 14.6383 27.8681C14.2039 27.9462 13.8392 27.9852 13.5438 27.9852C13.186 27.9852 13.0073 27.8475 13.0073 27.572C13.0073 27.531 13.0108 27.487 13.0177 27.4403ZM18.913 24.022C19.0018 23.9496 19.0959 23.9137 19.1951 23.9137C19.3799 23.9137 19.4721 24.038 19.4721 24.2864C19.4721 24.5853 19.4319 24.7907 19.3512 24.9021C19.2704 25.0138 19.1621 25.0697 19.0263 25.0697C18.8717 25.0697 18.7718 24.9909 18.7267 24.8328C18.7064 24.759 18.683 24.7146 18.6563 24.6993C18.6295 24.684 18.5614 24.6767 18.4523 24.6767C18.1971 24.6767 17.8653 24.9075 17.4574 25.3693C17.0494 25.8312 16.8451 26.2342 16.8451 26.5786C16.8451 26.7282 16.8945 26.8568 16.9924 26.9651C17.0904 27.0733 17.2178 27.1277 17.3739 27.1277C17.5151 27.1277 17.6456 27.1043 17.7658 27.0573C17.886 27.0102 18.0719 26.9088 18.3237 26.7527C18.4684 26.6654 18.5732 26.6218 18.6387 26.6218C18.7293 26.6218 18.8032 26.6505 18.8602 26.7075C18.9172 26.7645 18.9459 26.8369 18.9459 26.9241C18.9459 27.0083 18.9157 27.0837 18.8552 27.1506C18.7948 27.218 18.6639 27.3133 18.4622 27.4365C18.2606 27.5601 18.0597 27.6539 17.8588 27.7185C17.6583 27.7832 17.4604 27.8153 17.2656 27.8153C16.9232 27.8153 16.648 27.7032 16.4406 27.479C16.2332 27.2547 16.1295 26.9907 16.1295 26.6869C16.1295 26.1446 16.4108 25.5595 16.9733 24.9323C17.5358 24.3051 18.0647 23.9914 18.5602 23.9914C18.7117 23.9917 18.8292 24.0017 18.913 24.022ZM19.554 26.561C19.554 26.2081 19.6661 25.8174 19.8904 25.3885C20.1146 24.9595 20.4173 24.6097 20.7984 24.3392C21.1796 24.0686 21.5817 23.9336 22.005 23.9336C23.0278 23.9336 23.5391 24.3442 23.5391 25.1654C23.5391 25.827 23.3049 26.4492 22.8365 27.032C22.3677 27.6148 21.8068 27.906 21.1539 27.906C20.6852 27.906 20.3017 27.7801 20.0029 27.5283C19.7036 27.2765 19.554 26.954 19.554 26.561ZM20.2795 26.4377C20.2795 26.6662 20.3718 26.8537 20.5566 27.0006C20.7414 27.1476 20.9764 27.2211 21.2618 27.2211C21.6732 27.2211 22.0348 27.0068 22.3463 26.5786C22.6578 26.1504 22.8135 25.7111 22.8135 25.261C22.8135 25.0291 22.7447 24.8646 22.6069 24.7674C22.4692 24.6702 22.2323 24.6212 21.8967 24.6212C21.6246 24.6212 21.3625 24.7188 21.1107 24.9136C20.8589 25.1084 20.6572 25.3575 20.5061 25.6605C20.3549 25.9636 20.2795 26.2227 20.2795 26.4377ZM25.18 25.5033C25.1264 25.6242 25.0035 25.9502 24.8122 26.4817C24.6209 27.0133 24.4973 27.373 24.4422 27.5613C24.3381 27.7997 24.1919 27.919 24.004 27.919C23.9168 27.919 23.8475 27.8919 23.7962 27.8372C23.745 27.7824 23.7197 27.7135 23.7197 27.6294C23.7197 27.4162 23.833 27.0619 24.0595 26.5663C24.1923 26.274 24.2906 26.0467 24.3542 25.8836L24.7621 24.7754C24.8979 24.4092 25.0173 24.1758 25.1199 24.0752C25.2224 23.9745 25.3349 23.924 25.4574 23.924C25.6239 23.924 25.7268 24.0078 25.7674 24.1758C25.8075 24.3438 25.832 24.7586 25.8404 25.4202C25.8469 25.9709 25.8714 26.3891 25.9135 26.6746C26.15 26.2315 26.4232 25.6158 26.7321 24.8282L26.964 24.2489C27.0596 24.0086 27.22 23.8888 27.445 23.8888C27.5491 23.8888 27.6332 23.9435 27.6968 24.0526C27.7607 24.1616 27.7924 24.3859 27.7924 24.7249L27.7875 25.3219C27.7855 25.5385 27.7924 25.7757 27.8074 26.0336C27.8227 26.2916 27.846 26.5395 27.8778 26.7779C27.9417 27.2433 27.9734 27.5176 27.9734 27.6014C27.9734 27.6871 27.9298 27.769 27.8426 27.8471C27.7553 27.9252 27.657 27.9642 27.5479 27.9642C27.3631 27.9642 27.2483 27.8314 27.2027 27.5662L27.1599 26.9593C27.153 26.8587 27.148 26.3386 27.1446 25.3999C27.1163 25.4554 27.0814 25.5327 27.0413 25.6318C26.8262 26.1492 26.6651 26.5101 26.5576 26.7152L26.3134 27.1813C26.1707 27.4533 26.057 27.6355 25.9732 27.7277C25.889 27.8199 25.7842 27.8662 25.6583 27.8662C25.5156 27.8662 25.4172 27.7729 25.3636 27.5865L25.2982 27.1181C25.263 26.861 25.2236 26.3226 25.18 25.5033ZM29.7375 24.5183C29.6706 24.9247 29.6109 25.2564 29.5588 25.5132C29.767 25.4964 30.1003 25.4654 30.5587 25.4202C30.8828 25.39 31.0895 25.3747 31.1783 25.3747C31.2724 25.3747 31.347 25.4007 31.4025 25.4528C31.458 25.5048 31.4855 25.5737 31.4855 25.6594C31.4855 25.757 31.4542 25.8442 31.391 25.9215C31.3283 25.9988 31.2269 26.0432 31.0876 26.0551C30.9483 26.0669 30.7325 26.0876 30.4401 26.1167C30.1477 26.1461 29.8018 26.176 29.4023 26.2062C29.3047 26.6815 29.2561 27.0029 29.2561 27.1709C29.2561 27.2299 29.2626 27.2693 29.276 27.2892C29.2894 27.3095 29.392 27.3194 29.5833 27.3194H29.7796L30.5277 27.3045C30.5495 27.3045 30.6276 27.2961 30.7623 27.2792C30.8763 27.2643 30.9689 27.2827 31.0394 27.3347C31.1098 27.3868 31.145 27.4606 31.145 27.5563C31.145 27.7361 31.0734 27.8548 30.9295 27.9125C30.786 27.9703 30.39 27.9994 29.7417 27.9994C29.1976 27.9994 28.8635 27.9366 28.7391 27.8119C28.6148 27.6868 28.5528 27.4908 28.5528 27.2237C28.5528 26.9383 28.6366 26.4335 28.8046 25.7099C28.9557 25.077 29.0311 24.6537 29.0311 24.4402C29.0395 24.2607 29.0541 24.1326 29.0751 24.056C29.0962 23.9795 29.1398 23.9163 29.206 23.8658C29.2722 23.8153 29.3583 23.7901 29.4643 23.7901C29.5397 23.7901 29.6036 23.8126 29.656 23.8582C30.049 23.7575 30.4083 23.707 30.734 23.707C30.9927 23.707 31.2533 23.7342 31.5162 23.7889C31.779 23.8436 31.9103 23.9489 31.9103 24.105C31.9103 24.2175 31.8697 24.3155 31.7882 24.3985C31.7067 24.4815 31.613 24.5233 31.5074 24.5233C31.4702 24.5233 31.4343 24.5183 31.3991 24.5083C31.1373 24.436 30.8775 24.4 30.6207 24.4C30.3517 24.3997 30.0567 24.4395 29.7375 24.5183Z" fill="white"/>
<path d="M77.6752 34.7412L77.7074 31.8501L76.2008 31.8333C76.0298 30.9719 75.6988 30.1672 75.2426 29.4493L76.3202 28.3943L74.2986 26.3271L73.221 27.3821C72.5134 26.9087 71.7164 26.5613 70.8588 26.3711L70.8756 24.8645L67.9831 24.8324L67.9662 26.339C67.1048 26.51 66.3001 26.8399 65.5822 27.2972L64.5283 26.2184L62.4612 28.24L63.515 29.3188C63.0432 30.0263 62.6942 30.8238 62.504 31.681L60.9975 31.6641L60.9653 34.5552L62.4719 34.572C62.6429 35.4349 62.974 36.2397 63.4301 36.956L62.3525 38.0111L64.3741 40.0782L65.4517 39.0232C66.1593 39.4962 66.9564 39.844 67.8139 40.0342L67.7971 41.5423L70.6897 41.5744L70.7065 40.0664C71.5679 39.8953 72.3726 39.5654 73.0905 39.1082L74.1444 40.1869L76.2115 38.1653L75.1577 37.0865C75.6295 36.3805 75.9785 35.583 76.1687 34.7243L77.6752 34.7412ZM69.5818 36.6943C67.4244 36.8409 65.6584 35.0362 65.8516 32.8806C66.0035 31.1854 67.3937 29.8262 69.092 29.7118C71.251 29.5667 73.0159 31.3726 72.8215 33.5262C72.668 35.2207 71.279 36.5787 69.5818 36.6943Z" fill="#0F3DFB"/>
<path d="M75.2347 49.2531L74.1311 49.9476C73.613 50.2706 72.9326 50.1156 72.6089 49.6013L71.9143 48.4977C71.5906 47.983 71.7452 47.3026 72.2599 46.9789L73.3643 46.2809C73.8786 45.9571 74.5593 46.1117 74.8865 46.6272L75.5803 47.7343C75.904 48.2486 75.749 48.9289 75.2347 49.2531Z" fill="#173085"/>
<path d="M9.48174 15.5938L8.66743 16.4754C8.28438 16.8864 7.64264 16.9121 7.23166 16.5325L6.35 15.7181C5.93901 15.3385 5.91376 14.6964 6.29336 14.2858L7.10768 13.4007C7.48728 12.9897 8.12901 12.9645 8.54344 13.3437L9.42511 14.1615C9.83609 14.5407 9.86135 15.1824 9.48174 15.5938Z" fill="#173085"/>
<path d="M75.5883 19.964L74.8344 20.4385C74.4804 20.6589 74.0159 20.5533 73.7947 20.202L73.3202 19.4482C73.099 19.0969 73.2046 18.6319 73.5563 18.4108L74.3105 17.934C74.6618 17.7128 75.1268 17.8184 75.3502 18.1704L75.824 18.9266C76.0452 19.2779 75.9396 19.7428 75.5883 19.964Z" fill="#173085"/>
<path d="M11.4364 7.70778L10.6826 8.18229C10.3286 8.4027 9.86404 8.29709 9.64286 7.9458L9.16835 7.19195C8.94717 6.84066 9.05279 6.37572 9.40446 6.15454L10.1587 5.67773C10.51 5.45655 10.9749 5.56217 11.1984 5.91422L11.6721 6.67037C11.8937 7.02166 11.7877 7.48622 11.4364 7.70778Z" fill="#173085"/>
<g opacity="0.4">
<path d="M26.7861 45.8306L19.8025 54.1482L19.7324 53.8448L26.4023 45.8972L26.7861 45.8306Z" fill="white"/>
</g>
<g opacity="0.4">
<path d="M34.8637 43.9573L28.9324 51.0244L25.5818 55.0171L21.6705 59.6772H21.3438L25.9036 54.2449L28.8375 50.7488L34.4551 44.0575L34.8637 43.9573Z" fill="white"/>
</g>
<g opacity="0.4">
<path d="M42.3379 42.8098L34.3222 52.3585L30.8262 56.5234L28.1793 59.6774H27.854L30.7313 56.2483L34.3639 51.9219L41.9962 42.8286C42.1091 42.8217 42.2228 42.8148 42.3379 42.8098Z" fill="white"/>
</g>
<g opacity="0.4">
<path d="M54.3947 43.9042L41.1549 59.6774H40.8296L54.1678 43.7841C54.2447 43.8223 54.3213 43.8625 54.3947 43.9042Z" fill="white"/>
</g>
<g opacity="0.4">
<path d="M59.5237 45.5952L51.7529 54.8519L51.7698 54.4451L59.3404 45.4233C59.4036 45.4784 59.4637 45.5351 59.5237 45.5952Z" fill="white"/>
</g>
<path d="M73.5005 59.8059H11.7882C11.7193 59.8059 11.6631 59.7501 11.6631 59.6808C11.6631 59.6115 11.719 59.5557 11.7882 59.5557H73.5005C73.5694 59.5557 73.6256 59.6115 73.6256 59.6808C73.6256 59.7501 73.5694 59.8059 73.5005 59.8059Z" fill="#030047"/>
<path d="M21.092 59.8032C21.035 59.8032 20.9838 59.7641 20.9704 59.7063L18.095 47.3688C18.0873 47.3355 18.0935 47.3003 18.1126 47.2716C18.1314 47.2429 18.1616 47.2234 18.1953 47.2173L27.1037 45.6468C27.1634 45.6357 27.2235 45.6713 27.2438 45.7291L30.731 55.8628C30.7536 55.9283 30.7188 55.9995 30.6534 56.022C30.5883 56.0446 30.5167 56.0098 30.4945 55.9444L27.0421 45.9116L18.369 47.4407L21.2145 59.6497C21.2302 59.7171 21.1881 59.7844 21.1211 59.8001C21.1108 59.802 21.1012 59.8032 21.092 59.8032Z" fill="#030047"/>
<path d="M31.9115 59.8032C31.9054 59.8032 31.8993 59.8028 31.8928 59.8017C31.8247 59.7914 31.7772 59.7278 31.7875 59.6597L33.2084 50.0977C33.2187 50.0292 33.2834 49.9825 33.3507 49.9924C33.4189 50.0028 33.4663 50.0663 33.456 50.1344L32.0351 59.6965C32.0256 59.7585 31.9724 59.8032 31.9115 59.8032Z" fill="#030047"/>
<path d="M40.6711 35.0501L40.174 43.1086C40.174 43.1086 36.9852 46.4597 41.3863 47.2204C47.3 48.2425 46.9422 43.1335 46.9422 43.1335L48.1893 32.5999L40.6711 35.0501Z" fill="white"/>
<path d="M42.8507 47.4809C42.3896 47.4809 41.8941 47.4353 41.3645 47.3435C40.0443 47.1154 39.2522 46.629 39.0099 45.8978C38.615 44.7042 39.8315 43.2972 40.0515 43.0561L40.5459 35.0419C40.5494 34.9906 40.5831 34.9466 40.632 34.9305L48.1499 32.4803C48.1901 32.4673 48.2349 32.4754 48.2682 32.5025C48.3011 32.5297 48.3179 32.5718 48.3129 32.6139L47.0674 43.1364C47.0785 43.3259 47.1561 45.2675 45.7904 46.502C45.0698 47.1533 44.0845 47.4805 42.8507 47.4809ZM40.7909 35.1425L40.2991 43.1162C40.2972 43.1456 40.285 43.1732 40.2651 43.1946C40.2509 43.2092 38.8706 44.6797 39.2487 45.8197C39.4596 46.4561 40.1859 46.8858 41.4081 47.097C43.2736 47.4196 44.6918 47.1575 45.622 46.3179C46.9384 45.1301 46.8194 43.1617 46.8182 43.1418C46.8179 43.1342 46.8179 43.1261 46.8186 43.1185L48.0428 32.7792L40.7909 35.1425Z" fill="#030047"/>
<path d="M44.646 25.8841C44.501 26.9586 43.3281 27.6872 42.0263 27.5116C40.7245 27.3359 39.7869 26.3222 39.9323 25.2473C40.0774 24.1728 42.1365 21.9606 43.438 22.1366C44.7394 22.3127 44.7911 24.8096 44.646 25.8841Z" fill="#030047"/>
<path d="M48.0007 36.782C48.2999 36.5161 48.5816 36.2256 48.8422 35.9115C50.0108 34.5036 50.93 32.7966 52.1576 31.1102L43.8381 23.913C43.6352 24.0063 39.5816 26.4095 37.6442 31.9076C36.3137 35.6834 37.5795 37.723 40.3742 38.5186C42.0246 38.9885 43.7504 38.9135 45.3113 38.364" fill="white"/>
<path d="M42.5998 38.9559C41.8413 38.9559 41.0825 38.8507 40.3401 38.639C38.9173 38.2342 37.9339 37.5224 37.4177 36.524C36.8127 35.3546 36.8494 33.7876 37.5264 31.8662C39.5453 26.1366 43.7451 23.818 43.786 23.7992C43.8308 23.7786 43.8828 23.7862 43.92 23.8184L52.2395 31.0155C52.2889 31.058 52.2973 31.1311 52.259 31.1839C51.7447 31.8907 51.2828 32.604 50.8359 33.2936C50.2106 34.2586 49.6202 35.1702 48.9386 35.9917C48.6773 36.3067 48.3895 36.604 48.0837 36.8757C48.0321 36.9212 47.9533 36.917 47.9073 36.8654C47.8614 36.8137 47.866 36.7345 47.9177 36.6886C48.2139 36.4253 48.4928 36.1368 48.7461 35.8318C49.4185 35.0221 50.0047 34.1163 50.6258 33.1577C51.0548 32.4953 51.4975 31.8111 51.9892 31.13L43.8235 24.0659C43.2794 24.3935 39.5778 26.7986 37.7625 31.9496C37.1093 33.8033 37.0679 35.3037 37.64 36.4096C38.1233 37.3441 39.0551 38.0134 40.4086 38.3987C42.0112 38.8549 43.6923 38.8021 45.27 38.2464C45.3347 38.2238 45.4066 38.2575 45.4296 38.323C45.4525 38.388 45.4185 38.4596 45.353 38.4825C44.4572 38.7978 43.5289 38.9559 42.5998 38.9559Z" fill="#030047"/>
<path d="M47.4564 39.6972L47.3925 38.1363L46.8675 34.5733C46.5981 34.8412 46.1423 34.6996 46.0669 34.3273C45.9322 33.661 46.89 31.7404 47.9454 30.6112C47.9454 30.6112 40.7115 28.1992 41.6529 24.7847C43.3018 18.804 46.6474 19.585 50.1538 24.5543C51.8903 27.0153 56.7766 29.4911 53.1164 33.281C54.1787 36.8138 49.5251 39.931 47.4564 39.6972Z" fill="#030047"/>
<path d="M45.9487 37.3116C45.9487 37.3116 46.7527 38.1565 48.0974 38.2663C49.4421 38.3765 51.1637 34.8992 50.2702 34.1572C49.377 33.4156 46.8671 34.5732 46.8671 34.5732" fill="white"/>
<path d="M48.1605 38.3941C48.136 38.3941 48.1111 38.393 48.0867 38.3911C46.7102 38.2786 45.8917 37.4336 45.8576 37.3977C45.8102 37.3475 45.8121 37.2687 45.8618 37.2209C45.912 37.173 45.9912 37.1753 46.0386 37.2251C46.0463 37.2331 46.8288 38.0371 48.1069 38.1416C48.8076 38.2001 49.6701 37.1198 50.1087 36.0445C50.4527 35.2011 50.4844 34.4982 50.1894 34.2533C49.3674 33.5702 46.9433 34.6754 46.9188 34.6865C46.8552 34.7155 46.7818 34.688 46.7527 34.6252C46.7236 34.5625 46.7512 34.4882 46.8139 34.4592C46.9191 34.4106 49.4061 33.2775 50.3494 34.0608C50.7416 34.3865 50.7382 35.1633 50.3402 36.1387C49.8768 37.2771 48.9886 38.3941 48.1605 38.3941Z" fill="#030047"/>
<path d="M47.563 35.3967C47.8052 35.1855 48.0922 35.0248 48.3991 34.9287C48.5916 34.8686 48.7963 34.8334 48.9953 34.8667C49.1943 34.9 49.3868 35.0099 49.4863 35.1855C49.6267 35.4338 49.5555 35.7465 49.4507 36.0121C49.2597 36.4965 48.8928 36.9592 48.3482 37.0797" fill="white"/>
<path d="M48.348 37.2052C48.2906 37.2052 48.2389 37.1654 48.2259 37.1072C48.211 37.0399 48.2534 36.9729 48.3212 36.958C48.9369 36.8218 49.2346 36.2194 49.3345 35.9669C49.4588 35.6516 49.473 35.4162 49.3777 35.2475C49.3035 35.1166 49.1531 35.0205 48.9752 34.9907C48.8209 34.9651 48.6449 34.9838 48.4371 35.0489C48.1478 35.1392 47.8742 35.2922 47.6462 35.4916C47.5941 35.5371 47.5149 35.5318 47.4697 35.4797C47.4242 35.4277 47.4299 35.3485 47.482 35.3033C47.7365 35.0814 48.0411 34.9111 48.3629 34.8105C48.6093 34.7335 48.8236 34.7121 49.0169 34.7446C49.2687 34.7871 49.4853 34.9291 49.5958 35.125C49.7305 35.3634 49.7217 35.6692 49.5675 36.0591C49.3261 36.6718 48.8917 37.0889 48.3759 37.2029C48.366 37.204 48.3568 37.2052 48.348 37.2052Z" fill="#030047"/>
<path d="M43.4523 32.4988C43.6017 32.1802 43.5496 31.8407 43.3359 31.7404C43.1222 31.6402 42.8278 31.8171 42.6783 32.1357C42.5289 32.4543 42.581 32.7938 42.7947 32.8941C43.0084 32.9943 43.3028 32.8174 43.4523 32.4988Z" fill="#030047"/>
<path d="M41.3862 31.6715C41.2757 31.9968 40.5857 32.9324 40.2922 33.1115C39.9987 33.2906 39.2468 33.351 39.1526 33.6813C39.0654 33.987 39.1446 34.3349 39.3558 34.5725" fill="white"/>
<path d="M39.3564 34.698C39.3219 34.698 39.2875 34.6838 39.2626 34.6559C39.025 34.3876 38.9347 33.9919 39.0326 33.6472C39.1122 33.3678 39.4731 33.2595 39.8221 33.1547C39.9843 33.1061 40.1374 33.0598 40.2273 33.005C40.4967 32.8405 41.1672 31.9282 41.2678 31.6317C41.29 31.5662 41.3608 31.531 41.4266 31.5536C41.492 31.5758 41.5272 31.647 41.5047 31.7124C41.3857 32.0625 40.68 33.0223 40.3574 33.219C40.2399 33.2909 40.0716 33.3414 39.8936 33.395C39.6357 33.4723 39.315 33.5691 39.273 33.7164C39.1976 33.9808 39.2668 34.2847 39.4494 34.4906C39.4953 34.5422 39.4903 34.6214 39.4386 34.667C39.4153 34.6876 39.3858 34.698 39.3564 34.698Z" fill="#030047"/>
<path d="M41.3624 36.273C41.1771 36.273 40.9919 36.2362 40.8232 36.1624C40.7597 36.1348 40.731 36.061 40.7585 35.9978C40.7864 35.9343 40.8603 35.9056 40.9231 35.9331C41.2001 36.0541 41.53 36.0529 41.8059 35.9312C42.0818 35.8095 42.3049 35.5662 42.4021 35.2807C42.4243 35.2153 42.495 35.1801 42.5609 35.2026C42.6263 35.2248 42.6615 35.296 42.6389 35.3614C42.5195 35.712 42.2459 36.0108 41.9069 36.1605C41.7366 36.2355 41.5495 36.273 41.3624 36.273Z" fill="#030047"/>
<path d="M44.114 31.7434C44.0673 31.7434 44.0225 31.717 44.0011 31.6722C43.861 31.3799 43.6257 31.0837 42.9721 31.1093C42.9028 31.1124 42.8451 31.058 42.8424 30.9892C42.8397 30.9203 42.8937 30.8621 42.9625 30.8594C43.5844 30.8361 43.985 31.0596 44.2269 31.5643C44.2567 31.6267 44.2303 31.7013 44.1679 31.7312C44.1503 31.7392 44.132 31.7434 44.114 31.7434Z" fill="#030047"/>
<path d="M40.5626 30.9548C40.7121 30.6363 40.66 30.2967 40.4463 30.1965C40.2325 30.0962 39.9381 30.2732 39.7887 30.5918C39.6392 30.9103 39.6913 31.2499 39.905 31.3501C40.1188 31.4504 40.4132 31.2734 40.5626 30.9548Z" fill="#030047"/>
<path d="M41.2251 30.1993C41.1849 30.1993 41.1455 30.1802 41.1214 30.1442C40.8627 29.7619 40.521 29.5725 40.0764 29.5652C40.0075 29.5641 39.952 29.507 39.9531 29.4382C39.9543 29.3693 40.0105 29.3149 40.0802 29.3149C40.6048 29.3234 41.025 29.5553 41.3284 30.0037C41.3671 30.0611 41.3522 30.1388 41.2948 30.1775C41.2733 30.192 41.2492 30.1993 41.2251 30.1993Z" fill="#030047"/>
<path d="M52.8095 59.6782C52.8095 59.6782 51.169 57.2173 49.0199 57.1361C46.8709 57.0546 44.209 57.2938 43.8612 58.1123C43.5156 58.9259 43.5359 62.2 44.5324 62.2815C45.2973 62.3438 45.4271 61.2444 45.4271 61.2444C45.4271 61.2444 45.5086 62.5937 46.3631 62.5937C47.2176 62.5937 47.1154 60.7768 47.1154 60.7768C47.1154 60.7768 47.5229 62.1785 48.2136 62.1395C49.2916 62.0787 49.0505 60.5361 49.0505 60.5361C49.0505 60.5361 49.3544 61.7748 50.1675 61.8559C50.9807 61.9371 51.0201 59.679 51.0201 59.679H52.8095V59.6782Z" fill="white"/>
<path d="M46.363 62.7183C45.7871 62.7183 45.5219 62.2128 45.401 61.7949C45.2475 62.1328 44.9705 62.442 44.5224 62.4057C44.3035 62.3877 44.1156 62.2519 43.9641 62.0012C43.3904 61.0518 43.4674 58.7191 43.7459 58.0632C44.2549 56.8654 48.5381 56.9925 49.0244 57.0108C51.2122 57.0935 52.845 59.5058 52.9131 59.6088C52.9387 59.647 52.941 59.6964 52.9192 59.7373C52.8974 59.7779 52.8549 59.8035 52.809 59.8035H51.1402C51.1222 60.2008 51.0296 61.431 50.572 61.8382C50.4491 61.9476 50.3075 61.9955 50.1545 61.9802C49.683 61.9331 49.3711 61.5554 49.1798 61.2018C49.1492 61.4509 49.0734 61.7222 48.9066 61.9289C48.7401 62.1351 48.509 62.248 48.2201 62.2645C47.7655 62.292 47.4276 61.8095 47.224 61.3939C47.188 61.7785 47.0916 62.2465 46.8444 62.5079C46.712 62.6475 46.5501 62.7183 46.363 62.7183ZM45.4274 61.1188C45.4285 61.1188 45.4297 61.1188 45.4308 61.1188C45.4955 61.1207 45.5483 61.1716 45.5525 61.2363C45.5533 61.2485 45.6371 62.4681 46.3634 62.4681C46.4805 62.4681 46.5784 62.4248 46.663 62.3353C46.9837 61.9962 47.0082 61.0996 46.9906 60.7828C46.9871 60.7193 47.0319 60.6634 47.0943 60.6527C47.1578 60.642 47.2179 60.6799 47.2355 60.7411C47.3399 61.0993 47.7115 62.0142 48.1856 62.0142C48.1925 62.0142 48.1994 62.0142 48.2063 62.0138C48.4244 62.0016 48.5897 61.922 48.7118 61.7712C49.0463 61.3579 48.9276 60.5624 48.9265 60.5543C48.9162 60.4881 48.9598 60.4258 49.0256 60.4124C49.091 60.3994 49.1557 60.4399 49.1718 60.505C49.1745 60.5165 49.4645 61.6587 50.1797 61.7303C50.2624 61.7387 50.3362 61.7127 50.4063 61.6503C50.7843 61.3139 50.8873 60.1104 50.8949 59.6754C50.8961 59.6072 50.9519 59.5525 51.0201 59.5525H52.5641C52.1271 58.9778 50.7239 57.325 49.0156 57.2603C46.738 57.1742 44.2763 57.4555 43.9767 58.1604C43.7188 58.7673 43.669 61.0288 44.1784 61.8711C44.2859 62.049 44.4083 62.1447 44.5427 62.1558C45.1779 62.2071 45.3019 61.2385 45.303 61.2286C45.3107 61.1662 45.3642 61.1188 45.4274 61.1188Z" fill="#030047"/>
<path d="M49.0503 60.6603C48.9864 60.6603 48.9317 60.6113 48.926 60.5463L48.794 59.0841C48.7878 59.0152 48.8387 58.9544 48.9072 58.9483C48.975 58.9421 49.037 58.993 49.0431 59.0615L49.1751 60.5237C49.1812 60.5926 49.1303 60.6534 49.0618 60.6595C49.058 60.6603 49.0538 60.6603 49.0503 60.6603Z" fill="#030047"/>
<path d="M47.115 60.9014C47.0538 60.9014 47.0006 60.8566 46.9914 60.7946L46.7787 59.347C46.7687 59.2785 46.8158 59.215 46.8843 59.205C46.9539 59.1947 47.0163 59.2421 47.0263 59.3106L47.239 60.7583C47.249 60.8268 47.2019 60.8903 47.1334 60.9002C47.1273 60.901 47.1212 60.9014 47.115 60.9014Z" fill="#030047"/>
<path d="M45.4269 61.3691C45.3637 61.3691 45.3094 61.3213 45.3025 61.257L45.1028 59.3414C45.0955 59.2725 45.1456 59.2113 45.2141 59.204C45.283 59.1964 45.3446 59.2469 45.3515 59.3154L45.5512 61.231C45.5585 61.2999 45.5084 61.3611 45.4399 61.3684C45.4357 61.3691 45.4315 61.3691 45.4269 61.3691Z" fill="#030047"/>
</svg>
