<?xml version="1.0" encoding="utf-8"?>
<!-- Generator: Adobe Illustrator 26.5.0, SVG Export Plug-In . SVG Version: 6.00 Build 0)  -->
<svg version="1.1" id="main" xmlns="http://www.w3.org/2000/svg" xmlns:xlink="http://www.w3.org/1999/xlink" x="0px" y="0px"
	 viewBox="0 0 40 40" style="enable-background:new 0 0 40 40;" xml:space="preserve">
<style type="text/css">
	.st0{fill:#EA8A2A;}
	.st1{fill:none;stroke:#FFFFFF;stroke-width:2;stroke-linecap:round;stroke-linejoin:round;}
</style>
<g id="circle_x5F_D_00000005959072195277906840000007745170701267722405_">
	<circle class="st0" cx="10.9" cy="29.5" r="7.2"/>
</g>
<g id="lines">
	<path class="st1" d="M24.9,16.1v-2.4h-2.1"/>
	<path class="st1" d="M17.8,16.5l1.4-1.5l2.8,2.4l3.1-3.6"/>
	<path class="st1" d="M21.9,21.5H25"/>
	<path class="st1" d="M21.9,25H25"/>
	<path class="st1" d="M10.5,21.6v8.1c0,1,1.8,1.9,4.1,1.9s4.1-0.9,4.1-1.9v-8.1"/>
	<path class="st1" d="M18.8,21.6c0,1-1.8,1.9-4.1,1.9s-4.1-0.9-4.1-1.9s1.8-1.9,4.1-1.9S18.8,20.6,18.8,21.6"/>
	<path class="st1" d="M10.5,25.6c0,1,1.8,1.9,4.1,1.9s4.1-0.9,4.1-1.9"/>
	<path class="st1" d="M12.6,16.1v-4.8c0-1.3,1-2.4,2.1-2.4H27c1.1,0,2.1,1,2.1,2.4v15.4c0,1.3-1,2.4-2.1,2.4h-5.2"/>
</g>
</svg>
