<?xml version="1.0" encoding="utf-8"?>
<!-- Generator: Adobe Illustrator 26.5.0, SVG Export Plug-In . SVG Version: 6.00 Build 0)  -->
<svg version="1.1" id="main" xmlns="http://www.w3.org/2000/svg" xmlns:xlink="http://www.w3.org/1999/xlink" x="0px" y="0px"
	 viewBox="0 0 40 40" style="enable-background:new 0 0 40 40;" xml:space="preserve">
<style type="text/css">
	.st0{fill:#BFCFFF;}
	.st1{fill:#565656;}
	.st2{fill:#EA8A2A;}
</style>
<g id="circle_x5F_D_00000005959072195277906840000007745170701267722405_">
	<circle class="st0" cx="10.9" cy="29.5" r="7.2"/>
</g>
<g>
	<path class="st1" d="M19,2.9C18.9,3,18.8,3,18.8,3c-0.1,0-0.1,0-0.2,0.1l-0.1,0.1c-0.2,0-1.1,1-1.1,1.2c0,0,0,0.1-0.1,0.2
		c0,0.1-0.1,0.1-0.1,0.2s0,0.2-0.1,0.4c-0.1,0.4-0.1,1,0.2,1.6C17.4,6.9,17.5,7,17.5,7s0,0,0,0.1c0,0.2,0.8,0.9,1,0.9
		c0,0,0.1,0,0.1,0.1c0,0,0.1,0.1,0.2,0.1s0.2,0,0.3,0.1l0.2,0.1l-0.1,0.2c-0.2,0.2-0.3,0.6-0.3,0.7c0,0,0,0.1-0.1,0.2
		c0,0.1-0.1,0.2-0.1,0.3s0,0.2-0.1,0.3c0,0.1-0.1,0.3-0.1,0.5c0,0.5-0.1,0.5-0.5,0.1s-1.1-0.7-1.6-0.8c-0.2,0-0.3,0-0.4,0.1
		s-0.1,0.2,0.1,0.4c0.4,0.2,1,0.8,1.3,1.3c0.3,0.4,0.6,0.9,0.6,1c0,0,0,0.1,0.1,0.2c0.1,0.3,0.2,0.5,0.2,0.8c0,0.2,0.1,0.4,0.1,0.5
		s0.1,0.3,0.1,0.4c0,0.2,0,0.4,0.1,0.5c0,0.1,0.1,0.4,0.1,0.6c0,0.2,0,0.5,0.1,0.7c0.1,0.4,0.1,1.2,0,1.2c0,0-0.2-0.1-0.4-0.3
		c-0.2-0.2-0.4-0.4-0.5-0.4c-0.1-0.1-0.2-0.2-0.3-0.2c-0.1-0.1-0.6-0.4-0.8-0.5c0,0-0.1-0.1-0.2-0.1c0,0-0.5-0.2-0.9-0.5
		c-1-0.5-1-0.5-1.4-0.7c-0.5-0.3-1.4-1.3-1.5-1.6c0-0.1-0.1-0.1-0.1-0.1c-0.1,0-0.1-0.3,0.1-0.4c0.1-0.1,0.2-0.2,0.2-0.3
		s0.1-0.2,0.2-0.3c0.1-0.1,0.1-0.3,0.2-0.4s0.1-0.3,0.1-0.5c0.1-0.3,0-0.4,0-0.7c0-0.2-0.1-0.5-0.2-0.6c0-0.1-0.1-0.2-0.1-0.2
		c0-0.1-0.4-0.6-0.5-0.7c-0.2-0.2-0.7-0.5-0.8-0.5c0,0-0.1,0-0.2-0.1c-0.1,0-0.2-0.1-0.2-0.1c-0.1,0-0.2,0-0.4-0.1
		c-0.1,0-0.3-0.1-0.4-0.1S10.4,8,10.2,8C10.1,8,10,8.1,9.9,8.1s-0.2,0-0.2,0.1c-0.1,0-0.1,0.1-0.2,0.1c-0.2,0-1.3,1-1.3,1.3
		c0,0,0,0.1-0.1,0.2c0-0.1-0.1,0-0.1,0.1s0,0.3-0.1,0.4c-0.1,0.3-0.1,0.4,0,0.6S8,11.3,8,11.4c0,0.1,0.1,0.2,0.1,0.3
		s0.1,0.2,0.1,0.2c0.1,0.3,0.8,1,0.9,1c0,0,0.1,0,0.1,0.1c0,0,0.1,0.1,0.2,0.1s0.1,0,0.2,0.1c0,0,0.1,0.1,0.2,0.1
		c0.1,0,0.2,0,0.3,0.1c0.2,0.1,0.8,0.1,1.1,0s0.4-0.1,0.6,0.2c0.2,0.3,1.7,1.8,1.8,1.8c0,0,0.1,0.1,0.2,0.1c0.1,0.1,0.2,0.2,0.3,0.2
		s0.2,0.2,0.1,0.3c0,0-0.2,0-0.4,0s-0.4,0-0.5,0.1c-0.1,0-0.3,0.1-0.3,0.1s-0.2,0-0.2,0.1c-0.1,0-0.1,0.1-0.2,0.1
		c-0.1,0-0.2,0-0.2,0.1c-0.1,0-0.2,0.1-0.2,0.1s-0.2,0.1-0.3,0.2s-0.3,0.1-0.3,0.1c-0.1,0-0.1,0-0.2,0.1c0,0-0.1,0.1-0.2,0.1
		s-0.1,0-0.2,0.1l-0.1,0.1c-0.1,0-0.8,0.7-1,1c-0.1,0.1-0.2,0.3-0.2,0.4c-0.1,0.2-0.1,1.6,0,1.8c0,0.1,0.1,0.2,0.1,0.2
		c0,0.1,0,0.1,0.1,0.2L10,21c0,0,0.2,0.2,0.3,0.4c0.3,0.4,0.6,0.6,1.2,0.8c0.3,0.1,1.2,0.1,1.4,0c0.1,0,0.2-0.1,0.3-0.1
		s0.2,0,0.2-0.1l0.1-0.1c0.2,0,1.1-0.8,1.2-1.2c0,0,0.1-0.2,0.1-0.3c0.1-0.2,0.1-0.4,0.1-0.9c0-0.7,0-0.9-0.2-1.2
		c0,0-0.1-0.1-0.1-0.2c-0.1-0.2-0.5-0.7-0.8-0.9C13.5,17,13.6,17,14.5,17c0.6,0,0.9,0,1,0.1c0.1,0,0.2,0.1,0.2,0.1
		c0.1,0,0.5,0.2,0.9,0.5c0.5,0.3,1,0.9,1.4,1.6c0.2,0.5,0.3,0.5,0.3,0.6s0,0.2,0.1,0.2c0,0.1,0.1,0.2,0.1,0.3c0,0.1,0,0.3,0.1,0.4
		c0.1,0.3,0.1,2.4,0,2.8c0,0.1-0.1,0.4-0.1,0.5s0,0.3-0.1,0.4c0,0.1-0.1,0.3-0.1,0.4s0,0.2-0.1,0.3c0,0.1-0.1,0.2-0.1,0.3
		c0,0.1,0,0.2-0.1,0.3c0,0.1-0.1,0.2-0.1,0.2s0,0.2-0.1,0.2c0,0.1-0.1,0.2-0.1,0.2c0,0.1,0,0.1-0.1,0.2c0,0-0.1,0.1-0.1,0.2
		s0,0.1,0,0.1s-0.1,0.1-0.2,0.3c-0.2,0.3-0.9,1.1-1.1,1.1c0,0-0.1,0-0.1,0.1c0,0-0.1,0.1-0.2,0.1s-0.1,0-0.2,0.1
		c0,0-0.1,0.1-0.2,0.1c-0.1,0-0.2,0-0.3,0.1c-0.1,0-0.2,0.1-0.3,0.1s-0.3,0-0.4,0.1c-0.1,0-0.3,0.1-0.4,0.1s-0.4,0-0.5,0.1
		c-0.1,0-0.4,0.1-0.5,0.1s-0.3,0-0.4,0.1c-0.1,0-0.2,0.1-0.2,0.1c-0.3,0-1.1,0.6-1.3,0.8c-0.1,0.2-0.1,0.2,0,0.2
		c0.2-0.1,0.8-0.2,2-0.2c0.7,0,1.3-0.1,1.4-0.1c0,0,0.2-0.1,0.4-0.1s0.4-0.1,0.4-0.1c0.1,0,0.1,0,0.1,0.1s-0.8,1-1.2,1.2
		c-0.1,0.1-0.2,0.2-0.3,0.2s-0.1,0-0.1,0.1c0,0-0.2,0.1-0.3,0.2s-0.3,0.1-0.3,0.1c-0.1,0-0.1,0-0.1,0.1c0,0,0.1,0.1,0.2,0.1
		c0.3,0,1.2,0,1.4-0.1c0.1,0,0.2-0.1,0.2-0.1c0.1,0,0.1,0,0.2-0.1l0.1-0.1c0.2,0,1.1-0.8,1.4-1.3c0.3-0.3,0.9-1,0.9-1
		c0.1,0,0,0.2,0,0.3c-0.1,0.1-0.1,0.2-0.1,0.6s0,0.6,0.1,0.7c0.1,0.2,0.6,0.7,0.7,0.7c0,0,0.1,0,0.1,0.1c0,0,0.1,0.1,0.2,0.1
		s0.2,0,0.2,0.1c0.1,0,0.2,0.1,0.3,0.1c0.1,0,0.3,0,0.5,0.1c0.3,0.1,1.4,0.1,1.4,0c0,0-0.1-0.1-0.2-0.2c-0.5-0.2-1.1-0.8-1.3-1.2
		c-0.3-0.5-0.3-0.7-0.2-0.9c0-0.1,0.1-0.2,0.1-0.3c0-0.1,0-0.2,0.1-0.2s0.1-0.1,0.1-0.2c0.1-0.2,0.2-0.5,0.2-0.7
		c0-0.1,0.1-0.2,0.1-0.3c0-0.1,0-0.2,0.1-0.2c0-0.1,0.1-0.2,0.1-0.2s0-0.2,0.1-0.3c0-0.1,0.1-0.2,0.1-0.3s0-0.2,0.1-0.2
		c0-0.1,0.1-0.2,0.1-0.2s0-0.2,0.1-0.2c0-0.1,0.1-0.2,0.1-0.2s0-0.2,0.1-0.2c0.1-0.1,0.1-0.4,0.1-2.1c0-1.5,0-2.1,0.1-2.2
		c0-0.1,0.1-0.3,0.1-0.4c0-0.3,0.2-0.8,0.4-1.1c0,0,0.1-0.1,0.1-0.2s0.1-0.2,0.2-0.3c0.1-0.1,0.1-0.2,0.1-0.2s0.1-0.2,0.5-0.6
		c0.1-0.1,0.2-0.2,0.3-0.2c0.1,0,0.1,0,0.1,0.3c0,0.4,0.1,0.9,0.2,1c0,0,0.1,0.1,0.1,0.2s0,0.1,0.1,0.2s0.1,0.1,0.1,0.1
		c0,0.1,0.9,1,1.1,1c0,0,0.1,0,0.2,0.1c0.1,0,0.2,0.1,0.2,0.1c0.1,0,0.2,0,0.3,0.1c0.2,0.1,0.8,0.1,1,0c0.1,0,0.2-0.1,0.3-0.1
		c0,0,0.2-0.1,0.3-0.1c0.1-0.1,0.3-0.2,0.3-0.2c0.3-0.1,0.9-0.8,0.9-1c0,0,0-0.1,0.1-0.1c0.2-0.2,0.3-1.4,0.2-1.8
		c-0.2-0.5-0.4-1-0.7-1.2c-0.2-0.2-0.6-0.5-0.8-0.6c-0.1-0.1-0.3-0.1-0.4-0.2c-0.2-0.1-1.5-0.1-1.6,0c-0.1,0-0.1,0.1-0.2,0.1
		s-0.8,0.5-1,0.7c-0.2,0.3-0.4,0.4-0.6,0.4c-0.1,0-0.3,0.1-0.5,0.2c0,0-0.1,0.1-0.2,0.1c0,0-0.2,0.1-0.3,0.2
		c-0.1,0.1-0.2,0.1-0.3,0.1c-0.1,0-0.1-0.1,0-0.2s0.1-0.2,0.1-0.3c0-0.1,0.4-0.6,0.7-0.8c0.3-0.3,1.3-1,1.4-1c0,0,0.1,0,0.1-0.1
		S24,16,24.1,16s0.1,0,0.2-0.1s0.1-0.1,0.2-0.1s0.1,0,0.2-0.1c0,0,0.1-0.1,0.2-0.1s0.1,0,0.2-0.1c0,0,0.1-0.1,0.2-0.1s0.1,0,0.2-0.1
		c0,0,0.1-0.1,0.2-0.1s0.1,0,0.1-0.1l0.1-0.1c0.1,0,0.2-0.1,0.6-0.3c0.1-0.1,0.2-0.1,0.3-0.1s0.2-0.1,0.4-0.3
		c0.4-0.3,0.6-0.4,0.7-0.2c0,0,0.1,0.1,0.2,0.1s0.1,0,0.2,0.1s1.2,0.2,1.7,0.1c0.2,0,0.3-0.1,0.6-0.2c0,0,0.1-0.1,0.2-0.1
		c0.1-0.1,0.7-0.6,0.7-0.6s0.1-0.1,0.2-0.3c0.1-0.1,0.2-0.2,0.2-0.3c0,0,0-0.1,0.1-0.2c0.1-0.2,0.1-1.5,0-1.8c0-0.1-0.1-0.3-0.2-0.4
		c-0.1-0.1-0.2-0.3-0.3-0.5c-0.2-0.3-0.8-0.7-0.9-0.7c0,0-0.1,0-0.1-0.1c0,0-0.1-0.1-0.2-0.1S30.1,9.1,30,9c-0.2-0.1-0.9-0.1-1.1,0
		c-0.1,0-0.2,0.1-0.2,0.1c-0.4,0-1.3,0.8-1.5,1.2c-0.1,0.1-0.1,0.2-0.2,0.3v0.1c0,0.1,0,0.2-0.1,0.3s-0.1,0.3-0.1,0.7s0,0.6,0.1,0.7
		c0,0.1,0.1,0.2,0.1,0.3s0,0.1,0.1,0.2c0.2,0.2,0,0.4-0.6,0.9c-0.4,0.3-0.4,0.3-0.8,0.5c-0.3,0.1-0.3,0.2-0.5,0.3
		c-0.1,0-0.1,0.1-0.2,0.1c-0.2,0.1-1.1,0.6-1.4,0.7c-0.7,0.4-2.1,1.7-2.2,2.1c0,0.1-0.1,0.1-0.1,0.1c-0.1,0-0.2-0.2-0.2-0.6
		c0-0.3-0.1-0.5-0.1-0.6s-1-1-1-1.1s0-0.3-0.1-0.4c0-0.1-0.1-0.3-0.1-0.4s0-0.3-0.1-0.4c0-0.1-0.1-0.4-0.1-0.7s-0.1-0.6-0.1-0.7
		c-0.1-0.4-0.1-1.8,0-2.2c0-0.2,0.1-0.4,0.1-0.5s0-0.2,0.1-0.3c0-0.1,0.1-0.2,0.1-0.3s0-0.2,0.1-0.2C20,9.1,20,9.1,20,9
		s0-0.1,0.1-0.2l0.1-0.1c0,0,0.1-0.2,0.2-0.4C20.6,8.1,20.7,8,20.8,8C20.9,8.1,21,8,21,8s0.1-0.1,0.2-0.1s0.1-0.1,0.1-0.1
		s0-0.1,0.1-0.1s0.9-0.9,0.9-1c0,0,0-0.1,0.1-0.1c0,0,0.1-0.2,0.1-0.3s0.1-0.3,0.1-0.5s0-0.3,0-0.5s-0.1-0.4-0.1-0.4
		c0-0.1-0.1-0.2-0.1-0.3c0-0.1-0.1-0.2-0.1-0.2c-0.2-0.4-0.8-1-1.2-1.2c-0.5-0.2-0.6-0.3-1.2-0.3S19.1,2.9,19,2.9z M20.1,3.9
		c0.1,0,0.3,0.1,0.3,0.1s0.1,0.1,0.2,0.1c0.1,0.1,0.7,0.6,0.7,0.7c0,0,0,0.1,0.1,0.2c0.1,0.2,0.1,0.8-0.1,1.1
		C21.2,6.5,20.8,7,20.7,7c0,0-0.1,0-0.1,0.1c-0.1,0.1-0.4,0.1-0.8,0.1S19.1,7.1,19,7c0,0,0,0-0.1,0s-0.6-0.6-0.6-0.7
		c0,0,0-0.1-0.1-0.2c-0.1-0.2-0.1-0.8,0.1-1.2c0.2-0.5,0.5-0.8,1.1-1C19.7,3.9,19.8,3.8,20.1,3.9z M11.2,9.1
		c0.1,0.1,0.2,0.1,0.3,0.2c0.2,0.1,0.6,0.5,0.7,0.8c0.2,0.4,0.2,0.9,0,1.3c-0.1,0.1-0.1,0.3-0.2,0.4c-0.1,0.1-0.4,0.4-0.7,0.5
		c-0.3,0.2-1.1,0.1-1.4,0c-0.2-0.1-0.6-0.4-0.7-0.6c-0.2-0.3-0.3-1.1-0.1-1.5c0.1-0.5,0.7-1,0.9-1c0,0,0.1,0,0.2-0.1
		C10.4,9,10.9,9,11.2,9.1z M29.3,9.6c0.1,0,0.1,0.1,0.2,0.1s0.6,0.5,0.7,0.6c0,0.1,0.1,0.1,0.1,0.2c0,0,0.1,0.2,0.1,0.4
		c0.1,0.3,0.1,0.3,0,0.5c0,0.1-0.1,0.3-0.1,0.4c0,0.1-0.1,0.3-0.2,0.4c-0.2,0.2-0.6,0.5-0.7,0.5c0,0-0.1,0-0.2,0.1s-0.9,0.1-1.1,0
		c-0.1,0-0.1-0.1-0.2-0.1s-0.6-0.5-0.8-0.8c-0.2-0.4-0.2-1.1,0-1.4c0.2-0.3,0.6-0.7,0.8-0.8C28.4,9.5,29.1,9.5,29.3,9.6z M25.7,17
		c0.5,0.2,0.9,0.5,1,0.7c0,0.1,0.1,0.1,0.1,0.2c0.1,0.1,0.2,0.6,0.2,0.8c0,0.2-0.2,0.7-0.3,0.8l-0.1,0.1c0,0.1-0.6,0.7-0.8,0.7
		c-0.1,0-0.2,0-0.3,0.1c-0.4,0.2-1.1,0-1.5-0.4s-0.5-0.7-0.5-1.3c0-0.4,0-0.5,0.1-0.6c0-0.1,0.1-0.1,0.1-0.2s0.1-0.2,0.3-0.4
		c0.2-0.2,0.4-0.3,0.5-0.4c0.1,0,0.2-0.1,0.3-0.1C25.1,16.9,25.5,16.9,25.7,17z M12.5,17.8c0.4,0.1,0.6,0.2,0.7,0.4
		c0.2,0.2,0.2,0.2,0.4,0.7c0.1,0.2,0.1,0.8,0,1.1c-0.1,0.3-0.5,0.7-0.7,0.8c-0.1,0-0.1,0.1-0.2,0.1c-0.2,0.1-0.6,0.2-0.9,0.1
		c-0.2,0-0.3-0.1-0.4-0.1c0,0-0.1-0.1-0.2-0.1c-0.2-0.1-0.5-0.4-0.6-0.7c0,0-0.1-0.2-0.1-0.3c-0.3-0.6,0.1-1.6,0.7-2
		C11.7,17.7,12.1,17.7,12.5,17.8z"/>
	<path class="st1" d="M19.3,4.6C19.1,4.7,19,4.8,19,4.9s-0.1,0.2-0.1,0.2c-0.1,0.1-0.1,1,0,1c0,0,0.1,0,0.1-0.1
		c0.1-0.4,0.4-0.9,0.7-1.2C19.9,4.6,20,4.5,20,4.5C19.8,4.4,19.5,4.5,19.3,4.6z"/>
	<path class="st1" d="M10.4,9.6c-0.2,0-0.5,0.3-0.6,0.5s-0.1,0.3-0.1,0.6c0,0.2,0,0.5,0,0.5c0.1,0,0.3-0.4,0.3-0.5
		c0,0,0-0.1,0.1-0.1c0,0,0.1-0.1,0.1-0.2c0,0,0.1-0.2,0.3-0.4s0.3-0.3,0.3-0.4C10.7,9.6,10.6,9.6,10.4,9.6z"/>
	<path class="st1" d="M28.5,10.1c-0.4,0.1-0.6,0.3-0.8,0.8c-0.1,0.3-0.1,0.3,0,0.5s0.2,0.3,0.2,0c0-0.1,0-0.2,0.1-0.2l0.1-0.1
		c0-0.1,0.4-0.7,0.6-0.8c0.1-0.1,0.1-0.1,0.1-0.2C28.8,10,28.8,10,28.5,10.1z"/>
	<path class="st1" d="M25.2,17.6c-0.2,0-0.7,0.4-0.7,0.5c0,0,0,0.1-0.1,0.1s-0.1,0.2-0.1,0.5s0,0.4,0.1,0.4c0,0,0.1,0,0.1-0.1
		s0-0.1,0.1-0.2l0.1-0.1c0-0.2,0.5-0.8,0.8-1C25.6,17.6,25.5,17.5,25.2,17.6z"/>
	<path class="st1" d="M11.8,18.4c-0.2,0-0.6,0.3-0.6,0.5c0,0,0,0.1-0.1,0.2c-0.1,0-0.1,0.1-0.1,0.4c0,0.4,0.1,0.5,0.2,0.2
		c0.2-0.6,0.4-0.8,0.7-1.1C12,18.5,12.1,18.3,11.8,18.4C12,18.3,11.9,18.3,11.8,18.4z"/>
	<path class="st1" d="M12.3,4.8c-0.1,0.1,0,0.8,0,1c0,0.1,0.1,0.3,0.1,0.4s0,0.2,0.1,0.2c0,0.1,0.1,0.1,0.1,0.2s0.1,0.4,0.3,0.6
		c0.3,0.5,0.9,1,1.3,1.2c0.1,0.1,0.3,0.1,0.4,0.2c0.1,0,0.2,0.1,0.3,0.1s0.3,0,0.4,0.1c0.4,0.1,0.4,0,0.2-0.3
		c-0.1-0.2-0.2-0.3-0.3-0.4C15.1,8,15,7.8,14.8,7.6c0,0-0.2-0.2-0.3-0.3C14.4,7.1,14.3,7,14.2,7s0-0.2,0-0.2h0.1
		c0,0,0.1,0.1,0.3,0.3c0.2,0.1,0.5,0.5,0.8,0.8C16.1,8.5,16.1,8.5,16,8c0-0.2-0.1-0.4-0.1-0.5c0-0.2-0.1-0.3-0.2-0.6
		c0,0-0.1-0.1-0.1-0.2s-0.1-0.2-0.5-0.6c-0.3-0.3-1-0.8-1.2-0.8c0,0-0.1,0-0.1-0.1c0,0-0.1-0.1-0.2-0.1c-0.1,0-0.2,0-0.3-0.1
		c-0.1,0-0.3-0.1-0.5-0.1S12.4,4.9,12.3,4.8C12.4,4.8,12.4,4.8,12.3,4.8z"/>
	<path class="st1" d="M26.2,5.4c-0.2,0-0.4,0.1-0.4,0.1s-0.1,0.1-0.2,0.1s-0.6,0.3-1,0.5c-0.3,0.2-0.8,0.8-0.8,0.9
		c0,0,0,0.1-0.1,0.1c-0.1,0.1-0.2,0.4-0.3,0.7c0,0.1-0.1,0.3-0.1,0.4c-0.1,0.2-0.1,0.4,0,0.5c0,0,0.2-0.1,0.4-0.3
		c0.7-0.7,1.4-1.3,1.5-1.2c0,0,0,0.1-0.1,0.2c-0.9,1-1.4,1.6-1.3,1.7c0,0,0.8-0.1,0.9-0.1c0.4-0.1,0.8-0.4,1.2-0.6
		c0.3-0.2,0.7-0.7,0.8-1c0-0.1,0.1-0.1,0.1-0.2C26.9,6.9,27,6.8,27,6.7s0-0.2,0.1-0.3c0-0.1,0.1-0.3,0.1-0.5c0-0.3,0-0.4-0.1-0.4
		C27.2,5.3,26.8,5.3,26.2,5.4z"/>
	<path class="st1" d="M23.6,10.3c-0.5,0-0.8,0.1-1.4,0.4c-0.4,0.2-1.1,1-1.1,1.1c0,0,0,0.1-0.1,0.1c0,0-0.1,0.1-0.1,0.2
		c0,0.1,0,0.2-0.1,0.3s-0.1,0.9,0,0.9c0,0,0.2-0.2,0.5-0.5c0.6-0.6,1.1-1.1,1.2-1.1s0.1,0,0,0.1s-0.3,0.4-0.4,0.5
		c-0.3,0.3-0.9,1.2-0.9,1.3s0.6,0,0.8-0.1c0.7-0.3,0.9-0.4,1.4-0.9c0.3-0.3,0.5-0.5,0.5-0.6s0-0.1,0.1-0.1c0,0,0.1-0.1,0.1-0.2
		s0-0.1,0.1-0.2c0,0,0.1-0.1,0.1-0.2c0-0.1,0-0.2,0.1-0.2c0-0.1,0.1-0.3,0.1-0.6c0-0.5,0-0.5-0.3-0.5C24.1,10.3,23.9,10.3,23.6,10.3
		z"/>
	<path class="st1" d="M14.4,10.8c0,0.1-0.1,0.4-0.1,0.7c0,0.5,0,0.6,0.1,0.7c0,0.1,0.1,0.2,0.1,0.3s0,0.2,0.1,0.3
		c0,0.1,0.1,0.2,0.1,0.2c0,0.1,0.1,0.2,0.3,0.4c0.1,0.2,0.8,0.8,0.8,0.8s0.1,0,0.1,0.1s0.1,0.1,0.1,0.1s0.1,0,0.2,0.1
		c0,0,0.2,0.1,0.3,0.1c0.2,0,0.2,0,0.2-0.1s0-0.2-0.1-0.3c0-0.1-0.2-0.3-0.3-0.5C16.1,13.2,16.1,13,16,13l-0.1-0.1
		c0,0,0-0.1-0.1-0.2s-0.1-0.1,0-0.1c0,0,0.1,0,0.1,0.1c0.1,0.1,0.6,0.8,0.6,0.8s0.3,0.6,0.4,0.6l0.1,0.1c0,0.1,0.1,0.1,0.1,0.1
		c0.2,0,0.2-0.8-0.1-1.6c0-0.1-0.1-0.2-0.1-0.3c0,0-0.1-0.2-0.2-0.3c-0.2-0.3-0.8-1-1.1-1.1c-0.1-0.1-0.3-0.2-0.4-0.2
		c-0.1,0-0.2-0.1-0.2-0.1c-0.1,0-0.1,0-0.2-0.1C14.7,10.6,14.5,10.6,14.4,10.8z"/>
	<path class="st1" d="M8.4,14.3c-0.1,0-0.3,0.1-0.3,0.1c-0.1,0-0.2,0-0.3,0.1c-0.1,0-0.2,0.1-0.2,0.1c-0.1,0-0.1,0-0.2,0.1
		c0,0-0.1,0.1-0.2,0.1s-0.1,0-0.1,0.1c0,0-0.1,0.1-0.2,0.1c-0.2,0.1-0.2,0.3,0.2,0.6c0.4,0.3,1,0.8,1.2,0.8c0,0,0.1,0,0.2,0.1
		c0.3,0.2,1.8,0.2,2.1,0c0.1,0,0.2-0.1,0.4-0.2s0.2-0.1,0.2-0.2S11.1,16,11,16s-0.2-0.1-0.3-0.1s-0.2-0.1-0.2-0.1
		c-0.1,0-0.2,0-0.3-0.1c-0.1,0-0.3-0.1-0.4-0.1c-0.1,0-0.3,0-0.4-0.1c-0.1,0-0.2-0.1-0.3-0.1S9,15.4,9,15.3s0.5,0,0.7,0
		c0.1,0,0.3,0,0.5,0s0.4,0,0.5,0.1c0.2,0.1,0.6,0.1,0.6,0s-0.6-0.7-0.8-0.7c-0.1,0-0.1-0.1-0.2-0.1c-0.3-0.1-0.4-0.2-0.5-0.2
		s-0.2,0-0.3-0.1S8.6,14.2,8.4,14.3z"/>
	<path class="st1" d="M29.2,14.8c-0.1,0-0.3,0.1-0.4,0.1s-0.2,0-0.2,0.1c0,0-0.1,0.1-0.2,0.1s-0.1,0-0.2,0.1l-0.1,0.1
		c-0.1,0-0.5,0.4-0.5,0.4s0.2,0,0.3,0c0.2,0,0.4,0,0.6,0s0.5,0,0.7,0.1s0.5,0,0.5,0.1c0.3,0.1,0,0.1-0.5,0.1c-0.2,0-0.6,0-0.7,0.1
		c-0.1,0-0.4,0.1-0.5,0.1s-0.3,0.1-0.4,0.1c-0.2,0.2,0.3,0.6,1.2,1c0.3,0.1,1.6,0.1,1.9,0c0.7-0.3,1.5-0.8,1.5-1
		c0-0.1-0.7-0.7-1.1-0.8c0-0.4-0.1-0.5-0.2-0.5s-0.2-0.1-0.3-0.1c-0.1,0-0.3-0.1-0.4-0.1C29.9,14.7,29.5,14.7,29.2,14.8z"/>
</g>
<path class="st2" d="M26.9,23.5c-0.4,0.2-2.5,1.3-3.7,1.9c0,0-0.1,0.1-0.2,0.1s-0.1,0.1-0.2,0.1c-0.2,0.1-0.2,0.1-0.4,0.2
	c-0.3,0.1-0.6,0.5-0.6,0.7c0,0.1,0,0.2-0.1,0.3c0,0.1-0.1,0.2-0.1,0.3s0,0.2-0.1,0.2c0,0.1-0.1,0.2-0.1,0.2c0,0.1,0,0.2-0.1,0.3
	c0,0.1-0.1,0.2-0.1,0.3c0,0.1,0,0.2-0.1,0.2c0,0.1-0.1,0.2-0.1,0.3c0,0.2-0.1,0.2-0.2,0.7c-0.1,0.3-0.1,0.5-0.1,0.7
	c0,0.1,0.3,0.3,0.5,0.3c0.1,0,0.2,0,0.2,0.1s0.2,0.1,0.3,0.1c0.2,0,0.3,0.1,0.7,0.2c0.1,0,0.3,0.1,0.4,0.1s0.2,0.1,0.3,0.1
	c0.1,0,0.2,0.1,0.2,0.1s0.2,0,0.2,0.1c0.1,0,0.2,0.1,0.3,0.1c0.1,0,0.2,0,0.3,0.1c0.1,0,0.2,0.1,0.3,0.1c0.1,0,0.2,0,0.2,0.1
	c0.1,0,0.2,0.1,0.2,0.1s0.2,0,0.3,0.1c0.2,0.1,0.6,0.1,0.8,0c0.1-0.1,0.2-0.1,0.2-0.2c0,0,0,0,0.1,0s0.1-0.1,0.3-0.2
	c0.1-0.1,0.2-0.2,0.2-0.2s0.1-0.1,0.2-0.2s0.2-0.2,0.2-0.2s0.4-0.2,0.4-0.3c0,0,0,0,0.1,0c0,0,0.3-0.2,0.4-0.3c0,0,0.2-0.2,0.3-0.2
	c0,0,0.2-0.1,0.3-0.2c0.1-0.1,0.2-0.1,0.2-0.1s0.1-0.1,0.2-0.2s0.2-0.2,0.2-0.2s0.1-0.1,0.2-0.2s0.2-0.2,0.2-0.2s0.4-0.2,0.9-0.6
	c0.5-0.3,0.8-0.6,0.9-0.6s0.2-0.1,0.3-0.2l0.3-0.2v-0.3c0-0.2-0.1-0.3-0.1-0.4s-0.1-0.2-0.2-0.4c0-0.1-0.1-0.3-0.2-0.4
	c0-0.1-0.1-0.2-0.1-0.2s0-0.1-0.1-0.2c0-0.1-0.1-0.1-0.1-0.2s0-0.2-0.1-0.2c0-0.1-0.1-0.1-0.1-0.2s0-0.2-0.1-0.2
	c0-0.1-0.1-0.1-0.1-0.2s-0.2-0.4-0.5-0.5c-0.1,0-0.3-0.1-0.5-0.1c-0.1,0-0.3-0.1-0.4-0.1s-0.2-0.1-0.3-0.1c-0.1,0-0.3,0-0.4-0.1
	c-0.1,0-0.3-0.1-0.4-0.1s-0.3,0-0.4-0.1c-0.1,0-0.3-0.1-0.6-0.1C27.4,23.3,27.4,23.3,26.9,23.5z M30.2,24.5c0,0.1-0.1,0.1-0.2,0.2
	s-1.3,0.9-1.3,0.9s-0.1,0.1-0.3,0.1C28.1,26,28,26,27.7,26.2c-0.2,0.1-0.3,0.2-0.3,0.2h-0.1c0,0-0.1,0-0.2,0.1c0,0-0.1,0.1-0.2,0.1
	s-0.1,0-0.2,0.1c0,0-0.1,0.1-0.2,0.1s-0.1,0-0.2,0.1c0,0-0.1,0.1-0.2,0.1s-0.2,0-0.2,0.1c-0.1,0.1-0.3,0.1-0.3,0s0.5-0.5,0.7-0.6
	c0.1,0,0.2-0.1,0.3-0.2c0.1-0.1,0.3-0.2,0.4-0.2c0.1-0.1,0.3-0.2,0.4-0.2c0.1-0.1,0.2-0.1,0.2-0.1s0.1-0.1,0.2-0.1l0.1-0.1
	c0.2-0.1,0.2-0.1,0.4-0.2c0.1-0.1,0.2-0.1,0.2-0.1c0.1-0.1,0.2-0.1,0.5-0.3c0.2-0.1,0.4-0.2,0.4-0.2c0.1,0,0.1-0.1,0.1-0.1l0.1-0.1
	c0,0,0.1,0,0.2-0.1C30.2,24.3,30.3,24.4,30.2,24.5z M23.3,26.8c0.1,0,0.2,0.1,0.3,0.1c0.1,0,0.2,0,0.2,0.1c0.1,0,0.2,0.1,0.2,0.1
	c0.1,0,0.2,0,0.2,0.1c0.1,0,0.1,0.1,0.2,0.1c0.2,0,0.5,0.4,0.5,0.7c0,0.1,0,0.2,0.1,0.3c0,0.1,0.1,0.4,0.1,0.8
	c0,0.3,0.1,0.8,0.1,0.9v0.3L25,29.9c-0.1-0.1-0.1-0.3-0.1-0.4s0-0.3-0.1-0.4c0-0.1-0.1-0.3-0.1-0.4s0-0.2-0.1-0.3
	c0-0.1-0.1-0.2-0.1-0.2c0-0.2-0.2-0.4-0.3-0.5c-0.1,0-0.1-0.1-0.2-0.1s-0.4-0.2-0.5-0.2c0,0-0.1-0.1-0.2-0.1
	c-0.1-0.1-0.3-0.1-0.5-0.3c-0.1-0.1-0.2-0.1-0.2-0.2C22.7,26.7,23,26.7,23.3,26.8z"/>
</svg>
