<?xml version="1.0" encoding="utf-8"?>
<!-- Generator: Adobe Illustrator 26.5.0, SVG Export Plug-In . SVG Version: 6.00 Build 0)  -->
<svg version="1.1" id="main" xmlns="http://www.w3.org/2000/svg" xmlns:xlink="http://www.w3.org/1999/xlink" x="0px" y="0px"
	 viewBox="0 0 40 40" style="enable-background:new 0 0 40 40;" xml:space="preserve">
<style type="text/css">
	.st0{fill:#EA8A2A;}
	.st1{fill:#FFFFFF;}
</style>
<g id="circle_x5F_D_00000005959072195277906840000007745170701267722405_">
	<circle class="st0" cx="10.9" cy="29.5" r="7.2"/>
</g>
<g transform="translate(0.000000,512.000000) scale(0.050000,-0.050000)">
	<path class="st1" d="M395.1,10138.3c-51-9.9-84.8-52.9-78-99.2c1.7-11.7,2.4-13.9,7.4-25.3c12.4-28.3,43.6-49.7,76.1-52.3
		c11-0.9,11-0.9,13.1-6.2c14.9-36.9,55.2-60.3,96.2-55.8c111.4,12.2,109,165.4-2.8,178c-9,1-9.3,1.2-11,6.4
		C484.5,10119.1,434.6,10145.9,395.1,10138.3z M435.8,10104.6c12.4-6,22.4-15.8,27.3-26.8c2.5-5.9,2.4-6.3-3.7-9.2
		c-22.2-10.3-37.9-27.5-47.9-52.2c-0.9-2.1-2.4-9.2-3.4-15.8c-2-13.4-1.5-13.1-15.1-8.9c-44.3,13.7-57.9,69.1-25,101.2
		C387,10111.5,412.5,10115.8,435.8,10104.6z M518.9,10045.9c39.2-13,53.9-59.3,29.7-93.2c-26.7-37.4-81.7-32.5-102.3,9
		c-2.9,5.9-5.1,11.2-5,11.9c0.2,0.7-0.2,2.4-0.8,3.8c-0.6,1.4-0.9,7.7-0.5,13.9C441.9,10031.1,481.4,10058.3,518.9,10045.9z"/>
	<path class="st1" d="M183.9,9845.4c-9.5-2.4-20-10.7-25.1-19.9c-3.7-6.7-6-177.1-2.5-189.6c2.2-8.1,11.9-19.4,20.3-23.7
		c9.5-4.7,86.8-5.7,95.2-1.2c6.7,3.6,16.5,13,19.4,18.6l2.5,5l19.7-0.7c19.4-0.7,22.5-1.2,60.6-10.7c69.5-17.3,66.1-17.1,124.5-5.2
		c15.6,3.2,35,7.3,43.2,8.9c40.5,8.4,51.8,15.6,104.6,67.8c34.8,34.4,37,37.9,37,59.7c-0.1,31.3-22.3,52-55.9,52
		c-20.2,0-24-1.8-57.4-26.4c-35.6-26.2-32-24.6-30.9-14.1c3.5,38-16.3,57.1-71.9,69.2c-4.1,0.9-14.8,3.7-23.9,6.2
		c-20,5.5-66,6.7-80.5,2.2c-21.2-6.6-36.2-14-58-28.4c-7.9-5.2-9.8-5.2-9.8-0.1c0,8-9.8,20.7-20.9,27.2l-6.7,3.9l-39.5,0.3
		C206.2,9846.5,186.4,9846,183.9,9845.4z M257.1,9817.8c4.8-3.2,5.1-7.5,5.1-90.3c0-86.9-0.2-89.5-6.6-91.1
		c-1.7-0.4-16.5-0.6-32.9-0.4l-29.7,0.4l-3.4,5l-3.4,5v80.4c0,81.9,0.1,83.2,5.7,89.5C194.2,9819.1,253.2,9820.4,257.1,9817.8z
		 M429.6,9815.2c8.3-2.1,23.9-6,34.6-8.8c10.7-2.8,20.8-5.1,22.5-5.1c11.6,0,20.8-15.3,19.6-32.6c-1.6-22.6-8.8-27.5-41.5-27.5
		c-26.4,0-31.2-0.6-35.6-4.6c-4.6-4.2-4.2-14.3,0.8-19l3.8-3.5l42,0.1c56.6,0,50.6-2.2,106.5,39c21.3,15.8,35.3,25.1,39.1,26.1
		c18,4.8,34.4-13.1,29.7-32.5c-1.8-7.5-59.1-65.9-76.5-78.1c-13.4-9.4-38.5-16.4-83.7-23.6c-6.6-1-18.7-3.2-27.1-4.9
		c-23.1-4.7-25.4-4.4-93.7,13.1c-27.8,7.1-31.3,7.7-51.8,8.4l-22,0.7l0.1,55.9v55.9l18,11.7c9.9,6.4,19.1,12.4,20.4,13.2
		c1.4,0.8,5.1,3.2,8.5,5.3c5.8,3.7,21.5,10,32.1,12.8C386.4,9820.2,413.3,9819.2,429.6,9815.2z"/>
</g>
</svg>
