<svg width="232" height="174" viewBox="0 0 232 174" fill="none" xmlns="http://www.w3.org/2000/svg">
<g clip-path="url(#clip0_1570_3553)">
<path d="M106.426 155.181H29L34.9781 103H100.448L106.426 155.181Z" fill="black"/>
<path d="M80.6378 111.16H79.6384V82.164C79.6384 75.5775 74.299 70.2189 67.7357 70.2189C61.1724 70.2189 55.8324 75.5775 55.8324 82.164V111.16H54.833V82.164C54.833 75.0248 60.6214 69.2161 67.7357 69.2161C74.85 69.2161 80.6378 75.0248 80.6378 82.164V111.16Z" fill="white" stroke="#2256FF" stroke-width="0.696" stroke-linecap="round" stroke-linejoin="round"/>
<path d="M106.45 156.213H29.0234L35.0015 104.032H100.472L106.45 156.213Z" fill="#2256FF" stroke="#2256FF" stroke-width="0.696" stroke-linecap="round" stroke-linejoin="round"/>
<path d="M106.487 155.213H29.0615L35.0396 103.032H100.51L106.487 155.213Z" fill="#2256FF"/>
<path d="M138.035 100.91C156.924 164.344 26.7038 149.848 34.0605 156.215C41.4172 162.582 99.3221 181.078 99.3221 181.078L127.293 175.461L115.303 97.9593L106.446 94.6782" fill="#2256FF"/>
<path d="M111.487 156.213H34.0615L40.0396 104.032H105.51L111.487 156.213Z" stroke="#2256FF" stroke-width="0.464" stroke-linecap="round" stroke-linejoin="round"/>
<path d="M60.3727 112.223C60.9583 112.223 61.433 111.747 61.433 111.16C61.433 110.572 60.9583 110.096 60.3727 110.096C59.7872 110.096 59.3125 110.572 59.3125 111.16C59.3125 111.747 59.7872 112.223 60.3727 112.223Z" fill="#2256FF"/>
<path d="M85.1774 112.223C85.763 112.223 86.2377 111.747 86.2377 111.16C86.2377 110.572 85.763 110.096 85.1774 110.096C84.5919 110.096 84.1172 110.572 84.1172 111.16C84.1172 111.747 84.5919 112.223 85.1774 112.223Z" fill="#2256FF"/>
<path d="M85.6769 111.16H84.6799V82.164C84.6799 75.5775 79.3404 70.2189 72.7765 70.2189C66.2127 70.2189 60.8738 75.5775 60.8738 82.164V111.16H59.875V82.164C59.875 75.0248 65.6628 69.2161 72.7765 69.2161C79.8902 69.2161 85.6792 75.0248 85.6792 82.164L85.6769 111.16Z" fill="white" stroke="#2256FF" stroke-width="0.696" stroke-linecap="round" stroke-linejoin="round"/>
<path d="M72.484 127.375L65.1592 143.051L82.3492 141.579L72.484 127.375Z" fill="white" stroke="#2256FF" stroke-width="0.696" stroke-linecap="round" stroke-linejoin="round"/>
<path d="M59.3122 131.869C62.8361 131.869 65.6928 129.002 65.6928 125.466C65.6928 121.929 62.8361 119.062 59.3122 119.062C55.7883 119.062 52.9316 121.929 52.9316 125.466C52.9316 129.002 55.7883 131.869 59.3122 131.869Z" fill="#2256FF" stroke="#2256FF" stroke-width="0.696" stroke-linecap="round" stroke-linejoin="round"/>
<path d="M88.7577 120.808H79.4766V130.123H88.7577V120.808Z" fill="white" stroke="#2256FF" stroke-width="0.696" stroke-linecap="round" stroke-linejoin="round"/>
<path d="M49.189 108.982L47.373 111.17M97.5024 138.876C96.5019 140.83 95.2833 142.664 93.8699 144.344" stroke="#2256FF" stroke-width="0.696" stroke-linecap="round" stroke-linejoin="round"/>
<path d="M76.3955 73.4224V142.961C76.3955 150.28 82.3074 156.213 89.6004 156.213H159.954C167.247 156.213 173.159 150.28 173.159 142.961V73.4224C161.594 80.289 144.217 84.6593 124.778 84.6593C105.339 84.6593 87.9613 80.289 76.3955 73.4224Z" fill="white"/>
<mask id="mask0_1570_3553" style="mask-type:luminance" maskUnits="userSpaceOnUse" x="76" y="73" width="98" height="84">
<path d="M76.3955 73.4231V142.962C76.3955 150.281 82.3074 156.214 89.6004 156.214H159.954C167.247 156.214 173.159 150.281 173.159 142.962V73.4231C161.594 80.2897 144.217 84.66 124.778 84.66C105.339 84.66 87.9613 80.2897 76.3955 73.4231Z" fill="white"/>
</mask>
<g mask="url(#mask0_1570_3553)">
<path d="M62.2549 133.677C120.227 173.05 175.261 144.614 184.524 130.943C193.787 117.272 191.152 159.379 191.152 159.379C191.152 159.379 129.184 190.124 122.093 186.797C115.002 183.471 62.2549 174.69 62.2549 174.69" fill="#EFF1F7"/>
</g>
<path d="M76.3955 73.4224V142.961C76.3955 150.28 82.3074 156.213 89.6004 156.213H159.954C167.247 156.213 173.159 150.28 173.159 142.961V73.4224C161.594 80.289 144.217 84.6593 124.778 84.6593C105.339 84.6593 87.9613 80.289 76.3955 73.4224Z" stroke="#2256FF" stroke-width="0.464" stroke-linecap="round" stroke-linejoin="round"/>
<path d="M159.953 37.8093H89.5994C82.3065 37.8093 76.3945 43.7416 76.3945 51.0606V73.4225C87.9603 80.2891 105.337 84.6594 124.776 84.6594C144.215 84.6594 161.592 80.2891 173.157 73.4225V51.0606C173.158 43.7416 167.246 37.8093 159.953 37.8093Z" fill="white" stroke="#2256FF" stroke-width="0.696" stroke-linecap="round" stroke-linejoin="round"/>
<path d="M159.953 34.1177H89.5994C82.3065 34.1177 76.3945 40.0505 76.3945 47.3695V69.7314C87.9603 76.5975 105.337 80.9678 124.776 80.9678C144.215 80.9678 161.592 76.5975 173.157 69.7314V47.3695C173.158 40.0505 167.246 34.1177 159.953 34.1177Z" fill="#2256FF"/>
<mask id="mask1_1570_3553" style="mask-type:luminance" maskUnits="userSpaceOnUse" x="75" y="45" width="97" height="48">
<path d="M158.796 45.3508H88.4423C81.1494 45.3508 75.2374 51.2837 75.2374 58.6027V80.9646C86.8032 87.8306 104.179 92.2009 123.619 92.2009C143.058 92.2009 160.435 87.8306 172 80.9646V58.6027C172.001 51.2837 166.089 45.3508 158.796 45.3508Z" fill="white"/>
</mask>
<g mask="url(#mask1_1570_3553)">
<path d="M180.747 34.1156C178.989 99.6336 80.8526 62.5745 84.6696 73.8108C88.4865 85.0472 62.3506 90.875 62.3506 90.875L178.989 99.633L200.786 16.9059L173.254 15.4478" fill="#2256FF"/>
</g>
<path d="M159.953 34.1177H89.5994C82.3065 34.1177 76.3945 40.0505 76.3945 47.3695V69.7314C87.9603 76.5975 105.337 80.9678 124.776 80.9678C144.215 80.9678 161.592 76.5975 173.157 69.7314V47.3695C173.158 40.0505 167.246 34.1177 159.953 34.1177Z" stroke="#2256FF" stroke-width="0.464" stroke-linecap="round" stroke-linejoin="round"/>
<path d="M124.776 102.549C134.621 102.549 142.601 94.5395 142.601 84.6597C142.601 74.7799 134.621 66.7708 124.776 66.7708C114.932 66.7708 106.951 74.7799 106.951 84.6597C106.951 94.5395 114.932 102.549 124.776 102.549Z" fill="white" stroke="#2256FF" stroke-width="0.696" stroke-linecap="round" stroke-linejoin="round"/>
<path d="M124.777 98.1061C132.177 98.1061 138.176 92.0858 138.176 84.6594C138.176 77.2329 132.177 71.2126 124.777 71.2126C117.377 71.2126 111.378 77.2329 111.378 84.6594C111.378 92.0858 117.377 98.1061 124.777 98.1061Z" fill="white"/>
<mask id="mask2_1570_3553" style="mask-type:luminance" maskUnits="userSpaceOnUse" x="111" y="71" width="28" height="28">
<path d="M124.776 98.1056C132.176 98.1056 138.175 92.0853 138.175 84.6589C138.175 77.2325 132.176 71.2122 124.776 71.2122C117.376 71.2122 111.377 77.2325 111.377 84.6589C111.377 92.0853 117.376 98.1056 124.776 98.1056Z" fill="white"/>
</mask>
<g mask="url(#mask2_1570_3553)">
<path d="M121.941 97.1945C129.341 97.1945 135.34 91.1742 135.34 83.7478C135.34 76.3213 129.341 70.301 121.941 70.301C114.541 70.301 108.542 76.3213 108.542 83.7478C108.542 91.1742 114.541 97.1945 121.941 97.1945Z" fill="#EFF1F7"/>
</g>
<path d="M124.777 98.1061C132.177 98.1061 138.176 92.0858 138.176 84.6594C138.176 77.2329 132.177 71.2126 124.777 71.2126C117.377 71.2126 111.378 77.2329 111.378 84.6594C111.378 92.0858 117.377 98.1061 124.777 98.1061Z" stroke="#2256FF" stroke-width="0.464" stroke-linecap="round" stroke-linejoin="round"/>
<path d="M111.207 48.7949L105.879 53.8989M153.603 119.77C152.054 122.507 149.781 124.765 147.033 126.296" stroke="#2256FF" stroke-width="0.696" stroke-linecap="round" stroke-linejoin="round"/>
<path d="M78.2158 128.029L82.212 129.487Z" fill="#2256FF"/>
<path d="M157.307 94.5489L134.56 93.1488C131.08 92.9342 128.814 89.3753 130.085 86.1134L132.896 78.9023C134.052 75.9367 137.58 74.7187 140.308 76.3422L158.572 87.212L157.307 94.5489Z" fill="white"/>
<mask id="mask3_1570_3553" style="mask-type:luminance" maskUnits="userSpaceOnUse" x="129" y="75" width="30" height="20">
<path d="M157.307 94.5475L134.56 93.1474C131.08 92.9328 128.814 89.3739 130.085 86.112L132.896 78.9008C134.052 75.9353 137.58 74.7173 140.308 76.3407L158.572 87.2105L157.307 94.5475Z" fill="white"/>
</mask>
<g mask="url(#mask3_1570_3553)">
<path d="M154.238 81.3404C153.675 87.1253 151.286 89.853 147.397 87.3602C143.508 84.8673 148.052 89.8542 151.8 91.4991C155.549 93.1439 133.298 94.5481 132.895 78.9015C132.63 68.5235 129.173 89.2626 129.173 89.2626L129.727 97.6604L133.671 100.012L150.443 102.834L158.032 95.4031V85.5262L154.238 81.3404Z" fill="#EFF1F7"/>
</g>
<path d="M157.307 94.5489L134.56 93.1488C131.08 92.9342 128.814 89.3753 130.085 86.1134L132.896 78.9023C134.052 75.9367 137.58 74.7187 140.308 76.3422L158.572 87.212L157.307 94.5489Z" stroke="#2256FF" stroke-width="0.464" stroke-linecap="round" stroke-linejoin="round"/>
<path d="M159.836 94.5489L182.583 93.1488C186.063 92.9342 188.329 89.3753 187.058 86.1134L184.247 78.9023C183.091 75.9367 179.563 74.7187 176.835 76.3422L158.571 87.212L159.836 94.5489Z" fill="white" stroke="#2256FF" stroke-width="0.696" stroke-linecap="round" stroke-linejoin="round"/>
<path d="M159.836 94.5489L182.583 93.1488C186.063 92.9342 188.329 89.3753 187.058 86.1134L184.247 78.9023C183.091 75.9367 179.563 74.7187 176.835 76.3422L158.571 87.212L159.836 94.5489Z" fill="white"/>
<mask id="mask4_1570_3553" style="mask-type:luminance" maskUnits="userSpaceOnUse" x="158" y="75" width="30" height="20">
<path d="M159.837 94.5475L182.584 93.1474C186.064 92.9328 188.33 89.3739 187.059 86.112L184.248 78.9008C183.092 75.9353 179.564 74.7173 176.836 76.3407L158.572 87.2105L159.837 94.5475Z" fill="white"/>
</mask>
<g mask="url(#mask4_1570_3553)">
<path d="M162.908 81.3404C163.47 87.1253 169.837 95.062 173.725 92.5692C177.614 90.0763 169.511 97.6303 165.762 99.2763C162.013 100.922 183.85 94.5481 184.25 78.9015C184.515 68.5235 187.972 89.2626 187.972 89.2626L187.418 97.6604L183.474 100.012L166.703 102.834L159.113 95.4031V85.5262L162.908 81.3404Z" fill="#EFF1F7"/>
</g>
<path d="M159.836 94.5489L182.583 93.1488C186.063 92.9342 188.329 89.3753 187.058 86.1134L184.247 78.9023C183.091 75.9367 179.563 74.7187 176.835 76.3422L158.571 87.212L159.836 94.5489Z" stroke="#2256FF" stroke-width="0.464" stroke-linecap="round" stroke-linejoin="round"/>
<path d="M159.589 83.3657H157.557C155.195 83.3657 153.279 85.2811 153.279 87.6438V90.8819C153.279 93.2447 155.195 95.16 157.557 95.16H159.589C161.952 95.16 163.867 93.2447 163.867 90.8819V87.6438C163.867 85.2811 161.952 83.3657 159.589 83.3657Z" fill="white" stroke="#2256FF" stroke-width="0.696" stroke-linecap="round" stroke-linejoin="round"/>
<path d="M159.158 156.212H123.39C120.253 156.212 117.711 153.66 117.711 150.512V101.844H159.158V156.212Z" fill="white"/>
<mask id="mask5_1570_3553" style="mask-type:luminance" maskUnits="userSpaceOnUse" x="117" y="101" width="43" height="56">
<path d="M159.159 156.213H123.391C120.254 156.213 117.712 153.661 117.712 150.512V101.844H159.159V156.213Z" fill="white"/>
</mask>
<g mask="url(#mask5_1570_3553)">
<g opacity="0.16">
<path d="M143.183 181.165L139.511 184.207L84.6553 117.514L88.3284 114.471L143.183 181.165Z" stroke="#2256FF" stroke-width="0.696" stroke-linecap="round" stroke-linejoin="round"/>
<path d="M150.188 175.362L146.515 178.405L91.6602 111.711L95.3333 108.668L150.188 175.362Z" stroke="#2256FF" stroke-width="0.696" stroke-linecap="round" stroke-linejoin="round"/>
<path d="M157.193 169.559L153.52 172.602L98.665 105.908L102.338 102.865L157.193 169.559Z" stroke="#2256FF" stroke-width="0.696" stroke-linecap="round" stroke-linejoin="round"/>
<path d="M164.196 163.758L160.524 166.801L105.669 100.106L109.342 97.0642L164.196 163.758Z" stroke="#2256FF" stroke-width="0.696" stroke-linecap="round" stroke-linejoin="round"/>
<path d="M171.202 157.954L167.529 160.997L112.674 94.3029L116.347 91.2603L171.202 157.954Z" stroke="#2256FF" stroke-width="0.696" stroke-linecap="round" stroke-linejoin="round"/>
<path d="M178.206 152.152L174.532 155.194L119.678 88.5002L123.351 85.4575L178.206 152.152Z" stroke="#2256FF" stroke-width="0.696" stroke-linecap="round" stroke-linejoin="round"/>
<path d="M185.21 146.35L181.537 149.393L126.683 82.6989L130.355 79.6562L185.21 146.35Z" stroke="#2256FF" stroke-width="0.696" stroke-linecap="round" stroke-linejoin="round"/>
<path d="M192.215 140.547L188.542 143.59L133.688 76.8956L137.36 73.8535L192.215 140.547Z" stroke="#2256FF" stroke-width="0.696" stroke-linecap="round" stroke-linejoin="round"/>
</g>
<g opacity="0.46">
<path d="M80.9879 129.477L77.2539 124.936L146.028 67.9644L149.763 72.5046L80.9879 129.477Z" stroke="#2256FF" stroke-width="0.696" stroke-linecap="round" stroke-linejoin="round"/>
<path d="M88.11 138.136L84.376 133.595L153.15 76.623L156.885 81.1633L88.11 138.136Z" stroke="#2256FF" stroke-width="0.696" stroke-linecap="round" stroke-linejoin="round"/>
<path d="M95.2311 146.795L91.4971 142.255L160.271 85.283L164.006 89.8232L95.2311 146.795Z" stroke="#2256FF" stroke-width="0.696" stroke-linecap="round" stroke-linejoin="round"/>
<path d="M102.353 155.454L98.6191 150.913L167.393 93.9417L171.128 98.4819L102.353 155.454Z" stroke="#2256FF" stroke-width="0.696" stroke-linecap="round" stroke-linejoin="round"/>
<path d="M109.475 164.112L105.741 159.572L174.515 102.6L178.25 107.141L109.475 164.112Z" stroke="#2256FF" stroke-width="0.696" stroke-linecap="round" stroke-linejoin="round"/>
<path d="M116.597 172.771L112.863 168.231L181.637 111.259L185.372 115.799L116.597 172.771Z" stroke="#2256FF" stroke-width="0.696" stroke-linecap="round" stroke-linejoin="round"/>
<path d="M123.719 181.43L119.985 176.889L188.759 119.918L192.494 124.458L123.719 181.43Z" stroke="#2256FF" stroke-width="0.696" stroke-linecap="round" stroke-linejoin="round"/>
<path d="M130.84 190.088L127.106 185.548L195.881 128.576L199.615 133.117L130.84 190.088Z" stroke="#2256FF" stroke-width="0.696" stroke-linecap="round" stroke-linejoin="round"/>
</g>
</g>
<path d="M159.158 156.212H123.39C120.253 156.212 117.711 153.66 117.711 150.512V101.844H159.158V156.212Z" stroke="#2256FF" stroke-width="0.464" stroke-linecap="round" stroke-linejoin="round"/>
<path d="M157.252 156.212H193.02C196.156 156.212 198.699 153.66 198.699 150.512V101.844H157.252V156.212Z" fill="white"/>
<mask id="mask6_1570_3553" style="mask-type:luminance" maskUnits="userSpaceOnUse" x="157" y="101" width="42" height="56">
<path d="M157.253 156.213H193.021C196.157 156.213 198.7 153.661 198.7 150.512V101.844H157.253V156.213Z" fill="white"/>
</mask>
<g mask="url(#mask6_1570_3553)">
<g opacity="0.16">
<path d="M182.087 174.182L178.906 176.817L131.4 119.058L134.581 116.423L182.087 174.182Z" stroke="#2256FF" stroke-width="0.696" stroke-linecap="round" stroke-linejoin="round"/>
<path d="M188.153 169.157L184.972 171.792L137.467 114.033L140.648 111.399L188.153 169.157Z" stroke="#2256FF" stroke-width="0.696" stroke-linecap="round" stroke-linejoin="round"/>
<path d="M194.219 164.131L191.039 166.766L143.533 109.007L146.714 106.373L194.219 164.131Z" stroke="#2256FF" stroke-width="0.696" stroke-linecap="round" stroke-linejoin="round"/>
<path d="M200.286 159.106L197.105 161.74L149.6 103.982L152.78 101.347L200.286 159.106Z" stroke="#2256FF" stroke-width="0.696" stroke-linecap="round" stroke-linejoin="round"/>
<path d="M206.351 154.08L203.171 156.715L155.665 98.9567L158.846 96.3218L206.351 154.08Z" stroke="#2256FF" stroke-width="0.696" stroke-linecap="round" stroke-linejoin="round"/>
<path d="M212.418 149.056L209.237 151.69L161.731 93.9323L164.912 91.2974L212.418 149.056Z" stroke="#2256FF" stroke-width="0.696" stroke-linecap="round" stroke-linejoin="round"/>
<path d="M218.483 144.03L215.302 146.665L167.797 88.9067L170.978 86.2717L218.483 144.03Z" stroke="#2256FF" stroke-width="0.696" stroke-linecap="round" stroke-linejoin="round"/>
<path d="M224.549 139.006L221.369 141.641L173.863 83.8823L177.044 81.2473L224.549 139.006Z" stroke="#2256FF" stroke-width="0.696" stroke-linecap="round" stroke-linejoin="round"/>
</g>
<g opacity="0.46">
<path d="M128.225 129.421L124.991 125.489L184.551 76.1497L187.785 80.0815L128.225 129.421Z" stroke="#2256FF" stroke-width="0.696" stroke-linecap="round" stroke-linejoin="round"/>
<path d="M134.393 136.92L131.159 132.988L190.719 83.6489L193.953 87.5807L134.393 136.92Z" stroke="#2256FF" stroke-width="0.696" stroke-linecap="round" stroke-linejoin="round"/>
<path d="M140.561 144.418L137.327 140.486L196.887 91.1467L200.121 95.0786L140.561 144.418Z" stroke="#2256FF" stroke-width="0.696" stroke-linecap="round" stroke-linejoin="round"/>
<path d="M146.728 151.917L143.494 147.985L203.054 98.646L206.288 102.578L146.728 151.917Z" stroke="#2256FF" stroke-width="0.696" stroke-linecap="round" stroke-linejoin="round"/>
<path d="M152.896 159.416L149.662 155.484L209.222 106.145L212.456 110.077L152.896 159.416Z" stroke="#2256FF" stroke-width="0.696" stroke-linecap="round" stroke-linejoin="round"/>
<path d="M159.064 166.914L155.83 162.982L215.39 113.643L218.624 117.575L159.064 166.914Z" stroke="#2256FF" stroke-width="0.696" stroke-linecap="round" stroke-linejoin="round"/>
<path d="M165.231 174.413L161.997 170.481L221.557 121.142L224.791 125.074L165.231 174.413Z" stroke="#2256FF" stroke-width="0.696" stroke-linecap="round" stroke-linejoin="round"/>
<path d="M171.399 181.912L168.165 177.98L227.726 128.642L230.959 132.573L171.399 181.912Z" stroke="#2256FF" stroke-width="0.696" stroke-linecap="round" stroke-linejoin="round"/>
</g>
</g>
<path d="M157.252 156.212H193.02C196.156 156.212 198.699 153.66 198.699 150.512V101.844H157.252V156.212Z" stroke="#2256FF" stroke-width="0.464" stroke-linecap="round" stroke-linejoin="round"/>
<path d="M142.166 150.51V101.843H134.154V150.51C134.154 153.659 136.696 156.211 139.833 156.211H147.844C144.71 156.213 142.166 153.661 142.166 150.51ZM173.725 101.845V150.51C173.725 153.659 171.183 156.211 168.047 156.211H176.769C179.905 156.211 182.447 153.659 182.447 150.51V101.843L173.725 101.845Z" fill="white" stroke="#2256FF" stroke-width="0.696" stroke-linecap="round" stroke-linejoin="round"/>
<path d="M160.08 92.6255H116.978C116.606 92.6262 116.238 92.7004 115.894 92.8436C115.55 92.9869 115.238 93.1965 114.976 93.4604C114.713 93.7244 114.505 94.0375 114.363 94.3819C114.222 94.7262 114.149 95.0951 114.15 95.4675V104.18C114.149 104.658 114.338 105.116 114.676 105.455C115.013 105.793 115.471 105.984 115.948 105.985H157.251V95.4675C157.25 95.0951 157.323 94.7261 157.464 94.3816C157.606 94.0372 157.814 93.724 158.077 93.4601C158.339 93.1961 158.651 92.9865 158.995 92.8433C159.339 92.7001 159.708 92.6261 160.08 92.6255Z" fill="white" stroke="#2256FF" stroke-width="0.696" stroke-linecap="round" stroke-linejoin="round"/>
<path d="M200.148 92.6255H160.08C159.708 92.6262 159.339 92.7004 158.995 92.8436C158.652 92.9869 158.34 93.1965 158.077 93.4604C157.814 93.7244 157.606 94.0375 157.465 94.3819C157.323 94.7262 157.251 95.0951 157.252 95.4675V105.983H201.178C201.656 105.982 202.114 105.791 202.451 105.452C202.788 105.114 202.977 104.655 202.976 104.177V95.4675C202.977 95.0951 202.905 94.7262 202.763 94.3819C202.622 94.0375 202.414 93.7244 202.151 93.4604C201.889 93.1965 201.576 92.9869 201.233 92.8436C200.889 92.7004 200.521 92.6262 200.148 92.6255Z" fill="white" stroke="#2256FF" stroke-width="0.696" stroke-linecap="round" stroke-linejoin="round"/>
<path d="M182.585 92.5681H173.726C174.479 92.5716 175.2 92.8739 175.73 93.4085C176.26 93.9431 176.557 94.6664 176.554 95.4194V105.984H185.414V95.4206C185.417 94.6672 185.12 93.9436 184.59 93.4087C184.059 92.8738 183.338 92.5715 182.585 92.5681ZM142.275 92.6261H133.418C131.855 92.6261 130.589 93.916 130.589 95.5076V106.18H139.449V95.5076C139.449 93.9166 140.715 92.6261 142.275 92.6261ZM157.253 92.6261H166.113C166.485 92.6268 166.854 92.7009 167.197 92.8441C167.541 92.9874 167.853 93.1969 168.116 93.4609C168.379 93.7248 168.587 94.038 168.728 94.3824C168.87 94.7268 168.942 95.0957 168.941 95.4681V123.294L164.86 118.684L160.081 123.291V95.4681C160.082 95.0957 160.01 94.7268 159.868 94.3824C159.726 94.038 159.518 93.7248 159.256 93.4609C158.993 93.1969 158.681 92.9874 158.337 92.8441C157.994 92.7009 157.625 92.6268 157.253 92.6261Z" fill="white" stroke="#2256FF" stroke-width="0.696" stroke-linecap="round" stroke-linejoin="round"/>
<path d="M150.669 97.6895C149.074 98.583 147.611 99.6958 146.325 100.995M168.115 145.464C165.921 146.77 163.611 147.868 161.213 148.745M141.69 81.6438L141.327 82.1907M138.975 132.69C138.487 133.068 138.108 133.57 137.879 134.144M166.768 104.433C166.805 104.695 166.752 104.963 166.618 105.191C166.484 105.419 166.276 105.595 166.029 105.691M177.115 83.1071L176.752 83.6541" stroke="#2256FF" stroke-width="0.696" stroke-linecap="round" stroke-linejoin="round"/>
<path d="M92.2871 140.047C92.2871 140.706 96.4092 150.661 96.4092 150.661H91.3208L85.5156 139.223L92.2871 140.047Z" fill="white"/>
<mask id="mask7_1570_3553" style="mask-type:luminance" maskUnits="userSpaceOnUse" x="85" y="139" width="12" height="12">
<path d="M92.2861 140.047C92.2861 140.706 96.4082 150.661 96.4082 150.661H91.3199L85.5146 139.223L92.2861 140.047Z" fill="white"/>
</mask>
<g mask="url(#mask7_1570_3553)">
<path d="M86.2402 142.429C90.4568 147.049 92.5512 140.754 94.4032 145.191C94.4751 143.484 94.8498 138.994 92.2862 140.047" fill="#EFF1F7"/>
</g>
<path d="M92.2871 140.047C92.2871 140.706 96.4092 150.661 96.4092 150.661H91.3208L85.5156 139.223L92.2871 140.047Z" stroke="#2256FF" stroke-width="0.464" stroke-linecap="round" stroke-linejoin="round"/>
<path d="M96.0222 148.486C95.067 149.789 89.8447 148.798 90.3962 149.061C89.1017 151.193 82.4317 151.635 81.4062 154.883L97.2402 154.391C99.0881 154.515 96.1307 149.09 96.0222 148.486Z" fill="white" stroke="#2256FF" stroke-width="0.696" stroke-linecap="round" stroke-linejoin="round"/>
<path d="M55.6012 142.331C55.23 142.908 53.635 153.793 53.635 153.793L48.6807 151.097L49.4735 138.023L55.6012 142.331Z" fill="white"/>
<mask id="mask8_1570_3553" style="mask-type:luminance" maskUnits="userSpaceOnUse" x="48" y="138" width="8" height="16">
<path d="M55.6022 142.331C55.231 142.908 53.636 153.793 53.636 153.793L48.6816 151.097L49.4745 138.023L55.6022 142.331Z" fill="white"/>
</mask>
<g mask="url(#mask8_1570_3553)">
<path d="M48.6819 144.111C45.4386 145.857 55.4482 144.355 54.7273 148.613C55.4587 147.364 58.6846 141.85 55.6025 142.332" fill="#EFF1F7"/>
</g>
<path d="M55.6012 142.331C55.23 142.908 53.635 153.793 53.635 153.793L48.6807 151.097L49.4735 138.023L55.6012 142.331Z" stroke="#2256FF" stroke-width="0.464" stroke-linecap="round" stroke-linejoin="round"/>
<path d="M54.4713 150.198C53.3577 151.448 47.5147 150.224 48.0982 150.464C46.8843 152.678 38.512 152.242 37.584 155.905C37.584 155.905 51.2302 156.543 53.1471 156.181C55.0849 155.814 54.2799 154.329 54.4713 150.198Z" fill="white" stroke="#2256FF" stroke-width="0.696" stroke-linecap="round" stroke-linejoin="round"/>
<path d="M63.7642 21.4661C62.9864 22.6005 60.9483 25.3758 62.1571 27.6825C64.1006 31.3945 60.3271 35.607 60.3271 35.607C60.5162 35.4023 67.0598 33.9784 65.9462 33.8357C65.4085 30.7049 64.1917 22.8818 63.7642 21.4661Z" fill="white"/>
<mask id="mask9_1570_3553" style="mask-type:luminance" maskUnits="userSpaceOnUse" x="60" y="21" width="7" height="15">
<path d="M63.7633 21.4648C62.9855 22.5993 60.9474 25.3746 62.1561 27.6813C64.0997 31.3933 60.3262 35.6058 60.3262 35.6058C60.5153 35.4011 67.0588 33.9772 65.9452 33.8345C65.4076 30.7037 64.1907 22.8806 63.7633 21.4648Z" fill="white"/>
</mask>
<g mask="url(#mask9_1570_3553)">
<path d="M60.7682 30.3879C64.0428 32.6639 65.9116 32.0404 65.9116 32.0404C64.7412 34.0634 60.2021 35.6074 58.6123 35.6056L61.0872 31.3194" fill="#EFF1F7"/>
</g>
<path d="M63.7642 21.4661C62.9864 22.6005 60.9483 25.3758 62.1571 27.6825C64.1006 31.3945 60.3271 35.607 60.3271 35.607C60.5162 35.4023 67.0598 33.9784 65.9462 33.8357C65.4085 30.7049 64.1917 22.8818 63.7642 21.4661Z" stroke="#2256FF" stroke-width="0.464" stroke-linecap="round" stroke-linejoin="round"/>
<path d="M67.1718 32.3398C66.2752 31.9373 55.1165 35.9538 55.8775 38.9762C52.7971 59.46 57.4974 60.8868 76.6235 48.4226C85.1855 41.6442 89.6439 43.7032 83.6444 35.7154C82.5424 34.6209 65.792 40.0178 65.578 39.7667L67.1718 32.3398Z" fill="white"/>
<mask id="mask10_1570_3553" style="mask-type:luminance" maskUnits="userSpaceOnUse" x="55" y="32" width="32" height="25">
<path d="M67.1718 32.3386C66.2752 31.9361 55.1165 35.9526 55.8775 38.9749C52.7971 59.4588 57.4974 60.8856 76.6235 48.4214C85.1855 41.6429 89.6439 43.7019 83.6444 35.7142C82.5424 34.6197 65.792 40.0166 65.578 39.7655L67.1718 32.3386Z" fill="white"/>
</mask>
<g mask="url(#mask10_1570_3553)">
<path d="M64.4811 55.5667C64.3802 59.234 56.1349 59.3477 55.8467 55.5667C55.9482 51.8988 64.1935 51.7857 64.4811 55.5667Z" fill="white" stroke="#2256FF" stroke-width="0.696" stroke-linecap="round" stroke-linejoin="round"/>
<path d="M50.6455 48.502C57.9338 56.3523 64.6589 53.6959 66.9319 38.4964C68.183 30.127 75.1099 54.3739 75.1099 54.3739L57.4994 58.8979C57.4994 58.8979 55.1034 63.7873 53.299 57.4438L51.4946 51.0975" fill="#EFF1F7"/>
</g>
<path d="M67.1718 32.3398C66.2752 31.9373 55.1165 35.9538 55.8775 38.9762C52.7971 59.46 57.4974 60.8868 76.6235 48.4226C85.1855 41.6442 89.6439 43.7032 83.6444 35.7154C82.5424 34.6209 65.792 40.0178 65.578 39.7667L67.1718 32.3398Z" stroke="#2256FF" stroke-width="0.464" stroke-linecap="round" stroke-linejoin="round"/>
<path d="M90.5901 28.864C90.5112 31.3777 90.1522 35.0027 89.8836 36.353C89.0136 40.7372 87.0776 38.6254 81.9034 43.2811C81.1622 44.6499 80.0196 41.4059 80.8838 37.792C83.0014 35.8849 83.5036 32.05 83.7681 31.209C83.7258 31.191 90.4683 28.9296 90.5901 28.864Z" fill="white"/>
<mask id="mask11_1570_3553" style="mask-type:luminance" maskUnits="userSpaceOnUse" x="80" y="28" width="11" height="16">
<path d="M90.5901 28.8616C90.5112 31.3753 90.1522 35.0003 89.8836 36.3505C89.0136 40.7348 87.0776 38.623 81.9034 43.2786C81.1622 44.6474 80.0196 41.4035 80.8838 37.7895C83.0014 35.8825 83.5036 32.0475 83.7681 31.2065C83.7258 31.1885 90.4683 28.9271 90.5901 28.8616Z" fill="white"/>
</mask>
<g mask="url(#mask11_1570_3553)">
<path d="M80.5219 35.4543C80.711 36.1503 87.7139 34.3854 85.3817 32.5909L80.2197 29.793L80.5219 35.4543Z" fill="#EFF1F7"/>
</g>
<path d="M90.5901 28.864C90.5112 31.3777 90.1522 35.0027 89.8836 36.353C89.0136 40.7372 87.0776 38.6254 81.9034 43.2811C81.1622 44.6499 80.0196 41.4059 80.8838 37.792C83.0014 35.8849 83.5036 32.05 83.7681 31.209C83.7258 31.191 90.4683 28.9296 90.5901 28.864Z" stroke="#2256FF" stroke-width="0.464" stroke-linecap="round" stroke-linejoin="round"/>
<path d="M87.2842 28.3573C91.0043 26.934 92.0634 30.8345 87.4037 31.0647Z" fill="white"/>
<path d="M87.2842 28.3573C91.0043 26.934 92.0634 30.8345 87.4037 31.0647" stroke="#2256FF" stroke-width="0.696" stroke-linecap="round" stroke-linejoin="round"/>
<path d="M83.7211 28.0864C77.4937 17.9869 82.1928 16.6024 87.7272 18.3853C93.2616 20.1682 98.8986 25.0054 91.01 29.3096L88.2509 28.5933L88.0769 25.7554" fill="#2256FF"/>
<mask id="mask12_1570_3553" style="mask-type:luminance" maskUnits="userSpaceOnUse" x="80" y="17" width="15" height="13">
<path d="M83.7221 28.0879C77.4947 17.9883 82.1938 16.6039 87.7282 18.3868C93.2625 20.1697 98.8996 25.0069 91.011 29.3111L88.2519 28.5948L88.0779 25.7569" fill="white"/>
</mask>
<g mask="url(#mask12_1570_3553)">
<path d="M84.4934 20.8072C84.4105 20.1912 82.5551 20.7596 81.9606 24.2744C81.3661 27.7892 83.3131 25.9332 83.3131 25.9332" fill="#2256FF"/>
</g>
<path d="M83.7211 28.0864C77.4937 17.9869 82.1928 16.6024 87.7272 18.3853C93.2616 20.1682 98.8986 25.0054 91.01 29.3096L88.2509 28.5933L88.0769 25.7554" stroke="#2256FF" stroke-width="0.464" stroke-linecap="round" stroke-linejoin="round"/>
<path d="M85.243 19.9521C81.687 22.5546 82.981 24.2801 80.2863 28.5501C78.1345 31.9634 85.3323 35.4735 88.5589 29.8986C91.7854 24.3236 88.9127 20.9086 88.9127 20.9086" fill="white"/>
<mask id="mask13_1570_3553" style="mask-type:luminance" maskUnits="userSpaceOnUse" x="79" y="19" width="12" height="14">
<path d="M85.244 19.9502C81.688 22.5527 82.982 24.2782 80.2873 28.5481C78.1355 31.9614 85.3333 35.4716 88.5598 29.8966C91.7864 24.3217 88.9136 20.9066 88.9136 20.9066" fill="white"/>
</mask>
<g mask="url(#mask13_1570_3553)">
<path d="M88.3681 27.4338C84.8602 26.3196 85.0227 19.8184 85.0227 19.8184L87.7144 20.7394L89.0687 24.1098" fill="#EFF1F7"/>
</g>
<path d="M85.243 19.9521C81.687 22.5546 82.981 24.2801 80.2863 28.5501C78.1345 31.9634 85.3323 35.4735 88.5589 29.8986C91.7854 24.3236 88.9127 20.9086 88.9127 20.9086" stroke="#2256FF" stroke-width="0.464" stroke-linecap="round" stroke-linejoin="round"/>
<path d="M82.9493 24.1744C82.269 26.0304 83.7543 26.4741 84.4875 24.7828C85.1678 22.9291 83.6824 22.4831 82.9493 24.1744Z" fill="white"/>
<mask id="mask14_1570_3553" style="mask-type:luminance" maskUnits="userSpaceOnUse" x="82" y="23" width="3" height="3">
<path d="M82.9493 24.1761C82.269 26.0321 83.7543 26.4758 84.4875 24.7845C85.1678 22.9308 83.6824 22.4848 82.9493 24.1761Z" fill="white"/>
</mask>
<g mask="url(#mask14_1570_3553)">
<path d="M82.7551 24.2276C82.4651 25.13 83.193 25.4357 83.5746 24.4642C83.8681 23.5617 83.1367 23.2584 82.7551 24.2276Z" fill="#2256FF"/>
</g>
<path d="M82.5737 23.9409C81.4015 24.659 80.6254 24.645 80.4903 25.0336C80.3552 25.4222 80.8615 26.2168 81.8382 26.4488" fill="white"/>
<path d="M82.5737 23.9409C81.4015 24.659 80.6254 24.645 80.4903 25.0336C80.3552 25.4222 80.8615 26.2168 81.8382 26.4488" stroke="#2256FF" stroke-width="0.464" stroke-linecap="round" stroke-linejoin="round"/>
<path opacity="0.27" d="M84.0824 27.8727C84.351 28.4672 85.2071 28.7427 86.0208 28.4817C86.863 28.2125 87.3461 27.4748 87.0712 26.8379C86.7963 26.2011 85.8688 25.9343 85.0331 26.2469C84.2257 26.5479 83.8098 27.2735 84.0824 27.8727Z" fill="#EFF1F7"/>
<path d="M84.2745 21.7893C85.8724 22.2533 85.9947 23.001 84.9763 22.7753C83.9578 22.5497 83.2305 21.486 84.2745 21.7893Z" fill="#2256FF"/>
<path d="M83.5523 27.8191C82.7751 28.5656 81.9863 28.1207 81.9863 28.1207" stroke="#2256FF" stroke-width="0.696" stroke-linecap="round" stroke-linejoin="round"/>
<path d="M85.303 18.9153C84.1471 25.3643 91.0114 29.31 91.0114 29.31L93.1725 27.2342L90.5207 21.1361L85.303 18.9153Z" fill="#2256FF"/>
<mask id="mask15_1570_3553" style="mask-type:luminance" maskUnits="userSpaceOnUse" x="85" y="18" width="9" height="12">
<path d="M85.3021 18.9141C84.1461 25.3631 91.0104 29.3088 91.0104 29.3088L93.1715 27.233L90.5197 21.1349L85.3021 18.9141Z" fill="white"/>
</mask>
<g mask="url(#mask15_1570_3553)">
<path d="M91.4036 27.7101C89.8956 25.8662 87.6916 26.1388 87.5071 26.5077C87.3227 26.8766 89.3248 27.5071 89.3248 27.5071" fill="#2256FF"/>
</g>
<path d="M85.303 18.9153C84.1471 25.3643 91.0114 29.31 91.0114 29.31L93.1725 27.2342L90.5207 21.1361L85.303 18.9153Z" stroke="#2256FF" stroke-width="0.464" stroke-linecap="round" stroke-linejoin="round"/>
<path d="M87.7429 26.9232C93.8793 25.7707 92.1387 32.3996 87.4082 30.3968Z" fill="white"/>
<path d="M87.7429 26.9232C93.8793 25.7707 92.1387 32.3996 87.4082 30.3968" stroke="#2256FF" stroke-width="0.696" stroke-linecap="round" stroke-linejoin="round"/>
<path d="M89.6598 27.7725C90.1134 27.8542 90.1186 28.9017 89.0938 29.0856" stroke="#2256FF" stroke-width="0.696" stroke-linecap="round" stroke-linejoin="round"/>
<path d="M87.7767 20.1067C87.1811 21.8705 91.0143 23.3732 91.0143 23.3732L87.7767 20.1067Z" fill="#2256FF"/>
<path d="M96.4089 140.203C85.8796 148.551 80.0419 144.8 80.0419 144.8C80.0419 144.8 71.5739 101.687 69.6077 93.6345C69.6077 93.6345 65.5761 140.869 64.5095 141.977C51.0535 148.067 47.3652 144.8 47.3652 144.8C47.3652 144.8 49.7195 76.3963 61.1901 64.3184L79.8168 69.7373C79.8168 69.7373 97.6141 137.065 96.4089 140.203Z" fill="white"/>
<mask id="mask16_1570_3553" style="mask-type:luminance" maskUnits="userSpaceOnUse" x="47" y="64" width="50" height="82">
<path d="M96.4098 140.203C85.8805 148.551 80.0428 144.8 80.0428 144.8C80.0428 144.8 71.5748 101.687 69.6086 93.6347C69.6086 93.6347 65.577 140.869 64.5104 141.977C51.0544 148.067 47.3662 144.8 47.3662 144.8C47.3662 144.8 49.7204 76.3965 61.1911 64.3186L79.8178 69.7375C79.8178 69.7375 97.6151 137.066 96.4098 140.203Z" fill="white"/>
</mask>
<g mask="url(#mask16_1570_3553)">
<path d="M49.5439 56.9219C58.4661 66.6427 64.1176 73.4896 72.6407 75.7516C81.1638 78.0136 84.6032 86.3435 94.4214 87.0767C104.24 87.8098 97.5163 74.7435 97.5163 74.7435L82.775 66.5041L59.1006 64.4161" fill="#2256FF"/>
<path d="M67.4547 83.479C58.9617 109.219 54.5566 147.801 54.5566 147.801" stroke="#2256FF" stroke-width="0.696" stroke-linecap="round" stroke-linejoin="round"/>
<path d="M66.3297 82.9673C57.8373 108.707 53.4316 147.289 53.4316 147.289M81.0257 76.9539C82.7953 103.909 93.2092 141.405 93.2092 141.405" stroke="#2256FF" stroke-width="0.696" stroke-linecap="round" stroke-linejoin="round"/>
<path d="M79.7822 76.8699C81.5547 103.825 91.9692 141.319 91.9692 141.319" stroke="#2256FF" stroke-width="0.696" stroke-linecap="round" stroke-linejoin="round"/>
<path d="M55.6022 101.839C55.7472 103.852 47.6603 104.275 47.3662 101.839C47.2206 99.8249 55.3081 99.4021 55.6022 101.839Z" fill="white" stroke="#2256FF" stroke-width="0.696" stroke-linecap="round" stroke-linejoin="round"/>
</g>
<path d="M96.4089 140.203C85.8796 148.551 80.0419 144.8 80.0419 144.8C80.0419 144.8 71.5739 101.687 69.6077 93.6345C69.6077 93.6345 65.5761 140.869 64.5095 141.977C51.0535 148.067 47.3652 144.8 47.3652 144.8C47.3652 144.8 49.7195 76.3963 61.1901 64.3184L79.8168 69.7373C79.8168 69.7373 97.6141 137.065 96.4089 140.203Z" stroke="#2256FF" stroke-width="0.464" stroke-linecap="round" stroke-linejoin="round"/>
<path d="M61.6543 67.3344C70.693 75.1366 83.3828 76.3384 83.3828 76.3384C83.3828 76.3384 82.637 71.13 83.7529 67.0491" fill="#2256FF"/>
<path d="M61.6543 67.3344C70.693 75.1366 83.3828 76.3384 83.3828 76.3384C83.3828 76.3384 82.637 71.13 83.7529 67.0491" stroke="#2256FF" stroke-width="0.696" stroke-linecap="round" stroke-linejoin="round"/>
<path d="M58.1821 79.7957L57.5 77.5836C62.8227 76.4236 55.6747 64.5846 63.1666 64.7139C60.4058 71.0174 64.54 77.6833 58.1821 79.7957Z" fill="white"/>
<mask id="mask17_1570_3553" style="mask-type:luminance" maskUnits="userSpaceOnUse" x="57" y="64" width="7" height="16">
<path d="M58.1831 79.7957L57.501 77.5836C62.8236 76.4236 55.6757 64.5846 63.1676 64.7139C60.4068 71.0174 64.541 77.6833 58.1831 79.7957Z" fill="white"/>
</mask>
<g mask="url(#mask17_1570_3553)">
<path d="M58.6088 75.9797L59.694 80.3535L55.9606 80.9962C55.9727 79.4969 54.6445 76.0337 57.4442 76.3562" fill="white"/>
<path d="M58.6088 75.9797L59.694 80.3535L55.9606 80.9962C55.9727 79.4969 54.6445 76.0337 57.4442 76.3562" stroke="#2256FF" stroke-width="0.696" stroke-linecap="round" stroke-linejoin="round"/>
</g>
<path d="M58.1821 79.7957L57.5 77.5836C62.8227 76.4236 55.6747 64.5846 63.1666 64.7139C60.4058 71.0174 64.54 77.6833 58.1821 79.7957Z" stroke="#2256FF" stroke-width="0.464" stroke-linecap="round" stroke-linejoin="round"/>
<path d="M78.1518 38.2897C72.3147 42.1345 62.3178 50.7997 57.9336 66.1784C57.9336 66.1784 78.6918 72.8838 84.0829 70.8677C89.474 68.8516 91.4414 51.6117 93.4081 47.1091C95.3749 42.6066 90.0157 35.6396 90.0157 35.6396C79.1309 40.2715 82.4403 35.6396 82.4403 35.6396" fill="white"/>
<mask id="mask18_1570_3553" style="mask-type:luminance" maskUnits="userSpaceOnUse" x="57" y="35" width="37" height="37">
<path d="M78.1508 38.2875C72.3137 42.1323 62.3168 50.7975 57.9326 66.1762C57.9326 66.1762 78.6908 72.8816 84.0819 70.8655C89.473 68.8494 91.4404 51.6095 93.4072 47.107C95.3739 42.6044 90.0147 35.6375 90.0147 35.6375C79.1299 40.2693 82.4394 35.6375 82.4394 35.6375" fill="white"/>
</mask>
<g mask="url(#mask18_1570_3553)">
<path d="M57.9325 58.7373C52.4973 60.1537 69.9113 72.3801 88.9596 67.3323" stroke="#2256FF" stroke-width="0.696" stroke-linecap="round" stroke-linejoin="round"/>
<path d="M63.6475 51.5764C65.4263 69.0431 77.0849 72.7911 87.8016 53.1453C98.5182 33.4995 69.0096 54.3732 69.0096 54.3732L66.3276 52.8176" fill="#EFF1F7"/>
</g>
<path d="M78.1518 38.2897C72.3147 42.1345 62.3178 50.7997 57.9336 66.1784C57.9336 66.1784 78.6918 72.8838 84.0829 70.8677C89.474 68.8516 91.4414 51.6117 93.4081 47.1091C95.3749 42.6066 90.0157 35.6396 90.0157 35.6396C79.1309 40.2715 82.4403 35.6396 82.4403 35.6396" stroke="#2256FF" stroke-width="0.464" stroke-linecap="round" stroke-linejoin="round"/>
<path d="M65.5073 31.2715C65.8374 31.2802 67.5333 30.6085 67.6029 30.2658C68.0547 28.0362 66.0537 19.6755 66.0647 18.5764C66.0734 17.7256 63.1572 18.729 63.2656 19.5624C63.5881 22.0605 64.2139 31.2361 65.5073 31.2715Z" fill="white"/>
<mask id="mask19_1570_3553" style="mask-type:luminance" maskUnits="userSpaceOnUse" x="63" y="18" width="5" height="14">
<path d="M65.5083 31.2695C65.8383 31.2782 67.5343 30.6066 67.6039 30.2638C68.0557 28.0343 66.0547 19.6736 66.0657 18.5745C66.0744 17.7236 63.1582 18.727 63.2666 19.5605C63.5891 22.0586 64.2149 31.2342 65.5083 31.2695Z" fill="white"/>
</mask>
<g mask="url(#mask19_1570_3553)">
<path d="M66.1666 31.1616C70.5746 31.0328 66.7756 23.3716 66.8557 19.2716C67.3893 17.8854 63.8397 18.4677 63.9243 19.456C64.1494 22.0504 64.9185 31.5055 66.1666 31.1616Z" fill="#2256FF"/>
</g>
<path d="M65.5073 31.2715C65.8374 31.2802 67.5333 30.6085 67.6029 30.2658C68.0547 28.0362 66.0537 19.6755 66.0647 18.5764C66.0734 17.7256 63.1572 18.729 63.2656 19.5624C63.5881 22.0605 64.2139 31.2361 65.5073 31.2715Z" stroke="#2256FF" stroke-width="0.464" stroke-linecap="round" stroke-linejoin="round"/>
<path d="M73.9445 41.3146C74.2606 33.9294 76.8532 22.0974 68.8133 24.6494C68.1699 24.86 67.5427 25.1168 66.9364 25.4179C66.3976 26.6905 68.6723 25.5966 69.2483 25.897C72.5827 27.637 69.9211 33.6858 70.1977 37.2337C69.4205 37.4674 73.4492 40.6882 73.9445 41.3146Z" fill="white"/>
<mask id="mask20_1570_3553" style="mask-type:luminance" maskUnits="userSpaceOnUse" x="66" y="24" width="9" height="18">
<path d="M73.9445 41.3158C74.2606 33.9307 76.8532 22.0987 68.8133 24.6507C68.1699 24.8612 67.5427 25.1181 66.9364 25.4192C66.3976 26.6917 68.6723 25.5978 69.2483 25.8982C72.5827 27.6382 69.9211 33.6871 70.1977 37.2349C69.4205 37.4687 73.4492 40.6894 73.9445 41.3158Z" fill="white"/>
</mask>
<g mask="url(#mask20_1570_3553)">
<path d="M69.8702 31.9526C71.0992 34.1445 74.538 33.2652 74.538 33.2652C73.1101 35.9657 71.2645 35.3404 69.5332 35.2401" fill="#EFF1F7"/>
</g>
<path d="M73.9445 41.3146C74.2606 33.9294 76.8532 22.0974 68.8133 24.6494C68.1699 24.86 67.5427 25.1168 66.9364 25.4179C66.3976 26.6905 68.6723 25.5966 69.2483 25.897C72.5827 27.637 69.9211 33.6858 70.1977 37.2337C69.4205 37.4674 73.4492 40.6882 73.9445 41.3146Z" stroke="#2256FF" stroke-width="0.464" stroke-linecap="round" stroke-linejoin="round"/>
<path d="M84.1958 41.1062C79.4595 43.7441 74.8386 48.3881 74.8386 48.3881V33.1875C74.8386 33.1875 68.7672 34.4368 63.1992 38.7688C62.5125 39.3036 63.651 61.401 71.4114 63.3806C79.1718 65.3601 97.3032 48.5326 93.1406 41.3545" fill="white"/>
<mask id="mask21_1570_3553" style="mask-type:luminance" maskUnits="userSpaceOnUse" x="63" y="33" width="31" height="31">
<path d="M84.1968 41.106C79.4605 43.7438 74.8396 48.3879 74.8396 48.3879V33.1873C74.8396 33.1873 68.7682 34.4366 63.2002 38.7686C62.5135 39.3034 63.652 61.4008 71.4124 63.3803C79.1728 65.3599 97.3042 48.5323 93.1415 41.3542" fill="white"/>
</mask>
<g mask="url(#mask21_1570_3553)">
<path d="M63.6328 41.3165C67.2427 37.0825 73.6233 35.2683 75.8876 36.7798ZM76.4792 62.4135C76.3789 66.9752 65.6941 66.9786 65.4853 62.4135C65.5857 57.8518 76.2699 57.8483 76.4792 62.4135Z" fill="white"/>
<path d="M63.6328 41.3165C67.2427 37.0825 73.6233 35.2683 75.8876 36.7798M76.4792 62.4135C76.3789 66.9752 65.6941 66.9786 65.4853 62.4135C65.5857 57.8518 76.2699 57.8483 76.4792 62.4135Z" stroke="#2256FF" stroke-width="0.696" stroke-linecap="round" stroke-linejoin="round"/>
</g>
<path d="M84.1958 41.1062C79.4595 43.7441 74.8386 48.3881 74.8386 48.3881V33.1875C74.8386 33.1875 68.7672 34.4368 63.1992 38.7688C62.5125 39.3036 63.651 61.401 71.4114 63.3806C79.1718 65.3601 97.3032 48.5326 93.1406 41.3545" stroke="#2256FF" stroke-width="0.464" stroke-linecap="round" stroke-linejoin="round"/>
<path d="M66.3301 77.2937C66.3301 80.5678 69.6077 91.1783 69.6077 91.1783M73.0465 77.5651C72.1968 83.0908 75.6431 86.5696 80.0419 85.2733" stroke="#2256FF" stroke-width="0.696" stroke-linecap="round" stroke-linejoin="round"/>
<path d="M85.0797 43.2468C85.5385 45.0819 86.9241 45.8272 88.6815 45.7687C87.0117 46.7547 86.7049 48.2569 87.3058 49.849C85.8158 48.624 84.2399 48.805 82.8543 49.849C83.6025 48.1049 82.9361 46.717 81.4785 45.7687C83.4314 45.9154 84.5949 44.8755 85.0797 43.2468Z" fill="white" stroke="#2256FF" stroke-width="0.696" stroke-linecap="round" stroke-linejoin="round"/>
<path d="M75.1001 48.5026C75.1675 49.7359 74.9042 50.9647 74.3374 52.0621M54.3274 95.3446C54.9868 95.8332 55.808 96.0515 56.6231 95.9547M82.8124 126.143C83.7032 126.292 84.613 126.288 85.5024 126.131M46.4104 150.104C46.7344 150.392 46.9989 150.741 47.1894 151.131C46.449 151.292 45.701 151.417 44.9482 151.503M89.2568 149.258C89.3658 149.547 89.529 149.813 89.7376 150.04L86.9884 150.2M88.5515 34.7421L87.7662 34.9956M70.9978 26.4905L71.2814 26.4226" stroke="#2256FF" stroke-width="0.696" stroke-linecap="round" stroke-linejoin="round"/>
</g>
<defs>
<clipPath id="clip0_1570_3553">
<rect width="232" height="174" fill="white"/>
</clipPath>
</defs>
</svg>
