<?xml version="1.0" encoding="utf-8"?>
<!-- Generator: Adobe Illustrator 26.5.0, SVG Export Plug-In . SVG Version: 6.00 Build 0)  -->
<svg version="1.1" id="main" xmlns="http://www.w3.org/2000/svg" xmlns:xlink="http://www.w3.org/1999/xlink" x="0px" y="0px"
	 viewBox="0 0 40 40" style="enable-background:new 0 0 40 40;" xml:space="preserve">
<style type="text/css">
	.st0{fill:#EA8A2A;}
	.st1{fill:#FFFFFF;}
</style>
<g id="circle_x5F_D_00000005959072195277906840000007745170701267722405_">
	<circle class="st0" cx="10.9" cy="29.5" r="7.2"/>
</g>
<g transform="translate(0.000000,300.000000) scale(0.050000,-0.050000)">
	<path class="st1" d="M355.5,5886.7c-135.6-24.4-225.6-131.8-225.9-269.5c-0.4-162,121.2-279.9,282.6-274.2
		c215.5,7.7,335.8,247.2,215.4,428.6C571.8,5855.3,455.5,5904.6,355.5,5886.7z M467,5856c181.3-50.3,244.1-273.2,115.6-410.5
		c-153.9-164.5-429.8-54.2-428.7,171.7c0.5,127,81.1,219.7,214,246.2C386,5867,442.4,5862.9,467,5856z"/>
	<path class="st1" d="M272.2,5635c-17.8-17.8-6.7-44.7,18.3-44.7c14.3,0,26.1,11.6,26.1,25.6C316.7,5637.9,287.6,5650.3,272.2,5635z
		"/>
	<path class="st1" d="M383.1,5634.3c-16.3-16.2-5.1-44.1,17.7-44.1c20.1,0,31.9,19.8,23.4,38.7
		C417.9,5642.8,394.7,5645.9,383.1,5634.3z"/>
	<path class="st1" d="M494.3,5633.6c-16.4-16.6-5-43.4,18.6-43.4c18.9,0,31.8,18.2,24.8,35.2
		C530.3,5643.3,508.2,5647.4,494.3,5633.6z"/>
</g>
</svg>
