<?xml version="1.0" encoding="utf-8"?>
<!-- Generator: Adobe Illustrator 26.5.0, SVG Export Plug-In . SVG Version: 6.00 Build 0)  -->
<svg version="1.1" id="main" xmlns="http://www.w3.org/2000/svg" xmlns:xlink="http://www.w3.org/1999/xlink" x="0px" y="0px"
	 viewBox="0 0 40 40" style="enable-background:new 0 0 40 40;" xml:space="preserve">
<style type="text/css">
	.st0{fill:#EA8A2A;}
	.st1{fill:none;stroke:#FFFFFF;stroke-width:2;stroke-linecap:round;stroke-linejoin:round;}
</style>
<g id="circle_x5F_D_00000005959072195277906840000007745170701267722405_">
	<circle class="st0" cx="10.9" cy="29.5" r="7.2"/>
</g>
<g id="_x30_2-D">
	<path class="st1" d="M26.9,28.8l3.9-3.8c0.5-0.5,0.5-1.1,0-1.6L29,21.6c-0.5-0.5-1.1-0.5-1.6,0l-3.9,3.8c-0.2,0.2-0.3,0.5-0.3,0.8
		v2.9h2.9C26.4,29.2,26.7,29,26.9,28.8z"/>
	<path class="st1" d="M14.2,21.5h4.6"/>
	<path class="st1" d="M14.2,15.9h9"/>
	<path class="st1" d="M27.7,17v-3.4c0-1.8-1.5-3.4-3.4-3.4H13c-2,0-3.4,1.6-3.4,3.4v9.9c0,1.8,1.5,3.4,3.4,3.4h5.7"/>
</g>
</svg>
