<?xml version="1.0" encoding="utf-8"?>
<!-- Generator: Adobe Illustrator 26.5.0, SVG Export Plug-In . SVG Version: 6.00 Build 0)  -->
<svg version="1.1" id="main" xmlns="http://www.w3.org/2000/svg" xmlns:xlink="http://www.w3.org/1999/xlink" x="0px" y="0px"
	 viewBox="0 0 40 40" style="enable-background:new 0 0 40 40;" xml:space="preserve">
<style type="text/css">
	.st0{fill:#EA8A2A;}
	.st1{fill:#FFFFFF;}
</style>
<g id="circle_x5F_D_00000005959072195277906840000007745170701267722405_">
	<circle class="st0" cx="10.9" cy="29.5" r="7.2"/>
</g>
<path id="lines_00000039100471519034131970000006020202387154989990_" class="st1" d="M6.1,7.4c-0.3,0.2-0.5,0.7-0.3,1
	C5.9,8.5,6.9,9,8,9.4l2,0.8l0.9,2.7c0.5,1.5,1.4,3.9,1.9,5.4c1.6,4.5,1.7,5,1.5,5.1s-0.5,1.1-1.4,3.4c-0.1,0.4-0.3,0.9-0.3,0.9
	c0,0.3,0.5,0.6,0.9,0.6s0.4,0,0.3,0.2c-0.1,0.1-0.2,0.5-0.3,0.9c-0.8,2.3,2.2,4.3,4,2.6c0.9-0.8,1.2-2.2,0.6-3.2
	c-0.2-0.3-0.3-0.5-0.3-0.5s1.3-0.1,2.9-0.1h2.9l-0.3,0.6C22.7,29.9,23,31.1,24,32c1.2,1.1,3.1,0.7,3.8-0.9c0.5-0.9,0.5-1.4,0-2.2
	l-0.4-0.7H28c0.8-0.1,1.1-0.5,0.7-1l0-0.2h-7.1c-4.4,0-7.1-0.1-7.1-0.1c0-0.1,0.2-0.6,0.4-1.1l0.4-1h6.6c5.1,0,6.7,0,6.9-0.2
	c0.4-0.2,0.6-0.8,2.4-6.3c0.5-1.6,1.1-3.5,1.4-4.2c0.5-1.4,0.5-1.9,0.2-2.2c-0.1-0.2-2-0.2-10.3-0.2H12.3l-0.5-1.3
	C11.5,9.7,11.3,9,11.2,9c-0.3-0.2-4.4-1.8-4.6-1.8S6.2,7.3,6.1,7.4z M18.3,14.4v1h-2.4h-2.4l-0.3-0.9c-0.2-0.5-0.3-0.9-0.3-1
	s1.2-0.1,2.7-0.1h2.7V14.4z M24,14.4v1h-2h-2v-1v-1h2h2V14.4z M30.8,13.4c0,0-0.1,0.5-0.2,1l-0.3,0.9h-2.2h-2.2v-1v-1h2.5
	C29.6,13.3,30.8,13.4,30.8,13.4z M18.2,18.2v1.1h-1.7h-1.7l-0.3-0.8c-0.2-0.4-0.3-1-0.4-1.2V17h2h2L18.2,18.2z M24,18.2v1.1h-2h-2.1
	v-1.1c0-0.6,0-1.1,0.1-1.2c0.1,0,1-0.1,2-0.1h1.9L24,18.2z M29.6,17.1c0,0-0.1,0.6-0.3,1.2L29,19.4h-1.6h-1.6v-1.2V17h1.9
	C28.7,17,29.6,17,29.6,17.1z M18.3,22.1v1h-1.1h-1.1L15.8,22l-0.3-0.9h1.4h1.4V22.1z M24,22.1v1h-2h-2v-0.9v-0.9h2h2V22.1z
	 M28.3,21.4c-0.1,0.1-0.2,0.6-0.3,1L27.8,23h-1h-1v-1v-1h1.3C28.3,21.1,28.4,21.2,28.3,21.4z M16.9,29.4c0.4,0.5,0.4,0.9,0,1.4
	s-0.9,0.6-1.5,0.3C15,31,14.9,30.7,14.9,30C14.9,29,16.2,28.6,16.9,29.4z M26.1,29.1c1,0.4,1,1.8,0,2.2c-1.3,0.4-2.2-1.1-1.2-2
	C25.4,28.9,25.4,28.9,26.1,29.1z"/>
</svg>
