<?xml version="1.0" encoding="utf-8"?>
<!-- Generator: Adobe Illustrator 26.5.0, SVG Export Plug-In . SVG Version: 6.00 Build 0)  -->
<svg version="1.1" id="main" xmlns="http://www.w3.org/2000/svg" xmlns:xlink="http://www.w3.org/1999/xlink" x="0px" y="0px"
	 viewBox="0 0 40 40" style="enable-background:new 0 0 40 40;" xml:space="preserve">
<style type="text/css">
	.st0{fill:#EA8A2A;}
	.st1{fill:none;stroke:#FFFFFF;stroke-width:2;stroke-linecap:round;stroke-linejoin:round;}
</style>
<g id="circle_x5F_D_00000005959072195277906840000007745170701267722405_">
	<circle class="st0" cx="10.9" cy="29.5" r="7.2"/>
</g>
<g id="_x30_4_x5F_D">
	<g>
		<path class="st1" d="M11.3,21.5h4.5c0.9,0,1.6,0.8,1.6,1.6v1.8c0,0.9-0.8,1.6-1.6,1.6h-4.5c-0.9,0-1.6-0.8-1.6-1.6v-1.8
			C9.6,22.2,10.4,21.5,11.3,21.5z"/>
		<path class="st1" d="M11.3,26.5h4.5c0.9,0,1.6,0.8,1.6,1.6v1.8c0,0.9-0.8,1.6-1.6,1.6h-4.5c-0.9,0-1.6-0.8-1.6-1.6v-1.8
			C9.6,27.2,10.4,26.5,11.3,26.5z"/>
		<path class="st1" d="M18,8.9h5.6c0.9,0,1.6,0.8,1.6,1.9l0,0c0,2.5-1.7,4.4-3.9,4.4h-1.1c-2.1,0-3.9-1.9-3.9-4.4l0,0
			C16.3,9.7,17,8.9,18,8.9z"/>
		<path class="st1" d="M20.7,31.5h4.5c2.5,0,4.5-2.3,4.5-5v-1.3c0-4-2.1-7.5-5.2-9.1s-6.9-1-9.5,1.6"/>
	</g>
</g>
</svg>
