<svg width="326" height="285" viewBox="0 0 326 285" fill="none" xmlns="http://www.w3.org/2000/svg">
<g clip-path="url(#clip0_135_2085)">
<path d="M246.699 205.151C269.893 170.982 241.754 111.416 183.846 72.1072C125.94 32.7976 60.1933 28.6305 36.9984 62.7992C13.8035 96.9677 41.9432 156.533 99.85 195.843C157.757 235.152 223.504 239.319 246.699 205.151Z" fill="#0D1C4C" stroke="#0D1C4C" stroke-width="0.195116" stroke-linecap="round" stroke-linejoin="round"/>
<path d="M48.3423 99.3559L49.0089 98.7848L48.4378 98.1182L47.7712 98.6892L48.3423 99.3559Z" fill="white"/>
<path d="M36.698 94.3526L37.5558 93.6177L36.8208 92.7592L35.9629 93.4941L36.698 94.3526Z" fill="white"/>
<path d="M71.594 110.216L72.4518 109.481L71.7169 108.623L70.859 109.358L71.594 110.216Z" fill="white"/>
<path d="M74.7644 112.53L75.6222 111.795L74.8873 110.937L74.0294 111.672L74.7644 112.53Z" fill="white"/>
<path d="M49.0253 121.683L49.5753 121.812L49.7038 121.261L49.1538 121.133L49.0253 121.683Z" fill="white"/>
<path d="M81.9641 107.059L82.3621 107.152L82.4545 106.754L82.0571 106.661L81.9641 107.059Z" fill="white"/>
<path d="M32.4138 99.9159L33.1542 99.914L33.1523 99.1738L32.4119 99.1758L32.4138 99.9159Z" fill="white"/>
<path d="M56.6884 132.726L57.355 132.155L56.7838 131.488L56.1172 132.059L56.6884 132.726Z" fill="white"/>
<path d="M93.4515 121.172L94.3094 120.437L93.5744 119.58L92.7166 120.315L93.4515 121.172Z" fill="white"/>
<path d="M65.0538 105.897L65.794 105.896L65.792 105.155L65.0519 105.157L65.0538 105.897Z" fill="white"/>
<path d="M82.9371 113.249L83.6773 113.247L83.6753 112.507L82.9352 112.509L82.9371 113.249Z" fill="white"/>
<path d="M56.1093 116.717L56.8497 116.715L56.8477 115.975L56.1073 115.977L56.1093 116.717Z" fill="white"/>
<path d="M45.8458 117.259L46.5862 117.257L46.5843 116.516L45.8439 116.518L45.8458 117.259Z" fill="white"/>
<path d="M51.9417 109.73L52.6821 109.728L52.6801 108.988L51.9397 108.99L51.9417 109.73Z" fill="white"/>
<path d="M198.409 125.011L199.076 124.439L198.505 123.773L197.838 124.344L198.409 125.011Z" fill="white"/>
<path d="M200.992 128.22L201.849 127.485L201.114 126.627L200.257 127.362L200.992 128.22Z" fill="white"/>
<path d="M221.554 137.541L222.412 136.806L221.677 135.948L220.819 136.683L221.554 137.541Z" fill="white"/>
<path d="M231.061 130.838L231.611 130.967L231.739 130.417L231.19 130.289L231.061 130.838Z" fill="white"/>
<path d="M215.401 120.061L216.141 120.059L216.139 119.319L215.399 119.321L215.401 120.061Z" fill="white"/>
<path d="M238.248 139.483L238.989 139.481L238.987 138.74L238.246 138.742L238.248 139.483Z" fill="white"/>
<path d="M209.652 124.684L210.393 124.682L210.391 123.941L209.65 123.943L209.652 124.684Z" fill="white"/>
<path d="M207.777 126.835L208.518 126.833L208.516 126.093L207.775 126.095L207.777 126.835Z" fill="white"/>
<path d="M57.1202 87.6227L57.8606 87.6208L57.8587 86.8806L57.1183 86.8826L57.1202 87.6227Z" fill="white"/>
<path d="M38.8988 114.569C36.8455 114.504 34.9602 115.271 33.5634 116.565C35.3113 122.072 39.0553 129.575 39.0553 129.575C42.9176 129.376 46.047 126.247 46.1692 122.313C46.2989 118.168 43.0435 114.698 38.8988 114.573V114.569Z" fill="#0F3DFB" stroke="#0D1C4C" stroke-width="0.195116" stroke-linecap="round" stroke-linejoin="round"/>
<path d="M154.914 176.708C203.604 176.708 243.076 137.236 243.076 88.5465C243.076 39.8558 203.604 0.384521 154.914 0.384521C106.224 0.384521 66.7522 39.8558 66.7522 88.5465C66.7522 137.236 106.224 176.708 154.914 176.708Z" fill="#0F3DFB"/>
<path d="M219.917 34.8157C234.142 61.1811 225.045 100.625 196.02 129.652C182.318 143.353 166.287 152.618 150.409 157.086C143.15 159.123 135.93 160.161 128.972 160.161C118.915 160.161 109.411 157.993 101.184 153.557C115.77 165.628 134.492 172.879 154.907 172.879C201.486 172.879 239.239 135.118 239.239 88.5464C239.239 68.132 231.981 49.4093 219.917 34.8233V34.8157Z" fill="#0D1C4C"/>
<path d="M152.631 165.298C152.17 164.644 151.155 163.937 150.379 163.714L137.945 160.238L137.522 158.439C137.338 157.655 136.638 156.655 135.977 156.209L122.167 146.998L117.408 145.329C116.655 145.06 115.586 144.368 115.04 143.776L114.21 142.885C113.664 142.292 112.572 141.908 111.772 142.016L111.173 142.1C110.38 142.215 109.281 142.784 108.743 143.376C108.197 143.961 107.205 144.092 106.528 143.668L101.738 140.639C101.062 140.208 100.323 139.24 100.093 138.471L98.5628 133.419L94.6182 127.991L96.7788 122.132C96.9863 121.563 96.7326 120.847 96.2175 120.54L94.7951 119.679C94.3567 119.417 93.8338 119.356 93.3493 119.502L89.4437 121.478C89.8125 122.278 87.9517 118.387 87.9517 118.387L87.7137 111.905L87.6441 110.083C87.6213 109.437 87.9212 108.476 88.3055 107.953L89.205 106.746C89.5894 106.223 90.4278 105.9 91.0658 106.023L94.1876 106.631C94.8257 106.754 95.5944 107.33 95.8943 107.907L99.1696 114.166C99.4701 114.743 100.169 114.935 100.723 114.597L100.877 114.496C101.43 114.158 101.884 113.343 101.884 112.697V109.414C101.884 108.768 102.345 107.976 102.915 107.669L107.643 105.093L111.096 98.2959L113.818 97.596C114.448 97.4348 115.317 96.9118 115.755 96.4273L117.001 95.0589C117.439 94.5743 118.285 94.3825 118.884 94.6283L120.584 95.3203L125.858 93.9057C126.489 93.7366 126.719 93.1441 126.381 92.5907L123.644 88.1004C123.306 87.5469 122.498 87.039 121.853 86.9778L119.431 86.7469L119.907 86.1317C120.307 85.6244 121.161 85.2784 121.806 85.3785L128.173 86.332C128.819 86.4321 129.664 86.0861 130.049 85.5632L132.217 82.6872C132.609 82.1721 132.632 81.3032 132.279 80.7575L129.249 76.1976C128.888 75.6598 128.542 74.6829 128.48 74.037L128.111 70.3695C128.042 69.7237 127.581 68.8626 127.073 68.4548L121.568 64.0416C121.06 63.634 120.437 63.7955 120.191 64.3952L115.993 74.4292C115.801 74.8982 115.309 75.529 114.909 75.8367L111.972 78.1046C111.573 78.4122 111.249 78.2509 111.249 77.7508L111.288 72.9685C111.288 72.4612 111.042 71.723 110.726 71.323L105.936 65.1794C105.629 64.7797 105.636 64.1415 105.967 63.7571L108.228 61.0967C108.558 60.7122 109.219 60.297 109.712 60.1663L118.131 58.0288C119.53 57.6751 121.199 56.3295 121.837 55.0378L123.029 52.6388C123.167 52.362 123.029 52.139 122.721 52.1467L119.761 52.2236C119.453 52.2236 119.223 51.9853 119.246 51.6777L119.638 46.7952C119.684 46.257 119.292 45.9264 118.769 46.0648C118.469 46.1417 118.1 46.4261 117.954 46.6953L116.224 49.8785C116.078 50.1476 115.755 50.2168 115.509 50.0323L109.712 45.6342C109.465 45.4496 109.396 45.0805 109.55 44.8115L110.404 43.389L109.119 37.9836C109.05 37.6838 108.75 37.3608 108.451 37.2686L106.259 36.5766C105.775 36.4228 105.482 35.8999 105.606 35.4078L107.835 26.3656C107.958 25.8735 107.728 25.22 107.328 24.9201L106.375 24.1896C105.975 23.8821 105.329 23.8975 104.937 24.2204L100.354 28.0341C99.9618 28.3571 99.262 28.7723 98.793 28.9645L95.3642 30.3331L89.0359 36.046C88.6593 36.3843 88.2672 37.0687 88.1592 37.5608L87.9823 38.3758C87.875 38.8679 88.1514 39.0755 88.5976 38.8371L93.3877 36.2459C93.8338 36.0076 94.1109 36.2152 94.0029 36.7073L92.1806 45.2036L85.4373 57.5059L84.2764 65.8792L76.5186 79.8652L77.2561 102.294C77.2795 102.94 77.5488 103.939 77.8564 104.516L79.0557 106.739V102.14C79.0479 101.033 79.7172 100.741 80.5321 101.487L81.2241 108.346L82.039 116.457L86.7368 124.269C87.1908 125.023 88.2438 125.822 89.0899 126.061C90.1663 126.361 91.458 127.422 91.9731 128.413L96.5173 137.271C96.9173 138.048 97.7784 139.155 98.4392 139.739L106.29 146.629C106.951 147.206 107.366 148.382 107.22 149.243L106.436 153.864C106.29 154.725 106.69 155.925 107.328 156.524L114.54 163.368L126.773 170.834L133.086 172.964L134.585 174.324C136.923 174.878 139.291 175.34 141.69 175.701L142.751 173.409L148.671 172.479L153.154 168.473C153.754 167.935 153.861 166.966 153.392 166.313L152.662 165.29L152.631 165.298Z" fill="#FF902F" stroke="#FF902F" stroke-width="0.0650388" stroke-miterlimit="10" stroke-linecap="round" stroke-linejoin="round"/>
<path d="M231.136 123.5L225.222 110.375L224.984 109.837C224.438 108.614 222.924 107.876 221.616 108.191L216.188 109.499C215.481 109.668 214.942 109.214 214.988 108.483L215.373 102.993L212.582 96.935C212.29 96.3041 211.505 95.6739 210.828 95.5197C210.229 95.389 209.537 95.7428 209.299 96.3041L205.324 105.592C204.493 107.538 202.21 109.776 200.249 110.575L188.062 115.534C187.316 115.834 186.37 116.642 185.947 117.326L182.564 122.831L178.104 130.097C177.082 131.766 176.09 134.734 175.897 136.687L174.983 146.29C174.913 146.997 175.336 147.92 175.913 148.335L182.087 152.742C182.664 153.156 183.686 153.287 184.356 153.034L195.466 148.851C196.219 148.566 197.473 148.459 198.265 148.597L201.433 149.173C202.224 149.32 202.624 150.05 202.332 150.796L201.417 153.11C201.125 153.856 200.918 155.125 200.956 155.925L201.033 157.454C201.071 158.254 200.664 159.392 200.118 159.976L195.312 165.128L193.221 167.942C213.282 158.239 229.105 141.161 237.171 120.225L233.104 123.908C232.404 124.546 231.512 124.353 231.12 123.492L231.136 123.5Z" fill="#FF902F" stroke="#FF902F" stroke-width="0.0650388" stroke-miterlimit="10" stroke-linecap="round" stroke-linejoin="round"/>
<path d="M127.342 64.9872C128.173 66.1634 129.433 66.1023 130.141 64.8412L133.962 58.0749C134.216 57.6289 134.254 56.8753 134.054 56.4063L132.885 53.6614C132.67 53.1616 132.786 52.4158 133.132 52.0006L133.347 51.7392C133.693 51.324 133.87 50.5551 133.732 50.0322L132.032 43.512C131.894 42.9891 131.402 42.3279 130.94 42.0511L130.11 41.5512C129.648 41.2745 128.887 41.2822 128.433 41.5666L124.428 44.104C123.536 44.673 123.498 45.6495 124.351 46.2723L126.965 48.2022C127.496 48.5943 127.934 49.4555 127.942 50.1168L127.98 53.5383C127.98 54.1996 127.481 54.8993 126.85 55.0992L125.95 55.3837C125.32 55.5836 124.543 56.2141 124.212 56.7908L123.613 57.8518C123.29 58.4285 123.336 59.3358 123.713 59.8741L127.327 64.9796L127.342 64.9872Z" fill="#FF902F" stroke="#FF902F" stroke-width="0.0650388" stroke-miterlimit="10" stroke-linecap="round" stroke-linejoin="round"/>
<path d="M113.687 42.1202L115.701 43.4812C116.285 43.8733 117.116 43.7426 117.546 43.189L121.852 37.6376C122.245 37.1301 122.129 36.4227 121.606 36.0613L119.576 34.6773L120.422 32.3629L120.022 31.4403C119.822 30.9712 119.284 30.779 118.831 31.0096L115.501 32.7243C114.878 33.0472 114.417 33.8853 114.486 34.585L114.778 37.5607L113.256 40.2826C112.91 40.8977 113.11 41.7204 113.694 42.1202H113.687Z" stroke="#FF902F" stroke-width="0.0650388" stroke-miterlimit="10" stroke-linecap="round" stroke-linejoin="round"/>
<path d="M127.357 36.2998L130.41 38.5987C130.84 38.9217 131.594 39.0063 132.086 38.7833L132.639 38.5295C133.132 38.3066 133.832 37.7991 134.193 37.407L135.146 36.369C135.508 35.9691 136.192 35.4309 136.661 35.1694L145.373 30.2485C145.842 29.9871 145.957 29.4181 145.626 28.9952L145.157 28.3955C144.826 27.9726 144.119 27.5881 143.581 27.542L139.067 27.1806C138.529 27.1345 137.86 27.4728 137.568 27.9341L135.092 31.8478C134.808 32.3015 134.178 32.8781 133.655 33.0243L127.25 34.7927C126.735 34.9388 126.381 35.577 127.349 36.3074L127.357 36.2998Z" fill="#FF902F" stroke="#FF902F" stroke-width="0.0650388" stroke-miterlimit="10" stroke-linecap="round" stroke-linejoin="round"/>
<path d="M139.452 36.2843C139.014 36.5996 138.668 37.2992 138.675 37.8374L138.691 39.1446C138.691 39.6828 139.113 40.2749 139.621 40.4671L140.998 40.9823C141.728 41.2514 142.312 42.1125 142.297 42.8968L142.105 52.8848C142.097 53.3692 141.828 54.0688 141.513 54.4379L139.729 56.5063C139.413 56.8753 139.175 57.575 139.198 58.0594L139.829 69.362C139.859 69.8465 140.19 70.4924 140.575 70.7922L143.996 73.4913C144.38 73.7911 144.826 73.6682 144.988 73.2064L148.578 63.2803C148.74 62.8266 149.194 62.2038 149.57 61.9039L158.974 54.4533C159.582 53.969 159.805 53.0001 159.466 52.3004L157.982 49.2402C157.767 48.8019 157.874 48.1638 158.206 47.81L159.113 46.8643C159.451 46.5183 159.743 45.834 159.774 45.3496L160.351 34.116C160.381 33.5778 160.012 32.9242 159.543 32.6705L155.714 30.5791C155.245 30.3177 154.422 30.1793 153.892 30.2561L147.102 31.2788C146.572 31.3557 145.78 31.6863 145.342 32.0015L139.452 36.2843Z" fill="#FF902F" stroke="#FF902F" stroke-width="0.0650388" stroke-miterlimit="10" stroke-linecap="round" stroke-linejoin="round"/>
<path d="M163.526 61.7963L160.612 63.0342L159.805 62.7497C159.343 62.5882 158.813 62.8189 158.612 63.2648L158.266 64.0415L160.151 66.871C160.419 67.2788 161.035 67.5857 161.519 67.5552L164.595 67.3705C165.079 67.3399 165.54 66.925 165.625 66.4482L166.125 63.4417L164.925 62.1115C164.603 61.7501 163.964 61.6117 163.518 61.8039L163.526 61.7963Z" fill="#FF902F" stroke="#FF902F" stroke-width="0.0650388" stroke-miterlimit="10" stroke-linecap="round" stroke-linejoin="round"/>
<path d="M176.874 68.3703L179.442 70.5082C179.819 70.8158 179.919 71.4155 179.665 71.8304L179.173 72.6531L179.819 76.1828C179.965 76.9743 180.665 77.3203 181.38 76.9594L183.871 75.6983C184.586 75.3366 185.048 74.3988 184.893 73.6144L184.74 72.8379C184.586 72.0535 184.002 70.9387 183.44 70.3696L179.865 66.7561C179.526 66.4101 179.142 65.7408 179.011 65.2797L178.773 64.4107C178.642 63.9417 178.158 63.4419 177.697 63.2958L176.705 62.9883C176.243 62.8422 175.889 63.119 175.921 63.6034L176.136 66.9252C176.166 67.4097 176.497 68.0627 176.874 68.3703Z" fill="#FF902F" stroke="#FF902F" stroke-width="0.0650388" stroke-miterlimit="10" stroke-linecap="round" stroke-linejoin="round"/>
<path d="M176.898 75.2213C177.306 74.9598 177.605 74.3524 177.567 73.8678L177.328 71.2227C177.282 70.7388 176.89 70.1775 176.444 69.9772L176.314 69.9161C175.875 69.7157 175.291 69.8849 175.029 70.2926L173.807 72.1918L174.199 76.0057C174.245 76.4902 174.622 76.6664 175.037 76.4128L176.906 75.2213H176.898Z" fill="#FF902F" stroke="#FF902F" stroke-width="0.0650388" stroke-miterlimit="10" stroke-linecap="round" stroke-linejoin="round"/>
<path d="M199.449 12.4561L189.007 9.23445L183.763 8.94997C182.902 8.90386 182.618 9.42671 183.141 10.1187L186.655 14.7782C186.993 15.2241 187.27 16.0469 187.277 16.6082L187.293 18.2921C187.293 18.7688 187.554 19.4531 187.854 19.8222L190.484 22.9593L190.999 24.1357L194.19 26.6346C195.251 27.465 195.066 27.811 193.783 27.3958L191.775 26.7576C191.322 26.6115 190.96 26.8806 190.968 27.3574L190.999 28.8105L194.997 32.163C195.243 32.3706 195.32 32.7704 195.159 33.0549L194.751 33.7854C194.582 34.0852 194.513 34.608 194.597 34.9387L195.105 36.9301C195.189 37.2608 194.99 37.6068 194.651 37.6837L194.344 37.7529C193.775 37.8913 193.652 38.3295 194.082 38.737L194.69 39.306C195.12 39.7135 195.559 40.5132 195.658 41.0975L196.028 43.1197C196.173 43.9117 195.635 44.6345 194.843 44.7421L193.836 44.8729L191.545 43.4965C190.96 43.1428 191.029 42.743 191.699 42.5969L193.405 42.2432L193.628 41.8357C193.913 41.3205 193.736 40.6362 193.236 40.321L190.93 38.8601L183.625 39.0369C183.287 39.0446 182.941 39.3214 182.849 39.6443L181.503 44.6422C181.349 45.2111 181.58 45.9954 182.018 46.3952C182.21 46.5721 182.418 46.9258 182.472 47.1795L183.187 50.5242L181.372 55.5989C181.172 56.1525 181.264 57.0137 181.572 57.5212L183.925 61.3426C184.233 61.8424 184.94 62.0808 185.486 61.8731L186.424 61.5117C186.977 61.3041 187.762 61.4733 188.177 61.8885L191.091 64.8257L192.314 63.8261L192.175 59.2127C192.16 58.6207 191.829 57.7749 191.445 57.3366L188.907 54.4148L188.4 48.0791C188.354 47.5024 188.754 47.2026 189.292 47.4025L189.768 47.5793L192.137 53.6998C192.352 54.2457 192.998 54.7762 193.582 54.8608L194.113 54.9453C194.697 55.0376 195.189 55.5912 195.213 56.1833L195.228 56.5601L196.573 58.2362C196.942 58.6976 196.835 59.3281 196.335 59.6434C195.943 59.8894 195.704 60.466 195.805 60.9197L196.573 64.3951C196.673 64.8487 196.404 65.3562 195.966 65.5253L191.983 67.0706C191.445 67.2787 190.73 67.0706 190.399 66.6017L189.814 65.7867C189.476 65.3178 189.184 65.4102 189.162 65.9792L188.969 70.5619L187.078 75.6596C186.801 76.4128 186.101 77.482 185.517 78.0355L182.518 80.9186C181.942 81.4721 182.018 82.2799 182.702 82.7027L183.348 83.1098C184.025 83.5404 184.786 84.5094 185.032 85.2704L185.732 87.431C185.978 88.1926 185.563 89.0303 184.801 89.2917L181.011 90.6068C180.258 90.8683 179.696 91.7372 179.765 92.5365L180.396 99.657C180.465 100.456 181.126 101.364 181.864 101.679L184.694 102.878C185.432 103.194 186.493 102.979 187.054 102.402L190.153 99.2186L189.814 94.9124C189.776 94.4513 189.953 93.7514 190.2 93.3593L194.92 85.9552H196.281C196.758 85.9552 197.481 86.1855 197.873 86.4548L203.463 90.2686L204.785 92.2907C205.047 92.6907 205.316 92.6289 205.377 92.1521L205.769 89.1304C205.831 88.6537 205.531 88.0924 205.101 87.8772L198.826 84.7475C198.411 84.54 198.104 83.9943 198.15 83.5332L198.242 82.6103C198.311 81.9105 198.849 81.649 199.442 82.0256L204.17 85.0018C204.578 85.2554 205.155 85.7784 205.447 86.1549L210.052 92.0598L211.082 91.7983C211.552 91.6832 211.798 91.2143 211.636 90.7603L210.406 87.3003C210.244 86.8469 210.383 86.1933 210.706 85.8395L211.559 84.9244L212.912 87.6235C213.128 88.0541 213.651 88.5848 214.073 88.8079L216.403 90.0299C216.826 90.253 217.464 90.1685 217.81 89.8381L220.009 87.7698C220.363 87.4388 220.778 87.5389 220.932 87.9923L222.462 92.383C222.623 92.8364 222.623 93.5745 222.462 94.0285L221.424 96.9962C221.193 97.6499 221.309 98.6573 221.678 99.2414L222.77 100.987C222.939 101.256 223.308 101.364 223.592 101.217L224.108 100.964C224.4 100.818 224.761 100.933 224.915 101.217L228.844 108.23L231.889 113.659L232.004 116.78C232.019 117.256 232.427 117.656 232.911 117.656C233.603 117.656 234.341 117.119 234.549 116.465L239.793 100.018V98.4264L239.823 94.8662C239.823 94.2438 239.524 93.3287 239.147 92.8292L237.517 90.6686C237.141 90.1685 236.671 90.2452 236.479 90.8377L235.595 93.4978C235.395 94.0897 234.941 94.1592 234.58 93.6519L231.919 89.8921C231.558 89.3841 231.774 88.9152 232.396 88.8612L237.325 88.3923C237.948 88.3311 238.686 87.831 238.978 87.2775L239.785 85.7166C240.07 85.1631 240.501 85.1858 240.739 85.7627L242.945 91.1759L242.999 91.2988C242.999 91.1453 242.999 90.9912 243.007 90.8377C243.03 90.0683 243.045 89.2917 243.045 88.5152C243.045 56.0756 225.522 27.7341 199.426 12.4254L199.449 12.4561Z" fill="#FF902F"/>
<path d="M99.4691 123.07C99.9302 122.616 100.645 122.539 101.198 122.885L105.559 125.614L110.133 129.821C110.464 130.12 110.364 130.374 109.918 130.382L108.042 130.412C107.819 130.412 107.496 130.289 107.335 130.135L101.914 124.93L99.4535 124.253C99.0379 124.138 98.9071 123.615 99.2148 123.315C99.2993 123.231 99.3917 123.146 99.4762 123.062L99.4691 123.07Z" stroke="#FF902F" stroke-width="0.0650388" stroke-miterlimit="10" stroke-linecap="round" stroke-linejoin="round"/>
<path d="M113.155 132.027C112.748 131.843 112.14 131.927 111.794 132.219L111.395 132.565C111.057 132.858 111.087 133.281 111.471 133.511L113.763 134.903C114.147 135.134 114.816 135.279 115.262 135.226L118.353 134.849C118.799 134.796 118.83 134.603 118.422 134.411L113.163 132.02L113.155 132.027Z" stroke="#FF902F" stroke-width="0.0650388" stroke-miterlimit="10" stroke-linecap="round" stroke-linejoin="round"/>
<path d="M154.914 176.708C203.604 176.708 243.076 137.236 243.076 88.5465C243.076 39.8558 203.604 0.384521 154.914 0.384521C106.224 0.384521 66.7522 39.8558 66.7522 88.5465C66.7522 137.236 106.224 176.708 154.914 176.708Z" stroke="#0D1C4C" stroke-width="0.130078" stroke-miterlimit="10" stroke-linecap="round" stroke-linejoin="round"/>
<path d="M240.929 127.351C253.266 127.351 263.267 117.35 263.267 105.012C263.267 92.6758 253.266 82.6748 240.929 82.6748C228.592 82.6748 218.591 92.6758 218.591 105.012C218.591 117.35 228.592 127.351 240.929 127.351Z" fill="#0F3DFB"/>
<path d="M258.201 116.901C251.561 126.389 246.138 119.038 236.65 112.398C227.162 105.757 217.201 102.341 223.842 92.8534C230.482 83.3655 243.557 81.0566 253.045 87.6971C262.533 94.3382 264.842 107.413 258.201 116.901Z" fill="white"/>
<path d="M240.929 127.351C253.266 127.351 263.267 117.35 263.267 105.012C263.267 92.6758 253.266 82.6748 240.929 82.6748C228.592 82.6748 218.591 92.6758 218.591 105.012C218.591 117.35 228.592 127.351 240.929 127.351Z" stroke="#0D1C4C" stroke-width="0.195116" stroke-linecap="round" stroke-linejoin="round"/>
<path d="M238.592 116.058L231.273 113.47V102.85C231.273 95.8937 237.125 92.2776 244.278 94.8089L251.598 97.3974V108.017C251.598 114.973 245.746 118.589 238.592 116.058Z" fill="#FF902F"/>
<path d="M78.2498 197.513C95.407 197.513 109.316 183.604 109.316 166.447C109.316 149.289 95.407 135.38 78.2498 135.38C61.0925 135.38 47.1836 149.289 47.1836 166.447C47.1836 183.604 61.0925 197.513 78.2498 197.513Z" fill="white" stroke="#0D1C4C" stroke-width="0.195116" stroke-linecap="round" stroke-linejoin="round"/>
<path d="M78.2506 136.708C61.8283 136.708 48.5123 150.024 48.5123 166.446C48.5123 182.868 61.8283 196.185 78.2506 196.185C94.6729 196.185 107.988 182.868 107.988 166.446C107.988 150.024 94.6729 136.708 78.2506 136.708ZM73.9912 181.403C61.4504 173.022 47.4399 157.562 58.4008 146.601C69.3618 135.64 87.1349 135.64 98.0959 146.601C107.004 155.509 108.023 168.626 103.107 179.503C100.222 185.888 86.8793 190.021 73.9912 181.407V181.403Z" fill="#0F3DFB"/>
<path d="M75.1456 193.622C75.2848 192.977 73.9652 192.146 72.1994 191.766C70.4335 191.387 68.8895 191.601 68.7503 192.246C68.6118 192.892 69.9308 193.722 71.6973 194.102C73.4631 194.482 75.0071 194.267 75.1456 193.622Z" fill="white"/>
<path d="M100.329 144.598C105.542 151.624 63.0265 169 50.6037 167.569C47.3788 167.199 47.2414 165.893 47.207 165.294C47.1917 165.676 47.1765 166.061 47.1765 166.447C47.1765 174.766 50.451 182.315 55.7788 187.891C63.4922 193.624 108.217 176.202 109.297 167.057C109.301 166.855 109.313 166.653 109.313 166.447C109.313 157.925 105.881 150.208 100.325 144.598H100.329Z" fill="#0D1C4C" stroke="#0D1C4C" stroke-width="0.195116" stroke-linecap="round" stroke-linejoin="round"/>
<path d="M85.2181 168.584C66.5019 175.064 52.7286 184.075 55.7474 187.869C63.3801 193.693 108.434 176.129 109.312 166.992C108.801 163.332 99.3433 163.958 85.2181 168.584Z" fill="#0F3DFB" stroke="#0D1C4C" stroke-width="0.195116" stroke-linecap="round" stroke-linejoin="round"/>
<path d="M44.0972 75.9686C54.7394 75.9686 63.3665 67.3419 63.3665 56.6996C63.3665 46.0573 54.7394 37.4301 44.0972 37.4301C33.4551 37.4301 24.8279 46.0573 24.8279 56.6996C24.8279 67.3419 33.4551 75.9686 44.0972 75.9686Z" fill="white" stroke="#0D1C4C" stroke-width="0.195116" stroke-linecap="round" stroke-linejoin="round"/>
<path d="M58.4814 56.7986C57.4967 56.3368 56.3251 56.7986 55.9167 57.8062C54.4664 61.4013 50.1768 69.565 40.7462 70.9425C39.8837 71.0687 39.3837 71.9922 39.7539 72.7825C40.4943 74.3733 41.5935 74.53 42.0133 74.5261C42.1812 74.5261 42.3567 74.53 42.5247 74.545C47.4327 74.9762 52.4933 73.4003 56.3671 69.7594C58.9279 67.355 60.6226 64.3705 61.4428 61.2028C61.7289 60.096 61.3816 58.9168 60.542 58.1459C59.8935 57.5506 59.1531 57.1115 58.4852 56.7986H58.4814Z" fill="#0F3DFB"/>
<path d="M238.592 116.058L231.273 113.47V102.85C231.273 95.8937 237.124 92.2776 244.278 94.8089L251.598 97.3974V108.017C251.598 114.973 245.746 118.589 238.592 116.058Z" stroke="#0D1C4C" stroke-width="0.195116" stroke-linecap="round" stroke-linejoin="round"/>
<path d="M231.273 103.153V114.326L251.598 97.4164L244.278 94.6932C238.201 92.4305 231.273 95.8347 231.273 103.153Z" fill="#0D1C4C"/>
<path d="M235.719 104.798L250.963 110.515" stroke="#0D1C4C" stroke-width="0.195116" stroke-linecap="round" stroke-linejoin="round"/>
<path d="M45.5934 54.643C46.1255 52.9093 45.2765 51.5904 43.7059 51.6875C42.1353 51.7847 40.4239 53.2763 39.8918 55.01C39.3598 56.7438 40.2088 58.0626 41.7794 57.9655C43.3499 57.8684 45.0614 56.3768 45.5934 54.643Z" fill="#0D1C4C"/>
<path d="M37.9633 62.8779C37.9306 62.1762 38.5187 61.244 39.2789 60.8056L40.1841 60.2815C41.3258 59.6194 41.9626 60.0052 41.6041 61.1382L39.3674 68.1809C38.8248 69.879 38.3207 69.9746 38.2466 68.3883L37.9732 62.881L37.9633 62.8779Z" fill="#0D1C4C" stroke="#0D1C4C" stroke-width="0.195116" stroke-linecap="round" stroke-linejoin="round"/>
<path d="M50.86 52.4902C50.2174 53.0938 49.2622 53.3552 48.7391 53.0509L48.1036 52.6916C47.307 52.2418 47.5566 51.3635 48.6633 50.738L55.5161 46.8756C57.1733 45.9467 57.3414 46.3064 55.8929 47.6894L50.86 52.4902Z" fill="#0D1C4C" stroke="#0D1C4C" stroke-width="0.195116" stroke-linecap="round" stroke-linejoin="round"/>
<path d="M321.265 204.246L319.206 199.879L265.397 224.415L267.456 228.783C268.384 230.753 281.18 226.856 296.038 220.079C310.897 213.302 322.188 206.212 321.261 204.242L321.265 204.246Z" fill="#FF902F" stroke="#0D1C4C" stroke-width="0.195116" stroke-miterlimit="10"/>
<path d="M267.454 228.782C268.091 230.137 274.354 228.715 283.038 225.488L279.51 219.389L277.153 220.893L275.796 219.667L265.392 224.411L267.451 228.779L267.454 228.782Z" fill="#0D1C4C" stroke="#0D1C4C" stroke-width="0.195116" stroke-miterlimit="10"/>
<path d="M293.978 215.697C308.836 208.921 320.129 201.83 319.2 199.86C318.272 197.889 305.474 201.785 290.615 208.561C275.757 215.337 264.465 222.428 265.393 224.399C266.321 226.369 279.119 222.473 293.978 215.697Z" fill="#FF902F" stroke="#0D1C4C" stroke-width="0.195116" stroke-miterlimit="10"/>
<path d="M302.05 186.318L298.995 183.321L291.785 190.434C287.409 193.376 282.186 197.696 276.935 202.879C271.683 208.061 267.307 213.216 264.334 217.529L257.123 224.642L260.177 227.639C262.713 230.126 274.14 222.891 285.702 211.481C297.263 200.07 304.582 188.805 302.046 186.318H302.05Z" fill="#FF902F" stroke="#0D1C4C" stroke-width="0.195116" stroke-miterlimit="10"/>
<path d="M276.166 220.004L272.097 216.326L270.222 218.41L265.166 216.358C264.879 216.754 264.6 217.149 264.334 217.533L263.816 218.042L257.123 224.646L260.177 227.642C262 229.429 268.41 226.197 276.166 220.004Z" fill="#FF902F" stroke="#0D1C4C" stroke-width="0.195116" stroke-miterlimit="10"/>
<path d="M282.658 208.492C294.22 197.081 301.539 185.815 299.003 183.328C296.468 180.842 285.039 188.077 273.478 199.488C261.915 210.899 254.597 222.165 257.133 224.652C259.668 227.138 271.096 219.903 282.658 208.492Z" fill="#FF902F" stroke="#0D1C4C" stroke-width="0.195116" stroke-miterlimit="10"/>
<path d="M280.818 174.645L277.139 172.953L275.985 175.385C270.988 178.197 264.549 186.408 259.501 197.042C254.449 207.681 252.18 217.807 253.195 223.38L252.04 225.814L255.715 227.501C260.556 229.726 270.1 219.699 277.032 205.1C283.963 190.501 285.659 176.865 280.818 174.637V174.645Z" fill="#FF902F" stroke="#0D1C4C" stroke-width="0.195116" stroke-miterlimit="10"/>
<path d="M269.375 218.069L264.856 216.236L263.816 218.046L259.051 218.939L256.105 223.201L257.004 227.815C260.226 227.964 264.824 224.219 269.375 218.069Z" fill="#0D1C4C" stroke="#0D1C4C" stroke-width="0.195116" stroke-miterlimit="10"/>
<path d="M273.346 203.41C280.278 188.812 281.973 175.174 277.132 172.949C272.291 170.724 262.747 180.754 255.815 195.353C248.884 209.951 247.189 223.589 252.03 225.814C256.871 228.039 266.415 218.008 273.346 203.41Z" fill="#FF902F" stroke="#0D1C4C" stroke-width="0.195116" stroke-miterlimit="10"/>
<path d="M268.792 197.763C268.764 181.652 261.629 168.601 252.863 168.616L248.814 168.624V169.188C241.543 171.859 236.081 183.67 236.105 197.822C236.133 211.974 241.639 223.765 248.917 226.412V226.976L252.962 226.969H252.03C260.798 226.953 268.816 213.877 268.788 197.763H268.792Z" fill="#FF902F" stroke="#0D1C4C" stroke-width="0.195116" stroke-miterlimit="10"/>
<path d="M263.819 218.041L259.053 218.934L248.686 226.31C248.766 226.341 248.842 226.377 248.921 226.404V226.968L252.182 226.961C252.182 226.961 252.182 226.961 252.186 226.961C256.645 226.953 260.941 223.486 263.815 218.037L263.819 218.041Z" fill="#FF902F" stroke="#0D1C4C" stroke-width="0.195116" stroke-miterlimit="10"/>
<path d="M248.921 227.006C257.688 226.991 264.772 213.917 264.743 197.804C264.715 181.692 257.584 168.642 248.817 168.657C240.051 168.672 232.967 181.747 232.995 197.859C233.024 213.971 240.154 227.021 248.921 227.006Z" fill="#FF902F" stroke="#0D1C4C" stroke-width="0.195116" stroke-miterlimit="10"/>
<path d="M258.676 192.624C253.046 177.492 240.573 168.076 230.822 171.589L227.641 172.753L227.724 172.98C219.73 177.864 217.325 191.755 222.501 205.66C227.724 219.695 238.833 228.81 248.197 227.255L248.273 227.454L251.012 226.455L251.454 226.291C261.021 222.617 264.262 207.63 258.676 192.624Z" fill="#FF902F" stroke="#0D1C4C" stroke-width="0.195116" stroke-miterlimit="10"/>
<path d="M248.037 227.559C257.79 224.046 261.131 208.933 255.5 193.803C249.869 178.673 237.398 169.255 227.646 172.768C217.894 176.281 214.553 191.394 220.184 206.524C225.815 221.655 238.285 231.072 248.037 227.559Z" fill="#FF902F" stroke="#0D1C4C" stroke-width="0.195116" stroke-miterlimit="10"/>
<path d="M254.372 216.004L254.667 216.091L255.483 213.164C258.995 200.579 249.081 186.728 233.343 182.231C217.604 177.735 201.996 184.292 198.485 196.877L197.669 199.804L197.963 199.889C196.877 211.488 206.38 223.357 220.726 227.454C235.071 231.551 249.304 226.467 254.372 216.008V216.004Z" fill="#FF902F" stroke="#0D1C4C" stroke-width="0.195116" stroke-miterlimit="10"/>
<path d="M254.417 216.868C258.471 204.443 249.104 190.374 233.494 185.443C217.884 180.513 201.943 186.587 197.888 199.012C193.833 211.437 203.201 225.506 218.811 230.437C234.421 235.367 250.362 229.292 254.417 216.868Z" fill="#FF902F" stroke="#0D1C4C" stroke-width="0.195116" stroke-miterlimit="10"/>
<path d="M251.944 221.872C248.556 214.05 238.578 196.27 218.691 198.852L197.251 201.633C195.129 213.705 204.828 226.455 219.81 230.733C232.917 234.477 245.932 230.557 251.948 221.868L251.944 221.872Z" fill="#FF902F"/>
<path d="M227.573 195.432H227.557C225.363 195.138 223.237 195.354 221.179 196.063C220.04 196.458 218.973 197.026 217.974 197.763L216.17 196.701L213.351 198.06L215.943 199.584C215.852 199.682 215.76 199.776 215.672 199.874C215.529 200.035 215.401 200.195 215.27 200.36L212.256 198.585L209.441 199.948L213.845 202.537C213.379 203.474 213.093 204.406 213.001 205.338C212.817 207.156 213.24 208.871 214.271 210.481C215.302 212.092 216.839 213.498 218.877 214.696C220.426 215.609 221.951 216.24 223.452 216.596C224.005 216.725 224.551 216.827 225.084 216.897C225.996 217.019 226.88 217.05 227.732 216.999C229.082 216.913 230.308 216.647 231.415 216.212C232.522 215.777 233.445 215.221 234.194 214.543L228.712 211.284C227.815 211.97 226.788 212.311 225.618 212.307C225.367 212.307 225.112 212.287 224.861 212.256C223.942 212.134 223.01 211.798 222.071 211.245C220.462 210.297 219.562 209.126 219.359 207.724C219.275 207.136 219.343 206.529 219.55 205.899L223.133 208.006L225.929 206.631L220.832 203.635C220.96 203.474 221.091 203.309 221.234 203.149C221.322 203.047 221.414 202.957 221.505 202.859L227.012 206.098L229.802 204.719L223.667 201.112C224.372 200.708 225.108 200.426 225.877 200.277C226.601 200.136 227.322 200.113 228.035 200.211C228.998 200.34 229.954 200.681 230.897 201.237C232.135 201.966 232.927 202.804 233.262 203.744C233.601 204.688 233.469 205.616 232.88 206.533L238.382 209.772C239.358 208.339 239.808 206.893 239.728 205.432C239.645 203.971 239.099 202.577 238.088 201.241C237.076 199.905 235.667 198.703 233.843 197.633C231.845 196.458 229.75 195.722 227.565 195.432" fill="#0D1C4C"/>
<path d="M254.417 216.868C258.471 204.443 249.104 190.374 233.494 185.443C217.884 180.513 201.943 186.587 197.888 199.012C193.833 211.437 203.201 225.506 218.811 230.437C234.421 235.367 250.362 229.292 254.417 216.868Z" stroke="#0D1C4C" stroke-width="0.195116" stroke-miterlimit="10"/>
<path d="M247.353 209.373L247.571 209.162L245.306 206.905C236.61 198.253 220.123 200.427 208.478 211.755C196.832 223.083 194.439 239.28 203.135 247.932L205.4 250.189L205.619 249.977C214.713 256.123 229.349 253.409 239.959 243.083C250.573 232.758 253.499 218.391 247.353 209.377V209.373Z" fill="#FF902F" stroke="#0D1C4C" stroke-width="0.195116" stroke-miterlimit="10"/>
<path d="M203.136 247.933L206.078 250.819L213.117 243.843L198.466 229.264C196.98 236.381 198.442 243.256 203.14 247.929L203.136 247.933Z" fill="#0D1C4C" stroke="#0D1C4C" stroke-width="0.195116" stroke-miterlimit="10"/>
<path d="M242.215 245.316C253.86 233.987 256.251 217.789 247.555 209.139C238.86 200.487 222.371 202.659 210.726 213.988C199.081 225.318 196.69 241.515 205.385 250.166C214.081 258.817 230.57 256.645 242.215 245.316Z" fill="#FF902F"/>
<path d="M249.212 236.096L245.605 233.965L238.455 248.563C239.753 247.588 241.015 246.511 242.225 245.336C245.143 242.496 247.481 239.351 249.208 236.096H249.212Z" fill="white"/>
<path d="M236.747 249.781L237.264 251.007L238.459 248.567C237.894 248.99 237.324 249.398 236.747 249.781Z" fill="white"/>
<path d="M242.229 245.34C248.762 238.987 252.381 231.101 252.768 223.874C247.679 220.635 240.055 218.097 233.183 219.742C223.388 222.088 214.681 230.012 208.438 245.105L206.074 250.82C214.924 258.721 230.877 256.382 242.229 245.34Z" fill="#FF902F"/>
<path d="M225.814 235.092L224.794 232.014L230.798 229.26C232.068 228.676 233.008 228.876 233.339 229.883C233.677 230.909 233.087 231.759 231.817 232.339L225.814 235.092ZM223.811 229.044L222.828 226.075L228.541 223.454C229.739 222.906 230.643 223.094 230.961 224.054C231.28 225.013 230.723 225.875 229.524 226.424L223.811 229.044ZM225.758 217.528L222.939 218.821L223.962 221.912L221.784 222.91L220.761 219.819L217.943 221.112L218.966 224.203L216.509 225.331L213.3 226.804L214.347 229.969L217.556 228.496L220.518 237.446L217.309 238.919L218.356 242.088L221.565 240.616L224.022 239.487L225.029 242.527L227.848 241.234L226.84 238.195L229.019 237.196L230.026 240.236L232.845 238.943L231.837 235.903L233.796 235.006C237.801 233.169 239.573 230.447 238.721 227.869C238.144 226.122 236.687 225.382 234.564 225.675C235.978 224.25 236.464 222.667 235.966 221.159C235.134 218.649 232.327 218.076 228.349 219.902L226.781 220.623L225.758 217.532" fill="#0D1C4C"/>
<path d="M242.215 245.316C253.86 233.987 256.251 217.789 247.555 209.139C238.86 200.487 222.371 202.659 210.726 213.988C199.081 225.318 196.69 241.515 205.385 250.166C214.081 258.817 230.57 256.645 242.215 245.316Z" stroke="#0D1C4C" stroke-width="0.195116" stroke-miterlimit="10"/>
<path d="M265.101 243.636C262.633 229.378 252.62 218.876 241.778 218.355L241.711 217.959L238.052 218.571C225.861 220.611 218.208 235.143 220.956 251.027C223.707 266.911 235.814 278.133 248.005 276.088L251.664 275.478L251.597 275.082C261.654 271.059 267.57 257.894 265.101 243.631V243.636Z" fill="#FF902F" stroke="#0D1C4C" stroke-width="0.195116" stroke-miterlimit="10"/>
<path d="M260.87 267.228L260.934 255.011L225.881 264.118C231.164 272.567 239.565 277.511 248.006 276.097L251.665 275.486L251.598 275.09C255.332 273.597 258.497 270.836 260.874 267.232L260.87 267.228Z" fill="#0D1C4C" stroke="#0D1C4C" stroke-width="0.195116" stroke-miterlimit="10"/>
<path d="M224.492 261.674C225.658 263.942 227.04 266.006 228.585 267.823L240.401 265.845L239.251 259.202L224.492 261.674Z" fill="#FF902F" stroke="#0D1C4C" stroke-width="0.195116" stroke-miterlimit="10"/>
<path d="M224.304 261.306L228.608 260.624L230.993 263.95L226.239 264.675L224.304 261.306Z" fill="#0D1C4C"/>
<path d="M251.664 275.522C263.855 273.481 271.51 258.949 268.762 243.065C266.014 227.181 253.904 215.959 241.712 218.001C229.521 220.042 221.866 234.574 224.614 250.458C227.362 266.342 239.473 277.564 251.664 275.522Z" fill="#FF902F"/>
<path d="M268.76 243.025C267.765 237.279 265.547 232.144 262.541 228.027C255.49 224.411 234.464 228.52 234.416 259.716L234.401 269.485C239.329 274.146 245.489 276.52 251.668 275.486C263.859 273.445 271.511 258.912 268.765 243.029L268.76 243.025Z" fill="#FF902F"/>
<path d="M258.357 240.808L253.452 238.175L247.154 245.042L246.998 244.956L245.608 233.969L240.704 231.336L242.782 244.819L240.513 243.601L239.804 246.076L243.264 247.929L243.442 249.108L243.435 249.132L239.565 247.052L238.856 249.527L242.754 251.619L241.487 256.233L245.848 258.571L247.117 253.961L251.016 256.053L251.696 253.561L247.802 251.474L247.811 251.446L248.507 250.745L251.963 252.598L252.644 250.111L250.354 248.881L258.357 240.808Z" fill="#0D1C4C"/>
<path d="M251.664 275.522C263.855 273.481 271.51 258.949 268.762 243.065C266.014 227.181 253.904 215.959 241.712 218.001C229.521 220.042 221.866 234.574 224.614 250.458C227.362 266.342 239.473 277.564 251.664 275.522Z" stroke="#0D1C4C" stroke-width="0.195116" stroke-miterlimit="10"/>
<path d="M279.376 246.915C273.698 234.764 264.27 226.64 256.53 226.467L256.104 225.551L252.207 227.313C243.993 231.027 242.842 245.821 249.634 260.361C256.427 274.902 268.59 283.676 276.804 279.963L280.701 278.2L280.275 277.283C285.181 271.392 285.053 259.061 279.38 246.911L279.376 246.915Z" fill="#FF902F" stroke="#0D1C4C" stroke-width="0.195116" stroke-miterlimit="10"/>
<path d="M276.804 279.962L280.702 278.2L280.276 277.283C283.56 273.339 284.588 266.507 283.202 258.775L254.604 268.775C261.42 278.059 270.338 282.884 276.808 279.962H276.804Z" fill="#0D1C4C" stroke="#0D1C4C" stroke-width="0.195116" stroke-miterlimit="10"/>
<path d="M258.959 273.84L263.001 272.241L264.951 274.02L260.827 275.583L258.959 273.84Z" fill="#FF902F" stroke="#0D1C4C" stroke-width="0.195116" stroke-miterlimit="10"/>
<path d="M261.169 261.697L252.234 265.227C253.715 267.675 255.348 269.896 257.067 271.843L264.162 269.038L261.164 261.697H261.169Z" fill="#0D1C4C" stroke="#0D1C4C" stroke-width="0.195116" stroke-miterlimit="10"/>
<path d="M280.708 278.236C288.92 274.524 290.071 259.727 283.28 245.187C276.489 230.646 264.326 221.868 256.114 225.581C247.902 229.293 246.751 244.09 253.542 258.631C260.334 273.171 272.496 281.949 280.708 278.236Z" fill="#FF902F"/>
<path d="M270.477 237.999L267.324 236.295L267.412 239.511C266.795 239.311 266.221 239.213 265.688 239.213C264.684 239.213 263.908 239.558 263.359 240.235C262.809 240.917 262.554 241.92 262.595 243.248C262.634 244.861 263.096 246.378 263.98 247.791C264.864 249.202 266.058 250.526 267.551 251.748L269.366 253.24C270.318 254.02 271.023 254.713 271.477 255.312C271.931 255.912 272.166 256.507 272.19 257.106C272.201 257.753 271.974 258.156 271.517 258.313C271.055 258.466 270.41 258.321 269.574 257.87C268.654 257.372 267.906 256.711 267.324 255.876C266.743 255.046 266.416 254.106 266.345 253.052L262.359 250.898C262.455 253.404 263.164 255.61 264.498 257.525C265.449 258.892 266.611 260.064 267.989 261.051L268.077 264.235L271.23 265.939L271.147 262.817C272.624 263.416 273.818 263.538 274.722 263.162C275.896 262.676 276.458 261.419 276.409 259.394C276.362 257.69 275.868 256.064 274.932 254.525C274.001 252.982 272.679 251.517 270.967 250.134L269.474 248.915C268.69 248.289 268.065 247.674 267.595 247.067C267.125 246.459 266.89 245.845 266.89 245.222C266.883 244.646 267.073 244.27 267.467 244.114C267.861 243.953 268.463 244.094 269.267 244.528C270.079 244.967 270.713 245.52 271.166 246.186C271.616 246.852 271.883 247.58 271.959 248.375L275.944 250.53C275.896 249.19 275.585 247.873 275.016 246.573C274.447 245.276 273.663 244.086 272.663 242.989C272.03 242.3 271.333 241.685 270.565 241.145L270.481 238.002" fill="#0D1C4C"/>
<path d="M280.708 278.236C288.92 274.524 290.071 259.727 283.28 245.187C276.489 230.646 264.326 221.868 256.114 225.581C247.902 229.293 246.751 244.09 253.542 258.631C260.334 273.171 272.496 281.949 280.708 278.236Z" stroke="#0D1C4C" stroke-width="0.195116" stroke-miterlimit="10"/>
<path d="M314.672 257.663L317.048 252.88L263.761 227.266L261.384 232.049C260.647 233.529 271.983 240.467 286.694 247.537C301.409 254.611 313.935 259.143 314.672 257.663Z" fill="#FF902F" stroke="#0D1C4C" stroke-width="0.195116" stroke-miterlimit="10"/>
<path d="M276.907 233.584L263.76 227.266L261.384 232.049C260.898 233.028 265.684 236.389 273.233 240.6L276.903 233.584H276.907Z" fill="#FF902F" stroke="#0D1C4C" stroke-width="0.195116" stroke-miterlimit="10"/>
<path d="M276.907 233.584L273.109 231.759L269.582 238.5C270.708 239.17 271.93 239.871 273.236 240.599L276.907 233.584Z" fill="#0D1C4C" stroke="#0D1C4C" stroke-width="0.195116" stroke-miterlimit="10"/>
<path d="M266.448 236.565C267.029 236.938 267.65 237.329 268.311 237.733L271.644 231.055L269.792 230.165L266.444 236.565H266.448Z" fill="#0D1C4C"/>
<path d="M317.064 252.888C317.799 251.406 306.467 244.472 291.753 237.398C277.038 230.325 264.513 225.791 263.778 227.273C263.042 228.754 274.374 235.688 289.089 242.762C303.804 249.835 316.329 254.369 317.064 252.888Z" fill="#FF902F" stroke="#0D1C4C" stroke-width="0.195116" stroke-miterlimit="10"/>
<path d="M291.733 237.387C286.04 234.654 280.677 232.296 276.198 230.521L272.348 232.08C282.592 237.239 298.59 244.45 310.099 247.176C305.525 244.384 299.047 240.902 291.733 237.387Z" fill="#FF902F"/>
<path d="M317.064 252.888C317.799 251.406 306.467 244.472 291.753 237.398C277.038 230.325 264.513 225.791 263.778 227.273C263.042 228.754 274.374 235.688 289.089 242.762C303.804 249.835 316.329 254.369 317.064 252.888Z" stroke="#0D1C4C" stroke-width="0.195116" stroke-miterlimit="10"/>
<path d="M271.732 226.643L271.525 231.696L330.784 234.027L330.991 228.974C331.023 228.152 317.785 226.961 301.421 226.314C285.058 225.672 271.764 225.817 271.732 226.639V226.643Z" fill="#FF902F" stroke="#0D1C4C" stroke-width="0.195116" stroke-miterlimit="10"/>
<path d="M330.785 234.026C330.819 233.202 317.58 232.012 301.216 231.368C284.851 230.725 271.559 230.871 271.525 231.694C271.492 232.518 284.73 233.707 301.095 234.351C317.459 234.995 330.752 234.849 330.785 234.026Z" fill="#FF902F" stroke="#0D1C4C" stroke-width="0.195116" stroke-miterlimit="10"/>
<path d="M39.1831 48.953C39.8282 49.0605 40.2024 49.7585 40.0195 50.5167L39.7944 51.4129C39.5079 52.5416 38.6823 53.0222 37.9586 52.4885L33.4257 49.1267C32.3278 48.3173 32.6379 47.8594 34.0978 48.1063L39.1894 48.965L39.1831 48.953Z" fill="#0D1C4C" stroke="#0D1C4C" stroke-width="0.195116" stroke-linecap="round" stroke-linejoin="round"/>
</g>
<defs>
<clipPath id="clip0_135_2085">
<rect width="336.121" height="285" fill="white" transform="translate(-5)"/>
</clipPath>
</defs>
</svg>
