<svg width="20" height="19" viewBox="0 0 20 19" fill="none" xmlns="http://www.w3.org/2000/svg">
<path d="M8.57743 8.05811C9.19576 8.67644 9.19576 9.67895 8.57743 10.2973C7.9591 10.9156 6.95659 10.9156 6.33826 10.2973C5.71993 9.67895 5.71993 8.67644 6.33826 8.05811C6.95659 7.43978 7.9591 7.43978 8.57743 8.05811" stroke="white" stroke-width="1.1875" stroke-linecap="round" stroke-linejoin="round"/>
<path d="M12.6038 8.7076H15.7704" stroke="white" stroke-width="1.1875" stroke-linecap="round" stroke-linejoin="round"/>
<path d="M14.9788 11.4785H12.6038" stroke="white" stroke-width="1.1875" stroke-linecap="round" stroke-linejoin="round"/>
<path d="M10.2287 14.2824C10.0941 13.9444 9.88589 13.6404 9.6183 13.3926V13.3926C9.16626 12.9738 8.57251 12.7402 7.9558 12.7402H6.95989C6.34318 12.7402 5.74943 12.973 5.29739 13.3926V13.3926C5.0298 13.6396 4.8216 13.9436 4.68701 14.2824" stroke="white" stroke-width="1.1875" stroke-linecap="round" stroke-linejoin="round"/>
<path fill-rule="evenodd" clip-rule="evenodd" d="M11.0203 5.54097H9.43693C8.99993 5.54097 8.64526 5.18631 8.64526 4.74931V2.37431C8.64526 1.93731 8.99993 1.58264 9.43693 1.58264H11.0203C11.4573 1.58264 11.8119 1.93731 11.8119 2.37431V4.74931C11.8119 5.18631 11.4573 5.54097 11.0203 5.54097Z" stroke="white" stroke-width="1.1875" stroke-linecap="round" stroke-linejoin="round"/>
<path d="M8.64534 3.95764H3.9278C3.03559 3.95764 2.31201 4.68122 2.31201 5.57343V15.041C2.31201 15.9158 3.02055 16.6243 3.89534 16.6243H16.562C17.4368 16.6243 18.1453 15.9158 18.1453 15.041V5.54097C18.1453 4.66618 17.4368 3.95764 16.562 3.95764H11.812" stroke="white" stroke-width="1.1875" stroke-linecap="round" stroke-linejoin="round"/>
</svg>
